<?xml version="1.0" encoding="utf-8"?>
<!-- Generator: Adobe Illustrator 22.0.1, SVG Export Plug-In . SVG Version: 6.00 Build 0)  -->
<svg version="1.1" id="Layer_1" xmlns="http://www.w3.org/2000/svg" xmlns:xlink="http://www.w3.org/1999/xlink" x="0px" y="0px"
	 viewBox="0 0 254.8 41.4" style="enable-background:new 0 0 254.8 41.4;" xml:space="preserve">
<style type="text/css">
	.st0{fill:none;}
	.st1{fill-rule:evenodd;clip-rule:evenodd;fill:#E8B716;}
</style>
<g>
	<path class="st0" d="M6.3,41.3c19.7-4.1,39.8-6.7,60.1-8.3c20.3-1.6,40.7-2.2,61.2-2c40.9,0.5,81.9,4.1,122.5,10.4l4.8-30.6
		c-42-6.5-84.3-10.3-126.9-10.8c-21.3-0.2-42.6,0.4-64,2.1C42.6,3.8,21.2,6.6,0,11L6.3,41.3z"/>
	<path class="st1" d="M249.1,23.8c-0.2-0.3-0.4-0.3-0.7-0.2C248.6,23.6,248.8,23.9,249.1,23.8z"/>
	<path class="st1" d="M248.3,24.3c-0.2,0-0.4-0.4-0.7-0.2C247.9,24.2,248,24.6,248.3,24.3z"/>
	<path class="st1" d="M246.8,22.8c-0.2-0.2-0.3,0-0.6,0c0.1,0.2,0.2,0.2,0.3,0.3C246.7,23,246.6,22.9,246.8,22.8z"/>
	<path class="st1" d="M241,16.2l-0.2-0.3c-0.2,0.2-0.3,0-0.5,0.2C240.5,16.3,240.7,16.4,241,16.2z"/>
	<path class="st1" d="M247.1,24c0.1-0.2-0.3-0.5-0.5-0.3c0,0.2,0.2,0.1,0.3,0.4C246.9,24,247,23.9,247.1,24z"/>
	<path class="st1" d="M240,15.8c-0.3,0-0.3-0.3-0.4-0.5c-0.2,0.2-0.1,0.4,0,0.7L240,15.8z"/>
	<path class="st1" d="M243,21.5c0.1-0.2-0.4-0.4-0.6-0.1C242.5,21.7,242.8,21.3,243,21.5z"/>
	<path class="st1" d="M237.2,14.8c-0.1,0-0.3,0-0.2-0.1c-0.1-0.2-0.3,0.1-0.5,0.2c-0.1-0.3-0.3-0.4-0.6-0.6c-0.1,0.5-0.6,0.4-1,0.5
		c0.2,0.1,0.5,0,0.6,0.3c0.1-0.3,0.2-0.2,0.5-0.3c0,0.1,0,0.2,0.1,0.3c0.2-0.1,0.4-0.1,0.6,0.1C237,15.1,237.2,15,237.2,14.8z"/>
	<path class="st1" d="M242,21.2l-0.2-0.3c0,0.1-0.1,0.3-0.3,0.1C241.4,21.1,241.8,21.4,242,21.2z"/>
	<path class="st1" d="M240.8,22.7c-0.2-0.1-0.4-0.1-0.7,0.1C240.3,22.9,240.7,23,240.8,22.7z"/>
	<path class="st1" d="M231.2,12.4c-0.2-0.2-0.6-0.2-0.6,0C230.8,12.4,231,12.5,231.2,12.4z"/>
	<path class="st1" d="M238.6,22.2c-0.2-0.1-0.4-0.4-0.7-0.1C238.1,22.2,238.3,22.3,238.6,22.2z"/>
	<path class="st1" d="M231.5,16.7c-0.3-0.2-0.3,0.1-0.7,0.2c0.1,0,0.2,0.1,0.3,0.2C231.3,16.7,231.6,17.1,231.5,16.7z"/>
	<path class="st1" d="M235.9,22.6c-0.1,0.2,0.4,0.3,0.5,0.6C236.6,23,236.1,22.7,235.9,22.6z"/>
	<path class="st1" d="M233.3,21.7c-0.3,0-0.5-0.2-0.8,0c0.3,0.1,0.6,0.2,0.8,0.4C233.7,22,233.1,21.8,233.3,21.7z"/>
	<path class="st1" d="M226.1,13.2c0.2-0.4-0.4-0.1-0.6-0.2C225.4,13.3,226,13.2,226.1,13.2z"/>
	<path class="st1" d="M225.4,14.5c0.1,0.3,0.4-0.1,0.5,0.3c0.2-0.1,0.2-0.3,0.1-0.5C225.7,14.5,225.4,14.2,225.4,14.5z"/>
	<path class="st1" d="M221.7,10.1c-0.3-0.2-0.5-0.3-0.8-0.2C221.1,10,221.4,10.1,221.7,10.1z"/>
	<path class="st1" d="M234.5,25.6c-0.1-0.3-0.3-0.1-0.4-0.3c-0.3,0.1-0.1,0.3,0.1,0.5L234.5,25.6z"/>
	<path class="st1" d="M232.8,23.7c-0.1-0.3-0.4-0.3-0.5-0.4C232.1,23.5,232.6,23.9,232.8,23.7z"/>
	<path class="st1" d="M233,25.1c0-0.1-0.1-0.1-0.1,0c-0.5-0.4-1.2-0.2-1.7-0.6c-0.4,0.2-0.2,0.4-0.4,0.6c0.3,0.2,0.3-0.2,0.6-0.1
		c0.2,0.2,0,0.3,0.3,0.4c0.1-0.3,0.5-0.2,0.8-0.3c0.1,0.3,0.3,0.2,0.5,0.4C233.1,25.4,232.6,25.2,233,25.1z"/>
	<path class="st1" d="M221.9,13.4c0.1,0.1-0.3,0.2-0.4,0.1c-0.2,0.3,0.3,0,0.3,0.2c0.3-0.1,0.2-0.3,0.3-0.4
		c-0.2-0.2-0.4-0.3-0.6-0.4C221.3,13.1,221.7,13.3,221.9,13.4z"/>
	<path class="st1" d="M237.1,31.7c-0.2-0.2-0.4-0.5-0.7-0.3C236.6,31.5,236.8,31.8,237.1,31.7z"/>
	<path class="st1" d="M237.1,32.1c0.2-0.2-0.3-0.3-0.5-0.2C236.7,32.3,236.9,32,237.1,32.1z"/>
	<path class="st1" d="M236.1,31.4c-0.2,0.1-0.2,0.3-0.3,0.4c0.1,0.1,0.2,0,0.4,0.1C236.3,31.8,236.2,31.6,236.1,31.4z"/>
	<path class="st1" d="M220.9,13.3c0.1-0.4-0.6-0.2-0.8-0.4C219.9,13.3,220.7,13.3,220.9,13.3z"/>
	<path class="st1" d="M238,36c-0.2-0.1-0.6,0-1,0.3C237.3,36.2,237.6,36.3,238,36z"/>
	<path class="st1" d="M218.1,12.5c0,0.2,0.3,0.5,0.6,0.3C218.7,12.7,218.4,12.3,218.1,12.5z"/>
	<path class="st1" d="M232,28.8c-0.2-0.3-1.1-0.2-0.7,0.2C231.5,28.7,231.7,28.9,232,28.8z"/>
	<path class="st1" d="M227.5,23.9c0-0.3-0.7-0.5-1-0.2c0.1,0.1,0.1,0.2,0,0.3C226.7,24.4,227.2,23.7,227.5,23.9z"/>
	<path class="st1" d="M234.5,33.3c-0.2-0.4-0.5-0.4-0.9-0.3C233.9,33,234.1,33.5,234.5,33.3z"/>
	<path class="st1" d="M216.7,12.1c-0.1,0-0.2-0.1-0.1-0.1c-0.5,0.2-0.9-0.3-1.5,0C215.9,12,216.1,12.8,216.7,12.1z"/>
	<path class="st1" d="M228.8,28c-0.1-0.3-0.4,0-0.6,0.1c0.1,0,0.2,0.1,0.3,0.2C228.5,28.2,228.6,28.1,228.8,28z"/>
	<path class="st1" d="M215,11.9c0.2-0.2-0.2-0.1-0.3-0.3c0.1,0.4-0.3,0-0.6,0.2c0.1,0.4,0.4-0.2,0.5,0.1
		C214.8,11.9,214.9,11.8,215,11.9z"/>
	<path class="st1" d="M214.1,11.6c-0.5-0.2-0.5-0.7-0.9-0.5c0.4,0.3-0.2,0.4,0.2,0.7C213.5,11.4,213.8,11.8,214.1,11.6z"/>
	<path class="st1" d="M228,30.7c-0.3-0.1-0.9,0-0.6,0.3C227.8,30.9,227.9,31,228,30.7z"/>
	<path class="st1" d="M211.5,11.3c-0.3-0.3-0.6-0.1-0.9-0.3c-0.1-0.2,0.1-0.3,0.3-0.4c-0.5-0.2-0.6,0.4-1.3,0.2
		c0.1,0.3,0.1,0.2,0.4,0.4c0.4-0.2-0.1-0.1-0.2-0.3C210.5,10.9,210.9,11.4,211.5,11.3z"/>
	<path class="st1" d="M217.7,21.1c-0.3-0.2-0.7,0-0.9,0.2C217.1,21.4,217.5,21.4,217.7,21.1z"/>
	<path class="st1" d="M221.7,26.3c-0.3-0.1-0.1-0.1-0.3-0.3c-0.2,0.1-0.1,0.3-0.2,0.4C221.5,26.5,221.6,26.4,221.7,26.3z"/>
	<path class="st1" d="M215,24.5c-0.3-0.1-0.6-0.2-1,0C214.4,24.5,214.9,24.8,215,24.5z"/>
	<path class="st1" d="M218.4,32.5c-0.1-0.2-0.3-0.1-0.5-0.3c-0.3,0.1,0.4,0.3,0.1,0.4C218.1,32.8,218.3,32.6,218.4,32.5z"/>
	<path class="st1" d="M221.6,36.6c-0.3-0.2-0.6-0.1-0.9,0.1C221,36.6,221.5,36.8,221.6,36.6z"/>
	<path class="st1" d="M207.6,21.4l-0.3-0.3c0,0.1-0.1,0.2-0.2,0.1C207,21.4,207.5,21.6,207.6,21.4z"/>
	<path class="st1" d="M216.4,33.6c-0.3-0.3-0.6-0.1-0.9-0.5c-0.2,0.1,0,0.3,0,0.5c-0.2,0.1-0.5-0.2-0.5,0.1c0.2,0.1,0.4-0.1,0.5,0.1
		C215.7,33.5,216,33.9,216.4,33.6z"/>
	<path class="st1" d="M206,22.6c-0.1,0-0.2-0.2-0.4-0.1c-0.3,0.1-0.1,0.4,0.2,0.5C206.1,22.9,205.6,22.7,206,22.6z"/>
	<path class="st1" d="M212.1,33.2c0-0.3-0.9-0.6-1-0.2C211.4,33.1,211.8,33,212.1,33.2z"/>
	<path class="st1" d="M212.4,35.5c-0.2-0.2-0.5-0.2-0.8,0C211.9,35.5,212.1,35.7,212.4,35.5z"/>
	<path class="st1" d="M208.6,31.7c-0.2-0.1-0.5-0.3-0.7-0.1C208.1,31.7,208.3,31.8,208.6,31.7z"/>
	<path class="st1" d="M206,30.8c-0.2-0.1-0.4,0-0.5-0.1c-0.1,0.1,0.1,0.2,0.2,0.3L206,30.8z"/>
	<path class="st1" d="M204.9,30.8c-0.2-0.3-0.4-0.1-0.6-0.2C204.2,30.7,204.7,31.1,204.9,30.8z"/>
	<path class="st1" d="M195.4,20.6c-0.1,0-0.1,0.1,0,0.1c-0.1,0.1-0.2-0.1-0.3-0.2c-0.2,0.1-0.2,0.4-0.4,0.3
		c-0.3,0.2,0.4,0.1,0.1,0.3C195,21.1,195.7,21,195.4,20.6z"/>
	<path class="st1" d="M194.5,20.9c-0.1-0.1-0.2-0.1-0.3,0c-0.1-0.1-0.2-0.2-0.1-0.3c-0.1-0.1-0.3,0.1-0.4,0.1l0.3,0.4
		C194.2,20.9,194.3,21.1,194.5,20.9z"/>
	<path class="st1" d="M193,19.5c-0.2-0.1-0.4-0.1-0.6,0C192.5,19.8,192.7,19.7,193,19.5z"/>
	<path class="st1" d="M200.9,29.4c-0.3-0.1-0.3,0.3-0.2,0.5C201.1,29.9,200.9,29.6,200.9,29.4z"/>
	<path class="st1" d="M201.4,30.2c-0.4-0.2-0.9-0.4-1.1,0C200.7,30.2,201,30.6,201.4,30.2z"/>
	<path class="st1" d="M200.4,29.4c-0.3,0-0.5-0.1-0.8,0c0.2,0.1,0.5,0.1,0.7,0.2C200.4,29.6,200.3,29.4,200.4,29.4z"/>
	<path class="st1" d="M199.3,28.1c-0.7,0-0.8-0.2-0.5,0.5C199.2,28.5,199.2,28.3,199.3,28.1z"/>
	<path class="st1" d="M190.7,19.3c-0.2-0.2-0.5-0.3-0.7-0.1C190.2,19.3,190.4,19.5,190.7,19.3z"/>
	<path class="st1" d="M187.1,18.3c-0.8,0.3-1.3-0.1-1.8,0.4c0.6,0,1.1,0.1,1.7-0.1c0.1,0.1-0.1,0.2-0.2,0.2
		C187.3,19.1,187.4,18.6,187.1,18.3z"/>
	<path class="st1" d="M194.8,28.2c-0.4-0.2-0.2,0.5-0.4,0.3C194.3,28.8,194.9,28.3,194.8,28.2z"/>
	<path class="st1" d="M194.4,28.3c-0.2-0.1-0.4-0.1-0.7,0.1C193.9,28.5,194.1,28.5,194.4,28.3z"/>
	<path class="st1" d="M183.6,18.4l-0.3-0.3c-0.2,0.1-0.1,0.2-0.3,0.3C183.2,18.4,183.4,18.5,183.6,18.4z"/>
	<path class="st1" d="M189.6,26.1c-0.1,0.1,0,0.3-0.3,0.4C189.7,26.6,190.2,26.2,189.6,26.1z"/>
	<path class="st1" d="M178.6,30.5c-0.3-0.4-0.6,0-0.7,0.2C178.1,30.8,178.4,30.6,178.6,30.5z"/>
	<path class="st1" d="M171.2,29.4c-0.3-0.3-0.3,0.3-0.7,0c-0.1-0.3,0.3-0.1,0.4-0.3c-0.3-0.2-0.6,0-0.7,0.3c0.2,0,0.3,0.1,0.3,0.3
		c-0.4,0.3-0.6-0.2-1,0.1c0.2,0,0.4,0,0.5,0.2c0.5-0.3,0.8-0.1,1,0.1C171.1,29.9,170.7,29.6,171.2,29.4z"/>
	<path class="st1" d="M168.4,29.3l-0.3-0.3c-0.3,0.2-0.3,0.1-0.5,0.3c0.2,0.2,0.7-0.3,0.4,0.2C168.2,29.7,168.3,29.4,168.4,29.3z"/>
	<path class="st1" d="M167.3,28.9c0,0.2-0.3,0.3-0.5,0.5l0.2,0.2c0.1-0.1,0.2-0.1,0.2,0c0-0.2-0.1-0.2,0.3-0.3
		C167.3,29.1,167.4,29,167.3,28.9z"/>
	<path class="st1" d="M166.1,28.5c-0.3,0.2-0.5,0-0.8,0.2c0.3,0.2,0.7-0.1,0.9,0.3C166.5,28.7,166.2,28.8,166.1,28.5z"/>
	<path class="st1" d="M164.9,29c0.2-0.1,0.3-0.3,0.1-0.4c-0.1,0-0.2,0-0.3,0.1C164.7,28.8,164.7,28.9,164.9,29z"/>
	<path class="st1" d="M164.7,28.8c-0.1-0.1,0-0.2-0.2-0.3c-0.2,0.1-0.1,0.3-0.2,0.2c-0.1,0.1,0.1,0.2,0.2,0.3L164.7,28.8z"/>
	<path class="st1" d="M164.2,29.3c0.1-0.1-0.5-0.6-0.7-0.3C163.7,29.1,163.9,29.3,164.2,29.3z"/>
	<path class="st1" d="M159.9,28.2c-0.2,0.2-0.4,0.1-0.6,0.3c0.1,0.3,0.4,0,0.5,0.2C160,28.6,160.2,28.4,159.9,28.2z"/>
	<path class="st1" d="M157.6,28.2c-0.2-0.2-0.4-0.2-0.6-0.1l0.3,0.3L157.6,28.2z"/>
	<path class="st1" d="M156.2,28c-0.3-0.1-0.6-0.1-0.9-0.2c-0.3,0.1,0.4,0.3,0.2,0.5c0.2,0.1,0.2-0.1,0.2-0.2
		C155.9,28,156,28.2,156.2,28z"/>
	<path class="st1" d="M155.2,28.6c-0.2-0.1-0.4,0.1-0.5,0c0,0.2,0.2,0.3,0.5,0.4C155.3,28.9,155,28.7,155.2,28.6z"/>
	<path class="st1" d="M153.6,27.5c-0.5,0.3-0.9-0.1-1.3-0.1c-0.3,0.4,0.5,0.5,0.7,0.8c0.1-0.4,0-0.4,0.5-0.5
		c0.3,0.3,0.2,0.5,0.6,0.5C154.1,27.9,153.9,27.8,153.6,27.5z"/>
	<path class="st1" d="M153.4,28.3c-0.3-0.1-0.6,0-1-0.1C152.5,28.4,153.1,28.7,153.4,28.3z"/>
	<path class="st1" d="M151.8,28.5c-0.1-0.1-0.2-0.1-0.4-0.2c-0.2,0.2,0.1,0.4-0.1,0.6c0.1,0.1,0.3,0,0.5-0.1
		C151.5,28.5,151.5,28.7,151.8,28.5z"/>
	<path class="st1" d="M149.7,28.4c-0.1-0.2-0.2-0.1-0.4-0.2c0,0.2-0.2,0.3,0,0.5C149.4,28.4,149.5,28.6,149.7,28.4z"/>
	<path class="st1" d="M124.1,25.4c-0.4-0.2-0.7-0.1-1.1,0.1c0.3,0.1,0.6,0.3,0.9,0.4C124,25.8,124,25.6,124.1,25.4z"/>
	<path class="st1" d="M116.8,26.4c-0.2-0.3-0.3,0-0.5-0.1C116.1,26.5,116.6,26.6,116.8,26.4z"/>
	<path class="st1" d="M109.2,25.8c0-0.3-0.6-0.3-0.9,0C108.6,25.9,108.9,25.8,109.2,25.8z"/>
	<path class="st1" d="M105.6,25.7c-0.4,0.2-1,0.2-1.1,0.4C104.8,26.1,105.4,26.1,105.6,25.7z"/>
	<path class="st1" d="M98.2,26.2c-0.3-0.1-0.5,0-0.8-0.1C97.4,26.3,98,26.5,98.2,26.2z"/>
	<path class="st1" d="M90.5,25.4c0,0.1-0.2,0.3-0.2,0.4c0.1,0,0.3,0,0.4-0.1C90.6,25.6,90.7,25.5,90.5,25.4z"/>
	<path class="st1" d="M63.8,5c-0.6-0.1-1.2,0.5-1.8,0.3C62.3,5.8,63.3,5.2,63.8,5z"/>
	<path class="st1" d="M61.9,5.5c-0.3-0.2-0.5-0.1-0.8,0.2C61.4,5.7,61.7,5.7,61.9,5.5z"/>
	<path class="st1" d="M76.6,27c-0.1,0.1-0.1,0.2,0.1,0.3c-0.5,0-0.6,0-1.2,0.2c0.5,0.1,1,0.1,1.5,0C76.7,27.3,76.8,27.1,76.6,27z"/>
	<path class="st1" d="M74.2,26.1c0,0.2-0.3,0.4-0.1,0.6C74.4,26.7,74.5,26.3,74.2,26.1z"/>
	<path class="st1" d="M74.9,27.3c0.1-0.1-0.1-0.2-0.2-0.3c-0.2,0.1-0.3,0.3-0.3,0.4C74.6,27.5,74.7,27.1,74.9,27.3z"/>
	<path class="st1" d="M57.3,29.7c-0.3-0.1-0.4,0.2-0.5,0.3c0.1,0,0.3,0,0.4-0.2C57.2,29.8,57.3,29.7,57.3,29.7z"/>
	<path class="st1" d="M56.2,30.6c-0.2-0.1-0.4,0.3-0.4,0.4C56.1,31,56.2,30.8,56.2,30.6z"/>
	<path class="st1" d="M54.9,30.3c-0.6-0.1-1.3,0.1-1.9,0.2c0.2,0.3-0.2,0.3-0.5,0.5C53.4,30.9,53.9,30.5,54.9,30.3z"/>
	<path class="st1" d="M52.7,30.6c-0.3-0.2-0.5,0.1-0.8,0.2C52.2,31,52.4,31,52.7,30.6z"/>
	<path class="st1" d="M51.6,30.9c-0.3,0-0.6-0.1-0.9,0.1C50.8,31.2,51.3,31.2,51.6,30.9z"/>
	<path class="st1" d="M50.8,30.5c-0.4,0-0.5-0.1-0.8-0.2c-0.2,0.3-0.3,0.3-0.1,0.6C49.9,30.5,50.5,30.7,50.8,30.5z"/>
	<path class="st1" d="M50.5,34.1c0.1-0.3-0.4-0.1-0.6,0c0.1,0.2,0.3,0.1,0.4,0.2C50.4,34.2,50.3,34,50.5,34.1z"/>
	<path class="st1" d="M46.9,31.9c0.1,0,0-0.1,0-0.1l-0.2-0.1c-0.2,0.3-1,0.1-1.4,0.6c0.1,0.1,0.1,0.1,0.1,0.2c0.3-0.2,0.7-0.2,1-0.5
		c0.4,0.3-0.2,0.2-0.1,0.5c0.2,0.2,0.3-0.4,0.5-0.2C47,32.2,46.5,31.9,46.9,31.9z"/>
	<path class="st1" d="M49.2,34.3c-0.5,0-0.9,0.1-1.4,0.4C48.3,34.7,48.7,34.5,49.2,34.3z"/>
	<path class="st1" d="M45,32.4c-0.2,0-0.3-0.4-0.6-0.3c0.1,0.2,0.1,0.4-0.3,0.5C44.4,32.7,44.7,32.5,45,32.4z"/>
	<path class="st1" d="M44.5,32.9c-0.4-0.1-0.7,0.2-1,0.3C44,33.3,44.1,33,44.5,32.9z"/>
	<path class="st1" d="M41.2,33.2c-0.1,0.1,0.2,0.2,0.1,0.3c0.5,0,0.9-0.7,1.4-0.4C42.7,32.4,41.7,33.4,41.2,33.2z"/>
	<path class="st1" d="M42.9,33.4c-0.5-0.1-1,0.3-1.5,0.6C42,34.1,42.4,33.6,42.9,33.4z"/>
	<path class="st1" d="M41.8,34.5c0-0.3-0.5,0.1-0.7,0.2C41.4,34.8,41.6,34.4,41.8,34.5z"/>
	<path class="st1" d="M41.5,34.1c-0.4,0-0.8-0.2-1.2,0.3C40.7,34.1,41.1,34.5,41.5,34.1z"/>
	<path class="st1" d="M39.4,33.9c0.5,0.3,0,0.6-0.3,0.5C38.8,34.1,39.2,34,39.4,33.9c-0.2-0.3-0.4,0.2-0.6-0.1
		c-0.1,0.6-1,1.3-1.4,1.6c0.1,0.4,1-0.4,1-0.7c0.1,0.4,0.6,0,0.4,0.4c0.5-0.4,0.9-1,1.6-1.7C40,33.2,39.7,33.5,39.4,33.9z"/>
	<path class="st1" d="M37.4,34.7c0.1-0.1-0.1-0.2-0.2-0.3c-0.2,0.1-0.4,0.3-0.6,0.3c0,0.1,0.1,0.2,0,0.3c0.1,0,0.3,0,0.4,0.1
		C37.2,35,37,34.6,37.4,34.7z"/>
	<path class="st1" d="M36.5,34.3c-0.2,0.1-0.7,0.3-0.3,0.5C36.5,34.6,36.4,34.5,36.5,34.3z"/>
	<path class="st1" d="M36.1,35.1c0.1-0.3-0.3,0-0.5-0.2c0,0.2,0,0.3-0.3,0.4C35.7,35.5,35.9,35.1,36.1,35.1z"/>
	<path class="st1" d="M252.1,25.3c0.1,0.2-0.3,0.2,0,0.5c0.1-0.1,0.3,0,0.4-0.1C251.9,25.5,253,24.5,252.1,25.3
		c-0.5-0.2-1.2-0.2-1.8-0.7c-0.3,0.2-0.4,0.1-0.5-0.2c-0.1,0.1,0.1,0.2-0.1,0.2c-0.3,0.1,0-0.3-0.3-0.4c-0.1,0.3-0.3,0.2-0.8,0.6
		c0.2,0.2,0.6-0.1,0.9-0.2c0.1,0.4,0.4,0.2,0.7,0.2c0.4,0.7,1.2,0.5,1.4,0.8c0.4-0.2-0.3-0.5-0.4-0.5
		C251.6,25,251.8,25.5,252.1,25.3z"/>
	<path class="st1" d="M246.2,21.7c-0.4-0.2-0.8-0.2-1.2-0.2c0.2,0.2,0,0.3,0.2,0.4C245.4,21.4,245.8,21.9,246.2,21.7z"/>
	<path class="st1" d="M244.3,21.3c-0.2,0-0.3,0.1-0.1,0.3c-0.1,0-0.2-0.1-0.3-0.2c-0.3,0.1-0.3,0.3-0.5,0.4
		c-0.4-0.1-0.9-0.3-1.4-0.1c-0.4-0.7-1.1-0.3-1.6-0.6c0.1-0.5,0.9,0,1-0.5c-0.9,0-1.3-0.5-2.3-0.2c-0.2-0.3-0.3-0.6-0.7-0.3
		c-0.1-0.3,0-0.6,0.4-0.6c-0.1-0.2-0.3,0-0.4-0.1c0.1,0.2-0.4,0.4-0.1,0.6c-0.5-0.4-1.1-0.1-1.6-0.2c0.7-0.1,1.2-0.3,1.4-0.3
		c-0.1-0.5-1.1,0-1.6,0c0-0.3-0.5-0.3-0.8-0.3c-0.1,0.1,0.1,0.2,0,0.3c-0.1,0-0.2,0-0.2,0c0-0.1,0.1-0.2,0-0.3c-0.6-0.1-1.3,0-1.9,0
		c0-0.1,0-0.1,0-0.2c0.7,0,1-0.2,1.6-0.2c-0.5-0.4-1-0.2-1.5-0.5c-0.2,0.2,0.2,0.1,0.3,0.3c-0.2,0.1-0.3,0.1-0.4,0.1
		c-0.3-0.2,0-0.5-0.4-0.6c-0.2,0.1-0.1,0.2-0.3,0.3c0.1,0.1,0.2,0,0.2,0c0.1,0.2,0,0.7,0.3,0.3c0.4,0.4-0.2,0.5-0.5,0.4
		c0.4-0.1-0.4-0.3-0.1-0.5c-0.2-0.1-0.5,0.3-0.6,0.1c-0.2-0.3,0.4-0.4,0.6-0.3c0.2-0.1-0.1-0.4,0.1-0.5c-0.2-0.2-0.6,0-0.8-0.2
		c0.1-0.3,0.3-0.1,0.5-0.4c-0.2-0.4-0.6,0-0.8-0.3c-0.2,0.2,0.3,0.2,0.4,0.5c-0.2,0-0.5,0-0.7-0.2c0.3,0.3,0.1,0.4-0.1,0.7
		c-0.1,0-0.1,0-0.2,0c-0.3-0.2,0.2-0.2-0.1-0.4c-0.4,0.4-2.1-0.2-1.9-0.7c-0.2,0.2-0.5,0-0.5,0.3c-0.4-0.3-0.1-0.4-0.3-0.6
		c0.4,0.1,0.8-0.1,1.1,0.1c-0.2-0.3-1-0.5-1.5-0.5c-0.1-0.1,0.2-0.2-0.1-0.4c-0.4,0.1-0.7,0.3-1.1-0.1c-0.1,0.3-0.4,0.2-0.3,0.6
		c-0.2-0.3-0.5,0.1-0.9-0.3c0.1,0.5-0.6,0.1-0.7,0.4c-0.5-0.3,0.4-0.3,0-0.6c-0.3,0.2-0.5,0.2-0.7,0.1c0-0.2,0.1-0.3,0.2-0.4
		c0.8,0,1.5,0.3,2.1,0.1c-0.1-0.3-0.4,0.1-0.5-0.3c-1.1,0.5-1.9-0.7-3-0.3c-0.8-0.8-2.7-0.4-3-1.1c-0.3-0.1-0.6-0.1-0.9-0.3
		c-0.2,0.5-0.7,0-1.1,0.1c0-0.1,0.1-0.2,0-0.3c-0.1,0.3-0.6,0.3-0.5,0c-0.9,0.3-1.6-0.4-2.5-0.3c0.2,0.2-0.2,0.3-0.4,0.3
		c-0.1-0.2,0.4-0.2,0.3-0.4c-0.7-0.4-1.4-0.1-2.1-0.2c0.1-0.5-0.7-0.6-0.9-0.3c-0.1-0.3-0.3-0.1-0.4-0.3c-0.5,0.6-1.9-0.6-2.8-0.1
		c-0.6-0.8-2,0.2-2.4-0.6c0.2,0.1,0.5,0,0.7,0c-0.1-0.4-0.9,0-1.5-0.2c-0.2-0.1-1-0.6-1.1-0.2c-0.2,0.1-0.3-0.2-0.4-0.3
		c-0.6,0.2-1.1-0.1-1.6,0.1c-0.6-0.3-1.9-0.4-2.9-0.6c-25.3-4.9-51.3-6-77.2-5.7c-0.2-0.2,0-0.3,0.1-0.4c1.9,0.4,3.9-0.2,5.8,0.2
		c0.2-0.3,0.3-0.2,0.6-0.3c0.1,0.1-0.1,0-0.2,0.2c0.3,0.2,0.6-0.3,0.9,0.1c0.2-0.2,0-0.3,0.2-0.5c0.8,0.6,2.1,0.5,3.2,0.2
		c0.9,0.1,1.7,0.3,2.6,0c0.1,0.1,0.1,0.1,0.1,0.2c1.4-0.3,3.3,0.2,4.2-0.3c0.2,0.2,0,0.2,0.3,0.3c0.1-0.1-0.1-0.2-0.1-0.3
		c1.7,0.5,3.1-0.2,4.9,0.4c0.2-0.4,1,0,1.5,0c0.7,0,1.2-0.4,1.5,0c0.6-0.2,1.3-0.2,1.8,0.1c0.4-0.1-0.2-0.3,0.2-0.4
		c0.1-0.1,0.5,0.2,0.3,0.3c0.4-0.3,0.8,0,1.2-0.2c0.1,0.1,0.1,0.2,0,0.3c0.6-0.3,1.1,0,1.6-0.2c0,0.5,0,0.1,0.4,0.3
		c0-0.2,0.2-0.3,0.4-0.3c0,0.1,0.1,0.2,0.2,0.3c0.4-0.5,1.1,0.2,1.9-0.2c0.1,0.1,0.1,0.2,0,0.3c0.9-0.1,3,0.2,3.2-0.1
		c0.5,0,0.9,0.4,1.4,0c0.4,0.3,1.1,0.6,1.4,0.3c2.9,0.4,5.5,0.3,8.5,0.8c0.2-0.1,0.1-0.2,0.2-0.2c0.2,0.2,0.3,0.1,0.6,0.4
		c1.6-0.3,3.8,0.7,5.7,0.2c0.1,0.1,0,0.2,0.2,0.3c0.7,0,1.5-0.1,2.1,0.1c0-0.2-0.1-0.7,0.6-0.8c0.2,0.3,0,0.4,0.4,0.6
		c0.1,0.2-0.5,0.4-0.6,0.1c-0.3,0.3,0.5,0.5,0.4,0.2c0.9,0.6,2,0,2.9,0.6c0.3-0.4,0.9-0.2,1.3,0.2c0.2-0.1,0.1-0.2,0-0.3
		c0.8,0.3,1.7,0.2,2.5,0.6c0.1-0.1,0-0.2,0.1-0.3c1.2,0.3,3,0.1,3.8,0.8c0.1-0.1,0-0.1,0-0.2c1.3,0.3,2.7,0.2,4.1,0.8
		c1-0.2,2.6,0.3,3.8,0.5c0.3-0.1,0-0.3,0.3-0.4c0.1,0,0.2,0,0.3,0c-0.4,0.7,0.9,0.4,1.3,0.7c0.2-0.3-0.3-0.1-0.4-0.3
		c-0.1-0.3,0.4-0.1,0.5-0.2c0.4,0.9,1.5,0.5,2.2,0.9c0.3-0.1,0-0.3,0.3-0.4c0.1,0,0.2,0.1,0.3,0c0.1,0.1-0.2,0.2-0.3,0.3
		c0.2,0.2,0.4,0.2,0.7,0c0-0.1-0.2-0.3,0.1-0.4c-0.1-0.1-0.3,0.1-0.4-0.2c0.3-0.2,0.5,0.2,0.8-0.2c0.2,0.4,0.5,0.3,0.7,0.4
		c0,0.3-0.5-0.1-0.7,0.1c0.4,0.5-0.2,0.1-0.4,0.3c0.7,0.5,0.7,0,1.3,0.4c0.1-0.1-0.2-0.3-0.1-0.4c0.1,0,0.1,0,0.2,0.1
		c0.1-0.2,0.1-0.2-0.1-0.3c0.4-0.3,0.8-0.1,1.2-0.4c0.2,0.2,0.3,0.2,0.2,0.4c0.3,0,0.7-0.4,1-0.2c0.2,0.2-0.3,0.2-0.4,0.3
		c0.2,0.2,0.5-0.1,0.4-0.3c0.3-0.2,0.4,0.3,0.7,0.2c0.1,0.1-0.2,0.2,0.1,0.4c0.4-0.4,1.6-0.4,1.5,0.1c0.3,0,0.6,0.3,1,0
		c0.3,0.6,1,0.1,1.1,0.6c0.5-0.7,1.3,0.6,2.1,0.1c0.6,0.3,1.3,0.2,1.9,0.5c0.2,0.2-0.4,0,0,0.2c1.1-0.4,2,0.5,3,0.3
		c-0.1-0.1-0.2-0.1-0.3-0.2c0-0.1,0.1-0.2,0-0.3c0.4,0.1,0.8,0.5,1.3,0.6c0.1-0.1-0.1-0.1-0.2-0.2c-0.1-0.2,0.3,0.1,0.5-0.2
		c0,0.2,0.1,0.2,0.3,0.3c0.5-0.7,1.2,0.4,1.9,0c0.2,0.2,0.2,0.4-0.1,0.5c0.2,0.3,0.4,0.1,0.6,0.2c0.1-0.1-0.1-0.2-0.2-0.4
		c0.2-0.2,0.4-0.1,0.6-0.1c0.1,0.1,0,0.3-0.2,0.4c0.6-0.2,1.1,0.2,1.6,0.2c0.1,0.1-0.2,0.2,0.1,0.4c0.4-0.6,1.9,0.1,2.5-0.1
		c0.1,0.3,0.7,0.4,0.2,0.6c0.3,0.1,0.4,0,0.4-0.2c0.3,0,0.3,0.7,0.8,0.5c-0.1-0.2-0.3-0.1-0.4-0.2c0.1,0,0.1-0.1,0.1-0.2
		c0.7,0.2,1.4,0.6,2.3,0.3c-0.1,0.3,0,0.3,0.2,0.7c0.3-0.1,0-0.4-0.1-0.6c0.5-0.4,0.7,0.4,1.2,0.1c0.4,0.3-0.3,0.4-0.1,0.7
		c0.3-0.2,0.2-0.4,0.4-0.6c0.3-0.2,0.3,0.3,0.4,0.2c0.1,0.1-0.2,0.2-0.3,0.3c0.2,0.1,0.7,0,0.6-0.2c0.4,0.5,0.5,0.1,0.8,0.7
		c0.5-0.2,0.6-0.1,1.1,0.2c0.1-0.2-0.1-0.4,0.2-0.5l-0.3-0.4c-0.3-0.1-0.2,0.3-0.5-0.1c-0.2,0.1-0.1,0.2,0,0.2
		c-0.5-0.1-1.9-0.2-1.6-0.8c-0.1-0.2-0.3,0.1-0.5,0.2c-0.2-0.3,0-0.5,0.3-0.5c-0.1-0.1-0.9-0.2-0.7,0.1c-0.3,0-0.6-0.3-1,0
		c-0.1-0.2,0.4-0.2,0.3-0.4c-0.2-0.3-1.1,0.1-0.8-0.5c-0.2-0.2-0.3,0.1-0.2,0.2c-0.3,0-0.6-0.1-0.8-0.3c-0.1,0.1,0,0.2-0.1,0.3
		c-0.2,0.1-0.3-0.1-0.5,0c0-0.1,0.1-0.2,0.1-0.3c-0.7,0.1-1.3,0-2-0.2c-0.1-0.2,0.2,0,0.3-0.2c-0.2-0.2-0.5,0-0.6-0.3
		c0.3-0.1,0.6,0,0.9,0.3c0.3-0.5,1,0.3,1.6,0c-1-0.3-1.9-0.3-2.7-0.6c-0.2,0.2,0.2,0.1,0.3,0.3c-0.5,0.3-0.4-0.6-0.9-0.4
		c0.1,0.1,0.3,0.1,0.4,0.2c-0.3,0.3-0.4-0.1-0.6,0.1c-0.2-0.1,0-0.2,0.1-0.3c-0.1,0-0.3,0-0.4-0.1c-0.2,0.4-1.5-0.1-2-0.3
		c-0.1-0.3,0.3,0.2,0.5,0c-1-0.1-2.1-0.2-3.1-0.6c-0.1-0.1,0.2-0.2,0.3-0.3c-0.3-0.4-0.6,0-0.6,0.2c-0.5,0,0.1-0.4-0.4-0.6
		c-0.4,0.1,0.2,0.3,0,0.5c-0.6-0.1-1.3,0.2-1.9-0.4c-0.3,0.4-0.6,0.2-1,0.2c-0.3-0.2,0-0.3-0.2-0.4c-0.5,0.2-1,0.1-1.5,0
		c-0.1-0.3,0.4-0.1,0.6-0.1c-0.3-0.3-0.9-0.2-1.3,0c-0.3-0.2,0.1-0.3-0.2-0.5c0.2-0.2,0.5,0,0.6-0.2c-1-0.2-1.6-0.1-2.5,0.1
		c-0.4-0.3,0.3-0.3,0-0.6c-0.8-0.1-1.6-0.1-2.4-0.6c-0.5,0.4-0.7,0-0.9-0.1c-0.2,0.1,0.1,0.3-0.2,0.4c-0.5-0.5-2,0-2-0.6
		c-1-0.1-2.2-0.6-3-0.4c-0.4-0.4-1-0.1-1.4-0.6c-0.4,0.3-0.7,0-1.1,0.3c-0.3-0.2,0-0.3-0.2-0.4c-1.8-0.2-3.6-0.3-5.3-1
		c-0.1,0.2-0.3,0.3,0,0.3c-1.4-0.4-2.9-0.8-4.4-0.7c-0.4,0.1-0.7-0.4-1-0.4c-0.1,0.1,0.1,0.2,0,0.3c-0.4-0.2-1-0.4-1.7-0.2l-0.4-0.4
		c-1.6,0.2-3.1-0.2-4.6-0.6c-0.1,0.1,0,0.1-0.1,0.2c-2.7-0.6-5.4-0.6-8.1-1.1c-0.5,0.4-2.3-0.2-3.4-0.3c-0.6-0.1-1.2,0.1-1.6-0.2
		l-0.3,0.2c-0.3-0.5-1,0.1-1.5-0.4c-1.3,0.3-3.1-0.4-4.7-0.1l-0.3-0.3c-2,0.3-3.9-0.4-5.9-0.1c-0.8-0.5-1.8,0.1-2.6-0.4
		c-0.6,0.3-1-0.1-1.6,0.1c-1.4-0.4-2.9-0.3-4.3-0.2c-3.2-0.3-6.4,0-9.5-0.3l-0.3,0.2c-0.1,0.1-0.1-0.1-0.1-0.2
		c-1.7,0.2-2.9,0.1-4.7,0.2l-0.3-0.3c-0.3,0-0.1,0.5-0.6,0.2c-0.1-0.1,0.1,0,0.2-0.2c-0.2-0.1-0.5,0-0.6,0.2c-3.1-0.1-6.2-0.1-9.3,0
		C121.1,0.7,118,0.8,115,1c-3.1,0.2-6.2,0.3-9.2,0.6c-3.1,0.2-6.2,0.5-9.3,0.6l-0.2,0.2c-1.7-0.2-3.4,0.5-5.1,0.2
		c-0.3,0.1-0.6,0.5-0.6,0.1c-0.2,0.2-0.9,0.4-1.4,0.1l-0.3,0.3c-0.6,0-1.2-0.1-1.8,0.2c-2.8-0.2-5.7,0.8-8.5,0.3l-0.3,0.3
		c-0.5-0.3-1.3-0.2-1.5,0.1c-0.1-0.1-0.1-0.2-0.2-0.3c-0.2,0.5-0.5,0.2-0.7,0.1C75,4.2,74,4.1,73.1,4.2C72.9,4.1,72.9,4,73,3.9
		c-0.2,0-0.2,0.5-0.7,0.2c-0.1,0.1,0,0.1,0.1,0.2c-0.2,0.1-0.5-0.1-0.7,0.2c-0.2-0.1-0.1-0.2,0-0.3c-0.3,0.2-0.8,0.4-1.2,0.4
		c-0.2-0.3,0.3-0.2,0.5-0.4c-0.9,0.4-1.8,0.6-2.8,0.9l-0.4-0.3c0.1-0.3-0.2,0.2,0.2,0.2c-0.4,0.3-0.8,0.3-1.4,0.6
		c-0.1-0.3-0.7-0.1-0.3-0.4c-0.3-0.1-0.2,0.4-0.8,0c-0.3,0.3,0.2,0.2,0.3,0.2c-0.5,0.4-1.1,0.1-1.6,0.5c-0.1-0.1,0.1-0.2,0.1-0.3
		c-0.2-0.1-0.3,0.2-0.5-0.1C64,6,63.6,5.8,63.3,6.1c-1.4-0.4-2.8,1-4,0.4c-0.2,0.6-1,0.6-1.5,0.7c0-0.4,0.7-0.2,0.9-0.4
		c-0.1-0.1-0.3,0-0.4-0.2c0.4-0.2,0.9-0.6,1.3-0.8c0,0.7,1.2-0.1,1.4-0.2c-0.9-0.3-2.4,0.1-3.1,0.7c-0.1-0.1,0.1-0.2,0.2-0.3
		c-0.5,0.1-1.5,0.2-1.4,0.8c-0.3,0.1-0.2-0.2-0.4-0.3c-0.9,0.5-1.4,0.5-2.3,1.1c-1.2,0.1-2.4,0.2-3.5,1c-0.7,0-1.8,0.4-2.2,0.8
		c-0.8-0.1-1.7,0.4-2.8,0.7c-1,0.4-2.1,0.7-3.2,0.3c0.6,0.7-1.1,0.6-0.9,1.3c-0.4,0-0.8,0.8-1.2,0.4c-1.6,0.9-3.1,1.2-4.8,0.7
		c-0.2,0.2-0.4,0.5-0.3,0.7c-0.2,0.1-0.5,0-0.8-0.2c-0.2,0.3-0.4,0.2-0.7,0.3c-0.1,0.4-0.3,0.3-0.4,0.7c0.2,0.2,0.3-0.1,0.5,0
		c-1,0.6-2.6,0.7-3.9,0.3c-0.1,0.5-0.5,0.7-1,0.6c-0.8,1.1-2,1.8-3.2,2.3l-0.5-0.3c0.2,0.4-0.6,0.4-0.9,0.7c0-0.1-0.1-0.2,0-0.3
		c-1.1,0.3-2.1,0.6-2.9,1.3c-1.1,0.3-2.6,0.7-3.4,1.6c-0.8,0-2.1,1-2.7,1.5c-1,0.7-1.8,1.2-2.5,2c0.3,0,0.3,0.2,0.5,0.3
		c-0.2,0.2-0.4,0.1-0.6,0.3c0.4,0.1,0.5-0.2,0.8,0c0.3-0.5,1,0,1.1-0.5c0.2-0.2,0.4,0.2,0.6,0.2c0.5-0.2,0.9-0.3,1.4-0.4
		c-0.4,0.4-0.6,0.4-1.1,1.1c1.7-0.5,4.1-1,6.1-2.1c0.2-0.1,0.4,0,0.6,0.1c0-0.1,0-0.2-0.1-0.3c0.2,0,0.4-0.2,0.7-0.3
		c0.4,0.5,1.1-0.5,1.5-1c0.2,0.2-0.1,0.4-0.2,0.7c0.2-0.1,0.5,0,0.6,0.3c-0.3,0.3-0.4,0.1-0.6,0.5c0.2,0.2,0.3-0.5,0.5-0.1
		c0.3-0.2,0.1-0.3,0.3-0.4c0.1,0,0.2-0.1,0.3,0c0,0.2-0.3,0.5-0.2,0.7c-0.1,0-0.1,0-0.2,0.1c0.1-0.4-0.5,0-0.7,0.1
		c-0.2-0.1-0.1-0.2-0.3-0.3c-0.6,0.3-0.7,1-1.2,1.2c-0.1-0.2,0.4-0.5,0.6-0.8c-0.3,0-0.8,0.2-0.6,0.5c-0.7-0.1-1.4,0.5-2.1,0.9
		c0.5,0.1,0.9-0.4,1.3-0.7c-0.2,0.6-1.1,1-1.6,0.7c-0.5,0.4-1.1,0.8-1.7,0.6c-1.7,1.1-3.4,1.2-5.1,2.2c0.4,0.2,0.8-0.1,1.2,0.3
		c0.4-0.2,0.8-0.3,1.3,0c0.1-0.1,0-0.2,0.1-0.3c0.4,0.4,0.6-0.1,1,0c0.2,0.1,0,0.3-0.2,0.5c0.4,0.2,0.8-0.2,1.2-0.2
		c0.3,0.1-0.1,0.3,0.1,0.4c0.6,0.1,0.8-0.4,1.5-0.6c0.2,0.3-0.5,0.7-0.7,0.9c0.1,0,0.3,0,0.4,0.1c0.1-0.1,0-0.1-0.1-0.2
		c0.3-0.2,0.5,0,0.6-0.3c0.2,0.1,0.1,0.2,0.3,0.3c0.5-0.3,1-0.3,1.5-0.3c0.2-0.2,0.1-0.4-0.1-0.5c0.1-0.2,0.3-0.3,0.4-0.3
		c0.2,0.2,0.3,0.5,0.4,0.7c-0.6,0.2-1.4,0.8-1.5,1.3c-0.9,0.3-1.8,0.6-2.7,0.5c0.3,0.5-0.4,0.4-0.8,0.4c-0.1-0.2,0.4-0.1,0.5-0.3
		c-0.4-0.2-0.7,0.4-1.1,0.6c-0.3-0.1,0.1-0.3-0.3-0.3c0,0.4-1,0.6-1.6,0.6c-0.4,0.5-0.9,0.4-1.5,0.7c0,0.4,0.5,0,0.7,0
		c-0.5,0.3-1.6,1-2.6,0.8c-0.5,0.6-2.7,0.5-2.7,1.6c-0.6-0.1-0.7,0.5-1.1,0.4c0-0.2,0.3-0.2,0.2-0.5c-1.1,0.6-2.1,1.5-2,2.4
		c0.3,0.1,0.8,0.3,0.8,0.6c0.7,0.2,1.6-0.1,2,0.7c0.2-0.4,0.8-0.4,0.8-0.8c-0.1,0-0.2,0.1-0.3,0.2c-0.2-0.2,0-0.2,0.2-0.3
		c0.2,0.2,0.4,0.2,0.6,0.2c0.2,0.1,0.2,0.3,0,0.5c0.2,0,0.4-0.1,0.3-0.2c0.5,0.4,1.5-0.2,2.1-0.6c0.9,0.4,1.6-0.5,2.4-1.1l0.2,0.1
		c-0.2,0.7-1,0.9-1.4,1.4c0.2,0.2,0.3,0,0.5,0.2c1.1-0.9,1.9-0.8,3.1-1.5c0.1,0.1,0,0.1,0.1,0.2c-0.4,0.2-1,0.6-1.2,1
		c0.2,0.2,0.4-0.1,0.6,0c-0.1-0.3,0.1-0.3,0.3-0.2c-0.1-0.2-0.1-0.3-0.1-0.5c0.4,0.1,1.4-0.3,1.1-0.8c0.1-0.2,0.1,0.4,0.4,0.1
		c0.1,0.1-0.3,0.2-0.1,0.4c0.3,0,0.5-0.5,0.4-0.7c0.2-0.1,0.2,0.3,0.4,0.4c0.4-0.2,0.1-0.4,0.3-0.6c0.2-0.2,0.3,0.2,0.2,0.2
		c0.3,0.1,0.2-0.3,0.2-0.4c0.1,0,0.4,0.1,0.5,0.3c-0.1,0.3-0.3,0.2-0.5,0.4c0.5,0.2,0.6-0.3,0.5-0.6c0.5-0.1,1-0.2,1.2-0.8
		c0.4,0.1,0,0.3,0.2,0.5c-0.3,0.1-0.6,0.2-0.8,0.4c0.3,0.2,0.3,0.5,0.1,0.8c0.2,0.1,0.4-0.1,0.3-0.2c0.1,0.3,0.4,0,0.5,0.3
		c0.4-0.4,0.7-0.4,1.3-0.5c0.1,0.2-0.3,0.4-0.5,0.1c-0.1,0.1,0,0.1,0,0.1l-0.1,0.1c0.3,0.2,0.6-0.1,0.9-0.2c0.2,0.2,0,0.5,0.2,0.7
		c0.1-0.3,0.1-0.2,0.4-0.4c0.3,0.1,0.2,0.3,0.4,0.4c0.2-0.1,0.1-0.2,0.2-0.3c0.2,0.1,0.1,0.3,0.3,0.3c0.4-0.2,0.9-0.2,1.3-0.3
		c0.2,0.3-0.2,0.2-0.3,0.5c0.2,0.1,0.4-0.3,0.7,0c0-0.1,0.1-0.2,0-0.3c1.1,0.1,2.1-0.7,3.2-0.6c0.1-0.1-0.1-0.2-0.2-0.2
		c0.2-0.2,0.3-0.4,0.5-0.4c0.4,1,1.4-0.5,2-0.4c-0.1,0.9-0.9,0.8-1.4,1.3c0.3,0.2,0.7-0.3,0.8,0.1l0.4-0.4c0.2,0.1,0.2,0.2,0.2,0.3
		c-0.2,0-0.4,0.3-0.6,0.2c0.1,0.3-0.2,0.2-0.2,0.5c0.4,0.5,0.6-0.7,1-0.2c0.3-0.4,0.6-0.8,0.8-1.2c0.3,0.1,0.2,0.3,0,0.5
		c0.3,0.3,0.5,0,0.7,0c-0.1-0.2,0-0.3,0.2-0.5c-0.2-0.1-0.3,0.2-0.4-0.1c0.2-0.2,0.5-0.2,0.7-0.1l0.6-0.6c0.2,0.4-0.1,0.3,0.4,0.3
		c0.4,0.1-0.1,0.4,0.2,0.5c0-0.6,0.5-0.5,0.9-1c0.4,0.1,0.9,0,1.3,0.1c0.3-0.6,0.7-0.8,1.2-1.2c0.3,0.1-0.2,0.4-0.1,0.5
		c0.7-0.1,1.3-1.1,1.5-1.5c-0.7-0.1-0.8,0.8-1.3,1c-0.1-0.1-0.2-0.2-0.1-0.3c-0.2-0.1-0.5,0.3-0.3,0.4c-0.7-0.4-1.7,1.2-2.6,0.6
		c0.4-0.8,1.5-1,2.3-1c0.4-0.9,1.4-1,2.4-1.2C40.1,32,40,32.3,40,32.7c0.2-0.3,0.4-0.2,0.6-0.4c0.7,0.6,0.9-0.5,1.6,0.1
		c0.7-0.4,0.4-0.3,1.1-0.5c-0.2-0.1,0-0.2-0.1-0.3c0.2-0.1,0.4-0.1,0.6-0.3c0.4,0.2,0,0.4-0.3,0.4c0.1,0.3,0.9-0.2,0.9-0.5
		c0.3,0,0.6-0.3,0.9,0.1c0.4,0,0.8-0.7,1.2-0.6c0.3,0.3-0.1,0.7-0.3,1.1c0.5-0.1,0.7-0.7,1.4-0.6c0.3,0.2,0.1,0.3,0.5,0.2
		c0.2-0.3-0.5-0.1-0.2-0.3c-0.2,0-0.4,0-0.7,0.1c-0.1-0.3-0.1-0.3-0.5-0.2c-0.1-0.1,0.1-0.2,0.1-0.3c0.2-0.1,0.4,0.3,0.6,0.2
		c0-0.1,0.1-0.2,0.1-0.3c0.2-0.1,0.5,0,0.7,0c0.1,0.2,0.1,0.2-0.1,0.3c-0.1,0.1-0.1-0.1-0.2-0.2c0,0.2-0.1,0.4,0.1,0.6
		c0.9-1.1,1.9-1.1,2.9-1.7c0.1,0.1,0.2,0.2,0.2,0.2c0.1-0.2,0.8-0.6,1.3-0.7c0.1,0.3-0.7,0.6-0.6,0.7c-0.2-0.3-0.4-0.1-0.1,0.1
		c0.8-0.4,1.6-0.6,2.2-0.6c0.3,0.4-0.8,0.3-0.7,0.8c0.3,0,0.4,0.1,0.5-0.2c1,0.3,2.7-0.9,3.7-1.1c0.2,0.2-0.6,0.4-0.1,0.5
		c0.1-0.4,0.5-0.5,0.8-0.6c-0.2,0-0.5-0.1-0.7,0c0-0.1,0-0.1-0.1-0.2c0.4-0.3,0.9,0.2,1.3-0.3c0.1,0.1,0.1,0.2,0.2,0.3
		c0.3-0.3,0.7-0.1,1-0.3c0.1,0.1,0.1,0.2,0.1,0.3c0.2,0.1,0.3-0.2,0.5,0c0.1-0.1,0.1-0.2,0-0.3c1.4-0.1,2.3-0.2,3.6-0.5
		c0.1,0.1,0,0.3-0.1,0.4c0.2,0,0.4-0.1,0.7-0.1c0.4-0.2-0.2-0.3,0.1-0.5c0.4,0.2,0.7,0.1,1-0.2c0.2,0.1,0,0.3,0.3,0.4
		c0.1-0.2-0.1-0.3,0.1-0.4c0.4,0.3,0.3-0.1,0.9-0.2c0.2,0.1,0,0.3,0.3,0.4c0.1-0.1,0.1-0.2-0.1-0.3c0.5-0.2,1.5,0.2,1.5,0.6
		c0.7-0.3-0.6-0.3-0.2-0.8c0.3,0,0.2,0.2,0.5,0.3c0.3-0.3,0.8,0,0.9-0.5c0.3,0,0.7-0.1,0.8,0.3l0.4-0.3c-0.3-0.3-0.1,0.3-0.4-0.1
		c0.2-0.5,1.3-0.2,1.9-0.6c-0.1,0.3,0,0.5-0.4,0.6c0.5,0.3,0.6-0.5,1.1-0.6c0.4,0.4,0.7,0,1-0.2c0.4,0.3,0.8,0.1,1.3,0
		c0.1,0.3-0.4,0.1-0.5,0.3c0.2,0.2-0.2,0.4-0.1,0.6c0.4-0.4,1-0.5,1.3-0.9c0.1,0.1,0.3,0,0.6,0.1c0.2,0.4-0.9,0.1-0.3,0.5
		c-0.2,0.3-0.4-0.1-0.7,0.2c0.2,0.3,0.8-0.3,0.8,0.2c0.2-0.2,0.5-0.2,0.9-0.4c0,0.5,0.4,0,0.8,0.3c0.4-0.4,0.9-0.3,1.3-0.5
		c0-0.3-0.4-0.4-0.6-0.3c0-0.4,0.7-0.2,1-0.2c0.1,0.2-0.1,0.4-0.2,0.4c0.1,0.2,0.3,0.2,0.3,0.5c0-0.6,0.4-0.2,0.8-0.6
		c-0.2-0.3-0.3,0.1-0.5-0.2c0.2,0,0.5-0.3,0.7,0c0.1,0.1-0.1,0.1-0.2,0.2c0.1,0.1,0.3,0.1,0.2,0.2c0.3,0.2,0.1-0.4,0.4-0.1
		c-0.1-0.2-0.2-0.4,0-0.6c0.4,0,0,0.2,0.3,0.4c0.2-0.2,0.1-0.3,0.1-0.4c0.1,0,0.2,0.1,0.4-0.1c0.4,0.3-0.2,0.6,0.1,0.8
		c0.1-0.2,0.2-0.3,0.2-0.5c0.2-0.3,0.5,0.3,0.7-0.1c0.3,0.1,0.2,0.3,0.4,0.4c0.3-0.3,0.6-0.1,1-0.1c0.2-0.4,0.7-0.3,1.1-0.3
		c0.2,0.1-0.4,0.3,0,0.4c0.3-0.4,0.7-0.2,1.2-0.3c0.3-0.2-0.1-0.3,0.1-0.4c0.4-0.1,0.1,0.4,0.4,0.5c0.2,0,0.3-0.1,0.3-0.3
		c0.7,0.7,1.5-0.4,2.2,0c0.3-0.4,0.4-0.4,0.9-0.6c0.1,0,0.2,0.2,0.5,0.2c0.1,0.3-0.4,0.2-0.6,0.4c0.5,0.2,0.8-0.1,1.1-0.3
		c0.4,0.1,0.2,0.3,0.4,0.5c0.3-0.1,0.5,0.1,0.6-0.2l0.3,0.3c-0.1-0.3,0.7-0.5,1,0c0.2-0.5,0.4-0.3,0.8-0.2c0.3-0.2,0-0.1-0.1-0.3
		c0.2-0.2,0.3,0,0.5-0.1c0.3,0.3,0.1,0.3,0,0.5c0.3,0,0.6,0.1,1,0.5c-0.1,0.1-0.2,0.1-0.2,0.1c0,0.2,0.7,0.1,1,0.1
		c-0.8-0.2-0.6-0.6-1.4-0.7c0.7-0.5,0.8,0.4,1.3,0.3c0-0.3-0.6-0.6-0.5-0.8c0.2,0.2,0.7,0.2,0.9,0.5c0.2-0.3,0.2-0.5,0.4-0.8
		c-0.1,0.5,0.3,0.4,0.6,0.6c0.1,0.2-0.3,0.3,0,0.5c0.1-0.2,0.2-0.2,0.2-0.5c0.2,0,0.5,0.2,0.3-0.1c0.2,0,0.4,0.2,0.7,0.3
		c0,0.2-0.7,0-0.5,0.4c0.4-0.2,2.2-0.8,1.9,0c0.2,0,0.5-0.3,0.7-0.1c0.3-0.6,1.1-0.1,1.7-0.7c0.1,0.4,0.6,0.1,0.4,0.5
		c0.3,0.1,0.2-0.3,0.5-0.4c0.6,0,1.1,0.2,1.7-0.2c0.1,0.4,0.5,0.3,0.6,0c0.2,0.3,0.4,0.1,0.7,0.3c-0.1-0.2-0.2-0.2-0.3-0.5
		c0.3,0,0.6,0.2,0.7,0.4c0.4,0.1,0.2-0.4,0.7,0c0-0.1-0.1-0.2,0.1-0.3c-0.3,0.1-0.6,0-1-0.2c0.5,0,1.1,0.1,1.6,0.1
		c0,0.1,0,0.1,0.1,0.2c-0.3,0.1-0.7-0.2-0.8,0.2c0.4,0.2,0.7-0.3,1.3,0.1c0.1-0.1,0.2-0.2,0.3-0.1c0.1-0.1,0.1-0.2-0.1-0.3
		c0.3-0.2,0.6,0,1-0.2c0.3,0.1,0.1,0.3,0.3,0.4c0.3-0.2-0.2-0.3,0.2-0.3c0.3,0.2-0.2,0.3,0.2,0.3c0.2-0.1,0-0.2,0.1-0.3
		c1.1,0.8,2.6,0.1,3.5,0.4c0.1,0.1-0.2,0.2-0.2,0.4c0.4,0.1,0.9-0.4,1.3,0.1c0.1-0.1,0.1-0.2-0.1-0.3c0.2-0.2,0.3-0.1,0.5-0.2
		c0.2,0.1,0,0.2-0.1,0.3c0.2,0.2,0.4,0,0.7,0.1c0.1-0.1-0.1-0.2-0.1-0.3c0.2-0.2,0.3,0,0.5-0.1c0,0.1-0.1,0.2,0.1,0.3l0.3-0.2
		c0.2,0.1,0,0.3,0.3,0.4c0.7-0.1,1.5-0.2,2.2-0.1l-0.2-0.2c0.2,0,0.4-0.3,0.6-0.1c0.2,0.1,0,0.2-0.1,0.3c0.4,0.2,1.2-0.1,1.4-0.3
		c0.1,0.3,0.3,0.3,0.6,0.1c-0.4-0.3,0-0.3,0.2-0.4c-0.7,0.1-1-0.3-1.7-0.1c-0.1,0.1,0.1,0.1,0.1,0.1c-0.2,0.3-0.3-0.2-0.5,0.1
		c-0.2-0.3-0.2-0.2-0.6-0.5c0.9,0.3,2.1-0.2,2.7,0.2c0.1-0.1,0-0.1,0.1-0.2c0.3-0.1-0.1,0.2,0.2,0.3c0.5-0.5,0.9-0.2,1.4-0.1
		c0.1-0.3,0.5-0.3,0.8-0.2c-0.1,0.2-0.4,0.5-0.2,0.8c-0.2,0.1-0.6,0-0.6,0.2c0.3,0,0.3,0,0.4,0.3c0.1-0.3,0.3-0.2,0.4-0.4
		c0.3-0.1,0.5,0.2,0.8-0.1c0.3,0.5,1,0.3,1.5,0.1c0,0.4,0.3,0.4,0.7,0.1c0.1,0.1,0,0.2-0.1,0.3c0.5,0.2,1-0.2,1.5,0
		c0.1-0.1-0.2-0.3,0-0.4c0.2-0.2,0.3,0.3,0.4,0c0.1,0.1,0.1,0.2,0.1,0.3c0.2,0.1,0-0.4,0.4-0.2c0.2,0.1,0.2,0.3,0.1,0.4
		c0.4-0.2,1,0.2,1.2-0.2c0.2,0.1,0,0.3,0.3,0.4c0-0.4,0.4,0,0.4,0c0.5,0,0.7-0.5,1.3-0.1c0.1-0.4,0.7-0.2,1.1-0.2
		c0,0.1-0.1,0.2,0,0.3c0.3-0.4,0.6,0,1-0.4c0.1-0.3-0.4-0.4-0.5-0.2c-0.1-0.1,0.4-0.3,0.5-0.2c0.2-0.3-0.3-0.1-0.4-0.2
		c-0.1-0.1,0.1-0.2,0.2-0.3c0.1,0,0.4,0.4,0.7,0c0.2,0.2,0.4,0.3,0.2,0.5c0.3,0.2,0.6-0.1,0.8,0.2c0.1-0.2,0-0.4,0.3-0.4
		c-0.2,0.5-0.8,0.8-1.4,1c0.2,0.1,0.5,0.2,0.7,0.3c0.1-0.1,0.2-0.4,0.4-0.2c0.1-0.1,0-0.2,0.1-0.3c0.3-0.2,0.2,0.2,0.5,0.3
		c0-0.5,1.3-0.5,1.4,0c0-0.3,0.3,0,0.5-0.3c-0.2-0.2-0.5,0.1-0.7-0.2c0-0.2,0.6,0,0.9,0.1c0-0.1,0.1-0.2,0.3-0.4
		c0.2-0.1,0.2,0.2,0,0.3c0.3,0.1,0.3-0.3,0.1-0.4c-0.2,0.1-0.3-0.1-0.5,0.1c-0.1-0.1-0.1-0.3-0.1-0.4c0.4-0.2,0.7,0.3,1,0.1
		c0.1,0.3-0.6,0.7-0.1,0.8c-0.1-0.4,0.1-0.2,0.4-0.3c0,0.4-0.3,0.2,0.3,0.4c0-0.2,0.1-0.3,0.4-0.4c0.1,0.5,0.6-0.1,0.9,0.3
		c-0.9,0-1.6,0.4-2.6,0c0.3,0.5-0.7,0.1-0.6,0.7c0.1,0.1,0.2,0.1,0.4,0.2c0.2-0.4,0.8-0.1,0.9,0.2c-0.2-0.4,0.4-0.3,0.1-0.7
		c0.2,0,0.4-0.2,0.6,0c0.1,0.2-0.6-0.1-0.1,0.3c-0.2,0.3-0.3-0.2-0.5,0.1c0.1,0.1,0,0.2,0.2,0.3c0.5-0.4,0.6-0.1,0.7,0.2
		c0-0.5,1-0.1,1.4-0.2c0.2-0.2,0-0.2-0.2-0.3c0.5-0.4,1.3,0.1,1.6-0.3c0.3,0.2-0.1,0.3,0,0.4c-0.4,0-0.8,0-1.2-0.1
		c-0.1,0.2-0.2,0.3,0,0.5c0.1-0.1,0.2-0.1,0.3,0c0-0.1,0.1-0.2,0-0.3c0.4,0.4,1.5,0.1,1.8-0.2c-0.2,0.6,0.5,0.3,0.7,0.8
		c0.1-0.1,0.3-0.1,0.4,0c0.2-0.3-0.3-0.1-0.4-0.3c-0.1-0.3,0.3-0.4,0.7-0.8c0.3,0.4-0.3,0.3-0.4,0.6c0.4,0.3,0.3,0,0.7-0.1
		c-0.1-0.2,0-0.3,0-0.4c0.2-0.1,0.3,0.2,0.5,0c-0.3-0.3-0.7,0.2-0.9-0.3c-0.4,0.2-0.8,0.4-1.2,0.4c-0.1-0.2,0.3-0.1,0.5-0.1
		c0.2-0.2-0.4-0.3-0.3,0c0-1.3,2.1-0.1,3.3-0.4c-0.1-0.1-0.2-0.2-0.1-0.3c-0.2-0.2-0.4,0.2-0.5-0.1c0-0.2,0.6-0.4,0.8-0.1
		c-0.1-0.3,0.5-0.7,0.8-0.3c0.1,0.1-0.5,0.2-0.6,0.1c0.1,0.4-0.2,0.4-0.3,0.7c0.3,0.2,0.2,0.3,0.6,0.4c-0.5,0.1-0.8-0.2-1.5,0.3
		c0.3,0.3,0,0.3,0.4,0.5c0-0.2-0.3-0.4,0.2-0.6c0.5,0,1,0.2,1.5,0.1c-0.2-0.1-0.2-0.3-0.1-0.4c-0.2-0.1-0.4-0.1-0.7-0.1
		c0-0.2,0.3-0.3,0.5-0.3c0.1,0.1,0.1,0.2,0,0.3c0.4,0.2,0.1-0.4,0.6-0.2c0,0.2-0.2,0.4-0.1,0.6c0.6-0.4,1.5,0.1,2.1-0.3
		c0.1,0.2-0.1,0.3,0.2,0.5c0.3-0.1,0.5,0.1,0.9-0.3c-0.2-0.1-0.2-0.3-0.3-0.4c0.4-0.1,0.7,0,1.1-0.2c0.1,0.3-0.3,0.7-0.6,0.3
		c0.2,0.2-0.1,0.4,0,0.6c0.3-0.4,0.7-0.2,1.3-0.5c-0.1-0.3-0.4,0.1-0.5-0.1c0-0.3,0.4,0,0.7-0.3c0.1,0.1,0,0.2,0.2,0.3
		c0.2-0.7,0.9,0.1,1.3-0.2c0.2,0.5-0.6,0.3-0.7,0.6c0.1,0.1,0.2,0,0.2,0c0.3,0.2-0.2,0.2,0.1,0.4c0.3-0.2,0.7,0.1,0.6-0.3
		c0.3-0.3,0.5,0.2,0.7,0.1c0,0.2-0.1,0.4-0.3,0.2c0,0.4,1-0.3,1,0.4l0.5-0.3c-0.2-0.1-0.1-0.2-0.2-0.3c0.3-0.1,0.3,0.1,0.4,0.3
		c0.5-0.5,0.9,0.1,1.7,0.4c0.5-0.3,1.4,0.3,2.1,0.1c0-0.3-0.3-0.1-0.5-0.2c0.1-0.3,0.9-0.2,1.2-0.1c0.1,0.3-0.5,0-0.4,0.3
		c0.2,0.2,0.4,0.3,0.4,0.4c0.2-0.1,0.6-0.5,0.8-0.7c0.3-0.1,0.2,0.4,0.5,0.5c0.2,0.1,0.8-0.3,0.7,0.1c0.6-0.3,1.2-0.1,1.7,0
		c0.3,0.2-0.3,0.4,0,0.6c0.4-0.1-0.1-0.4,0.3-0.5c0.4-0.2,0.3,0.4,0.5,0.6c0.2-0.1,0.4,0.1,0.6,0.1c-0.1,0.2,0,0.3,0.2,0.5
		c0-0.1,0.1-0.3,0.2-0.2c0.2-0.2-0.2,0-0.3-0.3c0.2-0.2,0.4,0,0.6,0.1c0.2-0.2-0.3-0.3-0.3-0.2c0-0.2,0.1-0.3,0.1-0.4
		c0.3,0,0.3,0.2,0.5-0.1c0.3,0.3-0.1,0.2-0.1,0.4c0.3,0.2,0.3-0.1,0.4-0.3c0.4-0.1,0.7,0.1,1,0.1c0,0.2-0.3,0.4-0.3,0.5
		c0.3,0.1,0.6,0.7,1,0.5c0.2,0.4,0.3,0.6,1,0.8c-0.2-0.2-0.4-0.2-0.4-0.4c0.2-0.2,0.5,0,0.7,0c0.2-0.1-0.1-0.3,0.2-0.4
		c-0.3,0-0.8-0.4-0.9-0.1c0-0.2-0.1-0.3,0.1-0.4c0.3,0,0.1,0.4,0.5,0c0.3,0.2-0.2,0.2,0.1,0.4c0-0.4,0.4-0.3,0.7-0.1
		c0.2-0.2-0.1-0.3-0.3-0.3c0.1-0.1,0.3,0,0.4-0.1c0.1,0.2,0.5,0.4,0.3,0.5c0.1,0,0.7-0.3,0.5,0.1c0.2,0.1,0.4-0.5,0.8-0.3
		c0.1,0.1-0.2,0.2-0.3,0.3c0.4,0.1,1,0.5,1.2,0.1c0.1,0,0.6,0.1,0.3,0.3c0.7,0,1.5-0.3,1.9-1c0.2,0,0.3,0.1,0.5,0
		c0.3,0.2-0.3,0.4,0.1,0.6c-0.4,0.2-0.4,0-0.6-0.1c-0.4,0.2-0.5,0.4-0.2,0.6c0.1-0.1,0-0.1-0.1-0.2c0.2-0.1,0.5-0.2,0.7,0
		c0.1,0.2-0.2,0-0.3,0.2c0.2,0.3,0.4-0.1,0.6,0.2c0.2-0.6,1-0.1,1.5,0.3c0.3-0.2,0.5-0.6,0-0.7c0.1,0.3-0.2,0.2-0.5,0.1
		c-0.1-0.1,0.1-0.1,0.2,0c-0.1-0.3-0.9-0.2-1.2-0.3c1.2-0.3,3,0.2,4.5,0.1c0.1,0.1-0.1,0.2-0.2,0.2c0.2,0.1,0.4,0.2,0.6-0.1
		c0.1,0.4,0.3,0.1,0.6,0.3c0.2,0.2-0.5,0.2-0.1,0.4c0.3-0.4,0.4-0.1,1,0c0.3-0.3,0.6-0.5,0.9,0c0.3-0.3,0.5,0,0.8-0.3
		c0.7,1,2.2,0.5,3.5,1.1c0-0.3,0.4-0.5,0.5-0.1c0.3-0.1,0.3-0.3,0.3-0.4c0.1,0,0.2,0,0.3,0c-0.1,0.2,0,0.4-0.3,0.5
		c0.4,0.3,0.2-0.5,0.6,0c0.2-0.4,0.3-0.3,0.7-0.2c0.1,0.2-0.1,0.3-0.3,0.4c0.8-0.2,1.8,0.2,2.4-0.5c0.4-0.1,0.3,0.1,0.6,0.2
		c0.2,0.2-0.2,0.4,0,0.6c0.3-0.1,0.3-0.3,0.2-0.5c0.4,0.1,0.3-0.1,0.6-0.2c0.2,0.4-0.4,0.7-0.7,0.7c0.1,0.1,0.1,0.2,0,0.1
		c0.5,0.4,1.1,0.9,2,0.3c0.2,0.2-0.4,0.3-0.1,0.5c0.3-0.3,1,0.2,1.5,0.2c0.2-0.1,0.1-0.2,0.3-0.3c0,0.1-0.1,0.2,0,0.3
		c0.3,0,0.1-0.1,0.3-0.2c0,0.1-0.1,0.2,0,0.3c0.3,0.3,0.6,0.1,0.6-0.2c0.1,0.1,0.1,0.1,0.2,0.1c0.1,0.1-0.1,0.2-0.2,0.2
		c0.7,0.1,1.7,0.7,2.2,0.3c0.6,0.4,0.5,0,0.9,0.3c0.5-0.4,0.7-0.3,1.2-0.5c-0.1-0.2-0.3-0.1-0.5-0.3c0.3-0.2,0.4,0.2,0.7,0
		c0.1,0.1-0.1,0.2-0.2,0.2c0.5,0.1,0.9,0.4,1.3,0.5c0.1,0.1-0.1,0.2-0.2,0.2c0.2,0.1,0.4,0.2,0.7,0c0.3-0.7,1.7,0.5,2.5,0.2
		c-0.8-0.2-1.7-0.4-2.5-0.7c0.3-0.1,0.6,0.1,0.9,0.1c0.2-0.3-0.4-0.1-0.5-0.3l0.5-0.3c0.1,0.1,0,0.2,0.2,0.3
		c0.6-0.1,0.7-0.7,1.4-0.3c0,0.2-0.5,0.2-0.7,0.3c0,0.2,0.2,0.3,0,0.5c0.2-0.1,0.7-0.8,1.2-0.4c0.1,0.1,0,0.3-0.2,0.4
		c0.3,0.3,0.7-0.5,1.1-0.2c0.3,0.2-0.3,0.3,0.1,0.5c0.1,0,0.1-0.1,0-0.1c0-0.2,0.4,0,0.4-0.3c0.1,0.1,0.6,0.2,0.5-0.1
		c0.2,0.1,0.4-0.1,0.5,0.1c0,0.2-0.6,0.4-0.5,0.6c0.2,0,0.5-0.1,0.7-0.2c0.2,0.2,0,0.3,0.2,0.4c0.5,0,0.9,0.1,1.3,0.2
		c0.1,0.2-0.3,0-0.4,0.3c0.5,0.3,0.8-0.6,1.3,0c0.2,0,0.4-0.4,0.5-0.2c0.2-0.2-0.2-0.1-0.2-0.3l0.3-0.2c0.4,0.3,0.9,0.1,1.3,0.5
		c0,0.3-0.6,0.3-0.8-0.1c-0.2,0.1-0.4,0.2-0.6,0.2c0.2,0,0.7,0.6,1.2,0.2c0.3,0.2-0.1,0.4,0.1,0.6c0.4-0.4,1.2-0.2,1.9-0.2
		c0.1,0.3-0.2,0-0.3,0.2c0.3,0,0.1,0.2,0.4,0.4c0.4-0.1,0.8,0.1,1.2-0.1c0.5,0.5,0.5,0,1.4-0.3c-0.3,0-0.7,0.1-1-0.1
		c-0.2,0.1-0.1,0.2,0,0.3c-0.2,0.1-0.4,0-0.6-0.1c-0.2-0.1,0.3-0.1,0.3-0.1c-0.1-0.2-0.7-0.9-1.1-0.6c-0.2-0.4-1-0.5-1.5-0.4
		c-0.1-0.2,0-0.3-0.4-0.1c-0.7-0.5-1.4-0.7-2.2-0.7c0-0.4-0.8-0.2-0.5-0.6c-0.1,0.1-0.4,0.1-0.7,0.1c0.1,0.1,0.2,0.1,0.3,0.2
		c-0.2,0-0.3,0-0.5,0.1c0-0.1,0-0.2,0.1-0.3c-0.2-0.2-0.4-0.1-0.5-0.3c-0.2,0.1-0.1,0.2-0.2,0.2c-0.1-0.2-0.3-0.4-0.5-0.1
		c-0.1-0.1-0.2-0.3-0.3-0.2c-0.2-0.2,0.4-0.2,0.1-0.4c-0.4,0.4-1.6,0-1.8-0.3c-0.2-0.2-0.1,0.2-0.3,0.2c-0.1,0-0.1,0-0.2,0
		c-0.3-0.2,0-0.3-0.3-0.5c-0.5,0.3-1.4-0.2-2.1-0.4c-0.2,0.2-0.4,0.1-0.6,0.2c0.3,0.3,0.3-0.2,0.7,0c-0.2,0.2-0.2,0.1,0,0.5
		c-0.5,0.3-0.9,0.1-1-0.3c0.2-0.2,0.3,0.3,0.6,0.1c-0.3-0.1-0.4-0.4-0.1-0.6c-0.5-0.1-0.9-0.3-1.4-0.4c0.2-0.3,0.1-0.2-0.2-0.4
		c0.3,0,0.5,0.1,0.7,0.4c0.2-0.1-0.2-0.3,0.1-0.4c-0.3,0-0.5-0.2-0.8-0.2c-0.2,0.1,0,0.4,0.2,0.5c-0.4,0-0.8-0.2-1.3,0
		c-0.1,0.2,0,0.3-0.1,0.5c-0.5,0,0-0.3-0.3-0.5c-0.1-0.1,0.1,0,0.3-0.2c-0.4-0.5-1.4-0.3-1.8-0.9c-0.7,0.3-1.2,0-1.8-0.1
		c-0.2-0.4,0.4-0.2,0.5-0.6c-0.4-0.3-0.6,0.3-0.6-0.3c-0.2,0.2-0.2,0.4-0.1,0.6c-0.5,0.1-1-0.1-1.5-0.3c-0.2,0.5-0.7,0.2-1.1,0.1
		c-0.1-0.1,0.1-0.2,0.2-0.2c0.1,0,0.2,0.1,0.3,0.2c0.1,0,0.1-0.1,0.1-0.2l0.2-0.1c-0.2-0.2-0.6,0.1-0.8-0.3c0.2-0.1,0.3,0,0.5,0
		c0.1-0.3-0.4-0.2-0.6-0.3c0.6-0.5-0.6-0.2-0.9-0.4c0,0.2-0.1,0.6-0.5,0.5c0.2-0.3-0.1-0.3-0.1-0.7c-0.1,0.1-0.2,0.1-0.2,0
		c0.1,0.4-0.4,0.3-0.5,0.6c-0.2-0.1-0.8-0.5-1.2-0.2c-0.2-0.2,0-0.3,0.1-0.5c-0.4-0.2-0.8-0.3-1-0.5l-0.3,0.2l0.3,0.3
		c0.3-0.3,0.5,0.1,0.8,0.2c-0.4,0.2-0.7-0.2-1.1,0c0.1-0.8-0.8-0.4-1.3-0.9c0.2,0.1,0.5,0,0.7,0.2c0.1-0.3-0.6-0.3-0.8-0.3
		c-0.1,0.2-0.1,0.3-0.2,0.5c-0.4,0-0.2-0.4-0.3-0.5c-0.1,0.1-0.2,0-0.3,0c-0.1,0.4-0.4,0.3-0.7-0.1c0.2,0.4-0.1,0.1-0.5,0.4
		c-0.4-0.4,0.6-0.2,0.1-0.6c-0.2,0.4-0.5,0.3-0.7,0.5c-0.3-0.3,0.5-0.2,0.4-0.5c-0.4-0.1-0.4-0.1-0.7,0.2c-0.3-0.3,0.3-0.1,0.2-0.4
		c-0.6-0.5-0.9,0-1.5,0.1c-0.2-0.2,0-0.3-0.3-0.5c-0.4,0.3-0.6-0.1-1,0.1c-0.1-0.2,0.1-0.3,0.1-0.5c0.1-0.1,0.2,0,0.3-0.1
		c0.2,0.2,0,0.3-0.1,0.4c0.5,0,0.6-0.2,1.1-0.1c-0.3-0.1-0.6-0.4-0.9-0.3c-0.2-0.2,0.4,0,0.2-0.2c0.3,0.2,0.7,0.1,1,0.2
		c0.1-0.1-0.1-0.2,0-0.3c0.3-0.1,0.1,0.3,0.3,0.4c0.1-0.1,0.3-0.1,0.4,0c0.1-0.8,0.7,0.3,1.2-0.2c0.2,0.2-0.1,0.4,0.2,0.4
		c0.2-0.2,0-0.5,0.3-0.7c-0.2-0.2-0.4,0-0.6-0.2c-0.1,0.1,0,0.2,0.1,0.3c-0.3,0.2-0.5,0-0.7-0.1c0-0.2,0.2-0.1,0.4-0.3
		c0.3,0,0.6,0.1,0.9,0c0.2,0.2-0.1,0.4,0.2,0.4c0.6-0.9,2.1,0,3.1,0.1c0,0.2-0.3,0.3-0.2,0.5c-0.9-0.2-1.7-0.6-2.6-0.6
		c-0.2,0.2,0.3,0.3,0.4,0.1c0.2,0.2,0.5,0.2,0.2,0.5c0.3,0,0.5,0,0.8,0c0,0.2-0.3,0.3,0.1,0.5c0.3-0.3,0.3-0.2,0.7-0.1
		c0.3,0.2-0.1,0.3,0.2,0.5c0.5,0.2,1.2,0,1.5-0.2c0,0.1,0.1,0.2,0,0.3c-0.2,0.1,0-0.3-0.3,0c0.4,0.3,0.9,0.1,1.3,0.4l0.6-0.4
		c0.1,0.2,0.1,0.4,0.4,0.6c0.4-0.4-0.1-0.4-0.2-0.7c0.3-0.2,0.5,0.5,0.8,0.2c0.3,0.3-0.4,0.5,0,0.8c0.1-0.1,0-0.1,0-0.2
		c0.6-0.1,1.1,0.1,1.7,0.3c0.3-0.2-0.1-0.6-0.4-0.6c0.3-0.1,0.7-0.6,0.9-0.3c0.1,0.3-0.3,0-0.3,0.3c0.1,0.3,0.3-0.1,0.4,0.2
		c0.2-0.2,0-0.3,0.4-0.4c0.2,0.1,0.1,0.3-0.1,0.4c0.4,0.3,0.4-0.5,0.8-0.2c0.1,0.2-0.5,0.3-0.2,0.6c0.3-0.1,0.2-0.3,0.4-0.4
		c0.1,0,0.2,0,0.3,0c0,0.2-0.4,0.2-0.4,0.5c0.4,0,0.3,0.2,0.6,0.5c0.7,0.3,1.4,0.1,1.9,0.1c-0.5,0.4,1.2,0.4,1.6,0.7
		c-0.1,0.3-0.7-0.2-1,0.2c0.6,0.4,1.2-0.2,1.5,0.3c0.1-0.1,0-0.2-0.1-0.3c0.2-0.3,0.4,0,0.6-0.2c0.5,0.7,1.3,0.2,1.5,0.8
		c0.7-0.2,1.1,0.2,1.7-0.1c-0.3-0.1-0.1-0.1-0.3-0.3c0.9-0.3,1,0.5,1,1c0.2-0.2,0.1-0.5,0.3-0.7c0.3,0.1,0.6,0.1,0.9,0.3
		c0.1,0.2-0.4,0.1-0.6,0.2c-0.1-0.2,1.1,0.4,1.3,0.3c0.2,0.1,0.1,0.4,0,0.3c0,0.3,0.3,0.1,0.4,0.1c0.1-0.1,0-0.2-0.1-0.3
		c0.6,0.1,1.4,1,2.3,0.7l0.3,0.4c0.2-0.1,0.3,0.1,0.5-0.1c0.5,0.8,1.3,0.2,1.8,0.9c0.7-0.2,1.3,0.1,1.9,0.6
		c-0.4,0.1-0.5,0.3-0.8,0.4c0.7,0.1,1.6-0.2,1.8,0.2c0.1-0.5,0.6-0.7,0.5-1.3c0.4,0.1,0.7,0.4,1,0.5c0.1-0.6-1.3-0.4-1.2-1.1
		c0.2-0.1,0.3,0.2,0.4,0.3c0.1-0.4,0.6,0.1,0.9-0.2c-0.1,0.2-0.2,0.4,0.2,0.7c0-0.3,0.3-0.3,0.6-0.5c0.2,0.3,0.6,0.7,0.6,0.3
		c0.2,0.2,0.1,0.4,0.4,0.5c0.1,0.3-0.1,0.2-0.3,0.3c0.3,0.1,0.6,0.2,1,0.1c0.2,0.3-0.3,0.4-0.1,0.6c0.1-0.1,0.3-0.6,0.6-0.2
		c0.1-0.1,0.3-0.3,0-0.5c0.4-0.1,0.4,0,0.6-0.3c0.2-0.2,0.2,0.4,0.4,0.2c0.4-0.2-0.1-0.3-0.2-0.4c0.2,0,0.4,0.2,0.6,0.1
		c0.1,0.2-0.4,0.3-0.1,0.5c0.1-0.3,0.5,0,0.4,0.1c0.5-0.4,1.2-0.1,1.8,0.5c0-0.1,0.3-0.3,0.3-0.4c-0.3-0.2-0.1-0.2-0.4-0.5
		c-0.2,0.1-0.1,0.2,0,0.3c-0.6,0-1.2-0.5-1.8-0.8c0.6-0.1,1,0.5,1.5,0.3c-0.3-0.1-0.5-0.2-0.8-0.5c0.3-0.1,0.6,0.3,0.9-0.1
		c0.1,0.2-0.2,0.3,0.1,0.5c0.1-0.1,0.3,0,0.4-0.1c0.2,0.1,0,0.2-0.1,0.3c0.1,0.1,0.3,0,0.4,0.2c0.1-0.3,0.6,0,0.7-0.4
		c0.4,0.3-0.1,0.4,0.2,0.7c0.3-0.1,1,0.2,1,0.4c0.5-0.2,0.4,0.2,0.9,0.2c0.1,0.3-0.2,0-0.3,0.2c0.4,0.3,0.8,0.1,1.2,0.4
		c0.2-0.2,0.2-0.2,0.3-0.5c0.2,0.1,0.7,0.1,0.8-0.2c0.3,0.2-0.2,0.2,0.1,0.4c0.2,0.1,0.5-0.1,0.6,0.2c0.3-0.1,0.1-0.3,0.4-0.3
		c0.2,0.2-0.4,0.4-0.4,0.6c-0.2,0.2-0.3-0.5-0.5-0.2c0,0.3,0.6,0.4,0.9,0.2c0.2,0.2,0,0.3,0.2,0.4c0.4-0.2,1.2-0.3,1.3,0
		c0.1,0.1,0.2-0.1,0.1-0.2c0.3,0,0.6,0,0.8,0.3c0.2-0.2,0.4,0,0.6-0.2c-0.4,0.1-0.5-0.6-0.9-0.2c-0.2-0.4,0.2-0.4-0.3-0.7
		c0.5-0.3,0.5,0.1,0.6,0.2c0.3-0.3-0.2-0.3-0.2-0.6c-0.2,0.2-0.3,0.1-0.4-0.1c-0.2,0.2-0.4,0-0.4,0.2c0.2,0.2,0.5,0.1,0.3,0.4
		c-0.2,0.1-0.3-0.3-0.5-0.2c-0.1-0.3,0.3-0.3-0.1-0.5c0.1,0.5-0.3-0.1-0.6-0.1c0-0.1,0.1-0.4,0.3-0.3c-0.2,0-0.6-0.5-1-0.4
		c-0.2-0.6-0.7-0.3-0.8-0.9c-0.4,0-0.4,0.3-0.8,0.2c-0.1-0.1,0.2-0.2,0.3-0.3c-0.2-0.5-0.6-0.3-0.9-0.5c-0.1,0.1-0.1,0.2,0.1,0.3
		c-0.3,0.3-0.5-0.1-0.6,0.2c0-0.1,0-0.4-0.2-0.3c-0.1-0.3,0.1-0.2,0.3-0.3c-0.3-0.3-0.8-0.1-1.1-0.6c-0.3,0.6-0.5-0.4-0.9,0.1
		c0.1-0.4-0.3-0.2-0.3-0.5c0.3,0,0.6,0,0.8,0.3c0.3-0.5,1,0.1,1.4,0.4c0.1-0.2,0.1-0.4,0.5-0.5c-0.8,0.5-2-1.2-2.8-0.2
		c-0.5-0.1-0.9-0.1-1.4-0.4c-0.1,0.1-0.1,0.2,0.1,0.3l-0.5,0.3c-0.2,0-0.3-0.1-0.4-0.2c0.3-0.2,0.4,0.1,0.7-0.2
		c-0.2-0.2-0.4-0.2-0.6-0.4L226,31c-0.1,0-0.2-0.1-0.4-0.1c-0.1-0.2,0.1-0.3,0.3-0.4c-0.5-0.2-0.4,0.6-1,0.2c-0.1,0.1-0.1,0.2,0,0.3
		c-0.2,0.1-0.3,0.1-0.5,0c0.4-0.5-0.7-0.8-1.1-1.2c0.5-0.1,1.5,0.5,1.5,0c0.4,0.1,0.8,0.4,1.3,0.4c0.1-0.3-0.5-0.2-0.7-0.4
		c0.4-0.1,0.4,0,0.7-0.3c0.1,0.6,0.4,0.1,0.5,0.7c0.4-0.2,0.3-0.4,0.2-0.7c0.3-0.1,0.2,0.3,0.4,0.5c0.2-0.1,0.4,0,0.6-0.2
		c0.2,0.2,0,0.3,0.2,0.4c0.4-0.3,0.2,0,0.5,0.2c0.4-0.1,0.7,0.1,1.1-0.1c0.3,0.2-0.1,0.3,0,0.5c-0.4,0-1-0.4-1,0.1
		c0.2,0.1,0.4-0.1,0.6-0.2c0,0.1,0,0.2,0.1,0.3c0.4-0.2,0.4-0.2,0.7,0.1c0.5-0.2,0-0.5,0.5-0.6c0.1,0,0.1,0,0.2,0
		c0.2,0.2,0,0.3-0.1,0.5c0.1,0.3,0.4,0.1,0.5,0.4c0.2-0.1,0.1-0.2,0-0.3c0.5-0.1,0.8,0.6,1.4,0.1c0.8,0.4,1.4,0.2,2,0.7
		c0.3-0.3,0.5,0,0.8,0c0.1-0.3,0.1-0.4,0.3-0.5c-0.3-0.3-0.3-0.3-0.5-0.6c-0.2,0.3-0.1,0.2-0.4,0.4c-0.3,0-0.6-0.2-1,0
		c-0.1-0.3,0.4-0.4,0.5-0.6c-0.1-0.2-0.7-0.1-0.6-0.4c-0.5-0.2-1.1,0.2-1.5-0.4c0.3-0.1,0.6,0,0.9-0.1c-0.2-0.1-0.4-0.1-0.5-0.4
		c-0.1,0.3-0.2,0.2-0.3-0.1c-0.7,0.4-1.1-0.4-1.7-0.4c-0.3-0.2,0.1-0.2,0.2-0.4c-0.2-0.3-0.4-0.1-0.6-0.2c0.1,0.2,0,0.5,0.4,0.8
		c0,0.1-0.1,0.2-0.1,0.3c-0.2,0-0.3-0.1-0.5-0.2c-0.1-0.1,0.2-0.2-0.1-0.4c-0.2,0.1-0.2,0.2-0.3,0.3c-0.1,0-0.2-0.1-0.3,0
		c-0.1-0.3,0.2-0.1,0.2-0.4c0.3-0.1,0.4,0.3,0.7,0.1c-2.2-0.7-4.5-1-6.8-1.9c-0.2,0.5-0.9,0.1-1-0.3c-0.2,0.2,0,0.6-0.2,0.8
		c-0.4,0.1-0.3-0.4-0.8-0.3c-0.1-0.1,0.1-0.2,0.2-0.2c-0.4-0.1-0.8,0.1-1.1-0.1c0.6-0.6-0.8-0.5-1.3-1.1c-0.3,0.1,0,0.3,0.1,0.4
		c-0.6-0.1-0.3-0.1-0.8-0.4c-0.1,0.1,0.2,0.2,0,0.3c-0.2,0-0.3-0.1-0.4-0.2c0,0.1-0.1,0.2-0.4,0.3c-0.4,0.1-0.2-0.4-0.6-0.1
		c-0.1-0.1,0-0.3,0.2-0.4c-0.9-0.3-0.7-0.5-1.8-0.5c0-0.1,0-0.2,0.1-0.3c-0.8,0.3-1.4-0.2-2.1-0.1c0-0.1,0-0.2,0-0.3
		c-0.3-0.1-0.6,0.1-0.9,0.3c-0.2-0.2-0.2-0.3,0.1-0.4c-0.9,0-1.7-0.8-2.7-0.3c-0.3-0.2,0.1-0.3-0.1-0.5c0.2-0.1,0.3,0.1,0.5-0.1
		c-0.7,0-1.6,0.2-2.5-0.2c-0.2,0.3,0.6,0.3,0.1,0.5c-0.3-0.3-0.6-0.6-1-0.5c-0.3,0.4,0.3,0.1,0.5,0.3c-0.3,0.2-0.6,0-0.9,0.1
		c0-0.2,0.1-0.4,0.3-0.6c-0.8,0-1.4,0.4-2.2,0c0-0.1,0.1-0.2,0-0.3c-0.1-0.1-0.2-0.1-0.3-0.2c-0.3,0.2-0.2,0.2-0.5,0.3
		c0-0.1-0.1-0.3-0.2-0.4c-0.4,0.1-0.8,0-1.1-0.1c-0.1-0.2,0.3-0.2,0.3-0.1c-0.2-0.4-0.9-0.1-1.2,0.3c-0.4-0.2,0-0.3,0.2-0.5
		c-0.5-0.1-1.1,0.4-1.6,0.1c-0.2-0.1,0.3-0.3,0.3-0.1c0-0.3-0.3-0.4-0.7-0.5c0.1,0,0.5,0,0.2-0.2c0.2-0.1,0.3,0.2,0.5-0.1
		c-0.2-0.3-0.5-0.1-0.7-0.2c0.1,0.2-0.2,0.5-0.4,0.3c-0.1,0.1,0.1,0.1,0.2,0.2c-0.3,0.1-0.6,0.1-1,0.4c-0.3-0.2,0.2-0.3-0.1-0.5
		c-0.3,0.2-0.6,0.1-0.7,0.4c-0.6-0.2-1.3-0.4-1.8-0.4c0,0.1,0,0.3-0.3,0.4c-0.2-0.4,0.3-0.5-0.4-0.7c0.2-0.2,0.4,0,0.6,0
		c0-0.3-0.7,0-1-0.2c0,0.1,0.1,0.2-0.1,0.3c-0.2-0.2-0.4-0.1-0.5-0.5c-0.3,0.1-0.1,0.3-0.4,0.4c-0.2,0-0.4-0.6-0.8-0.2
		c-0.2-0.2,0-0.3-0.2-0.4c0.2-0.1,0.4-0.1,0.5,0c-1-0.8-2.9-0.4-4.2-0.8c0-0.2,0.2-0.3,0.4-0.5c-0.3-0.1-0.6,0.1-0.8-0.2
		c-0.2,0.1-0.2,0.3-0.1,0.4c-0.7-0.1-1.8-0.8-2.6-0.1c-0.2-0.3,0.3-0.2,0.3-0.4c-0.5-0.1-0.6-0.1-1-0.2c-0.1,0.1,0,0.2-0.1,0.3
		c-0.5,0.1-1.2-0.8-1.6-0.2c-0.2-0.2-0.1-0.3-0.3-0.5c-0.2,0-0.5,0.3-0.7,0c-0.4,0.6-1.3-0.3-1.9,0.1c0.1-0.1-0.2-0.3-0.1-0.4
		c-0.4,0.1-0.8,0.3-1.1-0.2c-0.2,0.1-0.3,0.2-0.5,0.2c0-0.1,0-0.2-0.1-0.3c-0.1,0.2-0.5,0.1-0.3,0c-0.3,0.2-0.6,0.1-1-0.1
		c0.1,0.3-0.1,0.3-0.4,0.3c-0.1-0.1,0.1-0.2,0.2-0.2c-0.4-0.1-0.8-0.1-1.1-0.2c0.3-0.3,0.4,0.1,0.6-0.3c-0.2-0.1-0.4-0.2-0.7-0.1
		c-0.1-0.1,0.2-0.2,0.3-0.3c0.3,0,0.5,0.5,0.8,0.2c-0.3,0-0.1-0.4-0.5-0.4c-0.1-0.3,0.2-0.3,0.5-0.3c0.1,0.2-0.1,0.3-0.1,0.4
		c0.3,0.2,0.4-0.1,0.6-0.3c0.3,0,0.5-0.1,0.7,0.2c-0.5-0.1-0.5,0.4-0.9,0.2c-0.2,0.2,0.5,0.2,0,0.4c-0.3,0.2,0.1-0.4-0.2-0.2
		c-0.4,0.2-0.1,0.1,0.1,0.4c-0.1,0-0.2,0-0.3,0c0.3,0.3,1.3,0,1.9,0.3c-0.1-0.4,0.3,0,0.4-0.3c-0.4,0-0.7,0-1.1,0.1
		c-0.1-0.9,1.1-0.5,1.5-0.7c0.5,0.4-0.1,0.6,0.3,1c0.1-0.4,0.5,0.2,0.8-0.2c-0.2,0-0.9-0.2-0.6-0.5c0.4,0.5,0.4-0.2,1,0.2
		c0.3,0.2-0.1,0.4,0.1,0.6l0.4-0.3c-0.1-0.1-0.2-0.2-0.1-0.3c0.7-0.2,1.4,0,2.2-0.1c-0.2-0.3-0.4-0.1-0.6-0.3
		c0.5-0.2,1.2-0.2,1.3,0.3c-0.2-0.1-0.4,0-0.6,0.2c-0.1,0.2,0.4,0.1,0.2,0.3c0.5,0,0.9-0.5,1.2,0.1c0.2-0.2,0.4-0.1,0.5,0
		c0-0.1,0.2-0.2,0.1-0.3c0.5,0.3,1.5-0.1,1.8,0.5c0.3,0,0.7-0.1,1-0.1c0,0.1-0.1,0.2-0.1,0.3c0.3,0.2,0.2-0.2,0.4-0.3
		c0.3,0.3,0.1,0.4-0.1,0.6c0.3,0.2,0.8,0.1,0.8,0.5c0.1-0.2-0.1-0.5,0.3-0.7c-0.4-0.3-0.2,0.5-0.8,0.2c-0.1-0.3,0.1-0.4,0.4-0.5
		c0.6,0,1.1,0.6,1.7,0.5c0.2,0.4-0.3,0.2-0.5,0.3c0.2,0.2,0.5,0,0.8,0c0-0.1,0-0.2-0.1-0.3c0.2,0,0.3,0.2,0.3-0.1
		c0.4,0.3,0.9-0.3,1.2,0.4c0.1-0.3,0.7-0.2,0.7,0.1c0.3-0.5,1-0.4,1.5-0.1c0.2-0.1,0.1-0.2,0.2-0.2c0.4,0.3,0.8,0.1,0.8,0.6l0.6-0.4
		c0.5,0.3-0.2,0.4,0.1,0.7c0.4-0.2,0.7-0.1,1,0.1c0.1-0.2,0.4-0.4,0.5-0.6c0.2,0.3-0.4,0.5-0.1,0.8c0.1-0.6,1-0.5,1.5-0.1
		c0.4-0.1,0.4-0.5,0.8-0.3c-0.1,0.2-0.4,0.4,0.1,0.4c0,0.2-0.2,0.4-0.5,0.5c0,0.1,0.1,0,0.1,0l0.1,0.1c0.3-0.1,0.1-0.3,0.4-0.5
		c0.4-0.1,0.3,0.4,0.7,0.6c0.3-0.2,0.5,0.2,0.8,0c-0.2-0.4-0.6-0.3-0.9-0.2c0-0.1-0.1-0.3-0.3-0.5c0.3,0.1,0.3-0.2,0.7,0.2
		c0.4-0.1-0.1-0.3,0.2-0.4c0.3,0.4,1,0.4,1.5,0.5c0.1-0.2-0.4-0.3-0.6-0.2c0-0.5,0.7-0.3,1-0.2c0.2,0.3-0.5,0-0.3,0.2
		c0.3,0.4,0.3-0.2,0.7,0c-0.5,0.5,1.2,0.1,1.6,0.8c0.2-0.2,0.8-0.3,1.2-0.5c-0.1,0.5,1.2,0.2,1.4,0.1c0.1,0.1,0.2,0.2,0.1,0.3
		c0.2-0.2,0.4,0.1,0.8-0.1c0.2,0.5,0.5,0.1,1.1,0c0.1,0.2-0.1,0.3,0.1,0.5c1-0.2,1.4,0.2,2.4,0.1c0.1,0.2-0.1,0.3,0.2,0.3
		c0.1-0.5,0.6-0.1,0.7,0.2c-0.1-0.4,0.4-0.6,0.8-0.4c0.1,0.3-0.5-0.1-0.4,0.3c0.1,0.1,0.2,0.1,0.3,0.2c0.1-0.1,0-0.3,0.3-0.3
		c0.1,0.1-0.2,0.2-0.1,0.3c0.4,0.2,0.6,0.1,0.6-0.2c0.4-0.1-0.1,0.4,0.3,0.4c0-0.3,0.3-0.4,0.7-0.4c0.1,0.4,0.2,0,0.5,0.4
		c0-0.3,0.4-0.2,0.6,0c0,0.2-0.2,0.1-0.1,0.3c0.2-0.4,1.3,0.2,1.2-0.4c0.2,0.2,0.6-0.3,0.9-0.1c0.2,0.3-0.3,0.2-0.5,0.4
		c0.3,0.1,0.6,0,0.8,0.2c0.3-0.8,1.2-0.2,1.5-0.3c-0.1,0.2-0.4,0.3-0.6,0.3c-0.1-0.1-0.1-0.2,0-0.2c-0.3-0.2-0.3,0.1-0.6,0.2
		c0.5,0.2,0.6,0.1,1,0.7c0.3-0.1,0-0.3,0.2-0.4c0.4,0.5,2.2,0.3,2.8,0.6c0.1,0,0.7-0.1,0.5-0.4c0.4-0.2,0.7,0.4,0.8-0.1
		c0.2,0.2-0.1,0.3-0.1,0.5c-0.1,0-0.2-0.1-0.3-0.3c-0.3,0.2,0.1,0.4-0.4,0.5c0.4,0.1,0.5-0.1,1-0.2c0,0.1,0,0.2,0.1,0.3
		c0.3-0.2-0.1-0.2,0-0.5c0.2-0.1,0.4,0.2,0.7-0.1c-1.1-0.5-2.2-0.7-3.4-1c-0.3-0.2,0.2-0.2-0.1-0.4c-0.3,0-0.2,0.1-0.4,0.2
		c-0.3-0.3,0.3-0.5,0.6-0.7c0.6,0.1,1.2,0.8,2.1,0.6c0.2,0,0.4,0.3,0.6,0.3c-0.2-0.3-0.1-0.3,0.3-0.1c0.3-0.1,0-0.3,0.2-0.4
		c0.5,0.6,0.7,0.2,1.2,0.3c0.2,0.2,0,0.3,0.2,0.4c0-0.3,0.3-0.4,0.6-0.2c0.2,0.2-0.4,0.2-0.1,0.4c0.1-0.1,0.2,0,0.3,0
		c0-0.1,0.1-0.2,0.3-0.3c0.6,0.3,0.9,0.4,1.4,0.8c0.2-0.5,0.5,0.2,0.9,0c0.1,0.3-0.3,0-0.4,0.2c0.3,0,0.6,0,0.8,0.2
		c0.2,0,0.4-0.3,0.5-0.2c0-0.3,0-0.3,0.5-0.5c-0.6,0-0.7-0.5-1.3-0.3c-0.2-0.3,0.2-0.2,0-0.5c-0.3,0.1-0.4,0.3-0.3,0.5
		c-0.2,0.1-0.4,0-0.6,0.1c0.1-0.4-0.5-0.3-0.7-0.3c-0.1-0.3,0.4-0.2,0.5-0.5c-0.3-0.1-0.3,0-0.5,0.2c-0.1-0.1-0.3-0.4-0.7-0.5
		c0,0.2-0.3,0.3-0.5,0.4c-0.1-0.2,0.1-0.4-0.2-0.7c-0.2,0.2-0.4-0.1-0.6-0.1c0.1-0.1,0-0.3,0-0.5c-0.8,0-1.6-0.3-2.4-0.5
		c-0.5,0.3-0.9-0.3-1.4-0.1c-0.7-0.8-2,0.1-2.4-0.9c-0.2,0.2-0.3,0-0.5,0.2c-0.2-0.3-0.4-0.3-0.5-0.5c0.3-0.1,0.5,0.2,0.7-0.2
		c-0.2,0.3,0.2,0.2,0.4,0.3c0.2-0.2-0.1-0.2-0.3-0.3c0.4-0.2,0.7,0,1.1,0.1c0.1,0.1-0.4,0.1-0.5,0c0.1,0.3,0.9,0.1,1.3,0.3
		c-0.1-0.3-0.4,0-0.5-0.3c0.7,0.2,1-0.1,1.6,0c0.2,0.2-0.5,0.2-0.2,0.4l0.3-0.2c0.6,0.4,1.4,0.3,1.9,0.1c-0.5,0.3,0.2,0.3,0.6,0.4
		c0.1-0.2,0.3-0.3,0-0.3c0.6-0.4,0.6,0.4,1.1,0.1c0.2,0.2,0,0.4,0,0.6c0.2,0.1,0.6-0.2,0.6-0.3c0.3-0.1,0.8,0.6,1,0.1
		c0.1,0,0.6,0.3,0.5,0.4c0.3-0.2,1.2-0.2,1.8,0.2c-0.4,0.1-0.4,0-0.8,0.3c0.2,0.2,0.5,0.3,0.7,0.5c0.2,0-0.1-0.5,0.1-0.3
		c0.2-0.3-0.3,0-0.4-0.1c0-0.4,0.9-0.6,1.2,0c0.5,0.1,1.1-0.6,1.6-0.1l0.3-0.2c0.2,0.2-0.1,0.2-0.1,0.4c0.3,0.2,0.7-0.3,0.9,0
		c0.1,0.3-0.3,0.1-0.4,0.2c0.9,0,1.7-0.1,2.2,0.4c0.3,0,0.5,0.1,0.8-0.1c-0.2-0.1-0.2-0.2,0-0.3c0.2,0.4,1.1,0.1,1.6,0.6
		c-0.2,0.1-0.4,0.2-0.6,0.1c0.1,0.2,0.9,0.4,1.3,0.5c0.4-0.2-0.3-0.1-0.3-0.4c0.3-0.2,0.5,0.1,0.8-0.1c0-0.1,0-0.2,0.1-0.3
		c-0.2-0.2-0.3-0.1-0.2-0.3c0.1,0,0.2,0,0.3-0.1c0.3,0.5,0.4,0.4,0.9,0.7c-0.3,0.3-0.5-0.3-0.8,0c0.1,0.3,0.3,0.1,0.5,0.4
		c-0.1-0.3,0.6-0.4,0.9-0.3c0.1,0.1-0.1,0.2-0.2,0.2c0.1,0.3,0.4,0.1,0.5,0.4c0.2-0.1-0.2-0.3-0.1-0.4c0.6-0.1,1,0.3,1.6,0.2
		c0.1-0.3-0.4,0-0.6-0.2c0-0.1,0-0.1,0-0.2c0.4,0.2,0.5,0,0.9-0.1c0.1-0.4-0.3-0.3-0.5,0c-0.3-0.2,0.4-0.3-0.1-0.4
		C244.1,21.7,244.6,21.7,244.3,21.3z M216.4,13.3c-0.3,0.2-0.6-0.1-0.8-0.2C215.9,13,216.1,13.2,216.4,13.3z M193.6,7.8
		c0.3-0.3,0.8,0.1,0.4-0.4c0.5-0.1,0.9,0,1.3,0.2c-0.2,0.2-0.3,0.1-0.5,0.4c-0.1-0.1-0.2-0.3-0.3-0.2c-0.1,0.1,0,0.2,0,0.3
		C194.2,7.9,193.8,8.2,193.6,7.8z M22.1,27.5c-0.2,0.2-0.1,0.5-0.5,0.3C21.6,27.5,21.9,27.3,22.1,27.5z M23.5,34.2
		C23,34.5,23,34.5,22.6,35c-0.2-0.3-0.4-0.1-0.5,0.1c-0.3-0.2-0.3-0.3-0.5-0.6c-0.3,0.3-0.1,0.5,0.1,0.8c-0.6-0.1-0.6-0.7-0.3-1
		c0.6,0.4,1-0.5,1.5-0.4c0.3,0.2-0.3,0.2-0.1,0.4C23,34.1,23.4,34,23.5,34.2z M68.8,26.9c0.3-0.2,0.5,0,0.8-0.1
		C69.3,27.1,69.1,27,68.8,26.9z M92.2,25c0.1,0.2,0.6,0.2,0.5,0.4C92.5,25.1,91.9,25.4,92.2,25z M109.9,25.2
		c-0.2-0.1-0.4,0.2-0.6-0.1C109.5,24.8,110,24.9,109.9,25.2z M213.4,34.7c0.3,0,0.6,0.1,0.9,0.3C214,35,213.3,35,213.4,34.7z
		 M207.8,29.7c0.1-0.3,1.4,0,1.1,0.4C208.5,29.7,208.1,30.1,207.8,29.7z M233.6,34.8c-0.1,0.1-0.1,0.2-0.3,0.3
		c-0.1-0.2-0.2-0.1-0.3-0.3C233.2,34.7,233.4,34.5,233.6,34.8z M200.6,19.7c0.7,0.1,1,0.1,1.6,0.3C201.6,20.1,201.1,20,200.6,19.7z
		 M215.1,21.8c0.2,0.1,0.8,0.1,0.8,0.3C215.6,22.1,215,22.1,215.1,21.8z M222.4,23.4c0-0.1,0.3-0.5,0.5-0.2
		C222.9,23.4,222.4,23.6,222.4,23.4z M241.6,21.8c0.1,0.1,0.1-0.1,0.3-0.1c0.1,0.4,0.5-0.1,0.6,0.3
		C242.1,22.3,241.5,22.1,241.6,21.8z M231.4,18.4c0.2,0,0.4-0.2,0.6,0.1C231.6,18.8,231.4,18.4,231.4,18.4z M221.4,14.6
		c0.1-0.2,0.5-0.2,0.7,0.1C221.8,15,221.6,14.8,221.4,14.6z M219.2,14.2c0.3-0.1,0.9,0.1,0.9,0.4C219.8,14.4,219.5,14.6,219.2,14.2z
		 M232.2,29.8c-0.5-0.1-1,0-1.5-0.3C231.3,29.3,232.1,29.5,232.2,29.8z M213.3,9c0.1-0.3,0.6-0.2,0.8,0.1
		C213.8,9.3,213.6,9.2,213.3,9z M222,19c0.2,0.1,0.5-0.1,0.7,0.1C222.5,19.3,221.9,19.3,222,19z M232,30.9c0.1,0.2,0.6,0,0.4,0.3
		C232.2,31.1,231.7,31.2,232,30.9z M231.5,31c-0.1-0.4-0.2-0.1-0.5-0.3c0.1-0.1-0.1-0.2,0-0.3c0.4,0.1,0.2,0.3,0.6,0.1l0.2,0.2
		C231.7,30.8,231.7,30.9,231.5,31z M230.2,30c0.3,0,0.5-0.2,0.7,0.1C230.7,30.4,230.4,30.2,230.2,30z M221.9,22.1
		c-0.2,0.1-0.3,0.1-0.5,0c0.4-0.1,0.3-0.8,0.7-0.5C222.2,21.9,221.7,21.8,221.9,22.1z M227.9,29.8l0.3-0.2l0.2,0.2
		C228.2,30,228.1,29.8,227.9,29.8z M231.7,34.3c0,0.5,0.3,0,0.6,0.2C232.2,35,231.1,34.6,231.7,34.3z M220.2,21.9
		c-0.4-0.3-1.1,0.2-1.3-0.5c-0.1,0.4-0.6,0.3-0.9,0.1c0.7,0,0.7-0.4,1.4-0.6c0.2,0.6,0.3,0,0.4,0.4c0.4,0,1.2-0.2,1.3,0.1
		c-0.1-0.1-0.5-0.1-0.3,0.1c0.3,0,0.5,0,0.7,0.3c-0.2,0.2-0.4,0-0.6-0.2C220.7,21.7,220.3,21.6,220.2,21.9z M213.3,13.1
		c0.1-0.3,0.5-0.2,0.7-0.1C214,13.3,213.5,13.3,213.3,13.1z M221.7,23.1l-0.3-0.3c0.2-0.1,0.3-0.2,0.5,0
		C221.6,22.8,222.1,23,221.7,23.1z M229.2,33.3c0.3-0.2,0.4,0.4,0.7,0.1c0.2,0.2-0.1,0.4,0.3,0.5C229.6,34.3,229.6,33.5,229.2,33.3z
		 M225.5,29c0.3-0.2,0.5-0.4,0.7-0.1C226,28.9,225.7,29.3,225.5,29z M228,31.9c0.2,0.4-0.6,0.7-0.9,0.4c0-0.2,0.3-0.4,0.5-0.4
		C227.5,32.3,227.8,32.1,228,31.9z M215.8,20.2c0,0.3,0.3,0.2,0.5-0.1c0.2,0.1,0.3,0.1,0.3,0.3c0.6-0.2,1,0.3,1.6,0.1
		c0.2,0.2-0.1,0.6,0.3,0.2c0.2,0.2,0.2,0.7-0.2,0.5c0.1-0.1,0.2-0.1,0-0.3c-0.2,0.7-1,0.4-1.5,0.5l-0.3-0.4c-0.3,0-0.7,0.3-0.9,0
		c0.2-0.4,0.9-0.3,1.3-0.2c-0.1-0.1,0.1-0.1,0.2-0.1c-0.2-0.1-0.4-0.4-0.7-0.4c-0.4,0.3-0.9,0.5-1.2,0.1
		C215.6,20.6,215.5,20.3,215.8,20.2z M225,29.1c-0.2,0.1,0.1,0.3-0.1,0.4c-0.1-0.3-0.3,0.1-0.4-0.2c0.3-0.2,0.2-0.4,0.6-0.6l0.2,0.2
		L225,29.1z M205.8,7.4c-0.1-0.2,0.5-0.4,0.6-0.1C206.1,7.3,205.9,7.7,205.8,7.4z M208.7,12.1c0.2-0.4,1,0.3,0.7,0.2
		C209.2,12.1,208.9,12.3,208.7,12.1z M225.4,31.6l0.3-0.2c0.1,0.1,0.2,0.2,0.1,0.3C225.7,31.5,225.6,31.9,225.4,31.6z M222.8,29.7
		c0.2-0.1,0.1-0.2,0-0.3l0.4-0.2c0.2,0.1,0.4,0.3,0.6,0.4C223.5,29.6,223.1,29.7,222.8,29.7z M225.2,31.7c-0.2,0.2-0.2,0.4-0.2,0.6
		c-0.1-0.1-0.3,0-0.4-0.2c0.7-0.3-0.5-0.3-0.3-0.6c0.3,0.2,1-0.1,1,0.4L225.2,31.7z M221.6,28.6c0,0.5,0.5,0.1,0.8,0.3
		C222.1,29.5,221.3,29.1,221.6,28.6z M221.1,28.4c-0.3-0.1,0-0.4-0.3-0.3c-0.2,0.1,0,0.3-0.2,0.4l-0.3-0.3c0.1-0.1,0.3-0.2,0.1-0.3
		c0.2-0.1,0.4-0.3,0.6-0.1c-0.1,0.1-0.2,0.1,0,0.3c0.3-0.1,0.1-0.2,0.4-0.3C221.7,28,221.2,28.2,221.1,28.4z M219.3,26.4
		c0.4-0.2,0.7-0.2,1,0.2C219.9,26.8,219.6,26.6,219.3,26.4z M224.1,31.6c-0.4,0.1-0.7-0.4-1.1-0.3c0.4-0.2,0.6-0.1,1,0
		C223.9,31.3,224,31.5,224.1,31.6z M213.8,20.6l0.3-0.2c0.2,0.3,0.4,0.3,0.6,0.1l0.2,0.2C214.5,20.9,214.2,20.7,213.8,20.6z
		 M222.5,30.8c0.2,0.2,0.4,0.1,0.6,0.3C222.9,31.3,222.4,31,222.5,30.8z M205,11.1c0.4-0.1,0.8,0.2,1.2,0.2
		C206,11.7,205.4,11.3,205,11.1z M223.8,32.8c0,0.2-0.2,0.3-0.3,0.4c-0.2,0-0.4,0-0.6-0.1c0-0.2,0.1-0.4,0.2-0.6
		c-0.4,0.4-0.7,0.2-1.1,0.2c-0.2-0.5-0.5-0.5-1-0.8c0.3-0.3,1,0.1,1.5,0.3c-0.1-0.1-0.1-0.2,0-0.3c0.4,0.1,0.5,0.2,0.3,0.4
		c0.4,0,1.4-0.1,1.6,0.6C224.1,32.7,224.1,32.9,223.8,32.8z M220.5,29.2c0.2-0.3,0.3-0.4,0.7-0.2C220.7,28.9,220.9,29.3,220.5,29.2z
		 M222.9,31.9c-0.2-0.1-0.3-0.1-0.5-0.3C222.7,31.4,223.2,31.6,222.9,31.9z M212.8,20.5c-0.1-0.1-0.2-0.1-0.4,0l-0.3-0.4
		c-0.6,0.2-0.6-0.1-1.2,0.1c0.2-0.1-0.1-0.3,0.2-0.4c0.3,0.3,0.6,0.2,0.9,0.1c-0.1-0.2-0.1-0.4,0.3-0.6c0.2,0.1,0.4,0.2,0.6,0.4
		c-0.3,0.2-0.5,0-0.7,0.2C212.2,20.2,212.7,20.2,212.8,20.5z M212.6,20.1c0.3-0.2,0.5-0.1,0.7,0.2C213,20.5,212.8,20.2,212.6,20.1z
		 M221.1,31c-0.3-0.2,0.2-0.2-0.1-0.4c0.2-0.1,0.4-0.1,0.6,0.1C221.6,30.9,221.3,31.1,221.1,31z M202,9c0.2-0.1,0.5-0.3,0.6,0
		C202.4,9.1,202.2,9,202,9z M221.5,31.6c-0.1-0.1,0-0.2-0.2-0.4c0.2-0.2,0.4-0.1,0.5,0.2L221.5,31.6z M215.7,25.9
		c-0.1-0.1-0.2-0.2-0.2-0.3c0.3,0,0.7-0.1,1,0.2C216.2,26,216,25.6,215.7,25.9z M220.3,30.8c-0.3-0.3-0.8,0-1.2-0.3
		c0.4,0.1,0.9-0.3,1.2,0.1C220.3,30.7,220.4,30.8,220.3,30.8z M218.8,29.2l-0.3,0.2c-0.1-0.2-0.2-0.3-0.1-0.5
		C218.4,29.2,218.7,28.9,218.8,29.2z M220.6,31.6c-0.1,0.2,0.4,0.4,0.1,0.5c-0.4-0.1,0-0.3-0.3-0.5l0.4-0.2c0.1,0.2,0.5,0.2,0.3,0.4
		C220.9,31.8,220.7,31.6,220.6,31.6z M210,19.7c0.3,0.2,0.3-0.2,0.7,0C210.5,20,209.9,20.1,210,19.7z M216.8,28.7
		c0.3,0,0.6-0.1,0.8,0.1C217.3,29,217.1,28.8,216.8,28.7z M198.8,8.2c0.2-0.1,0.4-0.2,0.5,0C199.3,8.5,199,8.5,198.8,8.2z
		 M214.8,27.1c0.3,0.1,0.6,0,0.8,0.3C215.3,27.6,214.8,27.3,214.8,27.1z M208.4,19.5c-0.4,0-0.7-0.2-1-0.3
		C207.7,19,208.6,19,208.4,19.5z M217.4,32.7c0.3-0.2,0-0.1-0.1-0.3c0.2-0.2,0.3,0.2,0.5,0c-0.2-0.4-0.5-0.3-0.7-0.5
		c0-0.1-0.2-0.6,0.2-0.4c-0.2,0.2,0.3,0.1,0.3,0.4c0.4-0.3,0.6,0.2,0.9,0c0.2,0.3,0.3,0.4,0.7,0.5c0.1-0.1-0.1-0.2,0-0.3
		c0.6,0.5,0.2,0.6-0.2,1.1c-0.1-0.1,0-0.2,0-0.3c-0.1,0.1-0.2-0.2-0.4-0.1c0.1,0.1,0.2,0.2,0.2,0.3c-0.3,0.2-0.5-0.1-0.4,0.3
		c-0.2,0-0.4,0-0.5-0.3c0.1-0.1,0.3,0,0.3-0.2C217.9,32.9,217.6,32.8,217.4,32.7z M215.6,30.2c0,0.2-0.3,0.1-0.5,0.2
		c-0.1-0.4-0.5-0.2-0.8-0.4c0.4-0.3-0.3-0.1-0.4-0.4c0.3-0.1,0.6,0.2,1,0.2c0.6-0.3,0.6-1,1.2-0.7C215.5,29.2,214.9,29.9,215.6,30.2
		z M196.2,8.2c0-0.2,0.4-0.2,0.1-0.4c-0.4,0.1-0.3,0.3-0.5,0.5c-0.1-0.1-0.2-0.1-0.4-0.2c0.3-0.4,0.6-0.5,0.9-0.9
		c0.5,0.6,0.6,0.5,1.1,0.8C197.2,8.2,196.7,8.4,196.2,8.2z M206.6,19.2c0.2-0.2,0.4-0.3,0.7-0.1C207.1,19.2,206.8,19.2,206.6,19.2z
		 M219,33.7c0.2-0.1-0.1-0.3,0.1-0.4C219.4,33.3,219.3,33.8,219,33.7z M214.3,29.2l0.7-0.4c0.1,0.1,0.2,0,0.3,0.2
		C215.3,29.2,214.6,29.4,214.3,29.2z M206,19c-0.2-0.2-0.4-0.1-0.2-0.3c0.1,0.1,0.3,0,0.4,0.2L206,19z M210.3,24.9
		c-0.4-0.4,0.4-0.4,0.6-0.2C210.7,24.8,210.5,24.6,210.3,24.9z M216.9,32.1c-0.1,0-0.4-0.3-0.1-0.5C216.9,31.8,217.1,32,216.9,32.1z
		 M205.5,19.3c0,0,0.1-0.1,0-0.1c-0.1,0.1-0.3,0.1-0.4,0c0.3-0.2,0.5-0.2,0.8,0C205.8,19.2,205.6,19.4,205.5,19.3z M205.5,20.5
		c0.2,0.3,0.5-0.1,0.7,0.1C206.1,20.8,205.5,20.8,205.5,20.5z M218.7,36.3c0.2-0.3-0.3-0.2-0.2,0c-0.2-0.2-0.1-0.3,0-0.5
		c0.3,0.1,0.3-0.1,0.7,0.1C219,36.2,218.9,36.3,218.7,36.3z M191.1,7.2c0.2-0.2,0.4,0,0.6,0.1C191.4,7.5,191.2,7.4,191.1,7.2z
		 M205.7,24c0.2-0.2,0.4-0.1,0.5,0.1C206,24.3,205.9,24.2,205.7,24z M200,17.6c-0.3-0.2,0.2-0.5,0.3-0.2
		C200.1,17.6,200.2,17.6,200,17.6z M204.5,23.5c-0.4,0.2-1.1,0-1.1-0.3c0.3,0.4,0.7,0,1,0.1C204.3,23.4,204.6,23.3,204.5,23.5z
		 M187.2,6.4c0.3,0,0.7-0.1,1,0.2C187.9,6.7,187.3,6.7,187.2,6.4z M212.3,34.2c0.1,0.1,0.7,0.2,0.5,0.5
		C212.7,34.8,212.2,34.4,212.3,34.2z M206.7,29.8c-0.2-0.4-0.5-0.3-0.7-0.5c0.3-0.2,0.5,0.2,0.9-0.2c0.1,0.2,0.3,0.1,0.4,0.3
		C206.9,29.6,207,29.5,206.7,29.8z M197.3,19.5c-0.3-0.2-0.3-0.4,0-0.6c0.2,0.1,0.3,0.4,0.6,0.4C197.7,19.6,197.5,19.3,197.3,19.5z
		 M207.1,32.9c0.3-0.2,0.6-0.3,0.9-0.2C207.6,32.9,207.3,33.2,207.1,32.9z M201.7,26.2c0.2-0.2,0.4-0.1,0.5,0.1
		C202,26.5,201.8,26.4,201.7,26.2z M203.5,28.9c0.3-0.2,0.6-0.2,0.8,0.1C204,29.1,203.8,29,203.5,28.9z M201.8,27.5
		c-0.4-0.3-0.8,0-1.2-0.2c0.3-0.4,0.8-0.2,1.3-0.1c0.1-0.1,0.1-0.2,0.2,0C202.1,27.3,202,27.4,201.8,27.5z M196.1,22.1
		c0.4-0.2,0.8-0.1,1.1,0C196.8,22.3,196.4,22.2,196.1,22.1z M205.3,33.2c0.2-0.1,0.4,0,0.6,0c-0.2,0.2,0,0.4-0.2,0.6
		C205.4,33.6,205.5,33.4,205.3,33.2z M206.5,33.2c0.1,0.3,0.3,0.2,0.5,0.5c-0.5,0-1,0.6-1.2,0.1C206.3,33.7,206.3,33.4,206.5,33.2z
		 M205.3,32.7c0.1,0.3,0.7,0,0.5,0.3c-0.3,0-0.6,0-0.8-0.3c0.2-0.1,0.1-0.2,0-0.3c0.3-0.1,0.5-0.1,0.8,0
		C205.7,32.5,205.2,32.4,205.3,32.7z M200.7,28.3c0.2,0.2,0.4,0,0.6,0.2C201.1,28.7,200.6,28.4,200.7,28.3z M201.6,28.4
		c-0.2,0.1,0.2,0.3-0.1,0.4C201.2,28.7,201.4,28.3,201.6,28.4z M200.1,27c-0.2,0.2-0.4,0.1-0.6,0.2c-0.2-0.3-0.4-0.2-0.6-0.3
		c0.3-0.1,0.2-0.1,0.5-0.3c0.1,0.3,0.2,0.4,0.5,0.1C200.1,26.7,200.1,26.9,200.1,27z M189.5,16.2c0.2-0.3,0.6-0.1,0.6-0.4l0.1,0.1
		c0.1,0,0.1-0.1,0.2,0C190.2,16.2,189.8,16.4,189.5,16.2z M181,6c-0.2-0.1-0.4,0-0.4-0.2C180.8,5.6,181.2,5.9,181,6z M204.6,32.9
		c0.2,0,0.4,0.1,0.6,0.3C205,33.5,204.5,33,204.6,32.9z M190.9,18.5c0.3-0.1,0.6-0.1,0.9,0.1C191.5,18.8,191.2,18.7,190.9,18.5z
		 M201.8,32c0.1,0.1,0.1-0.1,0.3-0.2c0.3,0.1,0.3,0.5,0.7,0.2c0.1-0.2-0.4-0.2-0.2-0.5c0.3,0,0.5,0.2,0.5,0.5
		C202.7,32.4,201.9,32.4,201.8,32z M192.8,21.1c-0.3-0.1-0.7,0.2-1-0.2c0.3-0.2,0.6-0.1,0.9-0.2C192.9,20.8,192.9,21,192.8,21.1z
		 M197.8,27.5c-0.1,0-0.3-0.1-0.4-0.3C197.7,26.9,198.1,27.3,197.8,27.5z M200.7,31.8c0.1-0.1,0.2-0.2,0.2-0.2
		c0.1,0,0.3,0.1,0.4,0.3C201.1,32,200.9,32,200.7,31.8z M196.4,27.2c0.2,0,0.5-0.4,0.7-0.1C196.8,27.2,196.6,27.3,196.4,27.2z
		 M194.4,25.8c0.3-0.3,0.4,0.1,0.6-0.2c0.1,0.1,0.2,0.2,0.2,0.3C194.8,26.1,194.6,26.1,194.4,25.8z M196,26.1
		c-0.3-0.3-0.6,0.2-0.9-0.2C195.4,25.6,196,25.8,196,26.1z M199.8,30.9c0.2-0.3,0.4,0,0.6,0.2C200.1,31.3,200,31,199.8,30.9z
		 M195.4,26.8c0.2-0.2,0.4,0,0.6,0C195.9,27,195.5,27,195.4,26.8z M194.4,27.2c0.4-0.2,0.6-0.2,0.7-0.5c0.3,0,0.2,0.2,0.2,0.4
		c-0.2,0.2-0.4,0.1-0.6,0.2c0.1,0.1,0.3,0.1,0.2,0.2c-0.5,0.1-0.6-0.2-0.9-0.4c0.1-0.1,0.1-0.2,0.3-0.3
		C194.5,26.9,194.3,27,194.4,27.2z M193.4,26.3c0.5-0.2,1-0.1,1.5,0.1C194.7,27,193.9,26.6,193.4,26.3z M199.7,32.9
		c0.4-0.1,0.7,0.1,1.1,0.2C200.4,33.2,200,33.2,199.7,32.9z M197.8,30.7c0.1-0.2,0.1-0.5,0.4-0.3C198.2,30.5,198,30.9,197.8,30.7z
		 M198.1,32.2c-0.4-0.2,0.3-0.3,0.1-0.4c-0.2-0.2-0.4,0.2-0.6-0.1c0.4-0.2,0.8-0.1,1.2,0C198.7,32,198.3,31.8,198.1,32.2z
		 M192.9,25.5c-0.5,0.3-1-0.3-0.7-0.7C192.4,25.1,192.3,25.2,192.9,25.5z M192.7,26.3l0.4-0.3c0.1,0.1,0.2,0.2,0.1,0.3
		C193.1,26.1,192.8,26.7,192.7,26.3z M195.2,29.7c-0.2-0.2,0-0.3,0.1-0.4c0.1,0.1,0.2,0,0.3,0.2L195.2,29.7z M196.3,31.3
		c-0.1-0.3-0.1-0.5,0.2-0.7C196.8,30.9,196.5,31.3,196.3,31.3z M193,27c-0.3,0.3-0.6-0.1-0.6-0.3C192.8,26.5,192.7,26.8,193,27z
		 M195,31.2c-0.1-0.1-0.2-0.2-0.3-0.2c0.4-0.1,0.4,0.2,0.7-0.2c0.1,0.4,0.4,0.1,0.6,0.4C195.6,31.3,195.4,31,195,31.2z M193,30.3
		c0.4,0.5,1.4,0,1.5,0.5C194.1,30.7,192.9,31,193,30.3z M193.5,30.4c0.2-0.1-0.1-0.3,0.2-0.4c0.1,0.1,0.2,0.1,0.3,0.2
		C193.7,30.3,193.8,30.5,193.5,30.4z M190.9,30.2c-0.1-0.3-0.4,0-0.5-0.3c0.2-0.1,0.4-0.2,0.6,0C190.9,30,190.9,30.1,190.9,30.2z
		 M184.8,25.2c0.3,0,1.1-0.2,0.8,0.3C185.4,25.2,184.7,25.5,184.8,25.2z M178,17.8c-0.3-0.2,0.1-0.6,0.3-0.3
		C178.2,17.5,178.3,17.7,178,17.8z M185,25.5c0.2-0.2,0.4,0,0.5,0.1c-0.2,0.1-0.2,0.5-0.4,0.4C185.1,25.9,185,25.7,185,25.5z
		 M184.6,26.1c-0.4-0.2,0-0.6,0.3-0.4C184.9,25.8,185,26,184.6,26.1z M187.3,29.4c-0.2-0.4-0.5,0.1-0.6-0.3c0.4-0.2,0.8-0.1,1.1-0.1
		L187.3,29.4z M184.6,26.6l0.3-0.2l0.2,0.2C184.9,26.8,184.7,26.6,184.6,26.6z M183.4,25.2c-0.4,0.3-0.3-0.2-0.7-0.3
		C183,24.8,183.4,24.9,183.4,25.2z M182.5,24.7l-0.3-0.3c0.2-0.2,0.7-0.2,0.6,0.1C182.6,24.4,182.5,24.7,182.5,24.7z M175.6,17.6
		c0.2,0,0.3,0.2,0.5,0.3c-1.1,0-2.1-0.1-3.1-0.5c0.4-0.4,0.6,0.3,0.9,0c-0.2-0.2-0.4-0.1-0.2-0.3c0.3,0,0.2,0.3,0.5,0.5
		c0.4-0.3,0.6,0.2,1-0.1c-0.2-0.1-0.4,0-0.6-0.3c0.2-0.2,0.3,0,0.5-0.2c0.3,0.1-0.1,0.5,0.3,0.4c0.2-0.1-0.2-0.3,0.1-0.4
		c0.2,0,0.3,0.1,0.4,0.2C175.9,17.2,175.5,17.4,175.6,17.6z M183.3,26.1c-0.3-0.4-0.7-0.1-1-0.4c0.2-0.2,0-0.5,0.4-0.5
		c0.3,0.2,0,0.3,0.1,0.5c0.2-0.1,0.4,0.1,0.7-0.1C183.8,25.8,183.5,25.9,183.3,26.1z M185.6,29c0.3-0.2,0.6-0.4,0.8-0.2
		C186.1,28.9,185.8,29.2,185.6,29z M180.7,23.3l0.3-0.2l0.2,0.2C181.1,23.4,180.9,23.5,180.7,23.3z M178.3,24.5
		c-0.1,0-0.3,0-0.4-0.1c0.6-0.3,0.8,0.6,1,0.7l0.4-0.3c0.5,0.4,1.1,0.4,1.7,0.4c0.1-0.3,0.4-0.5,0.5-0.6c0,0.5,0.3-0.1,0.6,0.2
		c-0.5,0.3-0.9,0.4-1.2,0.8c-0.4-0.6-1.3-0.1-1.9-0.1c0.1-0.1,0.5-0.2,0.3-0.3c-0.3,0.1-0.6,0-0.9,0.2c0.1,0.1,0.3,0.1,0.2,0.2
		c-0.2-0.2-1,0.1-0.9-0.3c0.3,0.2,1-0.2,0.7-0.6c-0.1,0.5-1,0.1-1-0.1C177.6,24.7,178.4,25,178.3,24.5z M177.9,25.1
		c0,0.1-0.4,0.3-0.6,0.3c0.2-0.2-0.3-0.1-0.4-0.3C177.3,24.9,177.6,25,177.9,25.1z M185.6,28.9c-0.4,0-0.7,0-1.1-0.2
		C184.9,28.6,185.6,28.5,185.6,28.9z M182.9,26.3c0.1,0.1,0.3-0.1,0.4,0.2C183.2,26.8,182.7,26.5,182.9,26.3z M181.5,26
		c0.2-0.2,0.8-0.2,0.7,0.1C181.9,26,181.7,26.1,181.5,26z M183.8,28.7c0-0.2,0.4-0.3,0.6-0.1C184.2,28.8,184,28.8,183.8,28.7z
		 M172.2,17.1c0.1-0.3,0.5,0,0.4-0.4C173,16.9,172.4,17.3,172.2,17.1z M171.3,17.1c0-0.3,0.4-0.2,0.7-0.4l0.2,0.2
		C171.9,17,171.6,17.3,171.3,17.1z M179.5,25.7c0.2,0,0.8-0.2,0.7,0.1C179.9,25.7,179.7,25.9,179.5,25.7z M180.6,27.8
		c0.2-0.2,0.4-0.2,0.5,0C181,28,180.8,28,180.6,27.8z M176.5,24.6c-0.2,0-0.4,0-0.6-0.1c0.3-0.2,0.3-0.4,0.6-0.3
		C176.4,24.4,176.7,24.5,176.5,24.6z M175,23.9c-0.1-0.1-0.2-0.2-0.3-0.2l0.2-0.1c0,0-0.1-0.1,0-0.1c0.4,0.3,0.1-0.3,0.3-0.3
		c0.2,0.1,0.4,0,0.5,0.2C175.3,23.5,175.3,23.7,175,23.9z M175.8,25.1c-0.1-0.1-0.3-0.2-0.2-0.3c0.3,0.2,0.7-0.2,1,0.2
		C176.2,25.2,176.1,24.9,175.8,25.1z M155.5,4c-0.3-0.2,0-0.3,0.2-0.5c0.1,0.1,0.2,0.1,0.3,0.1C155.9,3.8,155.7,4,155.5,4z
		 M167.9,16.9c-0.3,0.1-0.5,0-0.7-0.2c0.3-0.2,0.3-0.7,0.7-0.4C167.7,16.6,167.5,16.8,167.9,16.9z M173.4,23.5
		c0.3,0,0.3,0.3,0.3,0.4c0.6-0.2,1.5,0,1.7,0.5c-0.6-0.4-1.3-0.3-1.8-0.1c0.1-0.2,0-0.3-0.1-0.5c-0.1,0.3-0.1,0.3-0.4,0.3
		c-0.2-0.1,0-0.2,0-0.3c-0.2,0.3-0.2,0.1-0.5,0.1c0.2,0.3-0.3,0.3-0.5,0.1c0-0.2,0.3-0.1,0.6-0.4C173.1,23.7,173.1,23.8,173.4,23.5z
		 M178.3,29.6c-0.4-0.3-0.7,0.3-0.9,0.3c-0.3-0.4,0.2-0.3,0.4-0.6c0.1,0.3,0.3,0,0.5-0.1C178.4,29.3,178.4,29.5,178.3,29.6z
		 M173.4,24.6c-0.3-0.2-0.6-0.2-0.9-0.3c0.2-0.1,0.5-0.2,0.7-0.1C173,24.3,173.7,24.3,173.4,24.6z M175.8,28.3
		c0-0.2,0.4-0.5,0.6-0.3C176.1,28.1,175.9,28.4,175.8,28.3z M176.1,29.6c0.2-0.2,0.4,0,0.6-0.3c-0.2-0.2-0.4-0.1-0.2-0.3
		c0.2,0.1,0.8,0,0.8,0.4C176.9,29.5,176.5,29.8,176.1,29.6z M171.7,23.8c-0.1-0.3-0.7,0.1-0.5-0.2C171.4,23.5,171.9,23.4,171.7,23.8
		z M172.9,26.3c0.3-0.1,0.6,0,0.9,0C173.8,26.5,172.9,26.6,172.9,26.3z M175.4,29c0.1-0.1,0.1-0.2,0.2-0.2c0.2,0.1,0.7,0.1,0.6,0.4
		C175.9,28.9,175.6,29.3,175.4,29z M168.5,23.6c0.5-0.1,1.2-0.1,1.8-0.1c-0.1-0.2-0.3-0.3,0-0.5c0,0.5,0.3,0.2,0.7,0.5
		c-0.3,0.2-0.5,0.2-0.5,0.7C170.1,23.5,169.2,24,168.5,23.6z M150.5,3.6c0.2,0.1,0.5-0.2,0.8,0.1C151,3.8,150.4,3.9,150.5,3.6z
		 M162.6,16.5c-0.1-0.2-0.3-0.2-0.5,0c-0.3-0.4,0.6-0.8,1-0.5C162.6,16.1,162.7,16.1,162.6,16.5z M173.9,28.7
		c0.5-0.1,0.9,0.1,1.3,0.2L175,29C174.6,28.8,174.3,28.9,173.9,28.7z M167.5,21.4c0.3,0.1,1,0,1,0.4
		C168.2,21.6,167.5,21.9,167.5,21.4z M168.1,22.7c-0.4-0.3-0.8-0.1-1.2-0.4c0.5-0.3,1.3,0,1.4,0.2C168.2,22.5,168.1,22.7,168.1,22.7
		z M173.3,28.7c0.1-0.1-0.1-0.2,0-0.3c0.2,0.2,0.4-0.1,0.6,0.2C173.6,28.8,173.5,28.9,173.3,28.7z M171.9,28.4
		c0.3-0.2,0.5-0.2,0.8,0C172.4,28.4,172.1,28.6,171.9,28.4z M167.9,23.6c-0.5,0.3-0.5-0.1-0.8-0.4c0.1-0.1,0.2-0.2,0.3-0.3l0.1,0.1
		C167.3,23.3,167.5,23.4,167.9,23.6z M172.5,29.4c-0.4-0.1-0.8,0.1-1.2-0.3c0.4,0,0.3-0.4,0.7-0.4c0.4,0.2-0.1,0.6,0.2,0.5
		c0.1-0.1,0-0.3,0.3-0.4C172.7,29,172.6,29.2,172.5,29.4z M170.9,28.3c0-0.1,0.1-0.2,0.3-0.4c0.2,0.3,0.4,0.1,0.6,0.3l-0.2,0.1
		C171.4,28.1,171.2,28.4,170.9,28.3z M165.4,23.2c0.3,0,1.4-0.5,1.2,0.1C166.2,23,165.8,23.5,165.4,23.2z M163.3,22
		c0.2-0.1,0.4-0.2,0.6-0.1C163.9,22.1,163.5,22.2,163.3,22z M163.1,22.6c0.4,0.2,1.6-0.2,1.5,0.5C164.2,22.7,163.3,23,163.1,22.6z
		 M160.7,20.8c0.2-0.2,0.4-0.1,0.6-0.1C161.3,20.9,160.9,21,160.7,20.8z M161.1,21.8c-0.4-0.6-0.8-0.2-1.2-0.4
		c0.3-0.4,1.1,0,1.6,0.1C161.2,21.6,161.4,21.7,161.1,21.8z M160.9,22c-0.4-0.4-0.5,0.4-1,0.1c0.4-0.2,0.2-0.1,0.4-0.4
		C160.6,21.7,161.2,21.7,160.9,22z M158.4,21.7c0.3-0.2,0.5-0.2,0.7-0.1C159,21.8,158.6,22,158.4,21.7z M162.9,26.9
		c0.3-0.3,0.5-0.1,0.8-0.1C163.4,26.9,163.1,27.1,162.9,26.9z M163,27.2c0.2-0.2,0.7-0.1,0.6,0.2C163.4,27.2,163.1,27.5,163,27.2z
		 M161.9,26.4c0.1-0.1-0.2-0.3-0.1-0.4c0.2-0.2,0.4-0.2,0.5,0C162.1,26.1,162.3,26.5,161.9,26.4z M161.9,27.7c0-0.1,0.4-0.3,0.3-0.5
		c-0.2,0.1-0.3-0.1-0.5-0.2c0.4-0.1,0.8-0.5,1.1-0.2C162.2,27,162.5,28.1,161.9,27.7z M155.7,20.3c0.2-0.3,0.7-0.1,0.5,0.1
		C156.1,20.3,155.9,20.6,155.7,20.3z M160.9,26.6c0.2-0.2,0.4-0.2,0.5,0C161.2,26.8,161,26.9,160.9,26.6z M156.5,21.8
		c-0.4,0-1,0.1-1.1-0.3c-0.3,0.2-0.8-0.2-0.9,0.3l-0.3-0.3c0.2-0.2,0.4,0,0.4-0.3c0.4,0.2,0.6,0.2,0.8-0.2c0.3,0.2,0,0.3,0.1,0.4
		l0.4-0.3C156.3,21.5,155.9,21.7,156.5,21.8z M153.8,21.2c-0.4-0.4,0.6-0.6,0.8-0.3c-0.1,0.1,0,0.2-0.1,0.3
		C154,21.2,154.2,20.7,153.8,21.2z M153,21.6c-0.3-0.3,0.1-0.5,0.3-0.7c0.1,0.1,0.3-0.1,0.4,0.1C153.3,21.4,153.2,21.1,153,21.6z
		 M151.2,20c0.2-0.1,0.5-0.2,0.7,0C151.7,20.2,151.5,20.2,151.2,20z M130.7,3.4c-0.2,0.1-0.8,0.2-0.7-0.1c0.2,0.2,0.5-0.1,0.5-0.2
		C130.6,3.2,130.7,3.3,130.7,3.4z M147.1,20.7c-0.4-0.4,0.8-0.8,0.7-0.3C147.5,20.2,147.5,20.7,147.1,20.7z M129.4,3.5
		c-0.4,0.1-1.2,0.3-1.4-0.2c0.5,0.2,0.3-0.3,0.5-0.5c0.3,0.2,0.1,0.5,0.2,0.7C129,3.2,129.4,3.1,129.4,3.5z M127,3.4
		c0.2,0.1,0.4-0.1,0.6,0C127.7,3.9,126.7,3.7,127,3.4z M146.8,25.8c0.3-0.1,0.5-0.1,0.7,0.1C147.3,26.2,147.1,26,146.8,25.8z
		 M145.5,26.1c-0.2,0.5-0.4,0-0.6,0c0.2,0.3-0.2,0.6-0.4,0.7c-0.3-0.3,0.5-0.5,0.1-0.8c-0.1,0.1-0.1,0.2-0.3,0.3
		c-0.1,0-0.6-0.3-0.4-0.4c0.4,0.3,2.1-0.8,1.6,0.1c0.3,0,1-0.2,1,0.2C146.5,26.4,145.6,26.4,145.5,26.1z M145,26.7
		c0.4-0.2,0.8-0.1,1.1-0.1C145.7,26.8,145.3,26.9,145,26.7z M121.9,4.2c-0.3-0.2-1.1,0.4-1.1-0.1C121.1,4.1,121.8,3.7,121.9,4.2z
		 M143.6,26.9c-0.1-0.1-0.3-0.2-0.2-0.3c0.4,0.2,0.5,0.2,0.7-0.1C144.3,26.8,143.9,26.8,143.6,26.9z M142.3,26
		c-0.2-0.3-0.4,0.1-0.5-0.2C142,25.7,142.5,25.8,142.3,26z M142.7,27.5c-0.2-0.1-0.2-0.3-0.1-0.4c0.1,0.1,0.2,0.2,0.3,0.1
		c0.1,0,0.2-0.1,0.2,0L142.7,27.5z M118.1,4.2c0.1-0.1,0.1-0.2,0.2-0.3c0.2,0.3,0.4,0.1,0.5,0.2C118.6,4.3,118.3,4.4,118.1,4.2z
		 M139.6,26c0.1-0.1-0.3-0.2-0.4-0.2c-0.1,0.1,0,0.2-0.1,0.3c-0.4,0-0.5-0.3-0.2-0.6c0.4,0.1,0.8,0,1.2,0.2
		C139.8,25.8,139.7,26,139.6,26z M116.7,3.6l0.3,0.3C116.8,4.2,116.4,3.8,116.7,3.6z M137.7,25.6c-0.2,0.1-0.5,0.1-0.7-0.1
		c0.2-0.2,0.5-0.1,0.7,0C137.6,25.5,137.6,25.5,137.7,25.6z M113.3,4.5c-0.2-0.1-0.4,0-0.5-0.2c0.1-0.1-0.1-0.5,0.2-0.3
		c-0.2,0.2,0,0.3,0.2,0.2c-0.1-0.1-0.1-0.3,0-0.4c0.1,0.1,0.3-0.1,0.5,0.1C113.3,4.1,113.7,4.3,113.3,4.5z M135.4,26.1
		c-0.3-0.1-1,0.1-1.1-0.3c0.2,0.1,0.5,0,0.7,0c-0.1-0.1-0.2-0.1-0.4-0.2c0.2-0.1,0.5-0.2,0.6-0.4C135.3,25.5,135.4,25.8,135.4,26.1z
		 M111.8,4.5c0.1-0.1,0-0.3,0.3-0.4C112.2,4.2,112.1,4.7,111.8,4.5z M133.8,25.7c-0.3-0.3-0.3-0.6-0.2-0.8c0.1,0.1,0.2,0.1,0.3,0.1
		C133.8,25.2,134.2,25.5,133.8,25.7z M111.1,4.1c0.2-0.2,0.4-0.2,0.5,0C111.5,4.3,111.3,4.3,111.1,4.1z M132.9,25.8
		c0.4,0,0.8-0.1,1.2,0.1c-0.4,0-0.5,0.2-0.8,0.1c0-0.1,0-0.1-0.1-0.2C133,25.9,132.9,26,132.9,25.8z M132.3,25.5
		c0.1-0.1-0.1-0.2,0-0.3c0.4-0.2,0.9-0.2,1.3,0c-0.3,0.2-0.1,0.3-0.3,0.5C132.9,25.6,132.6,25.7,132.3,25.5z M109.2,4.5
		c0.3-0.2,0.5-0.4,0.4-0.6c0.2,0.2,0.5,0,0.7,0.1c-0.4,0.4,0.2,0.3,0,0.5C109.9,4.3,109.5,4.6,109.2,4.5z M131.7,26.2
		c-0.1-0.1-0.1-0.2-0.2-0.3c-0.1,0.1,0,0.1-0.1,0.2c-0.3-0.2-0.1-0.3,0.1-0.4c0.1,0.1,0.2,0.2,0.3,0.1c-0.1-0.1,0-0.2,0.2-0.2
		l0.2,0.2C131.8,26,131.8,25.9,131.7,26.2z M130.7,25.3c-0.3,0.1-0.5,0-0.7,0C130.3,24.9,130.7,24.9,130.7,25.3z M129.1,25.7
		c-0.2,0-0.5,0.2-0.7,0C128.6,25.4,128.8,25.6,129.1,25.7c-0.1-0.1-0.2-0.2-0.1-0.3C129,25.5,129,25.6,129.1,25.7z M127.4,25.1
		c0.2,0.1,0.5-0.1,0.7,0.2C127.9,25.5,127.3,25.4,127.4,25.1z M127.5,25c-0.1,0-0.1,0-0.2,0.1c-0.2-0.1-0.2-0.3-0.1-0.4
		c0.1,0.1,0.2,0,0.4,0.1C127.4,24.8,127.6,24.9,127.5,25z M125.8,24.8c0.4-0.3,0.8-0.2,1.2-0.1C126.6,25,126.2,24.7,125.8,24.8z
		 M125.6,25.5c0.2-0.4,0.6-0.4,1-0.3C126.2,25.5,125.9,25.7,125.6,25.5z M123.7,24.6c-0.1-0.1,0-0.2-0.2-0.3c0.3-0.2,0.7-0.3,1,0
		C124.1,24.3,123.8,24.4,123.7,24.6z M119.3,25.4c0.2-0.2-0.2,0-0.3-0.3c0.1-0.2,0.6,0,0.5,0.2C119.4,25.2,119.4,25.5,119.3,25.4z
		 M88.6,25.6c-0.2-0.1-0.4,0-0.6-0.3c0.3-0.3,0.6-0.3,0.9-0.4l0.2,0.2C88.7,25.3,88.8,25.3,88.6,25.6z M86.1,25.3
		c0.3,0.3,0.8-0.2,0.7,0.3C86.6,25.5,86.1,25.7,86.1,25.3z M56,7.9c0.7-0.5-0.8-0.1,0-0.8c0.3,0.3,0.2,0.3,0.5,0.3
		C56.5,7.6,56.4,8.1,56,7.9z M56.8,7.1c0.1,0.1,0.2,0.2,0.3,0.1c0.1-0.1-0.1-0.6,0.3-0.5c0.1,0.1-0.1,0.3,0.1,0.4
		c-0.4,0.1-0.3,0.6-0.7,0.7C56.6,7.6,56.5,7.4,56.8,7.1z M78.8,26c-0.2,0.2-0.4,0.1-0.7,0.1c0-0.2,0.3-0.2,0.5-0.4
		C78.9,25.8,78.7,25.9,78.8,26z M54.9,8.1c-0.2-0.2-0.1-0.4-0.2-0.6c0.2,0.1,0.4-0.3,0.6,0C55.1,7.7,55.1,7.7,54.9,8.1z M77.3,25.9
		c0.4,0.1,0.3-0.3,0.6-0.1C77.9,25.9,77.2,26.3,77.3,25.9z M54.7,8c-0.1,0.2-0.3,0.2-0.5,0c0.1-0.2,0.1-0.3,0.3-0.3
		C54.4,7.9,54.6,7.9,54.7,8z M55.6,28.7c0.3,0.2,0.5-0.2,0.8-0.1C56.2,28.9,55.6,29,55.6,28.7z M54.4,28.9c0.4,0,0.7-0.2,1.1,0
		C55.1,29.2,54.8,29.2,54.4,28.9z M53.9,29.2l0.3-0.3l0.2,0.2C54.2,29.4,54.1,29.3,53.9,29.2z M29.1,21.4c-0.3-0.2-0.1-0.4,0.1-0.7
		c0.3-0.2,0.9-0.3,1.4-0.6c0.1,0.1,0.2,0.1,0.2,0.2C30.4,20.8,29.7,21.1,29.1,21.4z M27.1,21.7c-0.1-0.1-0.2-0.2-0.2-0.4
		c0.5-0.1,1-0.4,1.5-0.4C27.9,21.2,27.5,21.4,27.1,21.7z M40.5,31.6c0-0.3,0.6-0.6,0.9-0.5C41.1,31.5,40.8,31.5,40.5,31.6z
		 M24.9,22.6c0.6-0.4,1.2-0.6,1.4-1.2l0.3,0.2C26.2,21.8,25.7,22.7,24.9,22.6z M35.5,34.1c-0.1,0.1-0.2,0.2-0.4,0.2
		c-0.4-0.3,0.2-0.6-0.4-0.9c0.3-0.1,0.5-0.4,0.8-0.1C35.2,33.3,35.1,33.8,35.5,34.1z M19.3,23.1c-0.2-0.1,0-0.3-0.1-0.5
		c0.2,0.1,0.3-0.1,0.5,0.1C19.6,22.9,19.5,22.9,19.3,23.1z M22.9,27.9c-0.2-0.1-0.3,0.4-0.4,0.6c-0.3-0.1-0.1-0.2-0.2-0.4
		c-0.1,0-0.1,0-0.2,0c0.4-0.1,0.7-0.1,0.5-0.5C22.8,27.5,22.9,27.7,22.9,27.9z M26.6,33.6c0.2,0.2,0.3-0.2,0.5,0
		C27,33.9,26.5,33.8,26.6,33.6z M24.5,33.8c0.3-0.2,0.7-0.5,1.1-0.3C25.2,33.6,24.9,34,24.5,33.8z M23,33.8c0.2-0.1,0.4-0.3,0.6-0.1
		C23.4,34,23.2,34,23,33.8z M23.3,35.1c-0.2-0.2-0.3-0.2-0.3,0c-0.4-0.2,0.3-0.5,0.4-0.3C23.3,34.9,23.3,35,23.3,35.1z M10,34.7
		c0-0.2,0.3-0.4,0.5-0.5C10.6,34.4,10.2,34.8,10,34.7z"/>
	<path class="st1" d="M184,30.4c0.1-0.1-0.2-0.1,0-0.2c-0.9,0.5-1.6,0-2.5,0.2c0.7,0.3,1.4,0.3,2.1,0.4c0.1-0.1,0-0.2-0.1-0.3
		C183.6,30.5,183.8,30.4,184,30.4z"/>
	<path class="st1" d="M237.9,15.2c-0.2-0.2-0.5,0-0.8,0C237.4,15.3,237.6,15.4,237.9,15.2z"/>
	<path class="st1" d="M224.1,14.4c0.2-0.1,0.2-0.2,0.3-0.3c-0.1-0.1-0.3,0.1-0.4,0.1c0-0.1,0-0.2-0.1-0.3
		C223.7,14.2,224,14.2,224.1,14.4z"/>
	<path class="st1" d="M233.7,25.5c0.3,0-0.5-0.1-0.4-0.5c-0.2,0.1-0.1,0.3-0.2,0.4C233.4,25.7,233.4,25.3,233.7,25.5z"/>
	<path class="st1" d="M229.5,20.9c0.2-0.1,0.2-0.2,0.1-0.4c0,0.2-0.2,0.2-0.4,0.1C229,20.8,229.4,20.8,229.5,20.9z"/>
	<path class="st1" d="M230.1,22.6c0,0.1-0.1,0.2,0,0.3c0.2-0.1,0.3-0.2,0.4-0.3C230.4,22.4,230.2,22.7,230.1,22.6
		C230,22.6,230.1,22.6,230.1,22.6z"/>
	<path class="st1" d="M220.9,11.9c-0.2-0.3-0.2,0.1-0.3,0.2c-0.2,0.1,0-0.2-0.3-0.3c-0.5,0.3-0.9,0.2-1.2-0.1
		c-0.1,0.1-0.1,0.2-0.2,0.4c0.4-0.1,1.1-0.1,1.6,0.2C220.6,12,220.8,12.1,220.9,11.9z"/>
	<path class="st1" d="M230.6,24.2c-0.9-0.1-1.5-0.3-2.4,0c0.1,0.1,0.3,0.1,0.2,0.2c0.3,0.2,0.2-0.1,0.6-0.1
		c-0.1,0.3,1.1,0.3,0.8,0.5C229.8,25,230.4,24.5,230.6,24.2z"/>
	<path class="st1" d="M217.2,9.2c-0.2-0.3-1.1-0.4-1.6-0.3L217.2,9.2z"/>
	<path class="st1" d="M238.5,36.4c0-0.2,0.3-0.1,0.5-0.3c-0.4-0.2-0.5,0-0.7,0.1C238.2,36.3,238.4,36.3,238.5,36.4z"/>
	<path class="st1" d="M228.6,23.9c-0.3,0-0.5-0.2-0.9,0C228,24.3,228.3,23.9,228.6,23.9z"/>
	<path class="st1" d="M217.6,12.7c0.2-0.1,0-0.2,0.1-0.3c-0.2-0.1-0.4,0-0.5,0C217.1,12.6,217.6,12.3,217.6,12.7z"/>
	<path class="st1" d="M231.6,31.7c-0.1,0.1,0,0.1,0,0.2c-0.2,0.2-0.3,0-0.5,0.2c0.3,0.1,0.5,0.3,0.9,0
		C231.8,32,231.6,32.1,231.6,31.7z"/>
	<path class="st1" d="M224,26.7c-0.4,0.1-0.3-0.2-0.7-0.3c-0.2,0.3-0.2,0.3-0.4,0.4C223.2,26.8,223.8,26.9,224,26.7z"/>
	<path class="st1" d="M209.3,10.5c0.1,0.3-0.4,0-0.4,0.3c0.1,0.2,0.4-0.1,0.5,0.1c0-0.3,0.4-0.3,0.1-0.8c-0.2,0.1-0.4,0.1-0.6,0
		C208.7,10.4,209.2,10.4,209.3,10.5z"/>
	<path class="st1" d="M208,10c-0.3-0.3-0.7,0.2-1-0.3c-0.3,0.2,0.2,0.2,0,0.3C207.3,10,207.6,10.1,208,10z"/>
	<path class="st1" d="M206.3,10.1c0.1,0.1,0,0.2,0.2,0.3c0.5-0.1,0.9,0,1.3,0.3c0-0.5-0.8-0.2-1-0.7c-0.3,0.3-0.5,0-0.7-0.2
		c-0.5,0-0.5,0.2-0.9,0.3c0.1,0.1,0.3,0.1,0.4,0.2c0.2-0.1,0-0.2,0.1-0.3c0.1,0,0.2,0,0.2,0c0.1,0.1-0.2,0.2,0.1,0.4
		C206.2,10.3,206.3,10.2,206.3,10.1z"/>
	<path class="st1" d="M223,37.3C223.1,37.2,223,37.2,223,37.3c-0.2-0.2-0.3-0.3-0.2-0.4c-0.1-0.1-0.3,0.1-0.4,0.1
		C222.6,37.2,222.8,37.2,223,37.3z"/>
	<path class="st1" d="M216.2,34.4c0.1-0.1-0.9-0.6-1.3-0.3c0.1,0.1,0.6-0.1,0.4,0.2C215.6,34.5,216,34.1,216.2,34.4z"/>
	<path class="st1" d="M212.6,32.9c-0.3-0.2-0.4-0.6-0.8-0.4c0,0.5,0.8,0.2,0.6,0.7C212.7,33.2,212.3,33,212.6,32.9z"/>
	<path class="st1" d="M199.5,21.4c0.2-0.2-0.3-0.1-0.3-0.2c-0.2,0.1-0.1,0.3-0.3,0.2c-0.1,0-0.1,0.1,0,0.1l0.1,0.1
		c-0.1-0.1,0.4-0.4,0.3-0.2C199.4,21.5,199.4,21.3,199.5,21.4z"/>
	<path class="st1" d="M204.4,31.1c0-0.2-0.6-0.3-0.8-0.4c0.1-0.4-0.4-0.7-0.6-0.9c0,0.4,0.1,0.7,0.2,1.1c0.2-0.6,0.5,0.2,0.9,0.2
		C204.1,31,204.2,31,204.4,31.1z"/>
	<path class="st1" d="M202.1,29.5c-0.1-0.3-0.8-0.3-1.1-0.4c-0.3,0.2,0.5,0.2,0.2,0.4C201.4,29.5,201.8,29.3,202.1,29.5z"/>
	<path class="st1" d="M202.7,30.7c0.3-0.1,0-0.2-0.1-0.1c-0.1-0.1-0.1-0.2,0-0.3c-0.1-0.1-0.2,0-0.4-0.1c0.1,0.1,0.2,0.6-0.3,0.2
		c-0.1,0.1,0.1,0.2,0.2,0.3C202.3,30.4,202.5,30.5,202.7,30.7z"/>
	<path class="st1" d="M199,29.8c0.1,0.1,0.2,0,0.4,0.1c0.3-0.1,0-0.3,0.3-0.4C199.4,29.5,199.4,29.7,199,29.8z"/>
	<path class="st1" d="M195.3,32.2c0.1-0.2,0.1-0.1,0.3-0.2c-0.3-0.2,0.2-0.3-0.2-0.5l-0.2,0.2c0.1,0.2,0.2,0.4-0.2,0.2
		C194.9,32,195.3,31.9,195.3,32.2z"/>
	<path class="st1" d="M190.5,27C190.7,27.1,190.5,26.8,190.5,27c-0.1-0.2,0-0.3,0.1-0.4c-0.2-0.1-0.6,0.3-0.4,0.5
		C190.3,27,190.4,27,190.5,27z"/>
	<path class="st1" d="M182.9,18.1C182.8,18.1,182.8,18.1,182.9,18.1c-0.3,0.2-0.5-0.3-0.8,0c0.2,0.3,0.5,0.1,0.7,0.2
		C183,18.3,182.8,18.2,182.9,18.1z"/>
	<path class="st1" d="M187.4,31.5c0.3,0.3,0.6,0.3,0.9,0.2c-0.3-0.4-0.7-0.3-1-0.6c-0.2,0.4-0.7,0.1-1.1,0.3
		C186.2,31.4,187.2,31.9,187.4,31.5z"/>
	<path class="st1" d="M186.5,31c-0.4-0.1-0.8,0.2-1.2-0.1c-0.2,0.7-1.1-0.3-1.7,0c0,0.1,0.1,0.2,0,0.3c0.3,0,0.7-0.3,1,0.2
		c0.5-0.2,0.9,0,1.4,0.1c0.1-0.1-0.1-0.2-0.2-0.3C186,31,186.2,31.2,186.5,31z"/>
	<path class="st1" d="M187.1,32.5c0-0.7-1.7-0.8-2.1-0.6C185.6,32.1,186.7,31.9,187.1,32.5z"/>
	<path class="st1" d="M181.6,31.2c-0.3-0.1-0.6-0.2-0.9-0.2C180.7,31.2,181.4,31.2,181.6,31.2z"/>
	<path class="st1" d="M177.7,30.5c-0.4-0.3-1.5-0.4-2.3-0.5c0.3,0.4,0.6,0,0.7,0.5c0.1-0.5,0.6,0.1,0.9-0.1c0.3,0.2-0.3,0.4,0.2,0.5
		C177.1,30.4,177.3,30.4,177.7,30.5z"/>
	<path class="st1" d="M177.7,31.1c0-0.3-0.6-0.1-0.9-0.2c-0.2,0.2,0.3,0.1,0.3,0.4C177.5,31,177.4,30.9,177.7,31.1z"/>
	<path class="st1" d="M175.2,30c-0.5-0.3-1-0.4-1.5-0.4C173.9,30.4,174.7,30.1,175.2,30z"/>
	<path class="st1" d="M167.3,28.6c-0.2-0.1-0.4,0-0.8,0l0.2,0.2C166.9,28.5,167.1,28.8,167.3,28.6z"/>
	<path class="st1" d="M163,29.2l0.5-0.3c-0.4-0.1-0.4,0.4-0.8,0.1C162.5,29.1,162.9,29.1,163,29.2z"/>
	<path class="st1" d="M158.7,28.5c-0.1-0.6-0.5,0.3-0.8-0.4c0,0.1-0.1,0.2-0.2,0.2C158,28.6,158.4,28.4,158.7,28.5z"/>
	<path class="st1" d="M151.6,28.1C151.8,28.2,151.7,27.9,151.6,28.1c-0.2-0.2,0-0.4,0.1-0.5c-0.2,0-0.5,0.2-0.7-0.1
		c-0.4,0.6-0.7,0.2-1.1,0.2c-0.3,0.1,0.2,0.3-0.2,0.4c0.4-0.1,0.8,0.2,1.3-0.1c0.1,0.1,0,0.2,0.2,0.3
		C151.1,28.1,151.4,28,151.6,28.1z"/>
	<path class="st1" d="M139.6,26.9c-0.4-0.3-0.8,0.3-1.2-0.1c-0.1,0.1,0.1,0.2,0.2,0.3C138.9,26.8,139.2,27.3,139.6,26.9z"/>
	<path class="st1" d="M131.7,26.9c0-0.2-0.9-0.3-1-0.1C131.1,26.8,131.4,26.7,131.7,26.9z"/>
	<path class="st1" d="M124.4,25.2c-0.1,0.2-0.1,0.3-0.2,0.5c0.2,0.1,0.4,0,0.6-0.1c-0.1-0.2-0.3,0-0.4,0
		C124.2,25.5,124.8,25.5,124.4,25.2z"/>
	<path class="st1" d="M95.6,26.2c0.1-0.3-0.5-0.1-0.7-0.3c-0.1,0,0,0.1,0,0.1l0.1,0.1C95.2,26,95.4,26.3,95.6,26.2z"/>
	<path class="st1" d="M68.7,4.3c-0.4,0-0.9,0.1-1.3,0c-0.2,0.4-0.7,0.2-1.2,0.2c0,0.1,0,0.1-0.1,0.2c0.1,0,0,0.1,0,0.1
		C67,4.5,67.8,4.6,68.7,4.3z"/>
	<path class="st1" d="M52.6,31.2c-0.4,0.2,0.1,0.3-0.3,0.5c0.1,0,0.1,0,0.2,0.1l0.1-0.1C52.3,31.5,53,31.3,52.6,31.2z"/>
	<path class="st1" d="M49.2,31c-0.4-0.3,0.1,0.5-0.4,0.3c-0.1,0.2,0.3,0.2,0.4,0C49.1,31.3,49.1,31.1,49.2,31z"/>
</g>
</svg>
