<?xml version="1.0" encoding="utf-8"?>
<!-- Generator: Adobe Illustrator 22.0.1, SVG Export Plug-In . SVG Version: 6.00 Build 0)  -->
<svg version="1.1" id="Layer_1" xmlns="http://www.w3.org/2000/svg" xmlns:xlink="http://www.w3.org/1999/xlink" x="0px" y="0px"
	 viewBox="0 0 966.3 48.6" style="enable-background:new 0 0 966.3 48.6;" xml:space="preserve">
<style type="text/css">
	.st0{clip-path:url(#SVGID_2_);}
	.st1{fill:none;}
	.st2{fill-rule:evenodd;clip-rule:evenodd;fill:#EDC73D;}
</style>
<g>
	<defs>
		<rect id="SVGID_1_" width="966.3" height="48.6"/>
	</defs>
	<clipPath id="SVGID_2_">
		<use xlink:href="#SVGID_1_"  style="overflow:visible;"/>
	</clipPath>
	<g class="st0">
		<path class="st1" d="M-3.5,19.8c11.7,2.8,23.5,5.8,34.9,7.9c11.6,2.5,22.8,4.2,34.1,6.1c2.8,0.5,5.6,0.8,8.4,1.2l8.4,1.2
			c5.6,0.7,11.2,1.6,16.7,2.2c11,1.3,22.1,2.6,33,3.5c43.8,4.1,86.9,6.3,129.6,7.5c42.7,1.2,85,1.4,127.2,1.1
			c42.2-0.3,84.1-1.1,125.9-2.3c83.6-2.3,166.8-5.7,249.6-9.1c82.8-3.4,165.2-6.7,247.1-8.7l-4-164.9c-83.8,2.1-167,5.5-249.8,8.8
			c-82.8,3.4-165.3,6.8-247.3,9c-41,1.1-81.9,1.9-122.6,2.2c-40.7,0.3-81.2,0.1-121.4-1.1c-40.1-1.2-79.9-3.2-118.6-6.9
			c-9.7-0.8-19.2-2-28.7-3.1c-4.8-0.5-9.4-1.2-14.1-1.9l-7-1c-2.3-0.3-4.7-0.6-7-1l-13.7-2.3l-3.4-0.6c-1.1-0.2-2.2-0.4-3.3-0.6
			l-6.6-1.3c-9-1.6-17.2-3.8-25.7-5.8L-3.5,19.8z"/>
		<path class="st2" d="M994.5-61.2c-0.9-1.2-1.8-1.3-2.7-0.4C992.7-61.7,993.6-60.1,994.5-61.2z"/>
		<path class="st2" d="M992-57.9c-0.9,0.4-1.8-1.5-2.7-0.4C990.2-57.9,991.1-56.3,992-57.9z"/>
		<path class="st2" d="M984.9-64.2c-1-0.8-1,0.3-2.4,0.6c0.5,0.9,1,0.7,1.5,1.1C984.6-63.1,984.3-63.7,984.9-64.2z"/>
		<path class="st2" d="M957.6-94.1c-0.4-0.5-0.8-0.9-1.2-1.4c-0.6,1.2-1.2,0.4-1.8,1.3C955.6-92.9,956.6-92.9,957.6-94.1z"/>
		<path class="st2" d="M986.9-58.4c0.5-1-1.5-2.1-2.1-1.1c0,1.3,0.7,0.4,1.5,1.7C986.4-58.2,986.5-58.8,986.9-58.4z"/>
		<path class="st2" d="M953.4-94.9c-1.2,0-1.2-1.2-1.8-2.1c-0.5,1.1-0.2,2.3,0.6,3.4C952.6-94,953-94.5,953.4-94.9z"/>
		<path class="st2" d="M969-67.7c0.4-1.2-1.8-1.7-2.4-0.1C967.4-66.2,968.2-69,969-67.7z"/>
		<path class="st2" d="M942-97.9c-0.5-0.1-1.3,0.4-0.9-0.4c-0.6-0.8-1.2,1-1.8,1.3c-0.5-1.3-1.5-1.8-2.7-2.4c0,2.7-2,2.5-3.6,3.3
			c0.9,0.1,1.8-0.3,2.7,1.1c0-1.9,0.5-1.1,1.8-2c0.1,0.5,0.2,0.9,0.6,1.4c0.8-0.8,1.6-0.8,2.4,0C941.3-96.3,942-97.1,942-97.9z"/>
		<path class="st2" d="M965.1-68.8c-0.4-0.5-0.8-0.9-1.2-1.4c0,0.5-0.4,1.4-0.9,1C962.6-68.2,964.6-67.4,965.1-68.8z"/>
		<path class="st2" d="M961.4-59.4c-0.9-0.4-1.8-0.1-2.7,1C959.6-58.2,961.4-57.7,961.4-59.4z"/>
		<path class="st2" d="M916.8-105.9c-0.9-1.1-2.4-0.8-2.4,0.6C915.2-105.4,916-105.1,916.8-105.9z"/>
		<path class="st2" d="M952.4-60.3c-1-0.2-2-1.9-3-0.1C950.4-59.9,951.4-59.4,952.4-60.3z"/>
		<path class="st2" d="M921.1-83.1c-1.3-0.6-1.1,0.9-2.7,1.6c0.4,0.1,0.8,0.2,1.2,0.7C920-83,921.5-81.1,921.1-83.1z"/>
		<path class="st2" d="M942.2-55.8c-0.4,1.1,1.8,1.2,2.4,2.8C945.4-54.5,943-55.2,942.2-55.8z"/>
		<path class="st2" d="M931.7-58.4c-1,0.1-2-0.5-3,0.6c1.2,0.5,2.4,0.5,3.6,1.4C933.3-57,930.7-57.7,931.7-58.4z"/>
		<path class="st2" d="M897.7-97.1c0.4-2.1-1.8-0.4-2.4-0.7C895-96.1,897.1-97.4,897.7-97.1z"/>
		<path class="st2" d="M895.6-90c0.7,1.3,1.4-0.7,2.1,1.1c0.5-0.9,0.5-1.8,0-2.7C896.9-90,895.6-91.7,895.6-90z"/>
		<path class="st2" d="M878.3-110c-1.1-0.8-2.2-1.5-3.3-0.4C876.1-110.2,877.2-109.5,878.3-110z"/>
		<path class="st2" d="M939-38.9c-0.6-1.3-1.2-0.4-1.8-1.4c-1.1,0.9-0.3,1.8,0.6,2.7C938.2-38,938.6-38.5,939-38.9z"/>
		<path class="st2" d="M931-47.6c-0.8-1.5-1.6-1.1-2.4-1.4C928.2-47.9,930.3-46,931-47.6z"/>
		<path class="st2" d="M932.7-40.1c-0.2-0.4-0.4-0.2-0.6,0c-2.4-1.8-4.8-0.1-7.2-1.5c-1.3,1.1-0.5,2.3-1.2,3.4c1.3,1,1.1-1.1,2.1-1
			c1.1,0.9,0.3,1.7,1.5,1.7c0.1-1.9,1.8-1.3,2.7-2.3c0.7,1.3,1.4,0.9,2.1,1.7C933.4-38.7,931.4-39.4,932.7-40.1z"/>
		<path class="st2" d="M881.2-93c0.6,0.4-1.2,1.2-1.5,1c-0.6,1.8,1.2-0.3,1.5,1c1.2-0.8,0.5-1.6,0.9-2.4c-0.8-0.7-1.6-1-2.4-1.4
			C878.9-93.6,880.4-93,881.2-93z"/>
		<path class="st2" d="M953.3-9c-1-0.8-2-2.4-3-0.7C951.3-9.4,952.3-8.3,953.3-9z"/>
		<path class="st2" d="M953.6-6.7c0.5-1.2-1.5-1.3-2.1-0.4C952.2-5.2,952.9-7.2,953.6-6.7z"/>
		<path class="st2" d="M949.4-9.5c-0.8,0.8-0.5,1.6-0.9,2.4c0.5,0.3,1,0,1.5,0.4C950.4-7.6,950-8.6,949.4-9.5z"/>
		<path class="st2" d="M877.6-92.4c0.1-2.1-2.4-0.7-3.3-1.8C873.4-91.9,876.5-92.2,877.6-92.4z"/>
		<path class="st2" d="M960.2,12.9c-0.9-0.4-2.3,0.5-3.9,2.3C957.6,14.4,958.9,14.7,960.2,12.9z"/>
		<path class="st2" d="M866.1-94.6c0,1.1,1.5,2.6,2.4,1.4C868.6-94.3,867-96.2,866.1-94.6z"/>
		<path class="st2" d="M931.3-19.7c-1-1.3-4.4-0.3-2.7,1.6C929.5-19.9,930.4-19,931.3-19.7z"/>
		<path class="st2" d="M910.5-41.9c-0.2-1.8-3-1.9-4.2-0.1c0.6,0.5,0.3,0.9,0,1.4C907.7-39,909.2-42.9,910.5-41.9z"/>
		<path class="st2" d="M944.2,1.6c-1.2-1.7-2.4-1.6-3.6-0.8C941.9,0.5,943,2.8,944.2,1.6z"/>
		<path class="st2" d="M860.4-95.7c-0.5-0.1-0.9-0.2-0.6-0.7c-1.9,1.5-3.8-0.7-5.7,0.9C856.9-95.7,858.3-91.7,860.4-95.7z"/>
		<path class="st2" d="M918.2-21.4c-0.7-1.5-1.4,0.5-2.1,1c0.4,0.1,0.8,0.2,1.2,0.7C917.3-20.2,917.6-20.8,918.2-21.4z"/>
		<path class="st2" d="M853.5-95.5c0.7-1.2-0.9-0.4-1.2-1.4c0.6,2.1-1,0.1-2.1,1.7c0.7,1.8,1.4-1.4,2.1,0.4
			C852.7-95.3,853.1-95.8,853.5-95.5z"/>
		<path class="st2" d="M849.9-96.2c-1.9-0.6-2.4-3.2-3.9-1.8c1.9,1.2-0.5,2.3,1.2,3.4C847.3-97,849-95,849.9-96.2z"/>
		<path class="st2" d="M917.1-6.8c-1.4-0.4-3.4,0.6-2.1,2.3C916.2-5.5,916.6-5.2,917.1-6.8z"/>
		<path class="st2" d="M839.7-96.4c-1.2-1.6-2.4-0.3-3.6-0.7c-0.6-0.8,0.1-1.6,0.9-2.4c-2.1-0.9-2,2.4-4.8,2
			c0.6,1.5,0.7,0.8,1.8,2.1c1.3-1.3-0.5-0.4-0.9-1.7C835.3-97.3,837.5-95.1,839.7-96.4z"/>
		<path class="st2" d="M870.1-49.1c-1.3-1-2.8,0.5-3.3,1.6C868.1-47.2,869.6-47.2,870.1-49.1z"/>
		<path class="st2" d="M889.4-24.6c-1.1-0.1-0.3-0.5-1.2-1.4c-0.5,0.8-0.2,1.6-0.3,2.4C888.4-23.3,888.9-24.2,889.4-24.6z"/>
		<path class="st2" d="M861.9-29.2c-1.3-0.3-2.6-0.5-3.9,1C859.3-28.8,861.6-27.4,861.9-29.2z"/>
		<path class="st2" d="M880.6,10.8c-0.7-0.9-1.4-0.5-2.1-1.1c-1,0.7,1.6,1.4,0.6,2C879.6,12.2,880.1,11.3,880.6,10.8z"/>
		<path class="st2" d="M896,29.4c-1.2-0.9-2.4-0.1-3.6,1.3C893.5,30.4,895.8,30.9,896,29.4z"/>
		<path class="st2" d="M830.8-39.9c-0.4-0.5-0.8-0.9-1.2-1.4c-0.1,0.5-0.2,1-0.6,0.7C828.4-39.5,830.3-38.7,830.8-39.9z"/>
		<path class="st2" d="M873.4,18.2c-1.3-1.1-2.6,0.2-3.9-1.8c-0.5,0.8,0.2,1.6,0.3,2.4c-0.8,0.6-2.1-0.6-2.1,1
			c0.7,0.5,1.4-1,2.1,0.4C870.3,17.8,872,19.7,873.4,18.2z"/>
		<path class="st2" d="M825.1-32.2c-0.5,0-1-0.7-1.5-0.4c-1,0.9,0,2.4,0.9,2.4C825.8-30.8,823.7-31.5,825.1-32.2z"/>
		<path class="st2" d="M856,19.2c-0.1-1.7-4-2.2-4.2-0.1C853.2,18.9,854.6,18,856,19.2z"/>
		<path class="st2" d="M858.7,31.2c-1-1.1-2-0.8-3,0.6C856.7,31.5,857.7,32.1,858.7,31.2z"/>
		<path class="st2" d="M841.1,13.6c-1-0.3-2-1.2-3-0.1C839.1,14,840.1,14.4,841.1,13.6z"/>
		<path class="st2" d="M830.3,10.7c-0.7-0.6-1.4,0.2-2.1-0.4c-0.3,0.6,0.5,1.1,0.9,1.7C829.5,11.6,829.9,11.1,830.3,10.7z"/>
		<path class="st2" d="M825.8,11.6c-0.8-1.2-1.6,0-2.4-0.7C823.1,11.7,825.2,13.3,825.8,11.6z"/>
		<path class="st2" d="M782.2-35.8c-0.3,0.2-0.2,0.5,0,0.7c-0.4,0.3-0.8-0.3-1.2-0.7c-0.7,0.4-0.4,2.4-1.5,1.7
			c-1,1.2,1.6,0.4,0.6,1.4C781-33,783.8-34.2,782.2-35.8z"/>
		<path class="st2" d="M778.9-33.5c-0.4-0.7-0.8-0.4-1.2,0c-0.4-0.5-0.9-0.9-0.6-1.4c-0.5-0.4-1,0.6-1.5,1c0.5,0.6,1,1.1,1.5,1.7
			C777.7-33.4,778.3-32.6,778.9-33.5z"/>
		<path class="st2" d="M772-40.1c-0.8-0.4-1.6,0-2.4,0.6C770.4-38.2,771.2-39,772-40.1z"/>
		<path class="st2" d="M809.4,7c-1.3-0.4-1.2,2-0.6,2.7C810.3,9.7,809.1,8,809.4,7z"/>
		<path class="st2" d="M811.8,11.1c-1.6-0.6-3.8-1.6-4.5,1C808.8,11.3,810.3,13.5,811.8,11.1z"/>
		<path class="st2" d="M807.3,7.3c-1,0.3-2-0.3-3,0.6c1,0.4,2,0,3,0.7C807.5,8.2,806.9,7.7,807.3,7.3z"/>
		<path class="st2" d="M802.2,1.4c-2.6,0.6-3.3-0.5-1.5,3C801.9,3.5,801.8,2.4,802.2,1.4z"/>
		<path class="st2" d="M763-39.5c-1-1-2-1-3,0C761-39.3,762-38.3,763-39.5z"/>
		<path class="st2" d="M748.3-42.8c-2.8,1.9-5.3,0.3-6.9,3c2.2-0.1,4.4-0.2,6.6-1.3c0.3,0.5-0.3,0.9-0.6,1.4
			C749.5-38.5,749.5-41.2,748.3-42.8z"/>
		<path class="st2" d="M784.2,4.6c-1.6-0.9-0.5,2.6-1.5,1.7C782.6,8.5,784.7,5.3,784.2,4.6z"/>
		<path class="st2" d="M782.7,5.6c-0.9-0.5-1.8-0.4-2.7,1C780.9,7,781.8,6.6,782.7,5.6z"/>
		<path class="st2" d="M734.5-40.3c-0.4-0.5-0.8-0.9-1.2-1.4c-0.6,0.6-0.3,1.1-0.9,1.7C733.1-40.2,733.8-39.4,734.5-40.3z"/>
		<path class="st2" d="M762.6-3.2c-0.4,0.8,0.3,1.6-0.9,2.4C763.1-0.4,764.8-3,762.6-3.2z"/>
		<path class="st2" d="M721.2,26.7c-1.5-2-2.6,0.3-2.7,1.7C719.4,28.4,720.3,27.5,721.2,26.7z"/>
		<path class="st2" d="M690.8,25.3c-1.3-1.3-1.1,1.7-2.7,0.3c-0.6-1.3,1.2-0.9,1.5-1.7c-1.2-0.8-2.2,0.2-2.7,1.6
			c0.8,0.1,1.1,0.5,1.2,1.4c-1.3,1.7-2.6-0.9-3.9,1c0.7,0,1.4-0.3,2.1,1.1c1.7-1.7,3.3-1,4.2,0.1C690.5,27.8,689.2,26.5,690.8,25.3z
			"/>
		<path class="st2" d="M679.4,25.8c-0.4-0.5-0.8-0.9-1.2-1.4c-1.2,1.2-1.2,0.6-1.8,2c1.1,1.2,2.8-1.7,1.8,0.7
			C679,27.9,679.3,26.1,679.4,25.8z"/>
		<path class="st2" d="M674.9,24c0,0.9-1,1.8-1.8,2.7c0.3,0.3,0.6,0.7,0.9,1c0.3-0.4,0.6-0.5,0.9-0.3c0-1.3-0.3-0.9,0.9-1.7
			C675.2,25.2,675.5,24.6,674.9,24z"/>
		<path class="st2" d="M670.1,22.6c-1,1.3-2,0.2-3,1.3c1.3,0.8,2.6-0.8,3.9,1.1C671.6,23.5,670.5,24.1,670.1,22.6z"/>
		<path class="st2" d="M665.3,25.9c0.9-0.8,1.2-1.6,0.3-2.4c-0.4,0.1-0.8,0.2-1.2,0.7C664.4,24.8,664.7,25.3,665.3,25.9z"/>
		<path class="st2" d="M664.4,24.9c-0.6-0.6-0.3-1.1-0.9-1.7c-0.6,0.5-0.3,1.5-0.9,1c-0.3,0.6,0.5,1.1,0.9,1.7
			C663.8,25.5,664.1,25.2,664.4,24.9z"/>
		<path class="st2" d="M662.6,27.6c0.2-0.7-2.2-2.8-3-1.4C660.6,26.8,661.6,27.9,662.6,27.6z"/>
		<path class="st2" d="M645.1,23.9c-0.7,1.3-1.4,0.9-2.1,1.7c0.7,1.3,1.4-0.3,2.1,1.1C645.7,25.7,646.3,24.8,645.1,23.9z"/>
		<path class="st2" d="M635.8,24.7c-0.8-0.8-1.6-0.8-2.4,0l1.2,1.4C635,25.6,635.4,25.2,635.8,24.7z"/>
		<path class="st2" d="M630.1,24.3c-1.2-0.4-2.4-0.5-3.6-0.7c-1,0.8,1.9,1.6,0.9,2.4c0.8,0.4,0.6-0.6,0.9-1
			C628.9,24.6,629.5,25.7,630.1,24.3z"/>
		<path class="st2" d="M626.2,28c-0.7-0.6-1.4,0.9-2.1,0.3c0.1,1.3,1,1.5,2.1,1.7C626.7,29.3,625.4,28.6,626.2,28z"/>
		<path class="st2" d="M619.3,22.7c-1.8,1.9-3.6,0-5.4-0.1c-1.2,2.1,2.2,2.4,3,4.1c0.3-1.9-0.2-2.1,1.8-2.7c1.3,1.5,1.1,2.5,2.7,2.4
			C621.6,24.6,620.9,24.2,619.3,22.7z"/>
		<path class="st2" d="M618.9,27.1c-1.3-0.5-2.6,0.3-3.9-0.4C615.1,27.7,617.8,29.1,618.9,27.1z"/>
		<path class="st2" d="M612.6,28.7c-0.5-0.7-1-0.3-1.5-1.1c-0.8,1,0.7,2.1-0.3,3.1c0.6,0.2,1.2-0.1,1.8-0.6
			C611.3,29,611.3,29.8,612.6,28.7z"/>
		<path class="st2" d="M603.9,28.9c-0.5-0.9-1-0.7-1.5-1.1c0.2,0.8-0.5,1.6,0.3,2.4C602.8,29,603.1,29.9,603.9,28.9z"/>
		<path class="st2" d="M499.6,19.6c-1.5-1.1-3-0.3-4.5,0.9c1.3,0.6,2.6,1.6,3.9,1.8C499.4,21.5,499.3,20.5,499.6,19.6z"/>
		<path class="st2" d="M470.2,25.2c-0.7-1.4-1.4,0.1-2.1-0.4C467.6,25.7,469.6,26.6,470.2,25.2z"/>
		<path class="st2" d="M439.4,22.7c0-1.3-2.6-1.4-3.6-0.1C436.9,23.1,438.2,22.7,439.4,22.7z"/>
		<path class="st2" d="M424.6,21.8c-1.5,0.9-4.1,0.9-4.6,2.2C421.4,24.1,424,23.8,424.6,21.8z"/>
		<path class="st2" d="M394.8,23.9c-1.1-0.8-2.2-0.1-3.3-0.5C391.3,24.5,393.8,25.4,394.8,23.9z"/>
		<path class="st2" d="M363.4,18.3c-0.1,0.8-0.9,1.5-1,2.3c0.6,0.3,1.2,0,1.8-0.6C363.7,19.4,364,18.9,363.4,18.3z"/>
		<path class="st2" d="M264.6-99.9c-2.3-1.1-4.8,1.8-7.1,0.7C258.5-96.6,262.4-99,264.6-99.9z"/>
		<path class="st2" d="M257.2-98.2c-0.9-1.1-1.9-0.9-3,0.4C255.2-97.5,256.2-97.6,257.2-98.2z"/>
		<path class="st2" d="M306.3,22.7c-0.3,0.5-0.3,1.1,0.2,1.7c-2-0.1-2.6-0.3-4.9,0.4c2,1,4,1.1,6.1,0.4
			C306.5,24.3,306.9,23.5,306.3,22.7z"/>
		<path class="st2" d="M296.8,17.3c0,1-1.5,1.9-0.5,3C297.6,20.4,297.7,18.4,296.8,17.3z"/>
		<path class="st2" d="M299.2,23.9c0.4-0.5-0.4-1.2-0.8-1.8c-0.8,0.6-1.2,1.3-1.3,1.9C297.7,24.8,298.5,22.8,299.2,23.9z"/>
		<path class="st2" d="M225.8,26.7c-1.1-0.7-1.7,0.8-2.3,1.5c0.6,0.3,1.2,0,1.9-0.5C225.1,27.3,225.6,27,225.8,26.7z"/>
		<path class="st2" d="M220.8,30.6c-0.8-0.7-2,1.3-2,1.8C220.1,32.6,220.7,31.9,220.8,30.6z"/>
		<path class="st2" d="M215.5,28c-2.6-1.1-5.3-0.3-8.1-0.1c0.4,1.7-1.2,1.2-2.4,2.1C208.8,30.3,211.4,28.4,215.5,28z"/>
		<path class="st2" d="M206.1,28.5c-1-1-2.3,0.4-3.5,0.6C203.7,29.9,204.8,29.9,206.1,28.5z"/>
		<path class="st2" d="M201.4,29c-1.2-0.1-2.4-1-3.7-0.4C197.8,29.7,200,30.6,201.4,29z"/>
		<path class="st2" d="M198.2,26.2c-1.5-0.2-2.1-1-2.9-1.7c-1,1.3-1.6,1.4-1,3.3C194.8,25.6,196.9,27.3,198.2,26.2z"/>
		<path class="st2" d="M194.5,44.9c0.5-1.5-1.8-0.9-2.5-0.3c0.4,0.9,1,0.8,1.5,1.2C194.1,45.4,193.8,44.4,194.5,44.9z"/>
		<path class="st2" d="M181.2,30.8c0.3-0.2,0.2-0.4,0.1-0.7c-0.2-0.3-0.4-0.5-0.5-0.7c-1,1.5-4.1-0.2-6.2,1.7
			c0.4,0.4,0.4,0.7,0.2,1.1c1.6-0.7,3-0.4,4.6-1.5c1.4,1.8-0.8,1.1-0.9,2.6c0.6,1.2,1.7-1.9,2.3-0.8
			C181.2,32.1,179.6,29.9,181.2,30.8z"/>
		<path class="st2" d="M188.8,45c-2-0.3-4-0.3-6.1,1C184.7,46.2,186.7,45.7,188.8,45z"/>
		<path class="st2" d="M173,31.2c-1,0-0.8-2.3-2.2-2.3c0.4,1.4,0,2.2-1.6,2.5C170.4,32.3,171.7,31.6,173,31.2z"/>
		<path class="st2" d="M170.6,33.2c-1.4-0.9-3,0.1-4.5,0.8C168.1,34.8,168.6,33.7,170.6,33.2z"/>
		<path class="st2" d="M156.5,31.8c-0.4,0.5,0.7,1.2,0.1,1.7c2.1,0.4,4.6-2.8,6.4-0.6C163.4,29.2,158.4,33.3,156.5,31.8z"/>
		<path class="st2" d="M163.5,34.4c-2.1-1.3-4.5,0.6-6.8,1.5C158.7,37.3,161.2,35.1,163.5,34.4z"/>
		<path class="st2" d="M157.9,39.1c0.4-1.8-2.3-0.1-3.2,0.3C155.6,40.5,156.9,38.4,157.9,39.1z"/>
		<path class="st2" d="M156.9,37c-1.7-0.7-3.3-1.9-5.4,0.3C153.4,35.9,154.9,38.4,156.9,37z"/>
		<path class="st2" d="M148.1,33.4c1.7,1.8-0.7,3-1.9,2.1C145.6,34.1,147.2,33.9,148.1,33.4c-0.6-1.7-1.8,0.5-2.4-1
			c-0.9,2.9-5.5,5.7-7.6,6.8c-0.2,2.4,4.5-1.3,4.9-2.7c0,2,2.3,0.7,1.3,2.6c2.6-1.8,4.9-4.1,8.6-7C151.4,30.8,149.8,32,148.1,33.4z"
			/>
		<path class="st2" d="M139.2,35.9c0.4-0.5-0.4-1.2-0.7-1.8c-0.9,0.2-1.9,1.3-2.7,1c-0.2,0.6,0.2,1.2-0.5,1.6
			c0.6,0.4,1.2,0.5,1.8,0.9C138,36.8,137.6,34.7,139.2,35.9z"/>
		<path class="st2" d="M135.8,32.7c-1,0-3.3,0.6-1.9,2.1C135.2,34.2,134.9,33.3,135.8,32.7z"/>
		<path class="st2" d="M133.3,36.4c0.8-1.5-1.4-0.3-1.7-1.6c-0.5,1.2-0.1,1.4-1.5,1.8C131,37.8,132.3,36.2,133.3,36.4z"/>
		<path class="st2" d="M1007.6-56.1c0.4,0.8-1,1.6,0.3,2.4c0.5-0.6,1-0.3,1.5-1c-2.4-0.3,1.1-6-1.5-1.7c-2.6-0.4-5.2,0.2-7.8-1.6
			c-1.2,1.5-1.6,0.9-2.1-0.4c-0.3,0.4,0.4,0.9,0,1.4c-1.1,0.7-0.3-1.3-1.5-1.7c-0.3,1.6-0.9,1.4-2.5,4c1.1,0.6,2.2-0.9,3.3-1.6
			c0.9,1.9,1.8,0.7,2.7,0.4c1.9,3.1,4.9,1.5,6,2.9c1.4-1.4-1.5-2.6-2.1-2.4C1005.2-57.1,1006.4-54.4,1007.6-56.1z"/>
		<path class="st2" d="M981.7-69.4c-1.6-0.9-3.2-0.6-4.8-0.1c1.1,0.7,0.3,1.4,1.2,2.1C978.6-70.3,980.3-68.3,981.7-69.4z"/>
		<path class="st2" d="M974.2-70c-0.9,0-1.2,0.8-0.3,1.7c-0.4,0.3-0.8-0.4-1.2-0.7c-1.1,0.8-0.8,1.6-1.5,2.3
			c-1.8-0.1-3.6-0.7-5.4,0.5c-2.2-3.5-4.4-0.5-6.6-1.5c0.2-2.7,3.4-0.9,3.6-3.3c-3.3,1-5.3-1.4-9,1.1c-0.9-1.5-1.5-2.8-3-0.8
			c-0.8-1.5-0.4-3.2,0.9-3.7c-0.5-1-1,0.1-1.5-0.4c0.6,1.2-1.4,2.2,0,3.4c-2.1-1.8-4.2,0.7-6.3,0.2c2.8-1.4,4.5-2.8,5.1-2.9
			c-0.9-2.5-4.4,0.9-6.3,1.5c-0.1-1.8-2.2-1.3-3.3-1.1c-0.3,0.5,0.4,0.9,0,1.4c-0.3,0.2-0.6,0-0.9,0.3c-0.1-0.6,0.4-1.1-0.3-1.7
			c-2.5-0.1-5,1.3-7.5,1.5c-0.2-0.3,0-0.7-0.3-1c2.7-0.7,3.6-1.8,6-2.6c-2.1-1.6-4.2-0.3-6.3-1.2c-0.7,1.2,0.9,0.4,1.2,1.4
			c-0.5,0.8-1,0.6-1.5,1c-1.4-1-0.4-2.7-1.8-2.8c-0.6,0.6-0.3,1.1-0.9,1.7c0.3,0.3,0.6-0.1,0.9-0.3c0.7,0.8,0.5,3.5,1.2,1.4
			c1.8,1.9-0.4,2.6-1.5,2.3c1.5-1-1.7-1.2-0.6-2.7c-0.8-0.6-1.6,1.8-2.4,1.3c-0.9-1.3,1.3-2.2,2.1-2.3c0.8-0.9-0.7-1.8,0-2.7
			c-1.1-0.9-2.2,0.7-3.3-0.4c0.1-1.5,1.2-1,1.8-2.7c-1.1-2-2.2,0.6-3.3-1.1c-0.6,1.2,1.4,0.6,1.8,2.1c-0.9-0.1-1.8,0.2-2.7-0.4
			c1.3,1.4,0.6,2.2,0.3,3.7c-0.3,0.2-0.6,0-0.9,0.3c-1.3-0.7,0.8-1.3-0.6-2.1c-1.3,2.2-8.4,0.4-7.8-2.2c-0.8,1.2-1.8,0.6-1.8,2
			c-1.6-1.1-0.5-2-1.5-3.1c1.5,0.4,3-1,4.5-0.2c-0.9-1.5-4.4-1.8-6.3-1.1c-0.6-0.7,0.5-1.3-0.6-2c-1.3,1-2.6,2.2-4.5,0.3
			c-0.2,1.7-1.4,1.5-0.6,3.4c-0.9-1.5-2,0.7-3.6-0.7c0.9,2.5-2.5,1-2.4,2.7c-2.2-1.1,1.3-2-0.3-3.1c-0.9,1.4-1.8,1.4-2.7,1
			c-0.1-0.8,0.2-1.6,0.3-2.4c3.1-0.8,6.1,0.5,8.4-1.2c-0.7-1.3-1.4,0.7-2.1-1.1c-3.9,3.8-7.8-2.3-11.7,0.8c-3.8-3.5-10.8,0-12.6-3.6
			c-1.2-0.3-2.4-0.3-3.6-0.7c-0.6,2.6-2.7,0.7-4.2,1.3c-0.1-0.6,0.4-1.1-0.3-1.7c-0.1,1.8-2.3,1.8-2.1,0.3c-3.3,2-6.6-1-9.9,0.2
			c1,1-0.7,1.6-1.2,2c-0.5-0.8,1.2-1.6,0.9-2.4c-2.8-1.7-5.6,0.4-8.4,0.5c0.1-2.6-3.3-2.7-3.9-1.1c-0.6-1.2-1.2-0.4-1.8-1.4
			c-1.5,3.7-7.7-1.7-11.1,1.5c-2.7-3.8-7.5,2.3-9.6-1.5c0.9,0.4,1.8-0.1,2.7-0.3c-0.7-1.9-3.7,0.7-6-0.1c-1-0.3-4.4-2.4-4.5-0.4
			c-0.6,0.8-1.2-1.1-1.8-1.4c-2.1,1.3-4.2,0.1-6.3,1.6c-2.5-1.3-7.8-1-11.7-1.2c-101.2-9.1-202.1-2.8-302.6,1.7
			c-0.9-0.8-0.1-1.6,0.3-2.4c7.5,2.3,15.1-2,22.6,0c0.6-1.4,0.9-1.2,2.1-1.6c0.3,0.7-0.5,0.3-0.9,1c1.2,0.8,2.4-1.7,3.6,0.1
			c0.9-0.9-0.2-1.8,0.6-2.7c3.2,3.3,8.3,2.2,12.5,0.3c3.4,0.5,6.7,1.5,10.1-0.4c0.4,0.3,0.5,0.7,0.3,1c5.3-2,12.7,0.4,16.1-2.3
			c0.8,0.9,0.1,1.3,1.2,1.4c0.3-0.4-0.3-0.9-0.6-1.4c6.7,2.2,12.1-2.2,19.1,0.4c0.6-2.2,4-0.2,5.7-0.2c2.8,0,4.7-2.3,6-0.5
			c2.4-1.5,4.8-1.6,7.2,0.1c1.3-0.6-0.7-1.4,0.6-2c0.3-0.8,1.9,1.1,1.2,1.4c1.6-1.8,3.2-0.2,4.8-1.3c0.6,0.5,0.3,0.9,0,1.4
			c2.1-1.8,4.2-0.6,6.3-1.6c0.2,2.6,0.2,0.3,1.8,1.4c0-0.9,0.7-1.7,1.5-1.7c0,0.6,0.4,1.1,0.9,1.7c1.4-2.6,4.3,0.9,7.2-1.9
			c0.5,0.6,0.5,1.1,0.3,1.7c3.5-0.8,11.7-0.2,12.6-1.8c1.8-0.4,3.6,1.9,5.4-0.6c1.7,1.6,4.7,2.5,5.4,0.8c11.3,1.1,21.5-0.9,33.2,0.2
			c0.6-0.4,0.2-0.9,0.6-1.3c0.9,1,1.2,0.6,2.7,1.7c6.2-2.2,15,1.7,22.2-1.7c0.6,0.6,0.3,1.1,0.9,1.7c2.8-0.4,5.6-1.3,8.4-0.6
			c-0.1-1-0.8-3.9,1.8-4.7c0.8,1.4,0.1,2.2,1.8,2.7c0.5,1.1-1.6,2.4-2.1,1c-1.1,1.6,2,2.4,1.8,0.7c3.8,2.6,7.6-1.2,11.4,1.5
			c0.8-2.3,3.4-1.6,5.1,0.4c0.6-0.4,0.3-0.9,0-1.4c3.4,1.1,6.8,0.3,10.2,1.5c0.3-0.6-0.1-1.1,0.3-1.7c4.9,1.2,11.6-1.3,15.3,1.9
			c0.3-0.3-0.1-0.7-0.3-1c5.4,0.6,10.8-0.5,16.2,1.6c3.8-1.5,10.2,0,15,0.2c1.1-0.8-0.2-1.6,0.9-2.4c0.4-0.1,0.8-0.3,1.2,0
			c-1.1,3.7,3.7,1.8,5.4,2.8c0.5-1.8-1.4-0.4-1.8-1.4c-0.5-1.4,1.4-1,1.8-1.3c2,4.4,6,1.7,9,3.5c1.1-0.8-0.2-1.6,0.9-2.4
			c0.4-0.3,0.8,0.5,1.2,0c0.3,0.6-0.5,1.1-0.9,1.7c0.9,0.9,1.8,0.9,2.7-0.3c0-0.7-1-1.4,0-2c-0.6-0.7-1.2,0.5-1.8-0.7
			c1-1.4,2,0.5,3-1.3c1,2,2,1.1,3,1.4c0.3,1.7-2-0.4-2.7,1c1.9,2.3-0.8,0.9-1.5,1.7c2.9,2.5,2.6-0.3,5.4,1.4c0.5-0.7-0.8-1.4-0.6-2
			c0.3-0.3,0.6,0.2,0.9,0.4c0.5-0.9,0.2-1.2-0.6-1.4c1.5-1.9,3-1.1,4.5-3c0.9,0.7,1.4,0.8,1.2,2c1.3,0,2.6-2.8,3.9-1.6
			c0.7,0.7-0.9,1.3-1.2,2c1,0.9,1.8-0.8,1.5-1.7c0.9-1,1.8,1.4,2.7,0.4c0.3,0.7-0.7,1.3,0.6,2c1.4-2.6,6-3.2,6-0.6
			c1.3-0.2,2.6,1,3.9-1c1.6,2.7,4.1-0.4,4.8,2.1c1.6-4,5.6,2.2,8.1-0.9c2.5,0.9,5-0.1,7.5,1.1c0.8,1-1.5,0.1,0,1.3
			c4-3.1,8,1.3,12-0.5c-0.5-0.7-1-0.3-1.5-1c-0.2-0.5,0.4-0.9,0-1.4c1.8,0.3,3.6,2,5.4,2.1c0.3-0.8-0.5-0.7-0.9-1
			c-0.5-1.2,1.4,0.3,1.8-1.3c0.1,0.9,0.4,1.3,1.2,1.4c1.6-3.8,4.8,1.4,7.2-1.2c1.1,0.9,1.1,1.8,0,2.7c0.8,1.2,1.6,0,2.4,0.7
			c0.3-0.6-0.5-1.1-0.9-1.7c0.8-1.4,1.6-1,2.4-1.3c0.4,0.7,0.2,1.4-0.6,2c2.1-1.3,4.2-0.1,6.3-0.2c0.3,0.7-0.7,1.3,0.6,2
			c1.2-3.5,7.6-1,9.7-2.5c0.7,1.7,3.1,1.3,1.2,2.7c1.3,0.4,1.4-0.5,1.5-1.7c1.3-0.2,1.6,3.3,3.3,1.8c-0.6-1.2-1.2,0-1.8-0.7
			c0.4-0.3,0.5-0.7,0.3-1c3,0.2,6,2.2,9-0.5c-0.1,1.9,0.2,1.7,1.2,3.4c0.9-1-0.3-2-0.9-3.1c1.6-2.7,3.2,1.7,4.8-0.6
			c1.8,1.3-0.8,2.5,0.3,3.7c1.1-1.2,0.5-2.5,0.9-3.7c1.2-1.2,1.2,1.3,1.8,0.7c0.3,0.6-0.5,1.1-0.9,1.7c1.1,0.5,2.7-0.5,2.1-1.7
			c2.1,2.3,2.1,0.3,3.6,2.8c2-1.3,2.2-0.8,4.2,0.1c0.3-0.9-0.8-1.8,0.6-2.7l-1.5-1.7c-1.1-0.1-0.5,1.8-1.8,0c-0.6,0.4-0.3,0.9,0,1.4
			c-1.9-0.1-7.7,0.5-6.6-2.9c-0.6-0.8-1.2,1-1.8,1.3c-1-1.4-0.2-2.5,0.9-3c-0.6-0.4-3.7-0.3-2.4,1.3c-1.3,0.5-2.6-1-3.9,0.9
			c-0.5-0.8,1.3-1.6,0.9-2.4c-1-1.4-4.1,1.2-3.3-1.8c-0.8-0.8-1.1,1-0.6,1.3c-1.1,0.1-2.2-0.1-3.3-1.1c-0.3,0.6,0.1,1.1-0.3,1.7
			c-0.7,0.6-1.4-0.3-2.1,0.3c-0.1-0.6,0.1-1.1,0.3-1.7c-2.6,1.4-5.2,1.2-7.8,0.5c-0.7-1,0.9-0.1,1.2-1.3c-0.9-1-1.8,0.5-2.7-1.1
			c1.2-0.7,2.4-0.8,3.6,0.7c0.9-2.8,4.1,0.5,6-1.2c-4-0.9-7.5-0.2-10.8-0.9c-0.7,1.2,0.9,0.4,1.2,1.4c-1.9,1.9-2-3-3.9-1.1
			c0.6,0.3,1.2,0.4,1.8,0.7c-0.8,1.8-1.6-0.4-2.4,1.3c-0.8-0.6-0.1-1.1,0.3-1.7c-0.5-0.1-1,0.4-1.5-0.4c-0.5,2.3-5.7,0.9-8.1,0.2
			c-0.5-1.6,1.4,0.8,1.8-0.6c-4.1,0.5-8.2,0.5-12.3-0.6c-0.3-0.6,0.5-1.1,0.9-1.7c-1.3-1.7-2.2,0.6-2.1,1.7c-1.8,0.4,0-2-1.8-2.7
			c-1.7,0.8,1.2,1.6,0.3,2.4c-2.5-0.2-5,1.9-7.5-0.5c-0.9,2.4-2,1.3-3.6,2c-1.1-0.7-0.3-1.4-1.2-2.1c-1.9,1.4-3.8,1-5.7,0.9
			c-0.4-1.3,1.6-0.8,2.1-1c-1.3-1.4-3.5-0.5-5.1,0.9c-1.2-0.8,0.2-1.6-0.9-2.4c0.8-1.1,2.1-0.2,2.1-1.7c-3.8-0.2-6.3,0.7-9.6,2.6
			c-1.7-1,1.1-2-0.3-3.1c-3.2,0.1-6.4,0.5-9.6-1.5c-1.6,2.2-2.7,0.3-3.6-0.1c-0.6,0.7,0.4,1.4-0.6,2c-2.3-2.3-7.8,1.3-8.1-1.8
			c-3.7,0.3-9-1.8-11.7,0.2c-1.9-1.9-3.8,0.1-5.7-2.5c-1.3,1.9-2.6,0.2-3.9,2.3c-1.1-0.7-0.3-1.4-1.2-2.1c-7-0.1-14,0.6-21-1.7
			c-0.2,0.9-0.9,1.7,0.3,1.7c-5.8-1.3-11.6-2.3-17.4-0.9c-1.4,0.8-2.8-1.7-4.2-1.4c-0.3,0.4,0.4,0.9,0,1.4c-1.8-0.7-4.1-1.6-6.6-0.1
			c-0.6-0.7-1.2-1.4-1.8-2.1c-6.1,1.8-12.2,0.4-18.3-0.6c-0.2,0.3,0,0.7-0.3,1c-10.6-1.6-21.2-0.2-31.7-1.1
			c-1.6,2.1-8.9,0.1-13.5,0.1c-2.5,0-4.4,1.3-6.3-0.4l-1.2,1.3c-1.2-2.5-3.9,0.9-6-1.5c-5,2.4-12.3-0.6-18.2,1.4
			c-0.4-0.5-0.8-0.9-1.2-1.4c-7.7,2.4-15.3-0.6-23,2c-3.4-2.1-6.8,1.2-10.1-0.9c-2,2-4-0.4-6,1.2c-5.6-1.4-11.1-0.6-16.7,0.4
			c-12.3-0.7-24.7,1.9-36.9,1.2l-1.2,1.3c-0.5,0.3-0.5-0.6-0.3-1c-6.5,1.2-11.3,1-17.9,2.3c-0.4-0.5-0.8-0.9-1.2-1.4
			c-1.2,0.2-0.5,2.5-2.4,1.3c-0.3-0.7,0.5-0.3,0.9-1c-0.8-0.4-2.1-0.1-2.1,1c-48.3,0.7-95,7.9-142.8,10.2c-0.3,0.3-0.6,0.6-0.9,1
			c-6.5-1-13.1,2.3-19.5,0.4c-1.2,0.4-2.2,2.7-2.4,0.6c-0.9,1-3.6,1.7-5.3,0.4c-0.4,0.4-0.8,0.9-1.2,1.3c-2.3-0.2-4.5-0.7-6.8,0.6
			c-10.8-1.8-22,2.7-32.7-1c-0.4,0.4-0.8,0.8-1.2,1.3c-1.7-1.7-4.9-1.2-5.9,0.3c-0.5-0.6-0.2-1.1-0.8-1.8c-0.9,2.5-1.8,0.9-2.7,0.2
			c-2.9,2.1-6.3,1.4-10.1,1.4c-0.5-0.6-0.5-1.2-0.2-1.7c-0.9-0.4-1.1,2.4-2.7,0.8c-0.3,0.3,0.1,0.7,0.2,1c-0.9,0.6-1.7-0.7-2.7,0.8
			c-0.6-0.5-0.3-0.9,0.1-1.4c-1,0.9-3,1.8-4.8,1.7c-0.7-1.8,1-0.9,1.9-1.9c-3.6,1.5-7.2,2.1-10.8,3.3c-0.5-0.6-0.9-1.2-1.4-1.8
			c0.4-1.5-0.9,0.8,0.5,1.4c-1.7,1.6-3.2,1.2-5.4,2.3c-0.3-1.5-2.4-1-1-2.1c-1-0.6-1.1,2-2.9-0.2c-1.4,1.3,0.7,1.1,1.1,1.4
			c-2.2,1.7-4.1-0.1-6.3,1.8c-0.3-0.5,0.4-0.9,0.7-1.3c-0.6-0.4-1.2,0.7-1.7-0.8c0.4,1.9-1.1,0.7-2.2,2.2c-4.9-2.8-11,4-15.3,0
			c-1.1,3-4.2,2.3-6.1,2.9c0.2-2.2,2.6-0.5,3.7-1.7c-0.4-0.7-0.9-0.4-1.4-1.1c1.7-0.8,3.5-2.7,5.2-3.3c-0.3,3.5,4.4,0.2,5.3-0.2
			c-3.3-1.9-8.9-0.9-12.2,2c-0.3-0.6,0.6-1.1,1-1.6c-1.8,0.4-5.6,0.1-5.8,3.2c-1.2,0.6-0.7-1.4-1.3-1.8c-3.5,2-5.6,1.8-9.4,4.2
			c-4.5-0.3-8.9-0.5-13.7,2.7c-2.6-0.7-6.9,0.6-8.8,2.7c-2.8-0.9-6.8,0.6-10.9,1.7c-4.2,1.1-8.5,1.7-12-1.1c1.4,4.5-4.5,2-4.5,5.9
			c-1.5-0.5-3.5,3.4-4.8,0.7c-6.6,3.2-12.8,3.1-18.4-0.8c-0.9,1-1.9,2-1.6,3.2c-1,0.3-1.9-0.4-2.7-1.8c-1.1,1.5-1.8,0.6-2.7,0.6
			c-0.6,1.8-1.4,1.5-2.2,3.1c0.5,1,1.2-0.4,1.7,0.3c-4.1,1.9-10.4,1.4-14.7-2.6c-0.9,2.4-2.6,2.7-4.4,2c-4.2,4.6-9.3,6.7-14.3,7.9
			c-0.5-0.8-0.9-1.5-1.4-2.3c0.2,2.2-2.8,1.3-4.3,2.3c-0.1-0.5-0.1-0.9,0.2-1.3c-4.3,0.3-8.3,0.3-12.1,2.8c-2.3,0-4.9,0.1-7.5,0.6
			c-1.3,0.2-2.6,0.6-3.8,1.1c-1.2,0.5-2.4,1.1-3.4,1.9c-2.9-0.9-9.1,2.1-11.8,3.2c-4.5,1.9-8.6,3.3-12.4,6.2
			c1.1,0.3,0.9,1.4,1.3,2.4c-1,0.9-1.6-0.1-2.6,0.7c1.3,1,2.2-0.2,2.8,1.4c1.9-2,3.8,1.7,4.8-0.6c0.8-0.5,1.1,1.6,1.7,2.1
			c2-0.2,3.9,0,5.8,0.3c-2,1.3-2.8,1.3-5.7,3.6c7.2,0.4,17,1.6,25.9-1.8c0.9-0.3,1.6,0.3,2.2,1.1c0.2-0.5,0.1-1.1,0-1.7
			c0.9,0.1,1.9-0.3,2.8-0.5c0.8,3.3,5-1.2,6.9-3.1c0.7,1.3-0.8,2.2-1.8,3.1c0.9-0.3,2,0.9,1.8,2.1c-1.7,1.2-1.8-0.1-3.1,1.8
			c0.5,1.1,1.8-1.9,2.1,0.1c1.2-0.5,0.6-1.3,1.5-1.8c0.4-0.1,0.8-0.2,1.2,0.2c-0.2,1.1-1.6,2-1.8,3.1c-0.3,0.2-0.6-0.1-0.9,0.2
			c1-1.9-1.8-0.8-3-0.6c-0.5-0.7-0.1-1.2-0.6-1.8c-2.8,0.6-3.8,4-6.3,4.3c0-1.3,2.4-2.1,3.3-3.1c-1.1-0.2-3.4,0.1-3.1,1.8
			c-2.7-1.6-6.1,0.8-9.3,2c1.6,1.3,3.9-1,5.9-1.6c-1.6,3.1-5.4,3.5-7,1.4c-2.6,1.4-5.3,2.5-7.3,0.8c-4,1.6-7.7,1.7-11.4,1.8
			c-1.9,0-3.7,0-5.6,0.1c-1.9,0.1-3.8,0.3-5.8,0.8c1.2,2,3.1,1.2,4.2,3.9c1.9-0.3,3.6,0.1,4.9,2.1c0.7-0.3,0.4-0.8,0.9-1.2
			c0.8,2.5,2.6,0.6,3.7,1.9c0.4,0.9-0.4,1.5-1.4,2.1c1.3,1.7,3.3,0.4,4.8,1.1c1.1,1.1-0.9,1.4-0.2,2.4c2.2,1.4,4-0.8,6.8-0.9
			c0.5,2-3,2.8-4.2,3.6c0.5,0.2,0.9,0.6,1.3,1.3c0.4-0.3,0-0.7-0.1-1.1c1.4-0.6,1.8,0.9,2.7-0.8c0.5,0.7,0,1.2,0.6,1.9
			c2.3-0.7,4.2-0.1,6.2,0.6c0.9-0.7,1.1-1.6,0.5-2.7c0.8-0.8,1.4-1,2.1-1c0.4,1.5,0.4,2.8,0.4,4.2c-2.5,0-6.7,2-7.9,4.7
			c-3.9,0.1-8,0.3-11.5-1.5c0.5,2.9-2.2,1.4-3.7,0.9c-0.2-1.5,1.6,0.4,2.4-0.5c-1.3-1.8-3.6,0.8-5.3,0.9c-1-1.1,1-1.5-0.6-1.9
			c-0.8,2.2-5.1,1.5-7.2,0.4c-2.3,1.7-4.3,0.3-7,0.7c-0.7,2.2,2.1,1,2.9,1.4c-2.4,0.9-8.3,2.2-11.7-0.9c-1.6,1.1-4.5,0.5-7.3,0.2
			c-2.8-0.3-5.4-0.2-6.5,2.6c-2.1-1.4-3.8,1.3-5.4-0.2c0.3-1.1,1.5-0.4,1.6-2c-5.7,1-11.7,3-13.3,7.4C3.8-3.1,5.7-1.6,4.7,0
			c2.4,2.2,6.9,2.9,6.6,7.3c1.8-1.5,4-0.1,4.8-2.1c-0.3-0.5-1,0.1-1.5,0.3C14.4,3.9,15,4.5,16.1,4c0.5,1.5,1.3,2,2.2,2.1
			c0.7,1,0.2,1.7-1,2.2c0.8,0.5,1.7,0.4,1.9-0.5c0.7,1.4,2.4,2,4.3,2c1.9,0,4-0.4,5.7-0.7c2.9,3.8,7.7,0.4,11.9-1.2
			c0.2,0.3,0.3,0.5,0.5,0.8c-2.3,3.2-5.9,2.6-8.3,4.6c0.4,1.1,1.3,0.4,1.6,1.8c3.2-1.2,5.6-1.3,7.9-1.3c1.2,0,2.3,0.1,3.5,0.1
			c1.2-0.1,2.5-0.2,4-0.6c0.1,0.4-0.1,0.7,0.1,1.1c-1,0-2.3,0.3-3.6,0.8c-1.2,0.5-2.4,1.1-3.1,1.8c0.6,1.2,1.8,0.2,2.4,1.3
			c-0.1-1.5,0.8-1.6,1.8-0.6c-0.1-0.9,0.1-1.8,0.6-2.7c1.7,1.1,6.1,0.7,5.8-2.2c1-0.9-0.1,2.2,1.4,1.3c0.1,0.7-1.4,0.4-1.1,1.9
			c1.3,0.5,2.9-1.9,2.6-2.9c1-0.3,0.4,1.9,1.1,2.7c1.9-0.6,1-1.9,2.2-2.6c1-0.6,0.9,1.3,0.4,1.5c1.2,0.9,1.3-1.3,1.7-1.7
			c0.4,0.2,1.5,1.3,1.5,2.4c-1,1.1-1.7,0.5-2.6,1.2c1.7,1.5,3-0.7,3.1-2.1c2.3,0.1,4.4,0.3,6.4-2.1c1.5,1.2-0.5,1.7,0.1,2.8
			c-1.4,0.3-2.7,0.3-4.1,0.5c1,1.6,0.7,2.9-0.8,4c0.7,0.9,1.6,0.2,1.8-0.6c-0.1,1.6,1.5,0.4,1.5,2.4c2.1-1.5,3.7-1.2,6.1-0.9
			c0.3,1-2,1.4-2.3-0.1c-0.4,0.2-0.3,0.4-0.1,0.7c-0.2,0.2-0.5,0.4-0.8,0.5c1,1.4,2.5,0.4,3.9,0.1c0.4,1.5-0.5,2.7-0.1,4.1
			c0.9-1.3,0.8-0.7,2.3-1.6c1,1,0.5,1.7,1.1,2.6c0.9-0.4,0.8-1,1.3-1.5c0.8,0.8-0.1,1.4,0.9,2.2c2.1-0.5,3.9,0.1,5.8,0.4
			c0.6,1.6-0.9,0.7-2,2c0.8,1.1,2.1-0.8,2.8,0.9c0.1-0.6,0.9-1,0.6-1.6c2.2,1,4.7,1,7.1,0.8c2.4-0.2,4.8-0.4,7.1,0.4
			c0.4-0.4-0.2-0.9-0.4-1.4c0.9-0.8,1.7-1.4,2.5-1.3c0.5,5.5,6.4-0.6,8.9,0.8c-1.5,4.7-4.7,2.9-7.5,4.6c1.2,1.3,3.2-0.9,3.3,1.6
			l2.2-1.7c0.7,0.7,0.4,1.2,0.7,1.8c-0.8-0.2-1.9,1.2-2.6,0.2c0.3,1.6-0.9,0.7-1.3,2.2c1.1,2.8,3.5-2.9,4.5,0.1c1.7-1.7,3.4-3.3,5-5
			c1.1,1.1,0.4,1.9-0.4,2.7c0.8,1.9,2,0.8,3.1,1.2c-0.1-0.9,0.3-1.8,1.7-2.5c-0.6-0.5-1.4,0.6-1.8-1c1.2-0.7,2.2-0.5,3.1,0.5
			l3.3-2.6c0.2,2.1-0.8,1.5,1.3,1.9c1.4,1.1-0.9,1.7,0.2,2.8c0.9-3.2,2.5-2,4.8-4.4c1.8,0.8,3.7,1,5.4,2.2c1.8-3,3.7-3.4,6.1-4.9
			c1.3,1.1-1.3,1.6-1,2.6c2.9,0.1,6.3-4.2,7.8-6.4c-2.8-1.1-4.2,3.3-6.2,3.9c-0.5-0.6-0.4-1.2-0.1-1.7c-0.7-0.7-2.2,1.2-1.5,1.8
			c-2.3-3-8.3,4.5-11.5,0.4c2.6-3.7,7.4-3.3,10.5-2.6c2.5-4.4,6.9-3.5,10.9-3.6c-1.3,2-2.1,3.4-2.6,5.8c1-1.3,1.8-0.6,2.7-1.7
			c2.4,3.9,4-1.6,6.4,1.8c3.1-1.3,2.1-1,4.9-1.8c-0.8-0.7,0.3-1.1-0.1-1.7c0.9-0.4,1.7,0.1,2.6-1c1.3,1.4-0.5,2-1.5,1.9
			c0.1,1.6,3.9,0,3.9-1.5c1.2,0.3,2.6-1,3.6,1.2c1.7,0.4,3.9-2.9,5.5-1.7c1,2-1.1,3.8-2.2,5.6c2.3-0.1,3.5-2.8,6.5-2
			c1,1.4,0.4,1.7,1.7,1.6c1.1-1.2-1.9-0.6-0.7-1.8c-0.9-0.2-1.8-0.5-2.8,0c-0.3-1.8,0-1.6-1.7-1.6c-0.3-0.5,0.4-0.9,0.8-1.3
			c0.9-0.5,1.4,2,2.3,1.6c0-0.6,0.8-1,0.5-1.7c1.1-0.4,2,0.3,3.1,0.3c0.4,0.9,0,1.3-0.8,1.3c-0.6,0.3-0.2-0.6-0.8-1.1
			c-0.2,1-0.8,2,0,3.1c4.7-5,8.8-4.5,13.1-6.7c0.4,0.5,0.8,1,0.5,1.4c0.4-1,3.8-2.7,5.9-2.8c0.1,1.8-3.3,2.4-3.1,3.4
			c-0.7-1.6-1.6-0.8-0.3,0.3c3.6-1.3,6.8-1.9,9.5-1.7c0.8,2.4-3.3,1.3-3.4,3.8c1.2,0,1.5,0.7,2.2-0.8c3.9,2.1,11.5-2.7,15.7-3.2
			c0.8,1-2.5,1.6-0.9,2.6c0.7-1.9,2.3-2.3,3.6-2.7c-0.9-0.4-1.8-1-2.7-0.6c-0.2-0.4,0.1-0.7-0.2-1c1.9-1.1,3.6,1.5,5.6-0.8
			c0.5,0.6,0.2,1.2,0.8,1.8c1.6-1.5,2.9-0.3,4.4-0.9c0.5,0.6,0.5,1.2,0.2,1.7c0.7,0.6,1.5-0.9,2.1,0.5c0.7-0.4,0.4-0.9,0.1-1.4
			c5.6,0.6,9.5,0.2,15.1-0.4c0.4,0.7,0.1,1.4-0.8,2c0.9,0.2,1.9-0.5,2.8-0.1c1.5-0.8-0.5-1.9,0.8-2.7c1.3,1.5,2.8,1,4.3-0.3
			c0.8,0.8,0,1.4,1.1,2.1c0.6-0.7-0.1-1.6,0.5-2.3c1.6,2,1.4-0.1,3.7-0.4c0.8,0.7,0,1.4,1.1,2.1c0.3-0.5,0.3-1.1-0.2-1.7
			c2-0.9,6,1.6,5.9,3.9c2.9-1.1-2.2-2.1-0.3-4.1c1,0.1,0.7,1,2,1.9c1.5-1.2,3.1,0.1,3.8-2.4c1.3,0,2.9-0.1,3.2,2
			c0.5-0.5,1.1-1.1,1.6-1.6c-1-1.9-0.5,1.4-1.5-0.5c0.9-2.5,5.3-0.5,8.1-2.1c-0.5,1.3-0.3,2.5-1.7,2.9c2,2,2.6-2.5,4.8-2.7
			c1.3,2.2,2.8,0.4,4.3-0.4c1.6,2,3.4,1.2,5.1,0.7c0.4,1.5-1.6,0.5-2.2,1.6c0.6,1.1-0.9,2-0.5,3c1.7-2,4.2-2.2,5.7-4.4
			c0.5,0.7,1.2,0.1,2.4,0.8c0.6,2-3.7,0.2-1.4,2.6c-1,1.3-1.8-0.5-2.8,0.8c0.8,1.6,3.5-1,3.3,1.2c1-1.2,2.1-0.6,3.8-1.8
			c-0.2,2.8,1.8,0.1,3.3,1.9c1.9-1.9,3.7-1.3,5.6-2.3c0.1-1.4-1.4-2.5-2.4-1.5c0.2-2.3,2.9-0.9,4-0.8c0.2,1.1-0.6,2.1-1,2.3
			c0.2,1.1,1.1,1.2,1.1,2.8c0.2-3,1.8-0.8,3.5-2.8c-0.6-1.8-1.4,0.2-2.1-1.2c1-0.1,2.1-1.3,3,0.2c0.3,0.7-0.5,0.3-1,1
			c0.4,0.7,1.3,0.4,0.9,1.1c1.1,1.1,0.5-2.2,1.5-0.2c-0.3-1.2-0.8-2.3,0.2-3.4c1.5,0.1,0.1,1.1,1.1,2.1c0.9-0.7,0.6-1.5,0.4-2.4
			c0.5-0.1,1,0.5,1.5-0.2c1.5,1.6-1,2.9,0.1,4.4c0.4-0.9,0.9-1.8,0.7-2.7c1.1-1.5,1.9,1.6,3.1-0.5c1.1,0.9,0.7,1.6,1.4,2.5
			c1.4-1.3,2.7-0.4,4-0.1c0.8-2.3,3-1.6,4.6-1.4c0.8,0.7-1.6,1.3-0.1,2c1.4-2.1,2.9-0.9,4.9-1.1c1.3-0.7-0.5-1.6,0.4-2.4
			c1.8-0.3,0.3,2,1.7,2.8c0.8-0.1,1.1-0.4,1.3-1.3c2.9,3.9,6.2-1.8,9.1,0.5c1.1-2.2,1.7-1.9,3.8-3.2c0.5,0,0.9,1.4,2.1,1.1
			c0.3,1.7-1.8,0.9-2.5,1.9c1.8,1.1,3.3-0.2,4.6-1.5c1.5,0.6,0.8,1.4,1.7,2.8c1.2-0.4,1.9,0.6,2.5-1.2c0.4,0.5,0.8,0.9,1.2,1.4
			c-0.5-1.8,2.7-2.5,4-0.1c1-2.4,1.8-1.4,3.4-0.8c1.3-1.2-0.1-0.4-0.6-1.4c0.7-0.9,1.4,0,2.1-0.2c1.1,1.7,0.3,1.6-0.1,2.7
			c1.3,0,2.6,0.5,3.9,2.6c-0.3,0.4-0.6,0.5-0.9,0.3c0.2,1.3,3,0.7,4.2,0.9c-3.2-1.1-2.6-3.3-5.6-4c2.9-2.8,3.2,2.1,5.4,1.6
			c-0.1-1.5-2.3-3.1-2-4.5c0.8,1.3,2.9,1.1,3.5,2.9c0.9-1.4,0.9-2.9,1.7-4.3c-0.4,2.4,1.1,2.3,2.3,3.5c0.6,0.9-1.3,1.8-0.1,2.7
			c0.5-1.1,0.8-1.1,0.7-2.7c0.8-0.1,1.9,1.2,1.2-0.6c0.9,0,1.8,1,2.7,1.8c0,1-2.8,0-2.2,2.3c1.6-1.2,9-4,7.6,0
			c0.9,0.1,1.9-1.4,2.7-0.2c1.3-3.2,4.5-0.6,6.8-3.8c0.5,2.3,2.4,0.9,1.7,2.8c1,0.6,0.8-1.7,2.2-2.3c2.3,0.2,4.6,1.3,7-0.7
			c0.2,1.9,2.2,1.4,2.4,0.1c0.9,1.8,1.8,0.7,2.7,1.8c-0.3-1.1-0.7-1.1-1.1-2.8c1.2-0.2,2.5,1.2,3,2.1c1.6,0.4,0.8-2,3,0.1
			c0.1-0.6-0.3-1.1,0.4-1.7c-1.3,0.4-2.6-0.1-3.9-1.2c2.2,0.1,4.4,0.4,6.6,0.2c0.2,0.3,0,0.7,0.3,1c-1,0.6-2.9-0.8-3.1,1.2
			c1.6,1.1,3-1.6,5.1,0.5c0.4-0.5,0.8-1,1.2-0.6c0.3-0.6,0.3-1.1-0.3-1.7c1.3-1.1,2.6,0.1,4-0.9c1.1,0.7,0.3,1.4,1.2,2.1
			c1.2-0.8-0.6-1.7,1-1.7c1.1,0.9-0.7,1.7,0.9,1.7c0.9-0.5-0.1-1.1,0.3-1.7c4.7,4.1,10.4,0.2,14.2,2.2c0.5,0.7-0.9,1.3-0.6,2
			c1.7,0.7,3.5-2.4,5.1,0.5c0.2-0.6,0.3-1.1-0.3-1.7c0.6-1.2,1.2-0.4,1.8-1.3c0.8,0.6,0.1,1.1-0.3,1.7c0.9,0.9,1.8-0.1,2.7,0.4
			c0.3-0.4-0.3-0.9-0.6-1.4c0.6-1.2,1.2,0,1.8-0.6c0.1,0.6-0.4,1.1,0.3,1.7c0.4-0.4,0.8-0.9,1.2-1.3c0.8,0.7,0.1,1.4,1.2,2.1
			c2.9-0.5,5.9-1,8.8-0.7c-0.3-0.3-0.6-0.7-0.9-1c0.8,0.1,1.6-1.5,2.4-0.6c0.8,0.6,0.1,1.1-0.3,1.7c1.8,0.8,4.9-0.9,5.8-1.5
			c0.5,1.4,1.2,1.8,2.4,0.8c-1.5-1.3-0.2-1.4,0.6-2c-2.8,0.6-3.9-1.4-6.9-0.6c-0.3,0.6,0.3,0.3,0.6,0.7c-0.6,1.5-1.2-0.9-1.8,0.6
			c-0.9-1.7-1-1.3-2.4-2.8c3.5,1.5,8.3-1.3,10.9,1c0.2-0.3,0-0.7,0.3-1c1.2-0.7-0.3,1.3,0.9,1.7c1.9-2.7,3.6-1,5.4-0.5
			c0.5-1.9,1.8-1.7,3-1.3c-0.4,1.4-1.5,2.7-0.7,4.1c-0.9,0.4-2.4-0.1-2.4,1.3c1.2-0.2,1.2,0.1,1.8,1.4c0.5-1.5,1.3-1.2,1.6-2.3
			c1-0.5,2,0.8,3-0.6c1.2,2.5,3.9,1.2,6,0.2c0.1,2.1,1.1,1.9,2.7,0.4c0.2,0.6,0.2,1.1-0.3,1.7c2,1,4-1.3,6.1-0.5
			c0.5-0.7-0.8-1.4,0-2c0.6-0.9,1.2,1.8,1.8,0c0.5,0.6,0.5,1.2,0.3,1.7c1,0.3-0.1-1.9,1.5-1c0.8,0.7,1,1.4,0.6,2
			c1.5-1,4.3,0.9,4.8-1.2c0.8,0.7,0.1,1.4,1.2,2.1c0-2.1,1.6-0.3,1.5-0.3c2.1-0.3,2.8-3,5.1-0.9c0.4-2,2.9-1,4.2-1.3
			c0.1,0.6-0.4,1.1,0.3,1.7c0.9-2.2,2.4-0.1,4-2.3c0.5-1.4-1.6-1.8-2.1-1.1c-0.5-0.3,1.4-1.5,1.8-1.3c0.6-1.6-1.4-0.4-1.8-0.7
			c-0.3-0.6,0.5-1.1,0.9-1.7c0.5-0.2,1.7,2.1,3,0.1c0.8,0.8,1.5,1.6,0.9,2.4c1.1,1.2,2.2-0.6,3.3,1.1c0.3-0.9-0.1-2.1,1.2-2
			c-0.7,2.5-2.9,4.3-5.2,5.6c1,0.2,2,1,3,1.4c0.4-0.7,0.6-2,1.5-1c0.3-0.6,0-1.1,0.3-1.7c1.3-0.9,0.8,0.8,2.1,1.7
			c-0.2-2.9,5.1-3.2,5.7-0.2c0-1.7,1.3,0,2.1-1.6c-1-1.2-2,0.5-3-0.8c0-1.3,2.6,0,3.6,0.1c0.1-0.7,0.4-1.3,1.2-2
			c0.7-0.8,0.7,1.1,0,1.4c1.1,0.5,1.1-1.8,0.3-2.4c-0.7,0.5-1.4-0.4-2.1,1c-0.3-0.7-0.3-1.4-0.6-2c1.4-1,2.8,1.1,4.2,0.1
			c0.3,1.3-2.1,3.8,0,4.1c-0.4-1.8,0.4-0.9,1.5-1.7c0.2,2-1,0.9,1.2,2.1c0.1-1.3,0.2-1.8,1.5-2.3c0.5,2.6,2.2-0.9,3.6,1.4
			c-3.6,0.3-6.5,2.4-10.6,0.8c1.5,2.3-2.8,1-2.1,3.7c0.5,0.7,1,0.3,1.5,1.1c0.6-2.2,3.1-0.6,3.6,0.8c-0.9-2,1.4-1.8,0.3-3.7
			c0.8,0.1,1.6-1,2.4,0c0.6,1.1-2.4-0.2-0.3,1.7c-0.6,1.5-1.2-0.9-1.8,0.6c0.6,0.6,0.3,1.1,0.9,1.7c1.7-2.2,2.3-0.5,2.7,1.1
			c0-2.8,3.9-0.9,5.7-1.6c0.6-1.3-0.1-0.9-0.9-1.7c2-2.3,5.3-0.1,6.3-2.2c1.2,0.8-0.2,1.6,0.3,2.4c-1.6,0.1-3.2,0.5-4.8-0.1
			c-0.6,0.9-0.6,1.8,0,2.7c0.4-0.7,0.8-0.4,1.2,0c0.1-0.5,0.3-0.9,0-1.4c1.7,2.1,6.2,0.1,7.2-1.9c-0.7,3.4,2.2,1.7,3,4.1
			c0.5-0.6,1-0.6,1.5-0.3c0.6-1.8-1.4-0.4-1.8-1.4c-0.5-1.4,1.2-2.3,2.7-4.3c1.4,1.9-1.3,1.9-1.2,3.4c1.5,1.3,1.2-0.2,2.7-1
			c-0.5-0.8-0.2-1.6-0.3-2.4c0.7-0.5,1.4,1.1,2.1-0.3c-1.3-1.4-2.6,1.4-3.9-1.1c-1.5,1.4-3,2.6-4.5,2.3c-0.5-0.8,1.4-0.5,1.8-0.6
			c0.6-1.2-1.6-1.3-1.2,0c-0.5-6.7,8.6-1,13.3-3.1c-0.4-0.5-0.9-0.9-0.6-1.4c-0.7-1-1.4,1-2.1-0.4c-0.2-1,2.2-2.2,3-0.6
			c-0.6-1.6,1.9-3.7,3-2c0.4,0.4-1.8,1.4-2.4,0.6c0.4,2-0.6,2-0.9,3.7c1.3,0.8,0.9,1.3,2.4,2.1c-2.1,0.7-3.4-0.6-6,1.9
			c1.3,1.6-0.1,1.6,1.8,2.8c-0.1-1.1-1.2-2.3,0.6-3.4c2,0,4,0.7,6,0.1c-0.8-0.7-1-1.4-0.6-2c-0.9-0.3-1.8-0.4-2.7-0.4
			c0.1-1,1.2-1.6,1.8-2c0.6,0.5,0.3,0.9,0,1.4c1.7,0.9,0.4-1.9,2.4-1.3c0.1,1-0.6,2-0.3,3.1c2.1-2.5,6.2,0,8.5-2.6
			c0.4,0.8-0.3,1.6,0.9,2.4c1.1-0.8,2.2,0.2,3.3-1.6c-0.8-0.7-1.1-1.4-1.2-2.1c1.4-0.8,2.8-0.1,4.2-1.3c0.7,1.4-1,3.9-2.4,2
			c0.7,1-0.4,2,0.3,3.1c1.2-2.4,2.6-1.4,5.1-3c-0.7-1.4-1.4,0.6-2.1-0.4c0-1.7,1.8-0.2,2.7-1.6c0.6,0.6,0.3,1.1,0.9,1.7
			c0.6-3.7,3.5,0.1,5.1-1.6c0.9,2.5-2.3,1.8-2.4,3.3c0.3,0.3,0.6-0.1,0.9-0.3c1.3,0.7-0.7,1.3,0.6,2c1.1-1,2.7,0.1,2.1-1.7
			c1-1.5,2,0.7,3,0.1c0.2,0.9-0.3,2.2-1.2,1.3c0.2,2.3,3.9-1.9,4.2,1.4l1.8-2c-0.8-0.6-0.6-1.1-0.9-1.7c1.2-0.8,1.2,0.5,1.8,1.4
			c1.8-2.7,3.7-0.1,6.9,1.1c1.8-1.9,5.7,0.9,8.4-0.5c0-1.6-1.3-0.4-2.1-1c0.4-1.8,3.4-1.4,4.8-1.3c0.5,1.7-1.9,0-1.5,1.7
			c0.9,0.8,1.7,1.3,1.8,2.1c0.7-0.7,2-2.7,3-4c1.4-0.5,1.1,1.8,2.1,2.4c0.7,0.2,3-1.8,2.7,0.4c2.3-1.8,4.6-1.3,6.9-0.9
			c1.4,1-1.1,2,0.3,3.1c1.7-1-0.5-2,0.9-3c1.3-1,1.5,1.7,2.4,2.8c0.8-0.7,1.6,0.3,2.4,0c-0.2,0.9,0.1,1.8,1.2,2.7
			c0-0.5,0.4-1.5,0.9-1c0.7-0.9-0.9-0.1-1.2-1.4c0.8-1.2,1.6-0.1,2.4,0c0.6-0.9-1.1-1.2-1.5-1c-0.1-0.8,0.2-1.6,0.3-2.4
			c1.2-0.1,1.2,1.2,1.8-0.6c1.3,1.6-0.3,1.2-0.3,2.4c1.2,0.9,1.1-0.8,1.5-1.7c1.4-0.5,2.8,0.3,4.2,0.1c0.1,1-0.9,2-0.9,3
			c1.3,0.5,2.6,3.2,4.2,2.1c1.2,2.1,1.5,3.2,4.2,3.5c-0.8-0.7-1.8-0.8-1.8-2.1c0.9-1,1.8-0.5,2.7-0.3c0.6-0.7-0.4-1.4,0.6-2
			c-1.2,0.1-3.4-1.7-3.6-0.1c-0.2-0.8-0.5-1.6,0.3-2.4c1-0.2,0.7,1.9,2.1-0.3c1.3,0.7-0.7,1.3,0.6,2c-0.2-2.1,1.4-2,2.7-1
			c0.7-1.3-0.4-1.6-1.2-1.4c0.5-0.6,1-0.3,1.5-1c0.3,0.8,2.1,1.6,1.5,2.4c0.5,0.2,2.6-1.9,2.1,0.4c1,0.6,1.5-3,3-2
			c0.3,0.6-0.5,1.1-0.9,1.7c1.5,0.2,4.3,2.1,4.8,0.1c0.4-0.3,2.6,0.3,1.2,1.4c2.6-0.2,6.1-2.4,6.9-6.3c0.7-0.1,1.4,0.3,2.1-0.3
			c1.2,1.1-1,2.2,0.6,3.4c-1.4,1.3-1.4,0.4-2.4,0c-1.4,1.1-1.7,2.2-0.6,3.4c0.3-0.3-0.1-0.7-0.3-1c0.9-0.6,1.8-1.4,2.7-0.3
			c0.7,1-0.9,0.1-1.2,1.3c0.8,1.4,1.6-0.9,2.4,0.7c0.5-3.3,3.8-0.9,6,0.8c1-1.2,1.8-3.5-0.3-3.7c0.5,1.8-0.7,1.1-1.8,0.7
			c-0.3-0.6,0.5-0.6,0.9-0.3c-0.5-1.5-3.6-0.5-5.1-1.1c4.8-2.3,12.2-0.4,18-1.8c0.3,0.5-0.3,0.9-0.6,1.3c0.8,0.5,1.6,0.8,2.4-0.6
			c0.5,2.2,1.2,0.3,2.4,1.4c0.9,0.8-2,1.6-0.3,2.4c1.1-2.2,1.7-0.9,3.9-0.3c0.9-1.7,2-2.8,3.6-0.6c1-1.5,2-0.4,3-2
			c3.2,4.7,8.9,1.2,14.4,3.6c-0.1-1.5,1.2-2.7,1.8-0.7c1.2-0.8,0.9-1.6,0.9-2.4c0.4-0.1,0.8-0.3,1.2,0c-0.1,1,0.2,2-0.9,3
			c1.7,1.3,0.4-2.8,2.4-0.6c0.5-2.4,1-1.5,2.7-1.7c0.6,0.8-0.1,1.6-0.9,2.4c2.9-1.8,7.2-0.2,9.3-4.3c1.4-0.7,1.4,0.4,2.4,0.7
			c0.8,1-0.8,2,0.3,3.1c1.1-0.9,0.9-1.8,0.6-2.7c1.5,0.4,1.1-0.7,2.4-1.3c0.9,1.8-1,4.1-2.4,4c0.6,0.5,0.3,1,0,0.7
			c2.1,2,4.9,4.1,8.1,0.5c1.1,0.9-1.4,1.8,0,2.7c1-1.9,4,0.3,6,0.1c0.6-0.6,0.3-1.1,0.9-1.7c0.1,0.6-0.4,1.1,0.3,1.7
			c1.1-0.1,0.4-0.5,1.2-1.3c0.3,0.5-0.4,0.9,0,1.4c1.3,1.4,2.6,0.2,2.4-1.3c0.3,0.5,0.6,0.5,0.9,0.4c0.3,0.5-0.3,0.9-0.6,1.3
			c2.8,0.1,7.2,2.7,9,0.1c2.7,1.9,2-0.6,3.6,0.7c1.5-2.7,2.5-2.2,4.5-3.7c-0.7-0.9-1.4-0.5-2.1-1c0.9-1.2,1.8,0.6,2.7-0.3
			c0.3,0.5-0.3,0.9-0.6,1.3c1.9,0.2,3.8,1.6,5.7,1.8c0.3,0.5-0.3,0.9-0.6,1.4c0.9,0.2,1.8,0.7,2.7-0.3c0.9-3.7,6.9,1.5,9.9-0.9
			c-3.5-0.6-7-0.9-10.5-1.9c1.2-0.9,2.4-0.1,3.6,0.1c0.5-1.6-1.6-0.4-2.1-1.1c0.6-0.7,1.2-1.3,1.8-2c0.6,0.6,0.3,1.1,0.9,1.7
			c2.5-0.8,2.4-4,5.4-2.6c0.3,1.2-2,1.4-2.7,2.3c0.1,0.8,0.8,1.6,0.3,2.4c0.6-0.5,2.1-4.6,4.5-3c0.5,0.7,0.2,1.4-0.6,2
			c1.2,1.2,2.3-2.9,4.2-2c1.2,0.9-0.8,1.8,0.6,2.7c0.3-0.2,0.2-0.4,0-0.7c-0.1-0.9,1.6-0.1,1.2-2c0.5,0.3,2.5,0.8,2.1-1
			c0.7,0.3,1.4-0.5,2.1,0.4c0.1,1.2-2,2.5-1.5,3.7c0.7-0.4,1.8-0.9,2.7-1.7c0.8,0.7,0.1,1.4,1.2,2.1c1.8-0.4,3.6,0.1,5.4,0.1
			c0.6,0.8-1.1,0.4-1.5,1.7c2.3,1.1,2.8-3.6,5.1-0.9c0.6-0.3,1.2-2.1,1.8-1.3c0.7-0.9-0.9-0.1-1.2-1.4c0.3-0.3,0.6-0.7,0.9-1
			c1.8,1.3,3.6,0,5.4,1.4c0.1,1.7-2.4,1.9-3.3,0.3c-0.8,0.8-1.6,1.4-2.4,1.3c1-0.1,3.3,2.4,4.8,0.1c1.2,1-0.3,2,0.9,3.1
			c1.1-2.4,4.7-2.2,7.5-2.2c0.7,1.2-0.9,0.4-1.2,1.3c1.3,0,0.7,1.1,1.8,2.1c1.6-1,3.2,0,4.8-1.3c2.2,2.1,2.2-0.4,5.4-2.6
			c-1.3,0.2-2.6,1-3.9,0.3c-0.6,0.4-0.3,0.9,0,1.4c-0.8,0.5-1.6,0.5-2.4,0c-0.7-0.6,0.9-0.9,1.2-0.7c-0.4-1.1-3.4-4.2-4.8-2.1
			c-1-2-4.3-1.9-6.3-1.1c-0.7-1-0.4-1.8-1.5-0.4c-3.1-2.3-6.2-2.8-9.3-1.9c-0.1-2.3-3.3-0.6-2.4-2.8c-0.5,0.7-1.5,0.6-2.7,1
			c0.5,0.7,1,0.3,1.5,1c-0.6,0.3-1.2,0.3-1.8,0.6c-0.2-0.6-0.2-1.1,0.3-1.7c-0.8-1.1-1.6-0.3-2.4-1.4c-0.6,0.4-0.2,0.9-0.6,1.3
			c-0.7-1-1.4-1.8-2.1-0.4c-0.5-0.5-1-1.5-1.5-1c-0.8-0.7,1.5-1.3,0-2c-1.2,2.6-6.3,1.4-7.5-0.5c-1.1-0.8-0.4,1-1.2,1.3
			c-0.3,0.2-0.6,0-0.9,0.3c-1.1-0.8-0.4-1.6-1.5-2.4c-1.9,2.1-5.8,0.2-8.7-0.5c-0.7,1.3-1.4,0.9-2.1,1.7c1.5,1.5,1.2-1.2,2.7-0.3
			c-0.7,1.1-0.5,0.8,0.3,2.4c-1.9,2.2-3.6,1-4.2-0.7c0.8-1.2,1.6,1.6,2.4,0c-1.3-0.1-2-2-0.9-3.1c-1.9,0-3.8-1-5.7-1.1
			c0.5-1.9,0.3-1.1-1.2-2.1c1-0.4,2,0.1,3,1.4c0.5-0.7-0.8-1.4,0-2c-1.1,0.5-2.2-0.6-3.3-0.4c-0.7,0.9,0.4,1.8,1.2,2.7
			c-1.7,0.5-3.4-0.6-5.1,0.9c-0.2,0.9,0.4,1.8,0,2.7c-1.8,0.5,0-1.8-1.5-2.4c-0.3-0.7,0.5-0.3,0.9-1c-1.8-2.4-5.7-0.9-7.8-3.5
			c-2.4,2.1-4.8,0.6-7.2,0.6c-0.8-1.8,1.6-1.5,1.8-3.4c-1.8-1.4-2.2,2.2-2.7-1.1c-0.5,1.1-0.5,2.3,0,3.4c-2.1,0.8-4.2,0.4-6.3-0.4
			c-0.6,2.6-2.7,1.6-4.2,1.3c-0.3-0.5,0.3-0.9,0.6-1.4c0.5-0.4,1,0.6,1.5,1c0.4-0.3,0.5-0.7,0.3-1c0.2-0.2,0.4-0.4,0.6-0.7
			c-1.1-0.9-2.2,1.1-3.3-1.1c0.7-0.9,1.4,0,2.1-0.3c0.4-1.8-1.8-0.9-2.4-1.4c1.9-2.8-2.3-0.5-3.9-1.8c0.1,1.1-0.2,3-1.5,3
			c0.8-1.7-0.8-1.7-0.9-3.7c-0.3,0.4-0.6,0.5-0.9,0.3c0.6,1.9-1.5,1.6-1.8,3.4c-0.8-0.3-3.4-2.3-5.1-0.4c-1.1-0.9-0.1-1.8,0-2.7
			c-1.7-0.9-3.3-1-4.2-2.1c-0.4,0.4-0.8,0.9-1.2,1.3l1.2,1.4c1.1-1.9,2.2,0.3,3.3,0.4c-1.4,1.4-2.8-0.7-4.2,0.6
			c0-4.1-3.3-1.8-5.7-3.8c0.9,0.5,1.8-0.5,2.7,0.4c0.1-1.7-2.4-1.1-3.3-1.1c-0.3,0.9-0.2,1.8-0.6,2.7c-1.6,0.5-0.8-1.8-1.5-2.4
			c-0.4,0.7-0.8,0.4-1.2,0c0,2.1-1.5,2.1-3,0c0.9,2.3-0.4,0.7-1.8,2.7c-1.7-1.9,2.1-1.6,0-3.4c-0.5,2.5-1.6,1.8-2.4,3.4
			c-1.5-1.6,1.7-1.6,1.2-2.7c-1.5,0-1.8,0-2.7,1.7c-1.4-1.5,1-0.8,0.6-2c-2.6-2.4-3.4,0.4-6,1.3c-0.7-0.8-0.4-1.6-1.5-2.4
			c-1.3,1.6-2.6,0-3.9,1c-0.4-0.9,0.2-1.8,0-2.7c0.4-0.6,0.8-0.3,1.2-0.7c1,0.7,0,1.4,0,2c1.8-0.3,2.4-1.5,4.5-1
			c-1.3-0.6-2.6-1.8-3.9-1.1c-1-1,1.6-0.1,0.6-1.4c1.4,0.7,2.8,0.4,4.2,0.7c0.3-0.5-0.4-0.9,0-1.4c1.1-0.7,0.4,1.3,1.5,1.7
			c0.5-0.6,1-0.6,1.5-0.3c0.1-4.2,2.9,1,4.5-1.6c1.1,0.9-0.2,2.1,1.2,2c0.9-1.3-0.3-2.7,0.6-4.1c-0.8-1-1.6,0.2-2.4-0.7
			c-0.3,0.4,0.3,0.9,0.6,1.4c-1,1.2-2,0.2-3,0c-0.2-1.2,0.9-0.6,1.2-2c1.2-0.2,2.4,0.4,3.6-0.6c1.1,0.9-0.2,2.1,1.2,2.1
			c1.9-4.9,8.5-1.3,12.3-1.5c0.2,0.9-1.2,1.8-0.6,2.7c-3.6-0.6-7.2-1.8-10.8-1.5c-0.5,1.2,1.4,1.2,1.8,0c0.9,1.2,2.1,0.9,0.9,2.4
			c1-0.3,2-0.6,3-0.6c0.3,0.9-0.8,1.8,0.6,2.7c0.9-1.9,1.2-1.3,2.7-1c1.1,0.8-0.3,1.6,0.9,2.4c2.1,0.6,4.8-0.7,6-2
			c0,0.6,0.6,1.1,0.3,1.7c-0.8,0.9-0.1-1.7-1.2,0c1.8,1.3,3.6,0.2,5.4,1.4c0.7-0.8,1.4-1.6,2.1-2.3c0.6,0.9,0.6,1.8,1.8,2.7
			c1.2-2.3-0.8-2.2-1.2-3.4c1.1-1.2,2.2,2.4,3.3,0.4c1.4,1.4-1.2,2.7,0.6,4.1c0.3-0.3-0.1-0.7-0.3-1c2.3-1.2,4.6,0,6.9,0.4
			c1.2-1.4-0.7-3-1.8-2.7c1.1-0.6,2.2-3.8,3.3-2.3c0.5,1.3-1.2,0.4-0.9,1.7c0.6,1.5,1.2-0.8,1.8,0.7c0.7-1.3-0.1-1.8,1.5-2.4
			c0.7,0.7,0.7,1.4,0,2c1.7,1.4,1.5-2.7,3-1.3c0.5,1-1.6,2-0.3,3c1.1-0.8,0.8-1.6,1.5-2.4c0.4-0.1,0.8-0.3,1.2,0
			c0.1,1.1-1.6,1.1-1.2,2.7c1.5-0.1,1.2,0.9,2.7,2.4c2.8,1.3,5.8-0.4,7.8-0.6c-1.7,2.4,4.8,1.5,6.9,2.5c-0.1,1.8-2.8-0.3-3.9,1.6
			c2.4,1.7,4.6-1.8,6.3,0.4c0.3-0.5-0.3-0.9-0.6-1.4c0.8-1.6,1.6-0.1,2.4-1.3c2.3,3.4,5.2,0.3,6.6,2.8c2.7-1.5,4.4,0.4,6.6-1.9
			c-1.1-0.1-0.3-0.5-1.2-1.4c3.3-2.2,4.3,1.7,4.5,4.5c0.8-1.3,0.1-2.7,0.6-4.1c1.3,0.4,2.6,0.2,3.9,1.1c0.5,0.9-1.6,0.8-2.1,1.7
			c-0.3-0.8,4.5,1.3,5.4,0.8c0.7,0.3,0.7,2.2,0,1.4c0,1.6,1.2,0,1.8,0c0.3-0.4-0.3-0.9-0.6-1.4c2.4-0.1,6.2,4,9.6,2.2
			c0.5,0.6,1,1.1,1.5,1.7c0.6-0.7,1.2,0.5,1.8-0.7c2.6,3.6,5.2,0.1,7.8,3.5c2.7-1.7,5.4-0.4,8.1,1.8c-1.6,1.1-1.7,1.8-3,2.7
			c3-0.1,6-2.4,7.5-0.2c-0.1-2.9,2.1-4.2,1.2-7.4c1.5,0.4,3,1.3,4.5,1.8c-0.1-3-5.5-1.2-5.3-4.9c0.6-0.8,1.2,1.1,1.8,1.4
			c0.2-2.1,2.4-0.1,3.6-2c-0.2,1.1-0.3,2.3,1.2,3.4c-0.1-1.6,0.8-2,2.1-3c0.9,1.3,2.6,3,2.7,1.1c1.1,0.9,0.5,2.1,1.8,2.1
			c0.6,1.3-0.1,0.9-0.9,1.7c1.3,0.3,2.6,0.7,3.9-0.3c1,1.2-1.1,2.2,0,3.4c0.5-0.5,0.9-3.2,2.1-1.7c0.2-0.8,0.9-1.6-0.3-2.4
			c1.7-0.7,1.4-0.4,2.1-2.3c0.6-1.2,1.2,1.9,1.8,0.7c1.4-1.3-0.7-1.4-1.2-2.1c0.8-0.3,1.6,0.7,2.4,0c0.6,0.9-1.3,1.8,0,2.7
			c0.4-1.5,2.1-0.6,1.5,0.4c1.8-2.6,4.9-1.3,7.5,1.2c0.1-0.8,0.8-1.6,0.9-2.4c-1.3-0.7-0.7-0.8-1.8-2.1c-0.8,0.5-0.1,1.1,0.3,1.7
			c-2.5,0.5-5-1.6-7.4-2.5c2.1-1.2,4.2,1.6,6.3,0.5c-1.1-0.4-2.2-0.9-3.3-1.8c1.2-0.8,2.4,1,3.6-1.3c0.6,0.9-0.5,1.8,0.6,2.7
			c0.5-0.6,1-0.3,1.5-1c0.8,0.6,0.1,1.1-0.3,1.7c0.6,0.7,1.2-0.5,1.8,0.7c0.3-1.9,2.2-0.7,2.4-2.7c1.6,1.2,0,2.3,1.2,3.4
			c1.2-1,4,0.3,4.2,1.4c1.9-1.2,1.8,0.9,3.6,0.1c0.7,1.3-0.9,0.4-1.2,1.3c1.7,1.5,3.4,0,5.1,1.1c0.7-1,0.8-1.4,0.9-3
			c1,0.4,2.9-0.2,3-2c1.3,0.7-0.7,1.3,0.6,2c0.9,0.4,1.8-0.8,2.7,0.4c1.1-0.9,0.4-1.7,1.5-1.7c1,1.2-1.4,2.2-1.2,3.4
			c-0.7,1-1.4-2.3-2.1-0.4c0.3,1.6,2.6,1.4,3.9,0.4c1.1,0.7,0.3,1.4,1.2,2.1c1.5-1.2,4.6-2.4,5.1-0.9c0.5,0.4,0.6-0.6,0.3-1
			c1.1-0.2,2.2-0.6,3.3,1.1c0.7-1.3,1.4-0.4,2.1-1.6c-1.3,1.1-2.6-2.4-3.9-0.4c-0.9-1.7,0.4-2.4-1.7-3.4c1.7-2.3,2.2,0.2,2.7,0.4
			c1.2-1.6-1.2-1.3-1.2-2.7c-0.6,1.1-1.2,1.1-1.8-0.1c-0.8,1.3-1.5,0.4-1.5,1.7c1,0.8,1.8-0.1,1.5,1.7c-0.7,0.6-1.4-1.5-2.1-0.4
			c-0.5-1.3,0.8-1.7-0.9-2.4c0.6,2.3-1.3-0.1-2.4-0.1c-0.2-0.4,0.1-2.4,0.9-1.7c-0.8,0-2.7-2.2-4.2-1.5c-1.1-2.9-3-1.1-3.8-3.8
			c-1.5,0.6-1.3,2-3,2c-0.3-0.6,0.5-1.1,0.9-1.7c-1.3-2.2-2.6-0.9-3.9-1.8c-0.5,0.9-0.2,1.2,0.6,1.4c-0.8,1.7-2.1,0-2.1,1.7
			c-0.1-0.3-0.4-2.2-1.2-1.4c-0.6-1.3,0.1-0.9,0.9-1.7c-1.6-1.3-3.2,0.4-4.8-2.1c-0.6,3.6-2.2-1.7-3.6,1.3c0.3-2.1-1.3-0.9-1.5-2.4
			c1.1-0.2,2.2-0.6,3.3,1.1c1-2.8,3.8-0.5,5.7,1.1c0.1-1,0.2-2,1.5-3c-2.9,3.2-8.5-5-11.4,1.1c-1.9-0.4-3.8,0.1-5.7-1.1
			c-0.5,0.9-0.2,1.3,0.6,1.4c-0.6,0.7-1.2,1.3-1.8,2c-0.6,0.2-1.2-0.1-1.8-0.7c0.9-1.1,1.8,0.1,2.7-1.6c-0.9-0.9-1.8-0.8-2.7-1.8
			c-0.4,0.4-0.8,0.9-1.2,1.3c-0.5,0.1-1-0.1-1.5-0.4c-0.6-0.8,0.1-1.6,0.9-2.4c-2.2-0.6-1.2,3.3-3.6,2c-0.2,0.6-0.2,1.1,0.3,1.7
			c-0.6,0.6-1.2,0.9-1.8,0.6c1.2-3-3.4-3.8-5-5.2c1.8-0.8,6.2,1.3,6-1.2c1.8,0,3.6,1.2,5.4,0.8c0.2-1.9-2.2-0.6-3-1.4
			c1.4-0.9,1.4-0.1,2.4-2c0.7,3,1.7,0.4,2.4,3.4c1.5-1.2,0.8-2.5,0.3-3.7c1.1-0.6,1.2,1.6,1.8,2.1c0.7-0.8,1.4-0.4,2.1-1.6
			c1.1,0.7,0.3,1.4,1.2,2.1c1.3-1.6,0.8-0.1,2.1,0.4c1.4-1,2.8-0.1,4.2-1.3c1.2,0.8-0.2,1.6,0.3,2.4c-1.5,0.5-4.1-1.1-3.9,1.6
			c0.8,0.2,1.6-1,2.4-1.3c0.1,0.5,0.2,0.9,0.6,1.4c1.3-1.5,1.6-1.6,2.7-0.3c1.7-1.2-0.2-2.5,1.5-3.7c0.3-0.2,0.6,0,0.9-0.3
			c1.1,0.9,0.1,1.8,0,2.7c0.8,1.6,1.6,0.2,2.4,1.4c0.6-0.4,0.3-0.9,0-1.4c1.8-0.8,3.6,2.4,5.4-0.6c3.2,1.2,5.7-0.2,8.3,2.2
			c1-1.7,2-0.4,3-0.6c0.4-1.6-0.1-2,0.9-3c-1.4-1.5-1.4-1.1-2.4-2.8c-0.7,1.7-0.1,1.2-1.2,2.7c-1.3,0.4-2.6-0.8-3.9,0.9
			c-0.8-1.3,1.3-2.5,1.5-3.7c-0.7-0.9-3,0.2-2.7-1.8c-2-0.6-4,1.8-6-0.8c1.2-1,2.4-0.4,3.6-1.3c-0.8-0.3-1.6,0-2.4-1.4
			c-0.3,1.4-0.6,1.4-1.2,0c-2.3,2.4-4.6-1.3-6.9-0.5c-1.2-0.7,0.2-1.4,0.6-2c-0.8-1.2-1.6,0-2.4-0.7c0.5,1.2,0.5,2.5,2.1,3.8
			c0.1,0.6-0.1,1.1-0.3,1.7c-0.7,0.1-1.4-0.3-2.1-0.4c-0.3-0.7,0.7-1.3-0.6-2c-0.8,0.5-0.6,1.1-0.9,1.7c-0.4,0.3-0.8-0.5-1.2,0
			c-0.7-1.5,0.6-0.8,0.6-2c0.9-0.9,1.8,1.2,2.7-0.3c-9.3-1.7-18.5-1.8-27.8-4.3c-0.6,2.8-3.6,1.3-4.2-0.8c-0.6,1.5,0.3,2.9-0.3,4.4
			c-1.7,0.7-1.6-2.1-3.3-1.1c-0.3-0.5,0.3-0.9,0.6-1.3c-1.5-0.4-3,1.1-4.5,0.3c1.8-3.6-3.6-2.1-6-4.9c-1.2,0.7,0.1,1.4,0.6,2
			c-2.4-0.2-1.3-0.5-3.6-1.4c-0.4,0.6,0.8,1.1,0.3,1.7c-0.6,0.2-1.2-0.1-1.8-0.7c-0.1,0.7-0.4,1.4-1.2,2c-1.3,1.1-0.9-1.8-2.4,0
			c-0.5-0.7-0.2-1.4,0.6-2c-3.6-1.1-3-2.1-7.5-1.1c-0.2-0.6-0.2-1.1,0.3-1.7c-2.8,1.9-5.6,0-8.4,1.2c-0.1-0.5-0.3-0.9,0-1.4
			c-1.1-0.1-2.2,1-3.3,2.3c-1-0.7-1-1.4,0-2c-3.6,0.8-7.2-3.1-10.8,0.5c-1.1-0.8,0.3-1.6-0.9-2.4c0.6-0.7,1.2,0.5,1.8-0.6
			c-2.8,0.5-6.3,2.5-9.9,0.9c-0.5,1.5,2.4,1.1,0.6,2.7c-1.6-1.4-2.8-2.6-4.2-2.1c-0.9,2.1,1.3,0.2,2.1,1.1c-1.1,1.5-2.2,0.6-3.3,1
			c0-1.1,0.3-2.3,0.6-3.4c-3,0.5-5.2,2.9-8.7,1.6c-0.3-0.5,0.4-0.9,0-1.4c-0.5-0.7-1-0.3-1.5-1c-1.1,1.3-0.5,1.3-1.8,2
			c-0.1-0.7-0.4-1.4-1.2-2.1c-1.5,0.7-3,0.3-4.5,0.3c-0.7-0.9,0.9-1.2,1.2-0.7c-1.1-2.1-3.7,0.3-4.5,2.3c-1.6-0.9-0.2-1.8,0.6-2.7
			c-2.1,0-4.2,2.8-6.3,1.6c-0.7-0.5,0.9-2,1.2-0.7c-0.4-1.5-1.5-2-3-2.1c0.5-0.1,1.8-0.4,0.6-1.3c0.6-0.4,1.2,0.8,1.8-0.7
			c-1-1.3-2,0-3-0.7c0.4,0.9-0.4,2.6-1.5,1.7c-0.3,0.6,0.5,0.3,0.9,1c-1.2,0.6-2.4,0.8-3.6,2.7c-1.4-0.9,0.7-1.8-0.6-2.7
			c-0.9,1.1-2.4,1.1-2.4,2.7c-2.5-0.5-5.5-1.4-7.2-0.8c0,0.8,0.3,1.6-0.9,2.4c-1-2,0.7-3-1.8-3.4c0.8-1.4,1.6-0.4,2.4-0.6
			c-0.1-1.8-2.8,0.2-3.9-0.4c-0.1,0.6,0.4,1.1-0.3,1.7c-1-0.7-1.6-0.2-2.4-2.1c-1.1,0.8-0.4,1.6-1.5,2.4c-0.9,0.2-1.8-3-3.3-0.4
			c-0.8-0.7-0.1-1.4-1.2-2.1c0.7-0.9,1.4-0.5,2.1-0.3c-4.5-3.4-11.6-0.3-17.1-1.3c-0.1-0.9,0.5-1.8,1.2-2.7
			c-1.1-0.4-2.2,0.6-3.3-0.4c-0.8,0.8-0.5,1.6-0.3,2.4c-2.6,0-7.5-3.3-10.2,1.2c-0.9-1.6,1-1.2,0.9-2.4c-1.9-0.1-2.4,0-3.9-0.4
			c-0.3,0.6,0.1,1.1-0.3,1.7c-2,0.6-5.3-3.3-6.3-0.4c-0.7-0.8-0.4-1.6-1.5-2.4c-0.9,0.4-1.8,2-2.7,0.3c-1.4,3.5-5.1-0.9-7.5,1.6
			c0.2-0.7-1.1-1.4-0.6-2c-1.5,0.7-3,2-4.5-0.4c-0.6,0.9-1.2,1.2-1.8,1.3c-0.1-0.5-0.2-0.9-0.6-1.4c-0.3,1.1-1.9,1.1-1.2,0
			c-0.9,1-2.5,0.7-4.2-0.1c0.4,1.5-0.4,1.6-1.5,1.7c-0.3-0.5,0.3-0.9,0.6-1.3c-1.5-0.5-3,0.1-4.5-0.4c1.2-1.6,1.6,0.3,2.1-1.7
			c-0.9-0.3-1.8-0.9-2.7-0.4c-0.3-0.6,0.5-1.1,0.9-1.7c1.1,0,2.2,2.3,3.3,0.4c-1.3,0.4-0.8-2.3-2.1-1.7c-0.4-1.5,0.8-1.7,1.8-2
			c0.5,0.8-0.2,1.6-0.3,2.4c1.2,0.9,1.6-0.8,2.1-1.7c1,0,2-0.6,3,0.7c-2.2-0.4-1.6,2.1-3.3,1.6c-0.6,1.2,1.9,0.6,0,2
			c-1.2,1.1,0.2-2.1-0.9-1c-1.6,1.4-0.2,0.8,0.6,2c-0.4,0.1-0.8,0.3-1.2,0c1.3,1.3,5.2-0.7,7.5,0.4c-0.6-2,1.1-0.4,1.2-2
			c-1.4,0.1-2.8,0.3-4.2,1.3c-0.7-4.5,4.2-3.1,5.7-4.3c2.2,1.7,0.1,3.4,1.5,5.1c0.1-2.2,2,0.6,3-1.3c-0.9,0.3-3.6-0.5-2.7-2.4
			c1.7,2.3,1.6-1.2,3.9,0.4c1.2,1-0.3,2,0.9,3.1l1.5-1.7c-0.5-0.5-0.9-0.9-0.6-1.4c2.8-1.6,5.6-1,8.4-1.9c-0.9-1.6-1.8-0.4-2.7-1.1
			c1.7-1.1,4.7-2,5.4,0.8c-0.8-0.3-1.6,0-2.4,1.3c-0.3,1.3,1.4,0.4,0.9,1.7c1.9-0.3,3.5-3,4.8,0.1c0.7-1.4,1.4-0.5,2.1-0.3
			c0-0.6,0.6-1.1,0.3-1.7c2.2,1.2,6-1.2,7.2,1.5c1.3-0.1,2.6-0.7,3.9-1c0.1,0.6-0.1,1.1-0.3,1.7c1.1,0.7,0.8-1.3,1.5-1.7
			c1.2,1.2,0.5,2.3,0,3.4c1.4,0.6,3.1-0.1,3.6,2.1c0.4-1.4-0.8-2.7,0.6-4.1c-1.9-1-0.7,3-3,1.3c-0.4-1.3,0.1-2.2,1.2-2.7
			c2.3-0.6,4.6,2.7,6.9,1.8c0.9,1.9-1,1.1-1.8,2c1,1,2-0.1,3-0.6c-0.1-0.5-0.2-0.9-0.6-1.4c0.8-0.4,1.1,0.8,1.2-0.7
			c1.7,1.4,3.4-2.1,5.1,1.1c0.2-1.5,2.7-1.7,3,0c1-2.9,3.8-2.7,5.7-1.6c0.6-0.4,0.2-0.9,0.6-1.3c1.6,1.2,3.3,0.2,3.3,2.4
			c0.7-0.8,1.4-1.6,2.1-2.3c2,1.2-0.6,2.3,0.6,3.4c1.3-1.4,2.6-1.1,3.9-0.3c0.2-1.1,1.4-2.2,1.8-3.4c0.8,1.4-1.4,2.7,0,4.1
			c0-3.3,3.9-3.1,5.7-1.6c1.5-0.6,1.3-2.7,3-2c-0.1,1.2-1.2,2.6,0.6,2c0.3,1-0.5,2-1.5,3c0.2,0.4,0.4,0.2,0.6,0
			c0.2,0.2,0.4,0.5,0.6,0.7c1-0.9,0.2-1.8,1.2-2.7c1.5-1,1.3,1.7,3,2.8c1.1-1.3,2.2,0.6,3.3-0.3c-1.2-1.9-2.4-1.5-3.6-0.7
			c0-0.8-0.7-1.6-1.5-2.4c1.3,0.4,1.1-1.2,2.7,0.4c1.3-0.7-0.7-1.4,0.6-2c1.3,1.7,4.1,1.3,6.3,1.8c0.4-0.9-1.8-1.1-2.4-0.7
			c-0.4-2.7,2.5-2.3,3.9-1.6c0.9,1.6-2.1,0.1-1.2,1.3c1.5,1.8,1.2-1.2,2.7-0.3c-1.8,3.2,4.6-0.4,6.6,2.8c0.7-1.4,2.9-2.1,4.5-3.7
			c-0.2,3,4.7,0.4,5.4-0.6c0.5,0.5,0.9,0.9,0.6,1.4c0.5-1,1.7,0.2,3-1.3c1,2.5,2.1,0.1,4.2-0.6c0.4,0.8-0.3,1.6,0.9,2.4
			c3.7-1.7,5.7-0.1,9.6-1.2c0.4,0.9-0.3,1.7,0.9,1.7c0.1-2.7,2.1-1.1,3,0.7c-0.6-2.1,1.3-3.5,3-2.7c0.5,1.7-1.9,0-1.5,1.7
			c0.5,0.7,1,0.3,1.5,1c0.4-0.9-0.3-1.7,0.9-1.7c0.4,0.6-0.8,1.1-0.3,1.7c1.9,0.9,2.5-0.1,2.4-1.3c1.5-0.6,0,2.1,1.5,1.7
			c-0.2-1.7,1.1-2.2,2.4-2.7c0.5,2,0.9,0.1,2.1,1.7c0-1.5,1.5-1.3,2.4-0.6c0.1,0.8-0.6,0.4-0.3,1.7c0.5-2.1,5.2,0.3,4.5-3
			c1.1,1,2.2-2,3.3-1c0.9,1.5-1,1-1.8,2.7c1.1,0.6,2.2-0.2,3.3,0.4c0.5-4.3,4.6-2.2,5.7-2.9c-0.1,1.3-1.6,1.8-2.1,2.3
			c-0.6-0.5-0.3-0.9,0-1.4c-1.3-0.8-0.9,1-2.4,1.3c2,0.5,2.5,0,4.2,2.8c1.2-0.8-0.1-1.6,0.3-2.4c1.8,2.5,8.8,0,11.4,0.9
			c0.4-0.2,2.5-1.3,1.5-2.3c1.6-1.5,3,1.5,3-1.3c0.9,0.9-0.1,1.8,0,2.7c-0.5,0.3-1-0.6-1.5-1.1c-0.9,1.3,0.7,2.2-1.2,2.7
			c1.5,0.1,1.7-0.9,3.6-2c0.1,0.4,0.2,0.9,0.6,1.4c1-1.1-0.6-0.8-0.3-2.4c0.9-0.6,1.8,0.6,2.7-1c-4.6-1.7-9.2-2-13.8-2.3
			c-1.3-0.7,0.8-1.3-0.6-2c-1.1,0-0.8,0.8-1.5,1.7c-1.2-1.4,0.7-2.7,1.8-4c2.6,0.1,5.4,3.3,8.7,1.2c0.9-0.1,1.8,1.3,2.7,1.1
			c-0.8-1.5-0.6-1.3,1.2-0.7c1-0.7,0-1.4,0.6-2c2.2,2.6,2.8,0.7,4.8,0.8c0.8,0.7,0.1,1.4,1.2,2.1c-0.1-1.5,0.8-2.5,2.1-1.7
			c0.8,0.7-1.5,1.3,0,2c0.4-0.7,0.8-0.4,1.2,0c0-0.6,0.4-1.1,0.9-1.7c2.6,0.8,3.9,1.1,6,2.8c0.5-2.9,2,0.7,3.3-0.9
			c0.6,1.3-1.1,0.4-1.5,1.7c1.1-0.1,2.2-0.4,3.3,0.4c0.6-0.3,1.2-2.1,1.8-1.3c-0.4-1.8,0-1.6,1.5-3c-2.3,0.3-3.2-1.8-5.1-0.4
			c-1.1-1.6,0.7-1.2-0.3-2.4c-1.2,1-1.3,2-0.9,3c-0.7,0.5-1.4,0.1-2.1,1c-0.1-2.2-2-1.2-3-0.7c-0.8-1.5,1.3-1.3,1.5-3
			c-1.1-0.3-1.2,0.3-1.8,1.3c-0.4-0.6-1.3-1.9-3-2.1c0,0.9-1,1.8-1.8,2.7c-0.4-1.1,0.1-2.3-1.2-3.4c-0.8,1-1.6-0.1-2.4,0
			c0.3-0.8-0.4-1.6-0.3-2.4c-3.2,0.6-6.4-0.1-9.6-0.9c-1.8,2.1-3.6-0.9-5.4,0.6c-3.2-3.6-7.7,2-9.9-2.6c-0.6,1.2-1.2,0.4-1.8,1.3
			c-0.8-1.3-1.6-1.4-2.4-2.1c1.2-0.8,2.2,0.6,2.7-1.6c-0.5,1.8,0.7,0.9,1.8,1.4c0.7-1.4-0.4-1.1-1.2-1.4c1.4-1.6,2.8-0.6,4.2-0.6
			c0.5,0.7-1.4,1.1-1.8,0.6c0.5,1.8,3.6,0,5.1,0.4c-0.7-1.3-1.4,0.3-2.1-1.1c2.8,0.5,3.8-1.2,6.3-1.6c0.9,0.8-2,1.5-0.3,2.4
			c0.4-0.4,0.8-0.9,1.2-1.3c2.6,1.4,5.7,0.3,7.5-0.9c-1.7,1.9,1.1,1.4,2.7,1.7c0.2-0.9,0.9-1.7-0.3-1.7c2.1-2.5,2.4,1.4,4.2-0.6
			c0.9,1,0.4,2,0.3,3.1c0.8,0.5,2.1-1.7,2.1-2.3c1.2-0.8,3.6,2.3,3.9-0.3c0.5,0,2.6,1,2.1,1.7c1.2-1.6,4.5-1.9,7.2-0.5
			c-1.6,0.7-1.4,0.4-2.7,2.3c1,0.8,2,1.3,3,2.1c0.9-0.4-0.9-2.4,0.3-1.7c0.6-1.8-1.4,0-1.8,0c-0.2-2.2,3.3-3.7,4.8-1.3
			c2,0.2,4-4.2,6-1.9c0.4-0.4,0.8-0.9,1.2-1.3c1,0.7-0.1,1.4,0,2c1.2,0.6,2.4-2.1,3.6-0.6c0.6,1.3-1.2,0.9-1.5,1.7
			c3.4-0.8,6.5-2.2,8.7,0.5c1-0.1,2,0.2,3-1.3c-0.7-0.6-0.9-1.1-0.3-1.7c1.2,1.7,4.5-0.5,6.6,1.5c-0.7,0.9-1.4,1.7-2.1,1
			c0.6,1.2,3.8,1.3,5.4,1.5c1.4-1.7-1,0-1.5-1.7c1-1.1,2,0,3-1.3c-0.2-0.6-0.2-1.1,0.3-1.7c-0.8-1-1.1-0.1-1.2-1.4
			c0.4-0.1,0.8-0.2,1.2-0.6c1.5,2.6,1.9,1.9,3.9,3.1c-1,1.6-2-1-3,0.6c0.7,1.3,1.4,0.4,2.1,1.7c-0.6-1.4,2.2-2.4,3.3-2.3
			c0.3,0.5-0.3,0.9-0.6,1.3c0.8,1.7,1.6,0.2,2.4,1.4c0.5-0.7-0.8-1.4-0.6-2.1c2.1-1.2,4.2,0.6,6.3-0.2c0-1.8-1.5,0.2-2.4-0.7
			c-0.2-0.3,0-0.7-0.3-1c1.5,0.7,1.9-0.6,3.6-1.3c-0.1-1.9-1.5-1.3-2.1,0.3c-1.4-0.9,1.4-2-0.6-2.1C973.6-68,975.7-68.3,974.2-70z
			 M859.8-89c-1.1,1.4-2.2-0.1-3.3-0.4C857.6-90.4,858.7-89.8,859.8-89z M767.9-102.6c0.9-1.5,3-0.2,1.5-2.4
			c1.7-0.9,3.4-0.4,5.1,0.4c-0.8,1.4-1,0.5-1.8,2.7c-0.5-0.5-1-1.4-1.5-1c-0.4,0.5,0.2,0.9,0,1.4C770.1-102.1,769-100.3,767.9-102.6
			z M85.8-20.9c-1.2,0.8-1.2,2.2-2.3,0.6C83.7-21.3,85.2-22.1,85.8-20.9z M81.5,15.6c-2.1,0.5-2.4,0.8-4.4,2.6
			c-0.5-1.6-1.3-0.9-2.3-0.1c-0.8-1.6-1-1.7-1.2-3.7c-1.9,1-1,2.6-0.8,4c-2.5-1.2-1.6-4.4,0.2-5.8c1.7,2.8,4.8-1.3,6.8,0.3
			c0.9,1.6-1.4,0.6-1,1.9C79.9,14.1,81.7,14.3,81.5,15.6z M274.4,18.7c1.2-1.1,2.2,0.5,3.4-0.1C276.6,19.8,275.5,19.6,274.4,18.7z
			 M370.2,16.6c0.5,1.2,2.5,1,2,2.5C371.4,17.5,369.2,18.7,370.2,16.6z M442.2,19.1c-0.8-0.3-1.6,0.9-2.4-0.8
			C440.4,17.3,442.6,17.7,442.2,19.1z M862,26.1c1.3,0,2.6-0.1,3.9,1.1C864.7,27.1,862.1,27.8,862,26.1z M836.6,3.7
			c0.1-1.5,5.4-1.1,4.5,1.1C839.6,3,838.1,5.5,836.6,3.7z M941.8,10.4c-0.3,0.6-0.2,1.1-0.9,1.7c-0.5-0.7-1-0.4-1.5-1.1
			C940.2,10,941,9.1,941.8,10.4z M802.3-44c2.7-0.1,4,0,6.3,0.4C806.5-42.5,804.4-42.8,802.3-44z M860.2-43.5
			c0.9,0.2,3.4-0.2,3.3,1.1C862.6-42.4,860.1-41.8,860.2-43.5z M889.9-40.6c0-0.5,1-2.9,1.8-1.3C892.2-41,890.3-39.7,889.9-40.6z
			 M963.9-64.8c0.6,0.5,0.3-0.5,0.9-1c0.9,2.2,1.8-1.1,2.7,1.1C966.4-62.9,963.9-63.6,963.9-64.8z M921.6-74.2
			c0.8-0.1,1.6-1.2,2.4,0.1C922.7-72.4,921.8-74.1,921.6-74.2z M880.2-85.9c0.1-1.3,2-1.3,3,0.1C882.2-84.5,881.2-85.3,880.2-85.9z
			 M871.5-86.4c1-0.8,3.6-0.2,3.6,1.4C873.9-85.9,872.7-84.5,871.5-86.4z M933.1-14.9c-2-0.3-4,0.8-6-0.1
			C929-16.8,932.2-16.2,933.1-14.9z M845.2-109.9c0.2-1.5,2.2-1.5,3.3-0.3C847.4-108.4,846.3-108.9,845.2-109.9z M885.5-63.4
			c1,0.1,2-1,3,0.1C887.7-62.4,885.3-61.7,885.5-63.4z M933-8.8c0.4,1,2.3-0.4,1.8,1.4C934-7.8,932.1-6.8,933-8.8z M930.9-7.8
			c-0.5-2-0.9-0.4-2.1-1.1c0.5-0.6-0.7-1.1-0.3-1.7c1.5,0.2,1.1,1.5,2.4,0.1l0.9,1C931.5-9,931.7-8.4,930.9-7.8z M925.3-12.4
			c1-0.2,2-1.4,3,0.1C927.2-10.7,926.3-11.1,925.3-12.4z M887.2-47.1c-0.6,0.6-1.2,0.9-1.8,0.6c1.3-1.1,0.5-4.3,2.4-3.3
			C888.3-48.2,886.1-48.2,887.2-47.1z M916-11.6c0.4-0.4,0.8-0.9,1.2-1.3c0.3,0.3,0.6,0.7,0.9,1C917.4-10.5,916.7-11.3,916-11.6z
			 M934,9.5c0.5,2.4,1.2-0.2,2.4,0.7C936.6,12.5,932.1,11.4,934,9.5z M880.6-46.5c-1.9-1.5-4.3,1.7-5.4-1.5c-0.2,2-2.2,2-3.3,1
			c2.9-0.4,2.4-2.8,5.1-4.3c1.2,2.8,1.1-0.3,1.8,2.1c1.5-0.5,4.6-1.9,5.1-0.2c-0.3-0.2-1.9,0.1-1.2,0.7c1-0.4,2-0.2,3,0.7
			c-0.8,1.2-1.6,0.3-2.4-0.7C882.4-47.8,880.6-48.4,880.6-46.5z M847.8-87.8c0-1.7,1.8-1.2,2.7-1C850.4-87.4,848.7-87,847.8-87.8z
			 M887.2-41.6c-0.4-0.5-0.8-0.9-1.2-1.4c0.6-0.9,1.2-1.2,1.8-0.6C886.4-43,888.5-42.3,887.2-41.6z M923.6,6.2
			c0.9-1.5,1.8,1.6,2.7-0.3c0.9,1-0.1,2.4,1.5,2.4C925.7,10.8,925.4,6.6,923.6,6.2z M906.1-13.5c0.9-1,1.8-2.4,2.7-1
			C907.9-14.3,907-12.2,906.1-13.5z M918-0.3c1.1,1.9-1.9,4.3-3.3,3c0-1.3,0.8-2.2,1.5-2.3C916.2,2.1,917.4,1,918-0.3z M862-52.3
			c0,1.8,1.2,0.7,1.8-0.6c0.8,0.1,1.1,0.5,1.2,1.4c2.1-1.6,4.2,0.8,6.3-0.9c1,0.8-0.1,3,1.5,1c1,1,1.1,3.7-0.6,2.7
			c0.3-0.4,0.6-0.9,0-1.4c-0.2,3.8-3.7,2.6-5.7,3.6c-0.5-0.6-1-1.1-1.5-1.7c-1.2,0.1-2.4,2.1-3.6,0.6c0.6-2.1,3.3-2.5,4.8-2
			c-0.3-0.5,0.1-0.6,0.6-0.7c-1-0.1-2-1.6-3-1.4c-1.5,1.9-3,3.4-4.5,1.6C861.7-49.9,861.1-51.4,862-52.3z M904-12.5
			c-0.5,0.7,0.8,1.4,0,2c-0.6-1.5-1.2,0.8-1.8-0.7c0.9-1.1,0.7-2.2,1.8-3.4c0.3,0.3,0.6,0.7,0.9,1C904.6-13.1,904.3-12.8,904-12.5z
			 M814.8-112.7c-0.5-1,1.6-2.4,2.1-1C816.2-113.2,815.5-111.2,814.8-112.7z M829.2-90.1c0.7-2.3,3.9,0.8,2.7,0.4
			C831-90.1,830.1-88.8,829.2-90.1z M907.2,0.1c0.4-0.4,0.8-0.9,1.2-1.3c0.3,0.5,0.9,0.9,0.6,1.4C908.4-0.3,908.4,1.8,907.2,0.1z
			 M895.9-7.5c0.6-0.6,0.4-1.1-0.3-1.7c0.5-0.6,1-1.1,1.5-1.7c0.9,0.3,1.8,1.2,2.7,1.7C898.5-9,897.2-8,895.9-7.5z M906.6,0.8
			c-0.6,1-0.3,2-0.3,3c-0.6-0.7-1.2,0.5-1.8-0.7c2.4-2.4-2.2-1.2-1.5-3.1c1.2,1,4-1.2,4.2,1.4C907,1.3,906.8,1,906.6,0.8z
			 M890.6-12.4c0.5,2.5,2,0.1,3.3,1.1C893.1-8.3,889.7-9.8,890.6-12.4z M888.2-13.1c-1.1-0.3-0.3-2.2-1.2-1.4
			c-0.5,0.8,0.2,1.6-0.3,2.4c-0.4-0.5-0.8-0.9-1.2-1.4c0.4-0.6,1.1-1.1,0.3-1.7c0.7-0.9,1.4-1.7,2.1-1c-0.3,0.4-0.6,0.9,0,1.4
			c1.1-0.7,0.4-1.3,1.2-2C890.5-15.6,888.5-14.4,888.2-13.1z M879.9-22.1c1.3-1.4,2.6-1.3,3.9,0.4C882.4-20.7,881.1-21.1,879.9-22.1
			z M902.1,1.1c-1.5,0.8-3-1.4-4.5-0.4c1.3-1.4,2.1-1.1,3.9-0.9C901.3,0.1,901.7,0.6,902.1,1.1z M854.5-48.7l1.2-1.3
			c0.8,1.4,1.6,1.5,2.4,0c0.3,0.3,0.6,0.7,0.9,1C857.5-47.7,856-48.5,854.5-48.7z M895.6-1.8c0.9,0.8,1.8,0,2.7,1.1
			C897.5,0.5,895.3-0.3,895.6-1.8z M814.2-92.4c1.6-0.9,3.2,0.6,4.8,0.1C818.4-90.1,815.7-91.6,814.2-92.4z M902.1,7.8
			c0.2,0.8-0.5,1.6-0.9,2.4c-0.8,0.3-1.6,0.3-2.4,0c-0.3-1,0.2-2,0.3-3.1c-1.4,2.4-2.8,1.6-4.2,2c-1.3-2.4-2.4-2-4.5-3.1
			c0.9-1.8,4.1-0.3,6,0.1c-0.5-0.6-0.5-1.1-0.3-1.7c1.8,0,2.3,0.6,1.5,1.7c1.4-0.4,5.7-1.5,6.9,1.8C903,6.9,903.4,8.2,902.1,7.8z
			 M886.4-8.4c0.5-1.7,1-2.6,2.7-1.6C887.1-10.1,888.4-8.1,886.4-8.4z M897.9,3.7c-0.7-0.5-1.4-0.1-2.1-1.1
			C896.7,1.4,898.8,2.2,897.9,3.7z M850.3-48.7c-0.5-0.3-1-0.3-1.5,0.3c-0.5-0.6-1-1.1-1.5-1.7c-2,1.6-2.5,0.1-4.8,1.3
			c0.6-0.7-0.4-1.4,0.6-2c1.2,1.3,2.4,0.6,3.6,0.1c-0.5-1.1-0.6-2.3,0.6-3.4c0.9,0.5,1.8,0.6,2.7,1.7c-0.9,1.1-1.8,0.2-2.7,1.7
			C847.8-49.4,850.1-50.1,850.3-48.7z M849.4-50.4c1-1,2-0.7,3,0.7C851.4-48.9,850.4-50.1,849.4-50.4z M890.2,0.8
			c-1.3-0.7,0.7-1.3-0.6-2c0.8-0.8,1.6-0.8,2.4,0C892-0.3,891,0.9,890.2,0.8z M801.3-101.7c0.8-0.8,1.6-1.7,2.4-0.6
			C802.9-101.2,802.1-101.4,801.3-101.7z M892,3.6c-0.6-0.6-0.3-1.1-0.9-1.7c0.7-1,1.4-0.6,2.1,0.4C892.8,2.7,892.4,3.1,892,3.6z
			 M865.5-22.3c-0.5-0.6-0.9-1.1-0.9-1.7c1.3-0.3,2.6-1.2,3.9,0.4C867.5-22.1,866.5-24,865.5-22.3z M886.9,0.4
			c-1.6-1.3-3.2,0.5-4.8-0.8c1.6,0.3,3.2-2.1,4.8-0.6C886.5-0.5,887.2,0,886.9,0.4z M879.8-7.2c-0.4,0.4-0.8,0.9-1.2,1.3
			c-0.4-0.8-1.1-1.6-0.9-2.4C878.4-6.9,879.1-8.5,879.8-7.2z M888.4,4.2c-0.4,0.9,2,1.9,0.6,2.7c-1.5,0,0-1.4-1.5-2.4
			c0.5-0.6,1-1.1,1.5-1.7c0.3,0.8,2.1,0.5,1.5,1.7C889.8,4.9,889.1,4.1,888.4,4.2z M839.2-50.6c1.3,0.8,1.1-1.4,2.7-0.3
			C841.2-49.5,838.9-48.7,839.2-50.6z M871.7-8.3c1.1-0.2,2.2-0.8,3.3-0.3C873.9-7,872.8-8,871.7-8.3z M788.4-103.6
			c0.7-0.5,1.4-1.3,2.1-0.3C790.5-102.6,789.2-102.1,788.4-103.6z M862.7-15.3c1.1,0.5,2.2-0.2,3.3,1.1
			C865.1-12.9,862.7-14.1,862.7-15.3z M832.6-50.7c-1.4,0.2-2.8-0.4-4.2-0.7C829.7-52.9,833.3-53.3,832.6-50.7z M876.7,12.5
			c1.2-1.2-0.1-0.4-0.6-1.4c0.7-1.4,1.4,0.7,2.1-0.3c-1-1.9-2-1.2-3-2.1c-0.3-0.6-1.4-2.9,0.3-2.4c-0.6,1.3,1.1,0.4,1.5,1.7
			c1.2-2,2.4,0.4,3.6-0.6c0.9,1.7,1.5,2.1,3,2.1c0.5-0.6-0.7-1.1-0.3-1.7c2.6,1.9,1.1,3.3,0,6.1c-0.7-0.6-0.2-1.1-0.3-1.7
			c-0.5,0.5-1-0.8-1.5-0.4c0.5,0.6,0.9,1.1,0.9,1.7c-1.1,1.1-1.9-0.1-1.5,1.7c-0.7,0-1.4,0.3-2.1-1c0.4-0.7,1.2-0.3,0.9-1
			C878.7,13.2,877.7,12.9,876.7,12.5z M867.8,0.8c0,1.2-1,0.8-1.8,1.3c-0.5-2-2.2-0.6-3.6-1.4c1.4-2-1.3,0-1.8-2.1
			c1.3-0.7,2.6,0.8,3.9,0.4c2.3-1.9,1.7-5.9,4.2-4.7C867-4.5,864.9-0.4,867.8,0.8z M778.1-101.7c-0.3-0.8,1.5-1.6,0.3-2.4
			c-1.6,1-0.8,2-1.5,3c-0.5-0.7-1-0.4-1.5-1c0.9-2.6,2.1-3.1,3-5.4c2.2,2.6,2.6,2.4,4.8,3.5C782-102.8,780.3-101.4,778.1-101.7z
			 M825.4-50.8c0.5-1.4,1.5-1.7,2.7-1C827.2-51.1,826.3-51.1,825.4-50.8z M883.5,16.3c0.5-0.7-0.8-1.4,0-2
			C885,13.9,884.9,16.9,883.5,16.3z M862.1-3.7c0.8-0.9,1.6-1.8,2.4-2.7c0.4,0.4,0.8,0,1.2,0.7C866-4.2,863.5-2.8,862.1-3.7z
			 M823-51.5c-0.8-0.8-1.5-0.4-0.9-1.7c0.6,0.7,1.2-0.5,1.8,0.7C823.6-52.2,823.3-51.9,823-51.5z M843.6-23.7
			c-1.6-1.6,1.2-2.6,2.1-1.7C845-24.1,844.3-25,843.6-23.7z M874.3,9.7c-0.6,0-1.8-1.5-0.9-2.4C874.2,8.1,874.9,8.9,874.3,9.7z
			 M821.2-49.5c0.2-0.2,0.3-0.4,0-0.7c-0.5,0.6-1,0.6-1.5,0.3c1-1.1,2-1.4,3-0.6C822.2-50.1,821.7-49.2,821.2-49.5z M822.1-43.1
			c1,1.2,2-1.2,3,0.1C824.3-41.9,821.9-41.3,822.1-43.1z M884,30.6c0.6-1.5-1.2-0.7-0.9,0.3c-0.8-0.8-0.5-1.6-0.3-2.4
			c1.3,0.4,1.1-0.6,3,0.1C885.4,29.6,884.9,30.5,884,30.6z M757.8-104.1c0.8-1.2,1.6-0.1,2.4,0C759.4-102.8,758.6-102.8,757.8-104.1
			z M825-24.7c0.7-1,1.4-0.6,2.1,0.4C826.4-23.3,825.7-23.7,825-24.7z M798.4-54.6c-1.4-1.1,0.3-2.9,1.2-1.3
			C798.8-55.1,799.5-54.7,798.4-54.6z M820-26.5c-1.3,1.4-4.2,0.9-4.5-1.1c1.3,1.9,2.6-0.3,3.9-0.3C818.8-26.9,820.2-27.7,820-26.5z
			 M742.5-106c1.3-0.4,2.6-0.9,3.9,0.4C745.1-104.7,742.8-104.1,742.5-106z M857.5,24.4c0.6,0.5,2.7,0.7,2.4,2.1
			C859.2,27,857.1,25.5,857.5,24.4z M832.4,5c-1-1.7-2-1-3-2.1c1.1-1.2,2.2,0.7,3.3-1.6c0.6,1,1.2,0.1,1.8,1.4
			C833.2,3.8,833.5,3.4,832.4,5z M789.1-42.9c-1.2-1-1.6-2.1-0.3-3.1c0.9,0.3,1.2,2.1,2.7,1.7C790.7-42.6,789.9-44.1,789.1-42.9z
			 M836,21.3c1.1-1.2,2.2-2.1,3.3-1.6C838.2,20.8,837.1,22.6,836,21.3z M810.3-10.3c0.7-1,1.4-0.6,2.1,0.4
			C811.7-9,811-9.3,810.3-10.3z M819.3,2.7c1.1-1,2.2-1.6,3.3-0.3C821.5,3.4,820.4,2.8,819.3,2.7z M811.5-3.5
			c-1.6-1.4-3.2,0.5-4.8-0.1c1-2.4,2.9-1.4,5.1-1.6c0.3-0.5,0.1-1.2,0.9-0.3C812.6-4.9,812.3-4.2,811.5-3.5z M785.8-28.3
			c1.5-1.4,3-1.2,4.5-1C788.8-27.8,787.3-28.1,785.8-28.3z M829.1,24.2c0.8-0.8,1.6-0.5,2.4-0.6c-0.6,1.1,0.2,2.3-0.6,3.4
			C829.6,26.1,830.2,25.2,829.1,24.2z M833.9,23c0.5,1.7,1.2,1,2.4,2.1c-2,0.3-3.6,4-4.8,1.3C833.2,25.8,833,24.4,833.9,23z
			 M828.8,21.2c0.6,1.4,2.8-0.4,2.4,1.4c-1.1,0-2.2,0.5-3.3-1.1c0.6-0.6,0.4-1.1-0.3-1.7c1-0.9,2-1.1,3-0.6
			C830.1,19.9,828.3,19.9,828.8,21.2z M807.9,1.2c0.8,0.7,1.6-0.5,2.4,0.7C809.7,3,807.5,2.2,807.9,1.2z M811.5,1.2
			c-0.9,0.8,0.9,1.6-0.3,2.4C809.9,3,810.3,0.7,811.5,1.2z M804.6-5.3c-0.8,1.2-1.6,0.8-2.4,1.3c-0.8-1.5-1.6-1.1-2.4-1.4
			c1.3-0.7,0.7-0.7,1.8-2c0.5,1.3,0.9,1.9,2.1,0.4C804.3-6.4,804.6-5.9,804.6-5.3z M756.8-55.5c0.8-1.5,2.1-0.8,2.1-2.3
			c0.2,0.2,0.4,0.5,0.6,0.7c0.2-0.2,0.4-0.3,0.6,0C759.5-55.6,758.1-54.6,756.8-55.5z M717.9-104.3c-0.8-0.5-1.5,0.3-1.5-1
			C717.2-106.7,718.7-105.3,717.9-104.3z M826.1,22.8c0.9-0.1,1.8,0.2,2.7,1.1C828,25.7,825.8,23.4,826.1,22.8z M763.3-43.9
			c1.2-0.8,2.4-0.8,3.6,0C765.7-43,764.5-43.1,763.3-43.9z M814.4,20.3c0.6,0.4,0.3-0.5,0.9-1c1.3,0.3,1.3,2.3,3,0.7
			c0.1-1.2-1.8-0.9-0.9-2.4c1.2,0,1.9,0.6,2.4,2.1C818.2,21.6,815,22.4,814.4,20.3z M772.3-31.6c-1.3-0.5-2.6,1.5-3.9-0.4
			c1.1-1.3,2.2-0.8,3.3-1.6C772.5-32.9,772.8-32.2,772.3-31.6z M795.9-1c-0.6-0.1-1.2-0.5-1.8-1.4C794.9-4,796.8-2.1,795.9-1z
			 M809.9,19.9c0.4-0.4,0.5-0.9,0.6-1.4c0.6,0.1,1.2,0.5,1.8,1.4C811.5,20.7,810.7,20.7,809.9,19.9z M789.9-1.8
			c0.9-0.1,1.8-2.3,2.7-1C791.7-1.7,790.8-1.4,789.9-1.8z M781.2-7.7c1.2-1.6,1.6,0.3,2.1-1.7c0.5,0.6,0.9,1.1,0.9,1.7
			C783.2-6.4,782.2-6.4,781.2-7.7z M787.8-6.9c-1.2-1.4-2.4,1.3-3.6-0.7C785.3-9.6,787.8-8.6,787.8-6.9z M805.8,15.7
			c0.8-1.8,1.6-0.2,2.4,0.7C807.3,17.6,806.6,16,805.8,15.7z M785.7-3.2c0.8-1.4,1.6-0.4,2.4-0.6C788.1-2.3,786.6-2,785.7-3.2z
			 M782.1-0.6c1.6-1.4,2.2-1.5,2.4-3.4c1.1,0,0.7,1.1,1.2,2.1c-0.8,1.2-1.6,0.8-2.4,1.3c0.4,0.4,1.2,0.2,0.9,1
			c-1.8,0.7-2.7-0.6-3.9-1.8c0.3-0.6,0.1-1.1,0.9-1.7C782.4-2.1,781.7-1.4,782.1-0.6z M777.6-4.3c2-1.3,4-1.1,6-0.6
			C783.4-1.7,779.7-3.2,777.6-4.3z M806.6,26.3c1.5-0.6,3,0.2,4.5,0.4C809.6,27.4,808.1,27.7,806.6,26.3z M797.7,16
			c0.1-0.9,0.2-2.6,1.5-1.7C799.2,14.7,798.4,16.7,797.7,16z M799.7,23.8c-1.7-0.8,1.2-1.6,0.3-2.4c-0.8-0.7-1.6,1.4-2.4,0
			c1.6-1.6,3.2-0.9,4.8-0.6C802.1,22.3,800.4,21.6,799.7,23.8z M775.2-8.5c-2,2.1-4.1-1.1-3.3-3.1C772.9-10.2,772.7-9.5,775.2-8.5z
			 M774.9-4.1c0.5-0.6,1-1.1,1.5-1.7c0.3,0.5,0.9,0.9,0.6,1.4C776.3-5.4,775.6-2.2,774.9-4.1z M786.9,12.4c-0.9-0.8-0.1-1.6,0.3-2.4
			c0.4,0.4,0.8,0,1.2,0.7C787.9,11.3,787.4,11.9,786.9,12.4z M792,20.3c-0.7-1.3-0.6-2.5,0.3-3.7C793.7,17.8,793.1,20.1,792,20.3z
			 M776.4-0.3c-0.9,1.6-2.4-0.4-2.4-1.4C775.5-3.2,775.1-1.4,776.4-0.3z M786.9,20.6c-0.5-0.6-1-1-1.5-1c1.5-0.8,1.8,0.6,2.7-1.7
			c0.5,2.1,1.5,0.4,2.7,1.7C789.5,20.8,788.2,19.2,786.9,20.6z M778.5,17c1.9,2.4,5.4-0.7,6.3,1.8C783,18.7,778.3,20.7,778.5,17z
			 M780.3,17.1c0.6-0.7-0.4-1.4,0.6-2c0.5,0.4,1,0.2,1.5,1C781.1,16.6,781.6,17.7,780.3,17.1z M769.8,17.9c-0.7-1.3-1.4,0.3-2.1-1
			c0.8-0.7,1.6-1.1,2.4-0.6C769.7,16.8,770.1,17.4,769.8,17.9z M742.8-4.8c1-0.2,4.1-1.7,3.3,1.1C745.2-5.2,742.8-3.4,742.8-4.8z
			 M712.3-40.6c-1.4-0.9,0.3-3,1.2-2C712.7-41.9,713.4-41.2,712.3-40.6z M743.7-3.1c0.7-1,1.4-0.1,2.1,0.4c-0.8,0.6-0.7,2.9-1.5,2.4
			C744.6-1.3,743.8-2.2,743.7-3.1z M742.8-0.1c-1.5-1-0.2-3.4,0.9-2.4C743.7-1.7,744.1-0.9,742.8-0.1z M755.1,16
			c-0.9-2-1.8,0.6-2.7-1.1c1.5-1.1,3-1,4.5-1C756.3,14.7,755.7,15.4,755.1,16z M742.8,2.6l1.2-1.3l0.9,1
			C744.2,3.7,743.5,2.8,742.8,2.6z M737.4-4.2c-1.5,1.7-1.3-1.1-3-1.4C735.5-6.2,737.4-5.6,737.4-4.2z M733.6-6l-1.2-1.4
			c0.6-1.2,2.8-1.6,2.4,0C734-8.1,733.6-6.3,733.6-6z M702.7-40c0.7-0.2,1.4,0.6,2.1,1c-4.2,0.4-8.4,0.7-12.6-0.9
			c1.2-2.5,2.4,1.2,3.6-0.6c-0.8-0.8-1.5-0.4-0.9-1.7c1.3,0,0.8,1.5,2.1,2.4c1.3-1.7,2.6,0.9,3.9-1c-0.8-0.3-1.6,0.1-2.4-1.4
			c0.6-1,1.2-0.1,1.8-1.3c1.1,0.5-0.2,2.6,1.2,2.1c0.9-0.8-0.9-1.6,0.3-2.4c0.6-0.2,1.2,0.1,1.8,0.7C703.6-42.1,702.4-41.1,702.7-40
			z M737.4,0.5c-1.4-1.9-2.8-0.3-4.2-1.4c0.8-1.4-0.3-2.5,1.5-3c1.4,0.9,0.3,1.8,0.6,2.7c0.9-0.4,1.8,0.1,2.7-1
			C739.1-1.3,738.4-0.4,737.4,0.5z M748.2,14.9c1-1.1,2-2.5,3-1.3C750.2,14.1,749.2,16,748.2,14.9z M725.8-12.9
			c0.4-0.4,0.8-0.9,1.2-1.3c0.3,0.3,0.6,0.7,0.9,1C727.2-12.2,726.5-11.9,725.8-12.9z M716.7-4.9c-0.5,0.3-1,0.2-1.5-0.4
			c2.2-1.7,3.3,2.5,4.5,3.1c0.5-0.6,1-1.1,1.5-1.7c2.3,2.1,4.6,1.7,6.9,1.1c0.3-1.7,1.1-3,1.8-3.4c0.2,2.6,1.1-0.9,2.4,0.7
			c-1.9,1.8-3.4,2.8-4.5,5c-1.9-3-5.4,0.3-7.8,0.6c0.3-0.7,1.9-1.3,1.2-2c-1.1,1-2.2,0.6-3.3,1.6c0.4,0.4,1.2,0.2,0.9,1
			c-1.1-1.2-3.8,1-3.9-1.1c1.5,0.9,3.7-1.6,2.4-3.4c-0.1,2.5-4.1,1-4.2-0.1C714.3-3.5,717.5-2.4,716.7-4.9z M715.5-1.5
			c0,0.8-1.3,1.7-2.1,1.7c0.5-1.1-1.4-0.3-1.8-1.4C712.9-2.4,714.2-1.8,715.5-1.5z M748.2,14.2c-1.5,0.4-3,0.2-4.5-0.4
			C745.1,13.2,747.8,12.3,748.2,14.2z M735.9,2.2c0.6,0.4,1.2-0.8,1.8,0.7C737.3,4.7,735.4,3.1,735.9,2.2z M730.2,1.1
			c0.7-0.9,3-1.4,2.7,0.4C732,0.9,731.1,1.7,730.2,1.1z M741,14.1c0-1,1.5-1.8,2.4-0.6C742.6,14.7,741.8,14.4,741,14.1z M688.9-40.9
			c0.2-1.5,1.8-0.2,1.5-2.4C691.9-42.3,689.9-39.9,688.9-40.9z M685.6-40.6c0-1.5,1.5-1,2.4-2.7c0.3,0.3,0.6,0.7,0.9,1
			C687.8-41.2,686.7-39.6,685.6-40.6z M722.1,0.6c0.7-0.3,3-1.5,2.7,0.4C723.9,0.6,723,1.6,722.1,0.6z M727.8,11.2
			c0.7-1,1.4-1.3,2.1-0.3C729.2,11.9,728.5,12.2,727.8,11.2z M709.8-3.3c-0.8-0.2-1.6,0.1-2.4,0c1-1.2,1-2.5,2.4-2
			C709.3-4.6,710.6-3.9,709.8-3.3z M703.5-6.4c-0.5-0.6-1-1-1.5-1c0.2-0.2,0.4-0.5,0.6-0.7c-0.2-0.2-0.3-0.5,0-0.7
			c1.7,1.6,0.4-1.5,1.2-2c0.7,0.5,1.4-0.3,2.1,1C704.5-8.7,704.5-7.5,703.5-6.4z M707.1-0.3c-0.4-0.6-1.2-1.1-0.9-1.7
			c1.4,0.6,2.8-1.3,4.2,0.7C708.9-0.2,708-1.7,707.1-0.3z M618-103.2c-1.1-0.9-0.3-1.8,0.6-2.7c0.4,0.5,0.8,0.6,1.2,0.7
			C619.8-104.3,618.8-103.1,618-103.2z M672.1-39.8c-1,0.7-2,0.4-3-0.7c0.9-1.2,1-3.8,2.7-2.3C671-41.5,670.3-40.4,672.1-39.8z
			 M696.6-7.5c1.1,0,1.4,1.2,1.2,2.1c2.1-1.6,5.8-0.8,6.9,1.8c-2.5-1.6-5.5-0.7-7.2,0.6c0.4-0.9,0-1.8-0.6-2.7
			c-0.1,1.5-0.2,1.6-1.5,1.7c-0.7-0.6-0.2-1.1-0.3-1.7c-0.6,1.8-0.7,0.6-1.8,0.7c0.9,1.4-1,1.7-1.8,0.6c0-1.2,1.3-0.8,2.1-2.3
			C695.7-6.5,695.9-5.5,696.6-7.5z M719.4,22c-1.6-1.4-2.7,1.8-3.6,2c-1.3-1.8,0.6-1.5,1.2-3.4c0.6,1.4,1.2-0.1,1.8-0.7
			C719.6,20.6,719.8,21.3,719.4,22z M697.2-1.4c-1.3-0.6-2.6-0.7-3.9-1.1c0.9-0.7,1.8-1.1,2.7-1C695.5-3,698.5-3.2,697.2-1.4z
			 M708.6,16.4c0-0.9,1.3-2.6,2.1-1.7C710,15.1,709.3,17.1,708.6,16.4z M710.4,23.2c0.7-1.3,1.4-0.4,2.1-1.7
			c-0.8-0.8-1.5-0.4-0.9-1.7c0.9,0.4,3.4-0.2,3.3,1.7C713.6,22.5,712.3,24.4,710.4,23.2z M690-4.9c-0.5-1.6-2.6,0.9-2.1-1.1
			C688.8-6.3,690.9-7,690-4.9z M696.3,7.7c1.2-0.5,2.4-0.2,3.6-0.6C699.8,8,696.4,9.4,696.3,7.7z M707.4,20.4
			c0.4-0.4,0.5-0.9,0.6-1.4c0.7,0.7,3,0.3,2.7,1.7C709.6,19.8,708.5,21.9,707.4,20.4z M677.4-4.4c1.9-1,4.8-0.9,7.2-1.2
			c-0.4-0.8-1.2-1.6-0.3-2.4c0.4,2.9,1.3,0.7,3,2.1c-1.1,1.3-2,1.3-1.5,3.7C683.8-6.1,680.3-3,677.4-4.4z M598.6-103.2
			c1,0.6,2-1.5,3,0.1C600.7-102.6,598.4-101.6,598.6-103.2z M650.9-39.8c-0.6-1.1-1.2-1.1-1.8,0c-1.2-2.1,1.9-4.5,3.6-3.3
			C650.9-41.8,651-41.7,650.9-39.8z M701.4,19.7c1.8-0.8,3.6,0.1,5.4,0.1c-0.3,0.3-0.6,0.7-0.9,1C704.4,19.8,702.9,20.6,701.4,19.7z
			 M672.4-15.7c1.2,0.1,4-0.5,4.2,1.4C675.3-15.2,672.6-13.3,672.4-15.7z M675.3-8.9c-1.6-1.5-3.2-0.2-4.8-1.4
			c1.7-1.5,5-0.6,5.7,0.4C675.7-10.3,675.4-9.4,675.3-8.9z M699,20.3c0.5-0.6-0.7-1.1-0.3-1.7c0.8,0.7,1.6-0.5,2.4,0.7
			C700.4,20.2,699.7,21,699,20.3z M693.3,19.2c1-1.3,2-1.2,3-0.6C695.3,18.9,694.3,20,693.3,19.2z M675-4.5c-1.7,1.5-2-0.1-3.3-1.8
			c0.6-0.6,0.9-1.1,0.9-1.7c0.2,0.2,0.4,0.5,0.6,0.7C672.7-5.6,673.5-5,675-4.5z M696.3,24c-1.6-0.4-3.2,1.1-4.8-0.8
			c1.6-0.3,1.1-2.5,2.4-2.7c1.6,0.7,0,3.1,1.2,2.7c0.4-0.8-0.3-1.6,0.9-2.4C696.8,22,696.4,23,696.3,24z M689.1,19.1
			c0.1-0.7,0.4-1.4,1.2-2c0.8,1.6,1.6,0.2,2.4,1.4c-0.2,0.2-0.4,0.4-0.6,0.7C691.2,17.9,690.6,19.5,689.1,19.1z M664.8-5.3
			c1.4,0.1,5.3-3.1,4.8,0.1C668-6.7,666.4-3.7,664.8-5.3z M655.8-10.9c0.8-0.7,1.6-1.1,2.4-0.6C658.2-10.5,656.7-9.8,655.8-10.9z
			 M655.5-7.2c1.8,0.8,6.4-1.7,6.3,1.8C659.9-7.1,656.4-5.1,655.5-7.2z M645-15.8c0.8-1.2,1.6-0.9,2.4-0.6
			C647.4-15.4,645.9-15.1,645-15.8z M647.1-10.7c-1.7-2.9-3.4-0.6-5.1-1.8c1-2.1,4.3-0.3,6.3-0.2C647.5-12.1,648.2-11.4,647.1-10.7z
			 M646.5-9.4c-1.8-1.9-1.9,2.5-3.9,1c1.6-1.1,0.8-0.8,1.5-2.4C645-10.8,647.4-11.2,646.5-9.4z M636.3-10.2c0.9-1.4,1.8-1.4,2.7-1
			C639-9.9,637.2-8.5,636.3-10.2z M656.3,15.6c1-1.8,2-0.7,3-0.6C658.3,15.3,657.3,16.4,656.3,15.6z M656.9,16.9
			c0.6-1,2.8-0.7,2.4,0.7C658.5,16.8,657.7,18.7,656.9,16.9z M652.4,13.1c0.5-0.7-0.8-1.4-0.6-2c0.7-1,1.4-1.3,2.1-0.3
			C653,11.4,654,13.7,652.4,13.1z M652.7,20.3c0.1-0.5,1.3-1.7,0.9-3c-0.7,0.7-1.4-0.1-2.1-1c1.5-0.9,3-2.9,4.5-1.6
			C653.7,16.2,655.5,21.9,652.7,20.3z M625.2-16.2c0.5-1.5,2.6-0.9,2.1,0.4C626.6-16.3,625.9-14.8,625.2-16.2z M648.2,15.1
			c0.7-1,1.4-1.3,2.1-0.3C649.6,15.8,648.9,16.1,648.2,15.1z M628.8-8.6c-1.4,0.3-4.1,0.7-4.5-1.1c-1.1,1.1-3.1-0.8-3.3,1.6
			c-0.4-0.5-0.8-0.9-1.2-1.4c0.8-1.3,1.5-0.4,1.5-1.7c1.7,0.9,2.6,0.9,3-1.3c1.3,0.7,0.3,1.4,0.6,2.1c0.5-0.6,1-1.1,1.5-1.7
			C627.9-10.1,626.4-9.1,628.8-8.6z M618-10.9c-1.7-2,2-3.4,3-2c-0.4,0.6,0,1.1-0.3,1.7C618.7-11,619.3-13.6,618-10.9z M614.7-8.6
			c-1.5-1.3,0-2.5,0.9-3.7c0.5,0.5,1-0.6,1.5,0.4C616-9.7,615.4-11,614.7-8.6z M607.2-16.5c0.9-0.6,1.8-1.4,2.7-0.3
			C609-15.6,608.1-15.6,607.2-16.5z M521.6-98.9c-0.7,0.7-3,1.3-2.7-0.4c0.8,0.9,1.8-0.4,1.8-1.3C521.3-100,521.6-99.4,521.6-98.9z
			 M590.9-11.4c-1.7-2,2.9-4.5,2.7-1.6C592.4-13.9,592.5-11.6,590.9-11.4z M516.8-98.3c-1.6,0.6-4.8,1.8-5.3-0.8
			c2.1,1.1,0.9-1.7,1.8-2.7c1.1,1.3,0.7,2.5,0.8,3.8C515.1-99.7,516.8-100.3,516.8-98.3z M507.6-98.3c0.8,0.3,1.6-0.6,2.4,0.1
			C510.1-96.1,506.5-96.6,507.6-98.3z M591.6,16.1c1-0.8,2-0.8,3,0.1C593.6,17.7,592.6,16.9,591.6,16.1z M586.2,18
			c-0.8,2.6-1.4,0-2.4,0c0.8,1.8-0.7,3-1.2,4.1c-1.5-1.5,1.8-2.9,0.3-4.4c-0.3,0.6-0.2,1.1-0.9,1.7c-0.4,0-2.3-1.2-1.8-2.1
			c1.7,1.2,8.1-5,6.6,0.1c1.2,0,4-1.4,4.2,0.8C590.3,19.4,586.9,19.8,586.2,18z M584.3,21.4c1.5-1.2,3-1,4.5-0.9
			C587.4,21.4,585.8,22.5,584.3,21.4z M487.9-93.4c-1.3-0.9-4.2,2-4.5-0.5C484.8-93.7,487.5-96,487.9-93.4z M578.9,22.6
			c-0.4-0.6-1.2-1.2-0.9-1.7c1.5,1.1,2.1,0.7,2.7-1C581.7,21.9,580,22,578.9,22.6z M573.2,18.8c-0.7-1.3-1.4,0.7-2.1-1.1
			C572,17,574.1,17.4,573.2,18.8z M575.6,26.3c-0.8-0.7-1-1.4-0.6-2c0.4,0.4,0.8,1,1.2,0.7c0.3-0.2,0.6-0.7,0.9-0.3
			C576.6,25.2,576.1,25.7,575.6,26.3z M473-93.2c0.3-0.6,0.2-1.1,0.9-1.7c0.7,1.4,1.4,0.6,2.1,1.1C475-92.8,474-92.1,473-93.2z
			 M562.4,19.2c0.2-0.7-1.3-0.8-1.5-1.1c-0.4,0.6,0,1.1-0.3,1.7c-1.6,0.3-2.1-1.6-0.9-3.1c1.6,0.3,3.2,0,4.8,0.8
			C563.3,18.3,562.9,19.2,562.4,19.2z M467.7-96.1l1.2,1.4C467.9-93.2,466.3-95.1,467.7-96.1z M554.5,17.7c-0.9,0.5-1.8,0.8-2.7-0.4
			c0.9-1.1,1.8-0.9,2.7-0.3C554.4,17.2,554.2,17.4,554.5,17.7z M454.5-91.1c-0.7-0.5-1.4-0.2-2.1-1.1c0.5-0.4-0.3-2.4,0.9-1.7
			c-0.6,0.9,0.1,1.7,0.9,1.1c-0.2-0.7-0.2-1.4,0-2c0.6,0.7,1.2-0.4,1.8,0.7C454.6-93.2,456-92.1,454.5-91.1z M545.5,20.9
			c-1.3-0.7-4.2,0.5-4.5-1.1c0.9,0.5,1.8-0.3,2.7-0.3c-0.5-0.7-1-0.4-1.5-1.1c0.8-0.6,2.1-1,2.1-2.3C545,17.7,545.3,19.3,545.5,20.9
			z M448.6-91.4c0.5-0.8,0.1-1.6,1-2.3C450.2-92.7,450-90.3,448.6-91.4z M539.2,19c-1.5-1.5-1.3-3-0.8-4.4c0.4,0.5,0.8,0.6,1.2,0.7
			C538.8,16.5,540.7,17.8,539.2,19z M445.9-93.2c0.7-1,1.4-1.3,2.1-0.3C447.3-92.5,446.6-92.1,445.9-93.2z M535.2,19.9
			c1.6-0.3,3.2-0.9,4.8,0.1c-1.7,0.3-2.1,1-3.3,0.9c0.2-0.3,0.1-0.7-0.3-1C536,20.3,535.6,20.6,535.2,19.9z M532.8,18.5
			c0.4-0.6-0.3-1.1-0.3-1.7c1.7-1.4,3.4-1.1,5.1-0.2c-1,0.9-0.3,1.8-1.2,2.7C535.2,18.7,534,19.2,532.8,18.5z M438.5-91.1
			c1.1-1,1.9-2,1.6-3c0.9,0.9,1.8-0.1,2.7,0.4c-1.7,2.1,0.8,1.3-0.1,2.7C441.3-92.3,439.8-90.4,438.5-91.1z M530.7,22.2
			c-0.6-0.6-0.3-1.1-0.9-1.7c-0.3,0.3-0.1,0.7-0.3,1c-1.3-0.8-0.5-1.6,0.3-2.4c0.4,0.4,0.8,1,1.2,0.7c-0.3-0.5,0.2-0.9,0.6-1.3
			c0.3,0.3,0.6,0.7,0.9,1C530.9,21,531.2,20.5,530.7,22.2z M526.5,17.3c-1,0.8-2-0.1-3-0.1C524.5,15.6,526.5,15.3,526.5,17.3z
			 M519.8,19.9c-0.9,0.2-1.8,1-2.7,0.3c0.8-1.6,1.6-0.3,2.4-0.6c-0.2-0.3-0.6-0.7-0.3-1C519.7,19,519.8,19.4,519.8,19.9z
			 M512.9,17.3c1,0.7,2-0.5,3,0.8C515.1,18.9,512.7,18.9,512.9,17.3z M513.5,16.6c-0.3-0.2-0.6-0.1-0.9,0.3c-0.8-0.7-1-1.4-0.6-2.1
			c0.5,0.4,1,0,1.5,0.4C513.2,15.7,513.8,16.2,513.5,16.6z M506.6,16.1c1.6-1.6,3.2-1.4,4.8-0.6C509.8,17,508.2,15.5,506.6,16.1z
			 M505.6,19.8c0.6-2.4,2.5-2,4-1.6C508.3,19.7,506.9,20.8,505.6,19.8z M498.2,15.2c-0.3-0.6-0.1-1.1-0.9-1.7
			c1.3-1.2,2.6-1.9,3.9-0.2C499.7,13.4,498.2,14.3,498.2,15.2z M480.3,19.7c0.7-0.9-0.9-0.2-1.2-1.4c0.6-1.1,2.6,0.1,2.1,1.1
			C480.6,18.8,480.8,20.2,480.3,19.7z M355.5,19.2c-0.8-0.6-1.6-0.2-2.4-1.5c1.3-1.5,2.5-1.6,3.7-1.8c0.3,0.4,0.6,0.7,0.9,1.1
			C356,17.6,356.2,17.4,355.5,19.2z M345.5,17c1.3,1.7,3.1-1.1,2.7,1.9C347.5,18,345.2,18.8,345.5,17z M233.9-89.1
			c2.9-2.2-2.8-0.9,0.3-4.1c0.9,1.6,0.6,1.6,1.9,1.9C235.8-90.4,235.2-88,233.9-89.1z M237.1-92.9c0.4,0.4,0.7,1.1,1.1,0.8
			c0.5-0.7,0-3.1,1.4-2.6c0.2,0.8-0.6,1.5,0.1,2.4c-1.6,0.2-1.6,3-3.2,3.1C236.3-90.5,235.8-91.8,237.1-92.9z M315.6,18.5
			c-1,0.9-1.8,0.4-2.8,0.2c0-1.2,1.3-0.8,2.3-2.2C316.2,17.2,315.1,17.8,315.6,18.5z M229.5-89.2c-0.7-1.2-0.1-2.3-0.3-3.4
			c0.7,0.8,1.7-1.2,2.3,0.2C230.6-90.8,230.4-91,229.5-89.2z M309.3,17.1c1.5,0.7,1.2-1.5,2.5-0.5C312,17.4,308.8,19.3,309.3,17.1z
			 M228.7-89.7c-0.7,0.7-1.2,0.7-1.7-0.2c0.4-0.8,0.7-1.4,1.3-1.2C227.9-90.6,228.3-90.1,228.7-89.7z M219.3,20.2
			c1,1.2,2.3-0.9,3.4,0C221.6,21.9,219,22,219.3,20.2z M214.3,20.4c1.5,0.3,3.1-0.4,4.6,0.8C217.2,22.4,215.7,22.3,214.3,20.4z
			 M212,21.9c0.5-0.4,0.9-0.8,1.4-1.2c0.3,0.4,0.5,0.7,0.8,1.1C213.3,23.1,212.7,22.2,212,21.9z M120.4-42.9
			c-0.8-1.3,0.1-2.3,1.1-3.2c1.5-0.7,3.6-0.2,5.9-1.4c0.2,0.5,0.8,1,0.4,1.4C126.2-44.7,122.9-43.6,120.4-42.9z M112.4-43.9
			c-0.4-0.8-0.6-1.5-0.3-2.1c2,0,4.2-0.9,6.1-0.3C116.3-45.3,114.4-45,112.4-43.9z M155.2,22.7c0.4-1.3,2.9-2.4,4-1.5
			C157.7,22.8,156.5,22.5,155.2,22.7z M103-42.1c2.8-1.3,5.2-1.7,6.8-4.3l1,1.5C108.8-44.5,106.1-40.3,103-42.1z M132,30.4
			c-0.6,0.5-1.2,0.8-1.7,0.8c-1.4-1.8,1.5-3-0.6-4.9c1.2-0.1,2.6-1.5,3.5,0.2C131.1,26.1,130.2,28.3,132,30.4z M81.3-47.1
			c-0.7-1.1,0.4-1.8,0.5-2.7c0.6,0.6,1.4-0.1,1.9,1.4C82.8-47.7,82.2-48.2,81.3-47.1z M88.4-17.7c-0.8-0.6-1.8,1.7-2.3,2.3
			c-1.2-0.9,0-1.4-0.2-2.1c-0.3,0.1-0.6,0-0.8-0.5c1.6-0.1,2.8,0.5,2.6-1.9C88.3-19.8,88.6-18.5,88.4-17.7z M95.3,16.5
			c0.6,1.1,1.6-0.7,2.1,0.7C96.7,18.6,94.6,17.7,95.3,16.5z M86.5,14.8c1.8-0.8,3.5-1.5,4.9-0.1C89.8,14.6,87.9,16.2,86.5,14.8z
			 M80.4,12.9c1-0.5,1.9-1,2.5,0.5C81.9,14.1,81.1,13.9,80.4,12.9z M79.8,19.7c-0.6-1.2-1-1.3-1.3-0.2c-1.2-1.4,1.8-2.2,2.1-1
			C80.1,18.9,79.9,19.3,79.8,19.7z M25.8-4.8c0.3-1.2,2.1-1.6,3-1.3C28.6-5.3,26.5-3.6,25.8-4.8z"/>
		<path class="st2" d="M742.5,23.3c0.4-0.7-0.8-0.3-0.3-1c-3.3,3.2-6.6,0.7-9.9,2.2c2.8,1.3,5.6,1,8.4,0.8c0.3-0.4-0.3-0.9-0.6-1.4
			C740.9,23.9,741.7,23,742.5,23.3z"/>
		<path class="st2" d="M945-96.5c-1-0.9-2,0.7-3,0.6C943-95.7,944-95.1,945-96.5z"/>
		<path class="st2" d="M890.8-89.4c0.8-0.5,0.6-1.1,0.9-1.7c-0.5-0.4-1,0.5-1.5,1c-0.1-0.4-0.2-0.9-0.6-1.4
			C888.8-90.2,890-90.1,890.8-89.4z"/>
		<path class="st2" d="M935.7-38.6c1.2-0.4-1.9-0.3-1.8-2.1c-0.5,0.8-0.2,1.6-0.3,2.4C934.9-37.3,934.4-39.7,935.7-38.6z"/>
		<path class="st2" d="M916.1-59.4c0.7-0.7,0.7-1.3,0-2c0,0.9-0.7,1.2-1.5,1C914-59.6,915.7-59.9,916.1-59.4z"/>
		<path class="st2" d="M919.6-51.2c0.1,0.6-0.4,1.1,0.3,1.7c0.8-0.7,1.1-1.3,1.2-2c-0.6-0.6-1.2,0.9-1.8,0
			C919-51.1,919.4-51,919.6-51.2z"/>
		<path class="st2" d="M876.4-99.9c-1.1-1.6-0.8,0.8-1.2,1.3c-0.9,0.8-0.1-1.1-1.2-1.4c-1.6,2-3.2,1.5-4.8,0.6
			c-0.3,0.7-0.3,1.4-0.6,2c1.3-1,4.1-1.4,6.3-0.2C875.6-99.1,876.4-98.7,876.4-99.9z"/>
		<path class="st2" d="M922.5-43c-3.7,0.4-6.1-0.2-9.6,1.8c0.4,0.7,1.3,0.3,0.9,1c1.3,0.7,0.8-0.5,2.1-1c-0.2,1.7,4.5,0.4,3.3,1.8
			C920-38,922-41.3,922.5-43z"/>
		<path class="st2" d="M860.5-111.3c-0.9-1.3-4.4-1.2-6.3-0.4C856.3-111.7,858.4-111.4,860.5-111.3z"/>
		<path class="st2" d="M962.3,14.6c0-1.2,1-0.6,1.8-2c-1.9-0.7-1.8,0.5-2.7,1C961.1,14.2,961.9,13.9,962.3,14.6z"/>
		<path class="st2" d="M914.7-43.2c-1.1,0.4-2.2-0.5-3.3,0.9C912.5-40.6,913.6-42.8,914.7-43.2z"/>
		<path class="st2" d="M864.3-93.3c0.8-0.6-0.1-1.1,0.3-1.7c-0.7-0.6-1.4,0.2-2.1,0.3C862-93.7,863.9-95.1,864.3-93.3z"/>
		<path class="st2" d="M931.8-4.1c-0.3,0.3,0.1,0.7,0.3,1c-0.6,0.9-1.2,0.1-1.8,1.3c1.2,0.5,2.4,1.2,3.6-0.6
			C932.7-3.1,932.3-2.2,931.8-4.1z"/>
		<path class="st2" d="M898.4-24.5c-1.5,0.9-1.3-0.8-3-0.7c-0.7,1.6-0.6,1.6-1.2,2.7C895.6-23.4,898.1-23.2,898.4-24.5z"/>
		<path class="st2" d="M830.4-98.9c0.5,1.2-1.6,0.6-1.2,2c0.7,1,1.4-1,2.1,0.4c-0.3-1.4,1.4-2.1,0-4.1c-0.8,0.7-1.6,1.1-2.4,0.6
			C828.3-99.1,830-99.4,830.4-98.9z"/>
		<path class="st2" d="M825-100.4c-1.4-1.1-2.8,1.4-4.2-0.7c-1,1.3,0.8,0.9,0.3,1.7C822.4-99.8,823.7-99.6,825-100.4z"/>
		<path class="st2" d="M818.7-98.8c0.6,0.6,0.3,1.1,0.9,1.7c1.7-0.9,3.4-0.6,5.1,0.4c-0.3-2.8-3.2-0.6-4.5-3.1c-1,1.7-2,0.6-3-0.7
			c-1.8,0.5-1.8,1.3-3.3,2.3c0.6,0.3,1.2,0.4,1.8,0.7c0.8-0.6-0.1-1.1,0.3-1.7c0.3-0.2,0.6,0,0.9-0.3c0.3,0.7-0.7,1.4,0.6,2.1
			C818.3-97.5,818.6-97.9,818.7-98.8z"/>
		<path class="st2" d="M901.9,32.3c0.3-0.4-0.1-0.5-0.3-0.3c-0.4-0.5-0.9-0.9-0.6-1.4c-0.5-0.4-1,0.5-1.5,1
			C900.3,32.1,901.1,32,901.9,32.3z"/>
		<path class="st2" d="M873,22.6c0.5-0.9-3.9-2.7-5.4-0.8c0.4,0.3,2.3-0.9,1.8,0.7C870.6,23.3,871.9,20.8,873,22.6z"/>
		<path class="st2" d="M857.8,17.2c-1.2-0.6-1.8-3.2-3.6-1.4c0.3,2.7,3.3,0.5,3,3.4C858.6,18.6,856.5,17.9,857.8,17.2z"/>
		<path class="st2" d="M799-34.2c0.6-1.4-1.1-0.5-1.5-1c-0.6,0.5-0.3,1.5-0.9,1c-0.3,0.2-0.2,0.5,0,0.7c0.2,0.2,0.4,0.5,0.6,0.7
			c-0.3-0.5,1.5-2.5,0.9-1C798.7-33.5,798.4-34.8,799-34.2z"/>
		<path class="st2" d="M824,13.6c0-1.3-2.6-0.9-3.6-1.4c0.3-2-2.1-3.5-3-4.1c0.1,1.9,0.9,3.9,1.5,5.8c0.2-3.4,1.9,0.5,3.9,0.4
			C822.9,13.4,823.2,13.1,824,13.6z"/>
		<path class="st2" d="M814.2,7c-0.4-1.4-3.4-0.8-4.8-1.4c-0.9,1.2,2.1,0.6,1.2,2.1C811.1,7.2,812.8,6,814.2,7z"/>
		<path class="st2" d="M817.1,12.5c1.2-0.9-0.1-1.2-0.6-0.7c-0.5-0.6-0.6-1.1-0.3-1.7c-0.5-0.3-1,0-1.5-0.4c0.6,0.6,1,2.8-0.9,1
			c-0.3,0.6,0.5,1.1,0.9,1.7C815.5,11.7,816.3,11.7,817.1,12.5z"/>
		<path class="st2" d="M801.9,10.6c0.5,0.3,1-0.1,1.5,0.4c1.1-0.8-0.2-1.6,0.9-2.4C803.3,8.7,803.3,9.5,801.9,10.6z"/>
		<path class="st2" d="M788.7,25.3c0.1-1.2,0.4-0.4,1.2-1.3c-1.1-0.8,0.7-1.6-0.9-2.4c-0.3,0.3-0.6,0.7-0.9,1
			c0.6,0.9,1.1,1.9-0.6,1.4C786.8,24.9,788.4,24.1,788.7,25.3z"/>
		<path class="st2" d="M766.5,1.3c0.8,0.4,0.1-0.9-0.3-0.3c-0.2-0.7,0.1-1.4,0.6-2c-1-0.4-2.2,2-1.2,2.7
			C765.9,1.1,766.2,1.1,766.5,1.3z"/>
		<path class="st2" d="M731.8-41.3c-0.4-0.3-0.5,0.1-0.3,0.3c-0.9,1.1-1.8-1.8-2.7,0.3c1,1.7,2,0.5,3,0.7
			C732.1-40.4,731.4-40.9,731.8-41.3z"/>
		<path class="st2" d="M756.6,27.3c1.2,1.4,2.4,1.4,3.6,0.7c-1.4-1.9-2.8-1.3-4.2-2.8c-0.6,2.4-2.7,1.1-4.2,2
			C752.1,27.1,756.3,29.2,756.6,27.3z"/>
		<path class="st2" d="M752.7,24.8c-1.6-0.3-3.2,1.4-4.8-0.1c-0.3,3.8-4.7-0.9-6.9,0.9c0,0.6,0.6,1.1,0.3,1.7c1.3-0.3,2.6-2,3.9,0.4
			c1.9-1.3,3.8-0.3,5.7-0.3c0.3-0.6-0.5-1.1-0.9-1.7C750.9,25.2,751.8,26.4,752.7,24.8z"/>
		<path class="st2" d="M756,32.7c-0.4-3.6-7.3-3.4-8.7-1.8C750.1,31.1,754.1,29.6,756,32.7z"/>
		<path class="st2" d="M733.5,28.6c-1.2-0.4-2.4-0.6-3.6-0.7C729.9,29.3,732.5,29,733.5,28.6z"/>
		<path class="st2" d="M717.3,27c-1.9-1.4-6.4-1.5-9.3-1.2c1.3,1.9,2.5-0.2,3,2.1c0.2-2.5,2.4,0.4,3.6-1.3c1.1,0.9-0.9,2.4,0.9,2.4
			C714.9,27.2,715.8,26.9,717.3,27z"/>
		<path class="st2" d="M717.9,30.4c0-1.9-2.6-0.3-3.6-0.7c-0.6,1.3,1.1,0.4,1.5,1.7C716.8,30,716.5,29.6,717.9,30.4z"/>
		<path class="st2" d="M707.4,25.9c-2.1-1.1-4.2-1.4-6.3-1.1C702,29,705.4,26.5,707.4,25.9z"/>
		<path class="st2" d="M674.9,22.7c-0.9-0.3-1.8,0.1-3.3,0.3c0.3,0.3,0.6,0.7,0.9,1C673.3,22.4,674.1,23.9,674.9,22.7z"/>
		<path class="st2" d="M657.8,27.5l1.8-2c-1.5-0.5-1.5,2.2-3.3,1C655.6,27.3,657.4,27,657.8,27.5z"/>
		<path class="st2" d="M640.3,25.8c-0.5-3.2-1.8,1.7-3.3-1.8c-0.1,0.5-0.2,0.9-0.6,1.4C637.7,27,639,25.6,640.3,25.8z"/>
		<path class="st2" d="M611.7,26.3c0.8,0.4,0.2-0.9-0.3-0.3c-0.5-0.8,0.2-1.6,0.3-2.4c-1-0.2-2,1.4-3-0.1c-1.2,3.3-2.9,1.2-4.5,1.6
			c-1.4,0.7,0.7,1.4-0.6,2c1.7-0.9,3.4,0.6,5.1-0.9c0.6,0.6,0.3,1.1,0.9,1.7C609.6,26.9,610.9,26.3,611.7,26.3z"/>
		<path class="st2" d="M562.6,24.3c-1.6-1.6-3.2,1.8-4.8-0.1c-0.3,0.6,0.5,1.1,0.9,1.7C560,23.9,561.3,26.4,562.6,24.3z"/>
		<path class="st2" d="M530.9,25.9c0-1.3-3.8-1.5-3.9-0.4C528.3,25.7,529.6,25,530.9,25.9z"/>
		<path class="st2" d="M500.8,18.3c-0.5,0.9-0.4,1.8-0.6,2.7c0.8,0.5,1.6,0,2.4-0.6c-0.6-1.2-1.2,0-1.8-0.1
			C500.3,19.7,502.7,19.7,500.8,18.3z"/>
		<path class="st2" d="M384.1,23.7c0.2-1.8-2.2-0.6-3-1.5c-0.3,0.2-0.2,0.4,0,0.7c0.2,0.2,0.4,0.5,0.6,0.7
			C382.6,22.7,383.3,23.8,384.1,23.7z"/>
		<path class="st2" d="M283.2-101.5c-1.6-0.4-3.3,0-4.9-0.7c-0.8,2-2.9,0.9-4.4,0.7c-0.2,0.3,0,0.7-0.4,1c0.3,0.3,0.1,0.5,0,0.7
			C276.7-101.1,279.9-100.1,283.2-101.5z"/>
		<path class="st2" d="M205.2,31.1c-1.7,0.7,0.2,1.8-1.5,2.6c0.3,0.2,0.6,0.1,0.9,0.4l0.7-0.6C203.8,32.5,206.8,32.1,205.2,31.1z"/>
		<path class="st2" d="M191.5,27.9c-1.5-2.1-0.1,2.6-1.7,1.5c-0.7,1.2,1.3,1.4,1.8,0.2C191,28.9,190.9,28.4,191.5,27.9z"/>
	</g>
</g>
</svg>
