<?xml version="1.0" encoding="utf-8"?>
<!-- Generator: Adobe Illustrator 22.0.1, SVG Export Plug-In . SVG Version: 6.00 Build 0)  -->
<svg version="1.1" id="Layer_1" xmlns="http://www.w3.org/2000/svg" xmlns:xlink="http://www.w3.org/1999/xlink" x="0px" y="0px"
	 viewBox="0 0 49.6 49.6" style="enable-background:new 0 0 49.6 49.6;" xml:space="preserve">
<style type="text/css">
	.st0{fill:#EBBA16;}
	.st1{fill:#FFFFFF;}
</style>
<g>
	<path class="st0" d="M49.6,24.8c0,13.7-11.1,24.8-24.8,24.8C11.1,49.6,0,38.5,0,24.8C0,11.1,11.1,0,24.8,0
		C38.5,0,49.6,11.1,49.6,24.8L49.6,24.8z M49.6,24.8"/>
	<path class="st1" d="M37.6,24.8L18.8,37.6V12L37.6,24.8z M37.6,24.8"/>
	<path class="st1" d="M18.8,38.5c-0.1,0-0.3,0-0.4-0.1c-0.3-0.1-0.5-0.4-0.5-0.8V12c0-0.3,0.2-0.6,0.5-0.8c0.3-0.1,0.6-0.1,0.9,0.1
		l18.8,12.8c0.2,0.2,0.4,0.4,0.4,0.7c0,0.3-0.1,0.5-0.4,0.7L19.3,38.3C19.2,38.4,19,38.5,18.8,38.5L18.8,38.5z M19.7,13.6V36
		l16.4-11.2L19.7,13.6z M19.7,13.6"/>
</g>
</svg>
