<?xml version="1.0" encoding="utf-8"?>
<!-- Generator: Adobe Illustrator 22.0.1, SVG Export Plug-In . SVG Version: 6.00 Build 0)  -->
<svg version="1.1" xmlns="http://www.w3.org/2000/svg" xmlns:xlink="http://www.w3.org/1999/xlink" x="0px" y="0px"
	 viewBox="0 0 72.1 12.3" style="enable-background:new 0 0 72.1 12.3;" xml:space="preserve">
<style type="text/css">
	.st0{fill:none;stroke:#3D3D3D;stroke-miterlimit:10;}
	.st1{fill:#3D3D3D;}
</style>
<g id="Layer_1">
	<g>
		<g>
			<line class="st0" x1="60.2" y1="0.4" x2="71.7" y2="11.9"/>
			<line class="st0" x1="71.7" y1="0.4" x2="60.2" y2="11.9"/>
		</g>
	</g>
</g>
<g id="Layer_2">
	<path class="st1" d="M33.9,3.9c0,0.9-0.1,1.7-0.1,2.7h3.7l0.7-0.7l1,1h-4.9c0.3,0.9,0.8,1.7,1.6,2.5c0.8,0.8,1.9,1.4,3.3,1.8v0.1
		c-0.5,0-0.9,0.2-1.1,0.6c-0.9-0.5-1.7-1.1-2.4-1.8c-0.7-0.8-1.3-1.8-1.6-3.2h-0.4c-0.3,1.2-0.9,2.3-1.9,3.1c-1,0.9-2.2,1.6-3.8,2
		l0-0.2c1.7-0.7,2.9-1.5,3.6-2.4c0.7-0.9,1.2-1.7,1.4-2.6h-3.4c-0.4,0-0.8,0-1.2,0.1L28,6.5h5.1c0.1-0.7,0.1-1.6,0.1-2.7h-2.9
		c-0.4,0-0.8,0-1.2,0.1l-0.4-0.4h5.6c0.3-0.5,0.5-1,0.7-1.6c0.2-0.6,0.4-1.1,0.5-1.5l1.2,0.8L36,1.5c-0.6,0.9-1.1,1.5-1.5,2.1h2.6
		l0.7-0.7l1,1H33.9z M30.7,0.7l0.1-0.1C31.5,1,32,1.3,32.4,1.7c0.4,0.4,0.5,0.8,0.2,1.2S32.2,3.2,32,2.6C31.7,1.9,31.3,1.3,30.7,0.7
		z M42.4,2.8v7c0,0.5,0,1.1,0,1.6l-0.8,0.4c0-1.7,0-3.5,0-5.4s0-3.4,0-4.5l1.2,0.6L42.4,2.8z M42.7,0.5c0.8,0.4,1.3,0.8,1.5,1
		c0.2,0.3,0.1,0.6-0.1,0.9c-0.2,0.3-0.4,0.2-0.6-0.2c-0.2-0.5-0.5-1-0.9-1.5L42.7,0.5z M46.8,4.7c0-0.7,0-1.5,0-2.3L47.9,3l-0.5,0.3
		v1.4h1.3l0.5-0.5L50,5h-2.6v4.6c0,0.3-0.1,0.6-0.3,0.7c-0.2,0.2-0.4,0.3-0.8,0.4c-0.2-0.4-0.6-0.8-1.3-1V9.5c0.6,0.1,1,0.2,1.3,0.2
		c0.3,0,0.4-0.1,0.4-0.5v-4c-0.9,1.8-2.3,3.2-4.1,4.3l0-0.2C44.3,8,45.5,6.5,46.2,5h-1.6c-0.4,0-0.8,0-1.2,0.1L43,4.7H46.8z
		 M49.8,11.8c-0.2-0.5-0.7-0.8-1.4-1v-0.2c1,0.2,1.6,0.2,1.7,0.2c0.1,0,0.1-0.2,0.1-0.5V2h-3.5c-0.4,0-0.8,0-1.2,0.1l-0.4-0.4h5
		l0.5-0.5l0.7,0.7L51,2.2v8.3c0,0.4-0.1,0.6-0.2,0.8C50.6,11.5,50.3,11.6,49.8,11.8L49.8,11.8z"/>
</g>
</svg>
