<?xml version="1.0" encoding="utf-8"?>
<!-- Generator: Adobe Illustrator 22.0.1, SVG Export Plug-In . SVG Version: 6.00 Build 0)  -->
<svg version="1.1" id="Layer_1" xmlns="http://www.w3.org/2000/svg" xmlns:xlink="http://www.w3.org/1999/xlink" x="0px" y="0px"
	 viewBox="0 0 72.1 12.3" style="enable-background:new 0 0 72.1 12.3;" xml:space="preserve">
<style type="text/css">
	.st0{fill:none;stroke:#3D3D3D;stroke-miterlimit:10;}
</style>
<g>
	<g>
		<line class="st0" x1="60.2" y1="0.4" x2="71.7" y2="11.9"/>
		<line class="st0" x1="71.7" y1="0.4" x2="60.2" y2="11.9"/>
	</g>
	<g>
		<path d="M8.9,0.4C9,0.4,9,0.4,8.9,0.4L8.9,0.4h0.1c0.1,0,0.2,0.1,0.3,0.2c0,0,0.1,0.1,0.3,0.4V1c0,0.1-0.2,0.2-0.5,0.3
			c0,0-0.3,0.2-1,0.6C7.5,2.4,6.8,3,6,3.7c-1.2,1.2-2,2-2.4,2.4C2.1,8.1,1.2,9.7,0.9,11c0,0.1,0,0.3,0,0.3c0,0,0,0,0,0
			c0.4,0,1.3-0.4,2.5-1.1c0.1,0,0.3-0.1,0.5-0.3l0.7-0.4l0,0C5,9.3,5.2,9.2,5.3,9.2C5.4,9.1,5.5,9,5.6,9l0.1,0
			c0.1,0,0.2-0.1,0.5-0.3h0L6,8.8l0,0c0.1-0.1,0.3-0.2,0.5-0.4l0,0l0.1-0.1h0v0c0,0-0.1,0.1-0.2,0.1v0h0.1C6.8,8.4,6.9,8.3,7,8.3
			l0.1,0l0.1,0c0,0,0,0,0.1,0l0,0v0c0.1,0,0.3-0.1,0.7-0.3v0C7.4,8.2,7.1,8.4,7.1,8.4h0l0.4-0.2l0,0C7.7,8.1,7.8,8,7.9,8
			c0,0,0,0,0,0L8,8c0,0,0,0,0,0l0.1,0c0.1-0.1,0.2-0.1,0.2-0.1c0,0,0.1,0,0.1,0c0,0-0.1,0.1-0.2,0.2v0h0C8.3,8,8.4,7.9,8.5,7.9
			L8.6,8l0,0c0,0,0,0.1,0,0.1h0v0h0c0,0,0.1,0,0.1,0c0,0,0,0.1,0.1,0.1C8.2,8.7,7.9,8.9,7.8,8.9C7.7,9,7.4,9.2,6.6,9.6
			c-1.4,0.9-2.3,1.5-2.9,1.8C2.7,12,2,12.2,1.7,12.2H1.3c-0.3,0-0.6-0.2-1-0.7C0.1,11.4,0,11.2,0,10.8c0-0.2,0-0.4,0.1-0.5
			c0,0,0-0.1,0-0.1c0,0,0.1-0.1,0.1-0.3c0,0,0,0,0,0c0,0,0.2-0.4,0.5-1.3l0.6-1c0.4-0.8,1.2-1.8,2.4-3.1c0.9-0.9,1.5-1.4,1.8-1.7
			c0.1-0.1,0.1-0.2,0.2-0.2c0.1-0.2,0.2-0.3,0.5-0.3c0,0,0.2-0.2,0.4-0.5c0,0,0,0,0,0c0.5-0.3,0.9-0.6,1-0.7C7.5,1,7.7,0.8,8,0.7
			c0,0,0.1-0.1,0.3-0.2c0,0,0,0,0.1,0c0,0,0.1,0,0.3-0.1l0.1,0L8.9,0.4z M0.6,9.2C0.6,9.2,0.6,9.2,0.6,9.2L0.6,9.2L0.6,9.2z
			 M1.6,7.4c0,0,0,0.1-0.1,0.2v0h0C1.5,7.6,1.5,7.5,1.6,7.4L1.6,7.4L1.6,7.4z M2.1,6.6L1.8,7h0C2,6.9,2.1,6.8,2.1,6.6L2.1,6.6z
			 M2.7,5.8L2.7,5.8L2.7,5.8L2.7,5.8C2.8,5.8,2.7,5.8,2.7,5.8z M2.8,5.8L2.8,5.8c0,0,0.1-0.1,0.1-0.1h0C2.9,5.6,2.8,5.7,2.8,5.8z
			 M3,5.6L3,5.6L3,5.6C3,5.6,3,5.6,3,5.6L3,5.6C3,5.5,3,5.5,3,5.6z M5.8,9L5.8,9C5.9,9,5.9,9,5.8,9L5.8,9C5.8,9,5.8,9,5.8,9z
			 M5.8,9.2L5.8,9.2C5.9,9.1,6,9.1,6,9.1C5.9,9.1,5.8,9.1,5.8,9.2z M6.1,9L6.1,9L6.1,9c0.1,0,0.1,0,0.1,0L6.1,9C6.1,9,6.1,9,6.1,9z
			 M6.2,8.6L6.2,8.6L6.2,8.6C6.3,8.7,6.3,8.6,6.2,8.6L6.2,8.6L6.2,8.6C6.2,8.6,6.2,8.6,6.2,8.6z M6.6,8.7C6.6,8.7,6.6,8.7,6.6,8.7
			L6.6,8.7L6.6,8.7z M7.2,1.4L7.2,1.4C7.2,1.4,7.2,1.4,7.2,1.4L7.2,1.4L7.2,1.4z M7.9,8.1L7.9,8.1L7.9,8.1C8,8.1,8,8.1,7.9,8.1
			L7.9,8.1L7.9,8.1C8,8.1,7.9,8.1,7.9,8.1z"/>
		<path d="M16.6,0.4L16.6,0.4c0,0.1,0.1,0.1,0.1,0.1c0.1,0,0.1,0,0.2,0H17c0.3,0.3,0.5,0.4,0.6,0.5v0c-0.1,0-0.3,0.6-0.7,1.5
			c-0.7,1.6-2,4-4,7l-0.9,1.3h0.1c1.4-0.5,2.3-0.8,2.6-1c0.6-0.2,1-0.4,1.2-0.6l0.1,0L17,8.8l0.8-0.3c0,0,0,0,0,0c0,0,0,0,0.1,0h0
			v0.1h0.1c0-0.1,0.1-0.1,0.2-0.1v0h-0.1V8.4l0.2,0l0,0l0.8-0.3v0c-0.5,0.2-0.8,0.3-0.9,0.4C19.4,8.2,19.8,8,19.9,8H20
			c0,0,0,0,0,0.1c-0.3,0.1-0.5,0.2-0.5,0.2v0l0.2,0c0,0,0,0,0,0c0,0,0.1,0,0.1,0l0-0.1v0l0.1,0.1H20l0.1-0.1h0.1v0.1h0
			c0,0,0.1,0,0.1-0.1h0c0,0.1,0,0.1,0,0.1c0,0,0.1,0,0.1,0v0c0,0-0.1,0.1-0.2,0.1l0,0c-0.3,0.2-0.5,0.3-0.8,0.4v0h0
			c0.2-0.1,0.4-0.2,0.6-0.2v0c-3,1.4-5.6,2.5-7.9,3.3c-0.5,0.1-0.8,0.2-0.9,0.2c-0.4,0-0.6-0.1-0.8-0.4L10,11.6c0,0-0.1-0.1-0.2-0.2
			v0c0.4-0.5,0.7-0.9,0.8-1.1c0.1-0.1,0.3-0.4,0.6-0.8c0.1-0.1,0.2-0.3,0.2-0.3h0l0,0v0l0,0l0.1,0c0,0,0,0,0,0
			c0.2-0.4,0.6-0.8,1-1.4h0v0c0,0,0,0.1,0,0.1h0.1c0,0,0.1-0.1,0.2-0.3v0h0l-0.1,0.1v0c0.5-0.7,0.9-1.4,1.2-2.1c0,0,0.1-0.2,0.3-0.5
			c0.1,0,0.2-0.2,0.4-0.7c0.2-0.3,0.3-0.4,0.3-0.4h0l0.1,0c0.4-0.5,0.7-1.3,1.1-2.3C16.3,0.8,16.5,0.4,16.6,0.4z M12.9,7.1
			c0,0-0.1,0.1-0.2,0.3v0C12.9,7.4,12.9,7.3,12.9,7.1L12.9,7.1z M13,7.1c0.1-0.1,0.2-0.3,0.4-0.6C13.1,6.9,13,7,13,7.1z M17.8,8.9
			L17.8,8.9c0.1,0,0.1,0,0.1-0.1L17.8,8.9C17.8,8.8,17.8,8.9,17.8,8.9z M18.2,8.6C18.2,8.7,18.2,8.7,18.2,8.6l0.2,0h-0.1
			C18.3,8.6,18.2,8.6,18.2,8.6z M18.8,8.6L18.8,8.6C18.8,8.7,18.8,8.7,18.8,8.6L18.8,8.6C18.9,8.7,18.8,8.6,18.8,8.6L18.8,8.6z
			 M18.8,9.2L18.8,9.2c0.1,0,0.1-0.1,0.1-0.1h0C18.8,9.1,18.8,9.2,18.8,9.2z M18.9,9.1L18.9,9.1C19.2,9,19.3,9,19.3,9v0h-0.1
			C19.1,9,19,9.1,18.9,9.1z M19.1,8.6L19.1,8.6L19.1,8.6L19.1,8.6C19.1,8.5,19.1,8.6,19.1,8.6z M19.2,8.5L19.2,8.5L19.2,8.5
			c0.1,0,0.1,0,0.1,0l0.1,0h0.1c0,0,0-0.1-0.1-0.1h0C19.3,8.4,19.3,8.5,19.2,8.5z M19.4,8.4L19.4,8.4L19.4,8.4l0,0.1l0,0h0
			c0,0,0.1,0,0.1-0.1L19.4,8.4L19.4,8.4z M19.6,8.4L19.6,8.4L19.6,8.4C19.7,8.4,19.7,8.4,19.6,8.4L19.6,8.4z"/>
		<path d="M25.4,0.4L25.4,0.4c0.1,0.1,0.2,0.2,0.4,0.2c0,0,0.1,0.1,0.4,0.3l0.1,0c0.6,0.2,1.1,0.5,1.4,1c0.3,0.3,0.5,0.8,0.5,1.6
			l0,0.2c0,0,0,0.1,0,0.1c0,0-0.1,0.3-0.3,1l-0.3,0.9c-0.3,0.7-0.7,1.6-1.4,2.7c-0.5,0.7-1.2,1.4-2,2.2c-1.2,0.9-2.1,1.5-2.8,1.6
			c0,0.1-0.3,0.1-1,0.1c-0.8,0-1.6-0.5-2.3-1.4c-0.3-0.4-0.4-0.7-0.4-1l0-0.1V9.6c0-0.4,0.1-0.6,0.1-0.6l0-0.1
			c0.3-1.2,1-2.5,2.3-4.1c1.3-1.5,2.4-2.5,3.2-3.2C24.4,0.9,25,0.5,25.4,0.4z M18.2,9.7v0.1h0L18.2,9.7L18.2,9.7z M18.8,7.2
			L18.8,7.2c0,0.1,0,0.2-0.1,0.3h0.1c0,0.1-0.1,0.1-0.1,0.2c0.3-0.3,0.4-0.6,0.4-0.8h0l0-0.1C19.1,6.8,19,7,18.8,7.2z M19.1,10.2
			c0.1,0.7,0.3,1.1,0.6,1.1c1.4,0,2.8-0.8,4.2-2.3c0,0,0.3-0.3,0.7-0.8c0.5-0.6,1-1.6,1.7-2.8C26.8,4.2,27,3.3,27,2.6V2.2
			c0-0.3-0.1-0.5-0.3-0.5c-0.1,0-0.2,0-0.3,0c-0.4,0-0.9,0.1-1.4,0.3c-0.5,0.3-1.4,1.1-2.8,2.5C20.1,6.7,19.1,8.7,19.1,10.2z
			 M19.2,7.2L19.2,7.2C19.3,7.3,19.3,7.2,19.2,7.2L19.2,7.2C19.2,7.2,19.2,7.2,19.2,7.2z M19.2,6.6L19.2,6.6
			c0.1-0.1,0.1-0.2,0.2-0.3h0C19.4,6.3,19.4,6.4,19.2,6.6z M19.9,5.7L19.9,5.7c0,0-0.2,0.1-0.4,0.5c0,0,0,0,0,0v0c0,0,0,0.1,0.1,0.1
			l0,0v0h0c0.1,0,0.2-0.3,0.5-0.7h0L19.9,5.7z M19.8,5.8L19.8,5.8c0,0.1,0,0.1-0.1,0.1l0-0.1L19.8,5.8z M20.9,4.5
			c0,0.1,0,0.1-0.1,0.2c0,0,0,0-0.1,0C20.6,4.7,20.4,5,20,5.4v0l0.1,0h0v0l-0.1,0.1v0h0L20.9,4.5L20.9,4.5z M22,3.2
			C22,3.3,22,3.3,22,3.2c-0.1,0.2-0.1,0.2-0.2,0.2l0.1-0.1h0c0,0-0.1,0.1-0.1,0.1c0,0,0.1,0,0.1,0.1c0,0-0.1,0.1-0.2,0.2v0h0
			C22.4,3,22.9,2.6,23,2.6v0.1h0l0.1-0.1l0-0.1v0c0,0,0.5-0.5,1.4-1.3c0,0,0.2-0.1,0.6-0.4c0.2-0.1,0.3-0.2,0.3-0.2h0
			c-0.6,0.2-1.5,0.9-2.7,1.9C22.3,3,22,3.2,22,3.2L22,3.2z M22.9,2.8L22.9,2.8C22.9,2.8,23,2.8,22.9,2.8L22.9,2.8
			C22.9,2.7,22.9,2.7,22.9,2.8z"/>
		<path d="M38.3,0.3L38.3,0.3C38.7,0.5,39,0.7,39,0.8l0.3,0.5v0c0,0.1-0.2,0.1-0.5,0.1h-0.1l-0.1,0c-0.3,0-0.9,0.2-1.7,0.4
			c-1.1,0.4-2.3,0.9-3.5,1.7c-0.6,0.4-1.1,0.8-1.6,1.3c-0.4,0.4-0.6,0.7-0.6,0.8h0.1c0,0,0.1,0,0.1,0l0.1,0h0.3
			C32.6,5.6,33,5.5,33,5.5v0h0l0.1,0c0-0.1,0.4-0.2,1.1-0.2c0,0,0,0,0.1,0c0,0,0,0,0,0l0,0c0,0,0.1,0,0.1,0c0,0,0,0,0.1-0.1h0.1
			l0.1,0c0,0,0-0.1,0.1-0.1c0,0,0.1,0,0.1,0c0-0.1,0.5-0.1,1.5-0.2c0,0,0,0,0,0c0,0,0,0,0,0c0.2,0,0.5,0,0.9,0h0l0.1,0v0
			c0,0,0,0,0,0c1.1,0,1.8,0.3,2.1,1c0,0,0.2,0.2,0.4,0.6c0,0,0,0,0,0l0,0v0c0,0.5-1.1,1.4-3.2,2.6c-2.3,1.2-4.5,2.3-6.7,3.2l-0.1,0
			c0-0.1-0.1-0.1-0.2-0.2l0,0v0c0,0,0,0,0,0c0,0-0.1-0.2-0.2-0.3c0-0.1,0-0.1-0.1-0.2v-0.1c-0.1,0-0.1,0-0.1,0c0.1,0,0.1,0,0.1-0.1
			h0l0.1,0l0.2-0.1c0,0,0.1,0,0.1,0l0-0.1c0,0,0,0,0,0l0.1,0c0.3-0.1,0.4-0.2,0.4-0.3h0l0,0c0,0,0.2-0.2,0.7-0.4h0c0,0,0,0,0,0
			l0.5-0.2h0v0l0,0c0.1,0,0.1,0,0.2,0h0.1v-0.1h0l0,0v0c0,0,0.1-0.1,0.3-0.1c0,0,0.1-0.1,0.2-0.1c0-0.1,0.1-0.1,0.2-0.2h0.2
			c0,0,0.2-0.1,0.5-0.2l0.7-0.4C34,9.1,34,9,34,9l0,0h0v0h-0.1v0c0,0,0.1-0.1,0.4-0.2v0h-0.1c0,0,0,0.1-0.1,0.1l0,0
			c0.4-0.2,0.6-0.4,0.7-0.4v0c0,0,0,0-0.1,0v0h0c0.1,0,0.2-0.1,0.2-0.1h-0.1v0c0.1-0.1,0.3-0.2,0.6-0.4c0,0,0.1-0.1,0.2-0.2l0,0
			c0,0,0.1,0,0.1,0v0h0v0h0c0.1,0,0.3-0.1,0.6-0.4h0c0,0-0.1,0.1-0.2,0.1c0,0-0.1,0.1-0.3,0.2l0,0c0.3-0.2,0.6-0.4,0.7-0.4
			c0-0.1,0.1-0.1,0.3-0.2C37.3,7,37.3,7,37.4,7c-0.1,0.1-0.2,0.2-0.4,0.3v0H37c0.3-0.1,0.6-0.3,0.8-0.6h0C37.6,6.9,37.5,7,37.4,7
			c0.3-0.2,0.6-0.5,1-0.9v0c-0.1,0-0.3,0-0.8,0c0,0-0.2,0-0.4,0c0,0,0,0,0,0c-0.8,0.1-2.1,0.3-3.8,0.6c-0.1,0-0.3,0-0.5,0v0
			c-0.1,0-0.2,0-0.5,0h-0.6c-0.6,0-1.1-0.3-1.3-0.8c0-0.1-0.1-0.3-0.2-0.4c0-0.2-0.1-0.3-0.1-0.3V5.2c0.1-0.1,0.2-0.2,0.2-0.4
			c0.2-0.3,0.4-0.5,0.6-0.6c0.8-0.8,1.3-1.2,1.6-1.3l0.7-0.5c0-0.1,0-0.1,0.1-0.1l0,0v0h-0.1v0h0c0.1-0.1,0.4-0.3,0.9-0.5
			c0,0,0.1-0.1,0.2-0.1V1.7l-0.1,0l0,0c0.1-0.1,0.2-0.2,0.3-0.3l0.8-0.3h0c0,0,0,0,0,0l0.1,0h0v0l0,0.1c0.1,0,0.1,0,0.2,0
			c0,0,0.1-0.1,0.3-0.2v0C36,1.1,36,1,36,1v0c0-0.1,0.4-0.2,1.1-0.4C37.7,0.4,38.1,0.3,38.3,0.3z M29.9,10.9L29.9,10.9L29.9,10.9
			C29.9,11,29.9,11,29.9,10.9L29.9,10.9C29.8,11,29.8,11,29.9,10.9z M30.2,11.1L30.2,11.1c0.1,0,0.2,0,0.2-0.1L30.2,11.1
			C30.2,11,30.2,11,30.2,11.1z M30.4,4.7L30.4,4.7L30.4,4.7C30.5,4.7,30.5,4.7,30.4,4.7L30.4,4.7z M30.6,4.5L30.6,4.5L30.6,4.5
			C30.6,4.5,30.6,4.6,30.6,4.5L30.6,4.5L30.6,4.5z M32.3,9.7L32.3,9.7c-0.1,0.1-0.4,0.3-0.8,0.5l0,0L32.3,9.7z M31.8,3.7L31.8,3.7
			L31.8,3.7L31.8,3.7C31.8,3.6,31.8,3.7,31.8,3.7z M31.9,3.6L31.9,3.6L31.9,3.6L31.9,3.6C31.9,3.6,31.9,3.6,31.9,3.6z M32.6,10.1
			L32.6,10.1C32.7,10.1,32.7,10,32.6,10.1L32.6,10.1C32.7,10,32.6,10,32.6,10.1z M32.7,3L32.7,3C32.8,3,32.8,3,32.7,3L32.7,3
			C32.8,2.9,32.7,3,32.7,3z M33.2,5.4L33.2,5.4L33.2,5.4L33.2,5.4C33.2,5.4,33.2,5.4,33.2,5.4z M34.2,8.8L34.2,8.8
			c0,0.1,0,0.1-0.1,0.1l0-0.1C34.1,8.8,34.1,8.8,34.2,8.8z M34.4,5.2L34.4,5.2L34.4,5.2C34.5,5.2,34.5,5.2,34.4,5.2L34.4,5.2
			L34.4,5.2z M35.3,8.3L35.3,8.3C35.4,8.3,35.4,8.3,35.3,8.3L35.3,8.3C35.3,8.2,35.3,8.3,35.3,8.3z M35.5,8.1L35.5,8.1L35.5,8.1
			c0.1,0,0.1,0,0.1,0v0L35.5,8.1C35.5,8.1,35.5,8.1,35.5,8.1z M35.8,8L35.8,8c0.1,0,0.1,0,0.1,0L35.8,8C35.8,7.9,35.8,7.9,35.8,8z
			 M35.8,1L35.8,1L35.8,1L35.8,1L35.8,1z M36.7,7.5L36.7,7.5C36.8,7.5,36.8,7.5,36.7,7.5L36.7,7.5C36.7,7.4,36.7,7.5,36.7,7.5z"/>
		<path d="M54.2,0.3c0,0,0,0.1,0.1,0.1v0.1c-0.1,0.1-0.3,0.2-0.7,0.3l0,0C53.3,1,53,1.1,52.7,1.2c0,0,0,0,0,0c-0.1,0-0.4,0.1-1,0.3
			c0,0-0.3,0.1-0.6,0.3C50.8,2,50.6,2,50.5,2.1c-0.5,0.2-1.1,0.5-1.7,0.7l0,0v0c0,0.1-0.1,0.1-0.2,0.1h0l0,0c0,0,0,0,0,0.1l0,0h-0.1
			l0,0v0c-0.1,0-0.4,0.1-0.9,0.3l-1.2,0.4c-0.2,0.6-0.5,1.5-0.8,2.5h0c0.6-0.2,1-0.4,1.3-0.5c0.4-0.2,1-0.5,1.7-0.8c0,0,0,0,0,0
			c0,0,0.3-0.2,1-0.4c0.4-0.2,0.8-0.3,1-0.3h0l0.2,0l0,0c0.2-0.1,0.3-0.2,0.4-0.2c0,0.1-0.1,0.1-0.2,0.1v0H51
			c0.2-0.1,0.3-0.1,0.4-0.1l0,0c0.1,0,0.2,0,0.2-0.1h0v0.1h0l0.1-0.1h0.1v0.1c0,0-0.1,0-0.1,0.1l0,0c0,0.1-0.3,0.2-0.9,0.4v0H51
			c0.2-0.1,0.4-0.1,0.4-0.2l0.1,0c0,0,0-0.1,0.1-0.1l0.1,0.1c0-0.1,0-0.1,0.1-0.1h0c0,0,0,0.1,0.1,0.1c0,0-0.2,0.1-0.6,0.3
			c-0.4,0.2-0.6,0.2-0.7,0.3v0h0.1c0,0,0,0,0.1,0l0.1,0c0.1,0,0.2-0.1,0.4-0.1l0,0.1v0l-0.3,0.1c0,0,0,0,0,0c0,0,0,0,0,0l0,0.1v0
			c0,0-0.2,0.1-0.6,0.3c-0.1,0-0.2,0.1-0.5,0.3v0h0l0.1,0c-0.1,0.1-0.2,0.1-0.3,0.1l0,0v0l-0.1,0c0,0-0.1,0-0.1,0l0,0.1v0l-0.1-0.1
			h0v0.1h-0.1V6.2c0,0,0.1,0,0.3-0.1v0h0c-0.4,0.1-0.9,0.3-1.5,0.6v0h0c0,0,0.1,0,0.2-0.1v0c0,0-0.1,0.1-0.4,0.2
			c0,0.1-0.5,0.3-1.4,0.7c0,0,0,0,0,0c-0.1,0.1-0.4,0.2-0.8,0.4c-0.7,0.3-1,0.4-1,0.5c-0.5,1-0.7,1.5-0.7,1.5h0l2.8-1.1c0,0,0,0,0,0
			c0-0.1,0.2-0.2,0.6-0.3C48,8.2,48.5,8,48.7,8c0,0,0.1,0,0.1,0c0,0,0,0,0.1,0l0,0c0.2-0.1,0.4-0.1,0.6-0.2l0,0
			c-0.1,0-0.1,0.1-0.1,0.1h0l0.1,0l0.1,0c0.1,0,0.1,0,0.2,0c0,0.1,0,0.1-0.1,0.1l0,0h0c0,0,0,0,0,0c0,0,0,0.1-0.1,0.1l0.1,0.1
			c-0.2,0.1-0.4,0.2-0.7,0.4c-0.5,0.2-0.7,0.3-0.7,0.3h0l0.8-0.3h0.1l0,0.1c0,0-0.1,0.1-0.2,0.1l0,0.1c-0.1,0.1-0.5,0.2-1.1,0.5
			c0,0,0,0.1,0.1,0.1C48.4,9.1,48.7,9,48.7,9l0,0l-1.4,0.7l-1.1,0.5c-0.1,0-0.6,0.1-1.2,0.4c0,0-0.2,0.1-0.4,0.3v0
			c0.1,0,0.1,0,0.2-0.1h0v0c-0.1,0-0.1,0.1-0.1,0.1c0,0,0,0,0,0c-0.1,0-0.1,0-0.2,0l0,0v0l-0.1-0.1h0c0,0.1-0.2,0.2-0.7,0.3
			c-0.6,0.2-0.9,0.4-0.9,0.4c-0.1,0.2-0.2,0.3-0.3,0.4l-0.1,0c0,0,0,0,0,0h-0.1c0-0.1-0.1-0.1-0.3-0.2c0,0,0-0.1-0.1-0.1
			c0-0.1,0-0.1-0.1-0.1l-0.2,0.1h0v0c0.1-0.2,0.2-0.3,0.2-0.4c0-0.1-0.1-0.1-0.2-0.1l0-0.1l0,0c-0.1-0.1-0.2-0.2-0.2-0.3v0
			c0-0.1,0.3-0.2,0.7-0.4c0-0.1,0.1-0.3,0.2-0.4h0l0,0c0.3-0.4,0.5-0.8,0.6-1.2c-0.1,0-0.1,0-0.2,0.1c-0.2-0.1-0.4-0.2-0.6-0.4
			c-0.3-0.3-0.4-0.5-0.4-0.5l0-0.1c0.2-0.2,1-0.5,2.1-0.8c0.1,0,0.3-0.4,0.5-1.3c0.1-0.2,0.2-0.4,0.2-0.6l0.1,0l0,0
			c0,0,0.1-0.2,0.2-0.7c-0.1,0-0.2,0.1-0.2,0.1h-0.1C44.3,4.3,44.1,4.1,44,4v0c0-0.1,0.4-0.2,1.3-0.5l0.1-0.2V3.2l0-0.1
			c0,0,0-0.1,0-0.1c0,0,0,0,0,0C45.5,3,45.5,3,45.5,3c0.1,0,0.3,0.1,0.5,0.2h0C47.3,2.8,49.3,2,52,0.9C53.1,0.5,53.9,0.3,54.2,0.3z
			 M48.1,8.8C48.1,8.9,48.1,8.9,48.1,8.8L48.1,8.8L48.1,8.8z M49.4,8.4L49.4,8.4C49.4,8.4,49.4,8.4,49.4,8.4l-0.2,0.1
			C49.3,8.4,49.3,8.4,49.4,8.4z M50.1,5.9L50.1,5.9C50.1,6,50,6,50.1,5.9L49.9,6v0C50,6,50,5.9,50.1,5.9z M50.4,4.5
			C50.4,4.6,50.5,4.6,50.4,4.5L50.4,4.5L50.4,4.5z M50.6,5L50.6,5L50.6,5h0.2v0h0C50.7,4.9,50.7,5,50.6,5z M51.3,5.1L51.3,5.1
			C51.4,5.2,51.4,5.2,51.3,5.1L51.3,5.1C51.3,5.1,51.3,5.1,51.3,5.1z"/>
	</g>
</g>
</svg>
