<?xml version="1.0" encoding="utf-8"?>
<!-- Generator: Adobe Illustrator 22.0.1, SVG Export Plug-In . SVG Version: 6.00 Build 0)  -->
<svg version="1.1" id="Layer_1" xmlns="http://www.w3.org/2000/svg" xmlns:xlink="http://www.w3.org/1999/xlink" x="0px" y="0px"
	 viewBox="0 0 39.7 39.7" style="enable-background:new 0 0 39.7 39.7;" xml:space="preserve">
<style type="text/css">
	.st0{fill:#FD8100;}
</style>
<path class="st0" d="M0,19.8c0,11,8.9,19.8,19.8,19.8c11,0,19.8-8.9,19.8-19.8C39.7,8.9,30.8,0,19.8,0C8.9,0,0,8.9,0,19.8z
	 M23.7,19.8l-10.3-5.9c-0.9-0.5-1.2-1.7-0.7-2.6c0.5-0.9,1.7-1.2,2.6-0.7l13.1,7.6c0.6,0.3,1,1,1,1.6c0,0.7-0.4,1.3-1,1.6l-13.1,7.6
	c-0.3,0.2-0.6,0.3-0.9,0.3c-0.7,0-1.3-0.3-1.7-1c-0.5-0.9-0.2-2.1,0.7-2.6L23.7,19.8z"/>
</svg>
