<?xml version="1.0" encoding="utf-8"?>
<!-- Generator: Adobe Illustrator 22.0.1, SVG Export Plug-In . SVG Version: 6.00 Build 0)  -->
<svg version="1.1" id="Layer_1" xmlns="http://www.w3.org/2000/svg" xmlns:xlink="http://www.w3.org/1999/xlink" x="0px" y="0px"
	 viewBox="0 0 23.8 22.5" style="enable-background:new 0 0 23.8 22.5;" xml:space="preserve">
<style type="text/css">
	.st0{fill:#515151;}
	.st1{fill:#757575;}
</style>
<g>
	<path class="st0" d="M8.1,0C3.6,0,0,3.3,0,7.3c0,1.8,0.7,3.5,2.1,4.8l-0.9,2.3c-0.1,0.1,0,0.3,0.1,0.4c0.1,0.1,0.3,0.1,0.4,0.1
		l2.4-1.3c0.1,0.1,0.3,0.1,0.5,0.2C4.8,13.9,4.9,14,5.1,14c0.8,0.3,1.6,0.5,2.5,0.5c0,0,0,0,0.1,0c0,0,0,0,0,0h0c0.1,0,0.3,0,0.4,0
		c0.2,0,0.4,0,0.6,0c4-0.3,7.2-3.1,7.5-6.7c0-0.2,0-0.3,0-0.5C16.2,3.3,12.6,0,8.1,0z M10.3,5.4c0.9,0,1.6,0.7,1.6,1.6
		c0,0.9-0.7,1.6-1.6,1.6C9.4,8.6,8.7,7.9,8.7,7C8.7,6.1,9.4,5.4,10.3,5.4z M7.3,7.8C7,8.3,6.5,8.6,5.9,8.6c-0.1,0-0.2,0-0.3,0
		C5,8.4,4.5,7.9,4.4,7.2c0-0.1,0-0.2,0-0.2c0-0.7,0.4-1.3,1-1.5C6,5.3,6.7,5.5,7.2,6S7.7,7.2,7.3,7.8z"/>
	<path class="st0" d="M1.2,7.3c0-3.9,3.3-7,7.5-7.3C8.5,0,8.3,0,8.1,0C3.6,0,0,3.3,0,7.3c0,1.8,0.7,3.5,2.1,4.8l-0.9,2.3
		c-0.1,0.1,0,0.3,0.1,0.4c0.1,0.1,0.3,0.1,0.5,0.1l2.4-1.3c1.1,0.5,2.3,0.9,3.6,0.9C4,13.9,1.2,10.9,1.2,7.3z"/>
	<path class="st1" d="M23.8,14.5c0-3.7-3.4-6.7-7.5-6.7h0c-4.1,0-7.5,3-7.5,6.7c0,0,0,0,0,0c0,3.7,3.4,6.7,7.5,6.7
		c0.8,0,1.7-0.1,2.5-0.4l2.5,1.5c0.3,0.2,0.7-0.1,0.6-0.4l-0.5-2.4C22.9,18.3,23.8,16.5,23.8,14.5z M13.9,16.1
		c-0.9,0-1.6-0.7-1.6-1.6c0-0.9,0.7-1.6,1.6-1.6c0.9,0,1.6,0.7,1.6,1.6C15.5,15.4,14.7,16.1,13.9,16.1z M18.6,16.1
		c-0.9,0-1.6-0.7-1.6-1.6c0-0.9,0.7-1.6,1.6-1.6c0.9,0,1.6,0.7,1.6,1.6C20.2,15.4,19.5,16.1,18.6,16.1z"/>
</g>
</svg>
