<?xml version="1.0" encoding="utf-8"?>
<!-- Generator: Adobe Illustrator 22.0.1, SVG Export Plug-In . SVG Version: 6.00 Build 0)  -->
<svg version="1.1" id="Layer_1" xmlns="http://www.w3.org/2000/svg" xmlns:xlink="http://www.w3.org/1999/xlink" x="0px" y="0px"
	 viewBox="0 0 33.4 33.4" style="enable-background:new 0 0 33.4 33.4;" xml:space="preserve">
<style type="text/css">
	.st0{fill:#C8282E;}
	.st1{fill:#EDEDED;}
</style>
<g>
	<circle class="st0" cx="16.7" cy="16.7" r="16.7"/>
	<g>
		<g>
			<g>
				<path class="st1" d="M26.7,15.5c-0.3,0-3.2,0-4.5,0c2.6-2.7,4.7-5,6.2-6.8c-0.2-0.1-0.4-0.3-0.6-0.4c-2.6,2.9-6.5,7.2-6.5,7.2
					l-1,0l6.8-7.6c-0.2-0.1-0.3-0.2-0.5-0.3l-7.1,7.9l-0.8,0c0,0,4.8-5.1,7.7-8.1c-0.2-0.1-0.4-0.2-0.6-0.3c-3.1,3.3-8,8.4-8,8.4
					l-1,0L25,6.9c0,0,0,0-0.1,0c-0.2-0.1-0.4-0.1-0.5-0.2L16,15.6L5.3,15.7c-0.2,0-0.4,0.1-0.4,0.4C5,18.6,5,20.5,6,22
					c0.8,1.2,2.1,2.2,4.7,3.3c-0.3,0.3-0.4,0.9-0.4,1.5c0,0.2,0.2,0.4,0.4,0.4l10.2-0.1c0.2,0,0.4-0.2,0.4-0.4c0-0.5-0.1-1-0.4-1.3
					c2.7-1.2,4.3-2.4,5.2-3.9c0.9-1.6,1-3.4,1-5.5C27.1,15.7,26.9,15.5,26.7,15.5z M25.4,21c-0.9,1.4-2.5,2.6-5.5,3.9l-1.6,0
					c-0.2,0-0.4,0.2-0.4,0.4c0,0.2,0.2,0.4,0.4,0.4l1.7,0c0.1,0,0.3,0.2,0.3,0.6l-9.3,0.1c0.1-0.4,0.3-0.6,0.3-0.6l4,0
					c0.2,0,0.4-0.2,0.4-0.4c0-0.2-0.2-0.4-0.4-0.4l-3.6,0c-3-1.2-4.4-2.1-5.2-3.3C6,20.4,5.8,19,5.8,16.5c3.7,0,17.1-0.1,19.6-0.1
					c0,0,0,0,0.1,0l0.8,0C26.3,18.1,26.2,19.7,25.4,21z"/>
			</g>
		</g>
		<polygon class="st1" points="24.4,6.7 26.1,7.7 26.5,7.3 24.8,6.2 		"/>
		<polygon class="st1" points="26.6,7.5 28.4,8.7 27.9,9.3 26.2,8.1 		"/>
	</g>
</g>
</svg>
