<?xml version="1.0" encoding="utf-8"?>
<!-- Generator: Adobe Illustrator 22.0.1, SVG Export Plug-In . SVG Version: 6.00 Build 0)  -->
<svg version="1.1" id="Layer_1" xmlns="http://www.w3.org/2000/svg" xmlns:xlink="http://www.w3.org/1999/xlink" x="0px" y="0px"
	 viewBox="0 0 22.5 18.7" style="enable-background:new 0 0 22.5 18.7;" xml:space="preserve">
<style type="text/css">
	.st0{clip-path:url(#SVGID_2_);fill:#515151;}
	.st1{fill:#515151;}
</style>
<g>
	<g>
		<defs>
			<rect id="SVGID_1_" width="22.5" height="18.7"/>
		</defs>
		<clipPath id="SVGID_2_">
			<use xlink:href="#SVGID_1_"  style="overflow:visible;"/>
		</clipPath>
		<path class="st0" d="M16.7,9c-0.3-0.1-0.5-0.2-0.4-0.6c0.4-0.9,0.4-1.7,0-2.2c-0.7-1-2.7-1-5,0c0,0-0.7,0.3-0.5-0.3
			c0.3-1.1,0.3-2.1-0.2-2.6c-1.2-1.2-4.5,0-7.3,2.9C1.2,8.3,0,10.5,0,12.4c0,3.7,4.7,5.9,9.3,5.9c6.1,0,10.1-3.5,10.1-6.3
			C19.4,10.3,18,9.4,16.7,9L16.7,9z M9.4,17c-3.7,0.4-6.9-1.3-7.1-3.7c-0.2-2.4,2.6-4.7,6.2-5c3.7-0.4,6.9,1.3,7.1,3.7
			C15.8,14.4,13.1,16.6,9.4,17L9.4,17z M9.4,17"/>
		<path class="st0" d="M20.8,2.2c-1.5-1.6-3.6-2.2-5.6-1.8c-0.5,0.1-0.8,0.6-0.7,1c0.1,0.5,0.6,0.8,1,0.7c1.4-0.3,3,0.1,4,1.3
			c1,1.2,1.3,2.7,0.9,4.1c-0.1,0.4,0.1,0.9,0.6,1.1C21.4,8.7,21.9,8.5,22,8c0,0,0,0,0,0C22.6,6.1,22.2,3.9,20.8,2.2L20.8,2.2z
			 M20.8,2.2"/>
	</g>
	<path class="st1" d="M15.8,3.4c-0.4,0.1-0.6,0.5-0.6,0.9c0.1,0.4,0.5,0.6,0.9,0.6v0c0.5-0.1,1,0,1.3,0.4c0.3,0.4,0.4,0.9,0.3,1.4
		c-0.1,0.4,0.1,0.8,0.5,0.9c0.4,0.1,0.8-0.1,0.9-0.5c0.3-0.9,0.1-2-0.6-2.8C17.8,3.5,16.8,3.2,15.8,3.4L15.8,3.4z M15.8,3.4"/>
	<path class="st1" d="M9.7,10.1C8,9.7,6,10.5,5.2,12.1c-0.8,1.6,0,3.3,1.7,3.9c1.8,0.6,4-0.3,4.8-2C12.5,12.3,11.5,10.6,9.7,10.1
		L9.7,10.1z M8.4,14.1C8,14.7,7.3,15,6.7,14.7c-0.6-0.3-0.7-0.9-0.4-1.5c0.4-0.6,1.1-0.8,1.7-0.6C8.6,12.9,8.7,13.6,8.4,14.1
		L8.4,14.1z M9.6,12.6c-0.1,0.2-0.4,0.3-0.6,0.2c-0.2-0.1-0.3-0.3-0.2-0.6c0.1-0.2,0.4-0.3,0.6-0.2C9.6,12.2,9.7,12.4,9.6,12.6
		L9.6,12.6z M9.6,12.6"/>
</g>
</svg>
