<?xml version="1.0" encoding="utf-8"?>
<!-- Generator: Adobe Illustrator 22.0.1, SVG Export Plug-In . SVG Version: 6.00 Build 0)  -->
<svg version="1.1" id="Layer_1" xmlns="http://www.w3.org/2000/svg" xmlns:xlink="http://www.w3.org/1999/xlink" x="0px" y="0px"
	 viewBox="0 0 18 18" style="enable-background:new 0 0 18 18;" xml:space="preserve">
<style type="text/css">
	.st0{fill:#515151;}
</style>
<g>
	<g>
		<path class="st0" d="M9,0c2.4,0,4.7,0,7.1,0C17.2,0,18,0.8,18,1.9c0,0.9,0,1.9,0,2.8c0,3.7,0,7.5,0,11.2c0,0.5-0.1,1-0.4,1.4
			c-0.4,0.5-0.9,0.7-1.5,0.7c-4.7,0-9.5,0-14.2,0C0.8,18,0,17.2,0,16.1c0-4.7,0-9.4,0-14.2C0,0.7,0.7,0,1.9,0C4.3,0,6.6,0,9,0z
			 M13.2,7.2c0.6,2.4,0.2,4.1-1.4,5.3c-1.5,1.2-3.2,1.4-4.9,0.5C4.6,11.7,4,9.7,4.8,7.2c-0.9,0-1.8,0-2.6,0c-0.2,0-0.3,0.1-0.3,0.3
			c0,2.5,0,5.1,0,7.6c0,0.6,0.4,1,1,1c4.1,0,8.2,0,12.3,0c0.6,0,1-0.4,1-1c0-0.7,0-1.4,0-2.1c0-1.8,0-3.7,0-5.5
			c0-0.2-0.1-0.3-0.3-0.3c-0.3,0-0.6,0-0.8,0C14.4,7.2,13.8,7.2,13.2,7.2z M11.6,9c0-1.5-1.1-2.7-2.6-2.7C7.5,6.3,6.4,7.5,6.3,9
			c0,1.5,1.2,2.6,2.6,2.6C10.4,11.6,11.6,10.5,11.6,9z M14.8,4.5c0.4,0,0.7,0,1.1,0c0.2,0,0.2,0,0.2-0.2c0-0.7,0-1.5,0-2.2
			c0-0.1,0-0.2-0.2-0.2c-0.7,0-1.5,0-2.2,0c-0.2,0-0.2,0.1-0.2,0.2c0,0.7,0,1.5,0,2.2c0,0.2,0.1,0.2,0.2,0.2
			C14.1,4.5,14.4,4.5,14.8,4.5z"/>
	</g>
</g>
</svg>
