<?xml version="1.0" encoding="utf-8"?>
<!-- Generator: Adobe Illustrator 22.0.1, SVG Export Plug-In . SVG Version: 6.00 Build 0)  -->
<svg version="1.1" id="Layer_1" xmlns="http://www.w3.org/2000/svg" xmlns:xlink="http://www.w3.org/1999/xlink" x="0px" y="0px"
	 viewBox="0 0 8.7 18" style="enable-background:new 0 0 8.7 18;" xml:space="preserve">
<style type="text/css">
	.st0{fill:#515151;}
</style>
<path class="st0" d="M8.4,3.4c-0.7,0-1.2-0.1-1.7-0.1c-0.7,0-1,0.3-1,0.9c0,0.5,0,1.1,0,1.8c0.9,0,1.7,0,2.6,0C8.1,7,8.1,8,7.9,8.8
	c0,0.2-0.4,0.4-0.6,0.4C5.6,9.3,5.6,9.3,5.6,11c0,2.1,0,4.1,0,6.2c0,0.6-0.2,0.9-0.8,0.8c-0.9-0.1-1.9,0-2.9,0c0-2.9,0-5.8,0-8.7
	c-0.2,0-0.3-0.1-0.4-0.1C0,9.2,0,9.2,0,7.7c0-0.1,0-0.3,0-0.4C0,6.1,0,6.1,1.3,6c0.5,0,0.7-0.2,0.6-0.7c0-0.7,0-1.4,0-2.1
	c0-1.9,1.6-3.4,3.5-3.3c1.1,0.1,2.1,0.2,3.3,0.3C8.6,1.3,8.5,2.3,8.4,3.4z"/>
</svg>
