<?xml version="1.0" encoding="utf-8"?>
<!-- Generator: Adobe Illustrator 22.0.1, SVG Export Plug-In . SVG Version: 6.00 Build 0)  -->
<svg version="1.1" id="Layer_1" xmlns="http://www.w3.org/2000/svg" xmlns:xlink="http://www.w3.org/1999/xlink" x="0px" y="0px"
	 viewBox="0 0 198.5 52.4" style="enable-background:new 0 0 198.5 52.4;" xml:space="preserve">
<style type="text/css">
	.st0{fill:#EB8B23;}
	.st1{fill:#D81F27;}
	.st2{fill:#221F1F;}
</style>
<g>
	<g>
		<g>
			<g>
				<path class="st0" d="M36.1,16.8L36,17.5l4.4,0.7l0.1-0.8c0.2-2.4,2.2-4.2,4.5-4.2c2.5,0,4.5,2,4.5,4.5v6.7c0,0-0.1,3.4-4.7,3.4
					c-4,0-4.4-2-4.4-2.8c0-0.6,1.3-2.2,5.1-2.2h0.8l-0.3-4.2l-0.7,0c-0.2,0-4.9-0.1-7.5,2.4c-1.1,1.1-1.7,2.5-1.7,4.2
					c0,1.9,0.6,3.4,1.9,4.6c2,1.9,5.2,2.4,7.5,2.3c3.1-0.1,8.5-2,8.5-8.1l0-6.2c0-4.9-4-9-9-9C40.5,8.9,36.6,12.3,36.1,16.8"/>
				<path class="st0" d="M58.9,17.9v14.3h4.5V17.7c0-2.5,2-4.5,4.5-4.5c2.5,0,4.5,2,4.5,4.5v14.5h4.4V17.9c0-4.9-4-9-9-9
					C62.9,8.9,58.9,13,58.9,17.9"/>
				<path class="st0" d="M111.5,8.9c-4.9,0-9,4-9,9v5.7c0,4.9,4,9,9,9c5,0,9-4,9-9v-5.7C120.5,13,116.4,8.9,111.5,8.9 M116,23.8
					c0,2.5-2,4.5-4.5,4.5c-2.5,0-4.5-2-4.5-4.5v-6.1c0-2.5,2-4.5,4.5-4.5c2.5,0,4.5,2,4.5,4.5V23.8z"/>
				<path class="st0" d="M16.1,11.9c-1.7-1.9-4-3-6.6-3c-5,0-9,4-9,9v14.3H5V17.7c0-2.5,2-4.5,4.5-4.5c2.5,0,4.5,2,4.5,4.5v14.5h4.2
					V17.7c0-2.5,2-4.5,4.5-4.5c2.5,0,4.5,2,4.5,4.5v14.5h4.5V17.9c0-4.9-4-9-9-9C20.2,8.9,17.8,10,16.1,11.9"/>
				<path class="st0" d="M80.6,17.1L80.6,17.1l0,6.4c0.1,5.4,3.6,8.8,9,8.7h1.1v-4.4l-1.1,0c-1.4,0-4.5-0.4-4.5-4.4l0-5.8
					c0,0,0.2-4.2,4.6-4.2c4,0,4.2,3.4,4.2,3.5v26.5c0,2.7-1.5,4.3-4.1,4.4l-0.7,0v4.4l0.7,0c5.1-0.1,8.4-3.5,8.5-8.7V16.5
					c-0.1-3.7-3.7-7.6-8.8-7.6C84.8,8.9,81,12.5,80.6,17.1"/>
			</g>
		</g>
		<g>
			<g>
				<path class="st1" d="M134.1,26.7c0.9,0,2-0.2,3.1-0.5c1.1-0.3,2.2-0.8,3.2-1.5l0.4,0.2v4.8c-0.6,0.3-1.1,0.5-1.6,0.8
					c-0.5,0.2-1,0.4-1.5,0.6c-0.5,0.2-1.1,0.3-1.7,0.4c-0.6,0.1-1.2,0.1-1.9,0.1c-1.2,0-2.2-0.2-3.3-0.7c-1-0.4-2-1-2.8-1.8
					c-0.8-0.7-1.4-1.6-1.9-2.6c-0.5-1-0.7-2.1-0.7-3.2v-6.5c0-1.2,0.2-2.2,0.7-3.2c0.5-1,1.1-1.9,1.9-2.6c0.8-0.7,1.7-1.3,2.8-1.8
					c1-0.4,2.1-0.7,3.3-0.7c0.7,0,1.3,0,1.9,0.1c0.6,0.1,1.1,0.2,1.7,0.4c0.5,0.2,1,0.4,1.5,0.6c0.5,0.2,1,0.5,1.6,0.8v4.8l-0.4,0.2
					c-1.1-0.6-2.1-1.1-3.2-1.5c-1.1-0.3-2.1-0.5-3.1-0.5c-0.5,0-0.9,0.1-1.3,0.3c-0.4,0.2-0.8,0.4-1.2,0.7c-0.3,0.3-0.6,0.6-0.8,1
					c-0.2,0.4-0.3,0.8-0.3,1.3v6.5c0,0.5,0.1,0.9,0.3,1.3c0.2,0.4,0.5,0.8,0.8,1c0.3,0.3,0.7,0.5,1.2,0.7
					C133.2,26.6,133.6,26.7,134.1,26.7z"/>
				<path class="st1" d="M145.2,0.6l0.4-0.3h4.3l0.4,0.3v9.7c0.3-0.3,0.6-0.5,1-0.7c0.4-0.2,0.7-0.4,1.1-0.5
					c0.4-0.1,0.8-0.3,1.1-0.3c0.4-0.1,0.7-0.1,1-0.1c1.2,0,2.3,0.2,3.3,0.7c1,0.4,2,1,2.8,1.8c0.8,0.7,1.4,1.6,1.9,2.6
					c0.5,1,0.7,2.1,0.7,3.2v14.4l-0.4,0.3h-4.3l-0.4-0.3V16.9c0-0.5-0.1-0.9-0.3-1.3c-0.2-0.4-0.5-0.8-0.8-1
					c-0.3-0.3-0.7-0.5-1.2-0.7c-0.4-0.2-0.9-0.3-1.4-0.3c-0.5,0-0.9,0.1-1.4,0.2c-0.5,0.2-1,0.4-1.4,0.7c-0.4,0.3-0.8,0.6-1,1
					c-0.3,0.4-0.4,0.8-0.4,1.2v14.6l-0.4,0.3h-4.3l-0.4-0.3V0.6z"/>
				<path class="st1" d="M173.7,26.9c0.1,0,0.3,0,0.6-0.1c0.3,0,0.5-0.1,0.7-0.2h0.5V31c-0.3,0.1-0.7,0.3-1.1,0.4
					c-0.4,0.2-1,0.2-1.8,0.2c-0.6,0-1.1-0.1-1.6-0.3c-0.5-0.2-0.9-0.5-1.3-0.9c-0.4-0.4-0.6-0.8-0.8-1.4c-0.2-0.5-0.3-1.2-0.3-1.9
					V13.4c-0.1,0-0.3,0-0.5,0c-0.2,0-0.4,0.1-0.6,0.1H167V9.2c0.3-0.1,0.7-0.3,1.2-0.4c0.5-0.1,1-0.2,1.5-0.2c0.6,0,1.1,0.1,1.6,0.3
					c0.5,0.2,0.9,0.5,1.3,0.9c0.4,0.4,0.6,0.8,0.8,1.4c0.2,0.5,0.3,1.2,0.3,1.9V26.9z M168,3.3c0-0.4,0.1-0.8,0.2-1.2
					c0.2-0.4,0.4-0.7,0.7-1c0.3-0.3,0.6-0.5,1-0.7c0.4-0.2,0.8-0.2,1.2-0.2c0.4,0,0.8,0.1,1.2,0.2c0.4,0.2,0.7,0.4,1,0.7
					c0.3,0.3,0.5,0.6,0.7,1c0.2,0.4,0.2,0.8,0.2,1.2c0,0.4-0.1,0.8-0.2,1.2c-0.2,0.4-0.4,0.7-0.7,1c-0.3,0.3-0.6,0.5-1,0.7
					c-0.4,0.2-0.8,0.2-1.2,0.2c-0.4,0-0.8-0.1-1.2-0.2c-0.4-0.2-0.7-0.4-1-0.7c-0.3-0.3-0.5-0.6-0.7-1C168.1,4.1,168,3.7,168,3.3z"
					/>
				<path class="st1" d="M184.9,26.9c0.1,0,0.3,0,0.6-0.1c0.3,0,0.5-0.1,0.7-0.2h0.5V31c-0.3,0.1-0.7,0.3-1.1,0.4
					c-0.4,0.2-1,0.2-1.8,0.2c-0.6,0-1.1-0.1-1.6-0.3c-0.5-0.2-0.9-0.5-1.3-0.9c-0.4-0.4-0.6-0.8-0.8-1.4c-0.2-0.5-0.3-1.2-0.3-1.9
					V5.1c-0.1,0-0.3,0-0.5,0c-0.2,0-0.4,0.1-0.6,0.1h-0.5V0.8c0.3-0.1,0.7-0.3,1.2-0.4c0.5-0.1,1-0.2,1.5-0.2c0.6,0,1.1,0.1,1.6,0.3
					c0.5,0.2,0.9,0.5,1.3,0.9c0.4,0.4,0.6,0.8,0.8,1.4c0.2,0.5,0.3,1.2,0.3,1.9V26.9z"/>
				<path class="st1" d="M196.1,26.9c0.1,0,0.3,0,0.6-0.1c0.3,0,0.5-0.1,0.7-0.2h0.5V31c-0.3,0.1-0.7,0.3-1.1,0.4
					c-0.4,0.2-1,0.2-1.8,0.2c-0.6,0-1.1-0.1-1.6-0.3c-0.5-0.2-0.9-0.5-1.3-0.9c-0.4-0.4-0.6-0.8-0.8-1.4c-0.2-0.5-0.3-1.2-0.3-1.9
					V13.4c-0.1,0-0.3,0-0.5,0c-0.2,0-0.4,0.1-0.6,0.1h-0.5V9.2c0.3-0.1,0.7-0.3,1.2-0.4c0.5-0.1,1-0.2,1.5-0.2
					c0.6,0,1.1,0.1,1.6,0.3c0.5,0.2,0.9,0.5,1.3,0.9c0.4,0.4,0.6,0.8,0.8,1.4c0.2,0.5,0.3,1.2,0.3,1.9V26.9z M190.4,3.3
					c0-0.4,0.1-0.8,0.2-1.2c0.2-0.4,0.4-0.7,0.7-1c0.3-0.3,0.6-0.5,1-0.7c0.4-0.2,0.8-0.2,1.2-0.2c0.4,0,0.8,0.1,1.2,0.2
					c0.4,0.2,0.7,0.4,1,0.7c0.3,0.3,0.5,0.6,0.7,1c0.2,0.4,0.2,0.8,0.2,1.2c0,0.4-0.1,0.8-0.2,1.2c-0.2,0.4-0.4,0.7-0.7,1
					c-0.3,0.3-0.6,0.5-1,0.7c-0.4,0.2-0.8,0.2-1.2,0.2c-0.4,0-0.8-0.1-1.2-0.2c-0.4-0.2-0.7-0.4-1-0.7c-0.3-0.3-0.5-0.6-0.7-1
					C190.5,4.1,190.4,3.7,190.4,3.3z"/>
			</g>
		</g>
	</g>
	<g>
		<path class="st2" d="M108.9,40.9c0,0.5-0.4,0.9-0.9,0.9h-1.5v9.4c0,0.5-0.4,0.9-0.9,0.9c-0.5,0-0.9-0.4-0.9-0.9v-9.4h-1.5
			c-0.5,0-0.9-0.4-0.9-0.9c0-0.5,0.4-0.9,0.9-0.9h4.6C108.5,40.1,108.9,40.5,108.9,40.9z"/>
		<path class="st2" d="M120,40c0.5,0,0.9,0.4,0.9,0.9v10.3c0,0.5-0.4,0.9-0.9,0.9c-0.5,0-0.9-0.4-0.9-0.9v-4.5h-2.6v4.5
			c0,0.5-0.4,0.9-0.9,0.9c-0.5,0-0.9-0.4-0.9-0.9V40.9c0-0.5,0.4-0.9,0.9-0.9c0.5,0,0.9,0.4,0.9,0.9V45h2.6v-4.1
			C119.2,40.4,119.6,40,120,40z"/>
		<path class="st2" d="M133.6,52c-0.5,0.1-0.9-0.1-1-0.6c-0.1-0.1-0.1-0.3-0.1-0.5c-0.1-0.3-0.2-0.8-0.4-1.3h-3
			c-0.2,0.5-0.3,1-0.4,1.3c-0.1,0.2-0.1,0.4-0.1,0.5c-0.1,0.4-0.6,0.7-1,0.6c-0.4-0.1-0.7-0.6-0.6-1l2.8-10.3
			c0.1-0.4,0.4-0.6,0.8-0.6c0.4,0,0.7,0.2,0.8,0.6l2.8,10.3C134.3,51.4,134.1,51.8,133.6,52z M130.5,44.1c-0.3,1.2-0.7,2.5-1,3.7
			h2.1C131.2,46.6,130.9,45.2,130.5,44.1z"/>
		<path class="st2" d="M140.2,51.1V40.9c0-0.5,0.4-0.9,0.9-0.9c0.5,0,0.9,0.4,0.9,0.9v10.3c0,0.5-0.4,0.9-0.9,0.9
			C140.6,52,140.2,51.6,140.2,51.1z"/>
		<path class="st2" d="M156.7,49v-6c0-1.3,0.9-2.5,2.2-2.9c1.3-0.4,2.7,0.2,3.4,1.4c0.3,0.4,0.1,0.9-0.3,1.2
			c-0.4,0.2-0.9,0.1-1.2-0.3c-0.3-0.5-0.9-0.7-1.4-0.6c-0.5,0.1-0.9,0.7-0.9,1.2v6c0,0.6,0.4,1.1,0.9,1.2c0.6,0.1,1.2-0.1,1.4-0.6
			c0.3-0.4,0.8-0.5,1.2-0.3c0.4,0.3,0.6,0.8,0.3,1.2c-0.7,1.2-2,1.7-3.4,1.4C157.6,51.6,156.7,50.4,156.7,49z"/>
		<path class="st2" d="M174.6,52c-0.5,0.1-0.9-0.1-1-0.6c-0.1-0.1-0.1-0.3-0.1-0.5c-0.1-0.3-0.2-0.8-0.4-1.3h-3
			c-0.2,0.5-0.3,1-0.4,1.3c-0.1,0.2-0.1,0.4-0.1,0.5c-0.1,0.4-0.6,0.7-1,0.6c-0.4-0.1-0.7-0.6-0.6-1l2.8-10.3
			c0.1-0.4,0.4-0.6,0.8-0.6c0.4,0,0.7,0.2,0.8,0.6l2.8,10.3C175.3,51.4,175.1,51.8,174.6,52z M171.6,44.1c-0.3,1.2-0.7,2.5-1,3.7
			h2.1C172.2,46.6,171.9,45.2,171.6,44.1z"/>
		<path class="st2" d="M181.2,51.1V40.9c0-0.5,0.4-0.9,0.9-0.9h3.5c0.5,0,0.9,0.4,0.9,0.9c0,0.5-0.4,0.9-0.9,0.9h-2.7V45h2.3
			c0.5,0,0.9,0.4,0.9,0.9c0,0.5-0.4,0.9-0.9,0.9h-2.3v4.4c0,0.5-0.4,0.9-0.9,0.9C181.6,51.9,181.2,51.6,181.2,51.1z"/>
		<path class="st2" d="M193.3,40.1h3.5c0.5,0,0.9,0.4,0.9,0.9c0,0.5-0.4,0.9-0.9,0.9h-2.7V45h2.3c0.5,0,0.9,0.4,0.9,0.9
			c0,0.5-0.4,0.9-0.9,0.9h-2.3v3.5h2.7c0.5,0,0.9,0.4,0.9,0.9c0,0.5-0.4,0.9-0.9,0.9h-3.5c-0.5,0-0.9-0.4-0.9-0.9V40.9
			C192.5,40.5,192.8,40.1,193.3,40.1z"/>
	</g>
</g>
</svg>
