<?xml version="1.0" encoding="utf-8"?>
<!-- Generator: Adobe Illustrator 22.0.1, SVG Export Plug-In . SVG Version: 6.00 Build 0)  -->
<svg version="1.1" id="Layer_1" xmlns="http://www.w3.org/2000/svg" xmlns:xlink="http://www.w3.org/1999/xlink" x="0px" y="0px"
	 viewBox="0 0 16 13.5" style="enable-background:new 0 0 16 13.5;" xml:space="preserve">
<style type="text/css">
	.st0{fill:#E9B816;}
</style>
<g>
	<g>
		<path class="st0" d="M8,13.5c0.1,0,0.2,0,0.3-0.1l7.5-6.1C15.9,7.2,16,7.1,16,6.9S16,6.7,15.8,6.6L8.3,0.1C8.1-0.1,7.8,0,7.6,0.2
			C7.4,0.4,7.5,0.7,7.7,0.9l7.1,6l-7,5.7c-0.2,0.2-0.2,0.5-0.1,0.7C7.7,13.4,7.9,13.5,8,13.5z"/>
	</g>
	<g>
		<path class="st0" d="M0.5,13.5c0.1,0,0.2,0,0.3-0.1l7.5-6.1c0.1-0.1,0.2-0.2,0.2-0.4S8.4,6.7,8.3,6.6L0.8,0.1
			C0.6-0.1,0.3,0,0.1,0.2C-0.1,0.4,0,0.7,0.2,0.9l7,6l-7,5.7c-0.2,0.2-0.2,0.5-0.1,0.7C0.2,13.4,0.4,13.5,0.5,13.5z"/>
	</g>
</g>
</svg>
