<?xml version="1.0" encoding="utf-8"?>
<!-- Generator: Adobe Illustrator 22.0.1, SVG Export Plug-In . SVG Version: 6.00 Build 0)  -->
<svg version="1.1" id="Layer_1" xmlns="http://www.w3.org/2000/svg" xmlns:xlink="http://www.w3.org/1999/xlink" x="0px" y="0px"
	 viewBox="0 0 16 13.5" style="enable-background:new 0 0 16 13.5;" xml:space="preserve">
<style type="text/css">
	.st0{fill:#E9B816;}
</style>
<g>
	<g>
		<path class="st0" d="M8,13.5c-0.1,0-0.2,0-0.3-0.1L0.2,7.3C0.1,7.2,0,7.1,0,6.9s0.1-0.3,0.2-0.4l7.5-6.4C7.9-0.1,8.2,0,8.4,0.2
			c0.2,0.2,0.2,0.5-0.1,0.7l-7.1,6l7,5.7c0.2,0.2,0.2,0.5,0.1,0.7C8.3,13.4,8.2,13.5,8,13.5z"/>
	</g>
	<g>
		<path class="st0" d="M15.5,13.5c-0.1,0-0.2,0-0.3-0.1L7.7,7.3C7.6,7.2,7.5,7.1,7.5,6.9s0.1-0.3,0.2-0.4l7.5-6.4
			c0.2-0.2,0.5-0.2,0.7,0.1c0.2,0.2,0.2,0.5-0.1,0.7l-7,6l7,5.7c0.2,0.2,0.2,0.5,0.1,0.7C15.8,13.4,15.7,13.5,15.5,13.5z"/>
	</g>
</g>
</svg>
