<?xml version="1.0" encoding="utf-8"?>
<!-- Generator: Adobe Illustrator 22.0.1, SVG Export Plug-In . SVG Version: 6.00 Build 0)  -->
<svg version="1.1" id="Layer_1" xmlns="http://www.w3.org/2000/svg" xmlns:xlink="http://www.w3.org/1999/xlink" x="0px" y="0px"
	 viewBox="0 0 11.7 11.3" style="enable-background:new 0 0 11.7 11.3;" xml:space="preserve">
<style type="text/css">
	.st0{fill:#CA282E;}
</style>
<path class="st0" d="M8.5,10.3c-0.4,0-0.9-0.1-1.4-0.3C6,9.6,4.9,8.8,3.8,7.7C2.7,6.6,1.9,5.4,1.5,4.3c-0.4-1.1-0.4-2,0.1-2.4
	l0.2-0.2C2,1.4,2.5,0.9,3.1,1c0.4,0,0.8,0.3,1.2,0.7c1.2,1.4,0.5,2,0,2.6L4.2,4.4h0c0,0,0,0.4,1.3,1.6C6,6.5,6.4,6.8,6.7,7
	C7,7.2,7.1,7.3,7.2,7.3l0.1-0.1c0.5-0.5,1.1-1.1,2.6,0c0.5,0.4,0.7,0.8,0.7,1.2c0,0.6-0.4,1.1-0.8,1.4L9.6,10
	C9.3,10.2,9,10.3,8.5,10.3z M3,1.5v0.2c-0.2,0-0.5,0.3-0.8,0.6C2.2,2.4,2.1,2.4,2.1,2.5C1.9,2.7,1.9,3.2,2.2,4.1
	c0.4,1,1.1,2.1,2.1,3.1c1,1,2.1,1.7,3.1,2.1C8.2,9.6,8.8,9.6,9,9.4l0.2-0.2C9.4,9,9.7,8.7,9.7,8.4c0-0.2-0.2-0.4-0.5-0.6
	c-0.9-0.7-1-0.5-1.5-0.1L7.7,7.8C7.5,8.1,7,8.2,6.3,7.7C5.9,7.5,5.4,7.1,4.9,6.6C4,5.6,3,4.5,3.6,3.8l0.1-0.1
	c0.5-0.5,0.6-0.6-0.1-1.5C3.4,1.9,3.2,1.8,3.1,1.8L3,1.5z"/>
</svg>
