<?xml version="1.0" encoding="utf-8"?>
<!-- Generator: Adobe Illustrator 22.0.1, SVG Export Plug-In . SVG Version: 6.00 Build 0)  -->
<svg version="1.1" id="Layer_1" xmlns="http://www.w3.org/2000/svg" xmlns:xlink="http://www.w3.org/1999/xlink" x="0px" y="0px"
	 viewBox="0 0 12 12" style="enable-background:new 0 0 12 12;" xml:space="preserve">
<style type="text/css">
	.st0{fill:#CA282E;}
</style>
<g>
	<path class="st0" d="M6,12c-3.3,0-6-2.7-6-6s2.7-6,6-6s6,2.7,6,6S9.3,12,6,12z M6,1C3.2,1,1,3.2,1,6s2.2,5,5,5s5-2.2,5-5S8.8,1,6,1
		z"/>
	<rect x="5.8" y="0.5" class="st0" width="0.5" height="3"/>
	<rect x="5.8" y="9.5" class="st0" width="0.5" height="2"/>
	<rect x="0.5" y="5.8" class="st0" width="2.5" height="0.5"/>
	<rect x="8.5" y="5.8" class="st0" width="3" height="0.5"/>
	<polygon class="st0" points="6.6,7.9 5.7,5.9 8.3,3.3 8.7,3.7 6.3,6.1 7.1,7.6 	"/>
</g>
</svg>
