<?xml version="1.0" encoding="utf-8"?>
<!-- Generator: Adobe Illustrator 22.0.1, SVG Export Plug-In . SVG Version: 6.00 Build 0)  -->
<svg version="1.1" id="Layer_1" xmlns="http://www.w3.org/2000/svg" xmlns:xlink="http://www.w3.org/1999/xlink" x="0px" y="0px"
	 viewBox="0 0 11.7 11.3" style="enable-background:new 0 0 11.7 11.3;" xml:space="preserve">
<style type="text/css">
	.st0{fill:#CA282E;}
</style>
<g>
	<path class="st0" d="M5.9,5.1c-0.8,0-1.5-0.7-1.5-1.5c0-0.8,0.7-1.5,1.5-1.5c0.8,0,1.5,0.7,1.5,1.5C7.4,4.5,6.7,5.1,5.9,5.1z
		 M5.9,2.9c-0.4,0-0.7,0.3-0.7,0.7s0.3,0.7,0.7,0.7c0.4,0,0.7-0.3,0.7-0.7S6.3,2.9,5.9,2.9z"/>
	<path class="st0" d="M11.7,11.3H0l2.2-4.6h1.1L2.9,6.2C1.8,4.8,2,2.4,3.3,1.1C4,0.4,4.9,0,5.9,0c1,0,1.9,0.4,2.6,1.1
		c1.3,1.3,1.4,3.7,0.3,5.1L8.5,6.7h1L11.7,11.3z M1.2,10.5h9.3L9,7.5H8l-2.1,3l-2.1-3H2.7L1.2,10.5z M5.9,0.8c-0.8,0-1.5,0.3-2,0.8
		c-1,1-1.2,3-0.3,4.1l0,0l2.3,3.3l2.3-3.3C9.1,4.6,9,2.6,7.9,1.6C7.4,1.1,6.7,0.8,5.9,0.8z"/>
</g>
</svg>
