<?xml version="1.0" encoding="utf-8"?>
<!-- Generator: Adobe Illustrator 22.0.1, SVG Export Plug-In . SVG Version: 6.00 Build 0)  -->
<svg version="1.1" id="Layer_1" xmlns="http://www.w3.org/2000/svg" xmlns:xlink="http://www.w3.org/1999/xlink" x="0px" y="0px"
	 viewBox="0 0 25.3 36.7" style="enable-background:new 0 0 25.3 36.7;" xml:space="preserve">
<style type="text/css">
	.st0{fill:#FD8100;}
</style>
<g>
	<path class="st0" d="M24.7,8.9H0.6C0.3,8.9,0,9.1,0,9.5c0,0.3,0.3,0.6,0.6,0.6h0v0.7c0,0.6,0.2,1.1,0.6,1.4C1.3,14,2.5,15.7,4.7,17
		c0.5,0.3,1,0.5,1.5,0.7l-1.7,8.7c0,0,0,0,0,0L2.5,36c-0.1,0.3,0.1,0.6,0.5,0.7c0,0,0.1,0,0.1,0c0.3,0,0.5-0.2,0.6-0.5l1.8-9h14.3
		l0.7,3.4c-1.2,0.4-2.1,1.6-2.1,2.9c0,1.7,1.4,3.1,3.1,3.1c1.7,0,3.1-1.4,3.1-3.1c0-1.7-1.3-3.1-3-3.1l-2.5-12.7
		c0.5-0.2,1-0.5,1.5-0.7c2.2-1.3,3.4-3,3.4-4.9c0.4-0.3,0.6-0.8,0.6-1.4v-0.7h0c0.3,0,0.6-0.3,0.6-0.6C25.3,9.1,25,8.9,24.7,8.9
		L24.7,8.9z M23.5,33.6c0,1.1-0.9,1.9-1.9,1.9c-1.1,0-1.9-0.9-1.9-1.9c0-1.1,0.9-1.9,1.9-1.9C22.6,31.6,23.5,32.5,23.5,33.6
		L23.5,33.6z M19.5,26H5.8l1.6-7.8c1.6,0.5,3.4,0.8,5.3,0.8c1.9,0,3.7-0.3,5.3-0.8L19.5,26z M20,16c-1.9,1.1-4.5,1.8-7.3,1.8
		c-2.8,0-5.4-0.6-7.3-1.8c-1.6-0.9-2.6-2.1-2.8-3.4h20.3C22.5,13.9,21.6,15,20,16L20,16z M23.5,10.7c0,0.4-0.3,0.7-0.7,0.7H2.5
		c-0.4,0-0.7-0.3-0.7-0.7v-0.7h21.6V10.7z M23.5,10.7"/>
	<path class="st0" d="M21.1,33.2c-0.1,0.1-0.2,0.3-0.2,0.4c0,0.2,0.1,0.3,0.2,0.4c0.1,0.1,0.3,0.2,0.4,0.2c0.2,0,0.3-0.1,0.4-0.2
		c0.1-0.1,0.2-0.3,0.2-0.4c0-0.2-0.1-0.3-0.2-0.4c-0.1-0.1-0.3-0.2-0.4-0.2C21.4,33,21.2,33.1,21.1,33.2L21.1,33.2z M21.1,33.2"/>
	<path class="st0" d="M11.4,6.9c0,0.3,0.3,0.6,0.6,0.6c0.3,0,0.6-0.3,0.6-0.6c0-0.6,0.2-0.8,0.5-1.2c0.3-0.4,0.8-1,0.8-2
		c0-1-0.4-1.5-0.8-2c-0.3-0.4-0.5-0.6-0.5-1.2C12.6,0.3,12.3,0,12,0c-0.3,0-0.6,0.3-0.6,0.6c0,1,0.4,1.5,0.8,2
		c0.3,0.4,0.5,0.6,0.5,1.2c0,0.6-0.2,0.8-0.5,1.2C11.8,5.4,11.4,5.9,11.4,6.9L11.4,6.9z M11.4,6.9"/>
	<path class="st0" d="M14.6,7.5c0.3,0,0.6-0.3,0.6-0.6c0-0.6,0.2-0.8,0.5-1.2c0.3-0.4,0.8-1,0.8-2c0-0.8-0.3-1.3-0.5-1.6
		c-0.2-0.3-0.6-0.3-0.8-0.1c-0.3,0.2-0.3,0.6-0.1,0.8c0.2,0.2,0.3,0.5,0.3,0.9c0,0.6-0.2,0.8-0.5,1.2c-0.3,0.4-0.8,1-0.8,2
		C14,7.3,14.2,7.5,14.6,7.5L14.6,7.5z M14.6,7.5"/>
	<path class="st0" d="M9.5,7.5c0.3,0,0.6-0.3,0.6-0.6c0-0.6,0.2-0.8,0.5-1.2c0.3-0.4,0.8-1,0.8-2c0-0.8-0.3-1.3-0.5-1.6
		C10.7,1.9,10.3,1.8,10,2C9.7,2.2,9.7,2.6,9.9,2.8c0.2,0.2,0.3,0.5,0.3,0.9c0,0.6-0.2,0.8-0.5,1.2c-0.3,0.4-0.8,1-0.8,2
		C8.9,7.3,9.1,7.5,9.5,7.5L9.5,7.5z M9.5,7.5"/>
</g>
</svg>
