<?xml version="1.0" encoding="utf-8"?>
<!-- Generator: Adobe Illustrator 22.0.1, SVG Export Plug-In . SVG Version: 6.00 Build 0)  -->
<svg version="1.1" id="Layer_1" xmlns="http://www.w3.org/2000/svg" xmlns:xlink="http://www.w3.org/1999/xlink" x="0px" y="0px"
	 viewBox="0 0 30.5 27" style="enable-background:new 0 0 30.5 27;" xml:space="preserve">
<style type="text/css">
	.st0{fill:#FD8100;}
</style>
<g>
	<g>
		<g>
			<path class="st0" d="M28.2,12c-0.4,0-4.1,0-5.8,0c3.4-3.5,6.1-6.4,8.2-8.7C30.3,3.2,30,3,29.8,2.8c-3.4,3.7-8.5,9.2-8.5,9.2
				L20,12l8.9-9.8c-0.2-0.1-0.4-0.3-0.6-0.4L18.9,12l-1,0c0,0,6.3-6.5,10.1-10.4c-0.2-0.1-0.5-0.3-0.8-0.4C23.1,5.5,16.7,12,16.7,12
				l-1.4,0L26.1,0.9c0,0-0.1,0-0.1,0c-0.3-0.1-0.5-0.2-0.7-0.3L14.3,12H0.5C0.2,12,0,12.2,0,12.5c0,3.3,0.1,5.8,1.3,7.8
				c1,1.6,2.7,2.9,6.1,4.3C7,25,6.8,25.7,6.8,26.5C6.8,26.7,7,27,7.3,27h13.2c0.3,0,0.5-0.2,0.5-0.5c0-0.7-0.2-1.3-0.5-1.7
				c3.5-1.5,5.7-3.1,6.8-5c1.2-2,1.3-4.4,1.3-7.1C28.7,12.3,28.5,12,28.2,12z M26.5,19.1c-1.1,1.8-3.3,3.4-7.1,4.9h-2.1
				c-0.3,0-0.5,0.2-0.5,0.5c0,0.3,0.2,0.5,0.5,0.5h2.2c0.1,0,0.3,0.3,0.4,0.8h-12c0.1-0.5,0.3-0.8,0.4-0.8h5.2
				c0.3,0,0.5-0.2,0.5-0.5c0-0.3-0.2-0.5-0.5-0.5H8.9c-3.8-1.6-5.7-2.8-6.7-4.4c-0.9-1.5-1.1-3.4-1.1-6.6c4.8,0,22.2,0.1,25.4,0.1
				c0,0,0.1,0,0.1,0h1.1C27.6,15.5,27.5,17.4,26.5,19.1z"/>
		</g>
	</g>
	<polygon class="st0" points="25.3,0.6 27.5,2 28.1,1.5 25.9,0 	"/>
	<polygon class="st0" points="28.2,1.7 30.5,3.3 29.9,4 27.6,2.4 	"/>
</g>
</svg>
