<?xml version="1.0" encoding="utf-8"?>
<!-- Generator: Adobe Illustrator 22.0.1, SVG Export Plug-In . SVG Version: 6.00 Build 0)  -->
<svg version="1.1" id="Layer_1" xmlns="http://www.w3.org/2000/svg" xmlns:xlink="http://www.w3.org/1999/xlink" x="0px" y="0px"
	 viewBox="0 0 351.1 272.5" style="enable-background:new 0 0 351.1 272.5;" xml:space="preserve">
<style type="text/css">
	.st0{fill:#B22F25;}
	.st1{fill:#568940;}
</style>
<g>
	<path class="st0" d="M322.3,232.4c0,0-2.2,1.6-6.1,4.4c-1.1,0.8-2.4,1.7-3.7,2.7c-1.3,0.9-2.7,1.8-4.2,2.8c-3,1.9-6.5,4.1-10.3,6.3
		c-3.8,2.2-8,4.4-12.5,6.6c-4.5,2.2-9.4,4.3-14.5,6.3c-10.2,4-21.5,7.4-33.3,9.3c-5.9,1-11.9,1.6-17.8,1.7c-5.9,0.2-11.8-0.2-17.5-1
		c-5.7-0.8-11.1-2.1-16.1-3.9c-5-1.6-9.5-3.9-13.5-6.1c-1.9-1.2-3.8-2.3-5.5-3.5c-1.6-1.2-3.2-2.4-4.6-3.5c-1.3-1.2-2.6-2.3-3.8-3.3
		c-1.1-1.1-2.1-2.1-3-3c-1.8-1.8-3-3.4-3.9-4.4c-0.9-1-1.3-1.6-1.3-1.6c-2.9-3.5-2.4-8.8,1.1-11.7c2.9-2.4,7-2.5,10-0.4l0.7,0.5
		c0,0,0.5,0.3,1.4,0.9c0.9,0.6,2.1,1.6,3.8,2.5c0.8,0.5,1.8,1,2.8,1.6c1,0.5,2.2,1,3.4,1.6c1.2,0.5,2.5,1,3.9,1.5
		c1.4,0.4,2.9,0.9,4.4,1.3c3.1,0.7,6.4,1.3,10,1.4c3.5,0.2,7.3,0.1,11.1-0.5c3.8-0.5,7.8-1.4,11.8-2.7c4-1.2,7.9-2.8,11.8-4.7
		c7.8-3.7,15.2-8.4,21.8-13.4c3.3-2.5,6.4-5.1,9.2-7.6c2.8-2.5,5.4-5,7.7-7.4c2.3-2.4,4.3-4.6,6.1-6.6c0.9-1,1.7-2,2.4-2.8
		c0.6-0.8,1.2-1.6,1.8-2.3c2.6-3.3,4.1-5.2,4.1-5.2c10.6-13.4,30.1-15.7,43.5-5.1c13.4,10.6,15.7,30.1,5.1,43.5
		c-1.8,2.2-3.8,4.2-6,5.8L322.3,232.4z"/>
	<path class="st1" d="M323.3,194.9c1.6-1.5,3.4-3.1,5.2-4.8c10.4-9.4,22.2-20.1,22.6-33c0.2-6.4-2.5-12.5-8.1-18.2
		c-1.8-1.9-4.8-1.9-6.7-0.1c-1.9,1.8-1.9,4.8-0.1,6.7c3.7,3.8,5.5,7.5,5.4,11.3c-0.3,8.9-10.5,18.1-19.5,26.3
		c-1.9,1.7-3.7,3.4-5.4,5c-4.3-3-8.8-3.8-11.1-1.7c-2.8,2.8-0.9,9.3,4.3,14.5c5.2,5.3,11.6,7.3,14.4,4.5
		C326.5,203.4,325.9,199.1,323.3,194.9z"/>
</g>
</svg>
