<?xml version="1.0" encoding="utf-8"?>
<!-- Generator: Adobe Illustrator 22.0.1, SVG Export Plug-In . SVG Version: 6.00 Build 0)  -->
<svg version="1.1" id="Layer_1" xmlns="http://www.w3.org/2000/svg" xmlns:xlink="http://www.w3.org/1999/xlink" x="0px" y="0px"
	 viewBox="0 0 351.1 272.5" style="enable-background:new 0 0 351.1 272.5;" xml:space="preserve">
<style type="text/css">
	.st0{fill:#DCB63B;}
	.st1{fill:#4D803B;}
	.st2{fill:#568940;}
</style>
<g>
	<g>
		<path class="st0" d="M80,66.7c-6.9,19.7-4.5,43.1,4.6,61.7c12.8,26.1,39.1,43.9,68,46.3c14.6,1.2,32.7-0.8,42.2-13.3
			c4.4-5.8,6.8-13.6,4.4-20.7c-2.4-7.2-8.1-12.7-9.9-20.2c-1.7-7.1-1.1-14.5-0.9-21.7c0.2-7.4-0.3-14.6-2.2-21.7
			c-3.5-13-10.7-25.1-21.1-33.7c-13.6-11.3-32.4-14.8-49.3-9.7C98.7,38.9,87.5,50.7,80,66.7z"/>
	</g>
	<path class="st1" d="M87.9,7.4c-4,10.9-0.8,24.6,7.4,32.9c-0.7,0.5-1.3,1.1-2,1.6c-2.8-4.9-5.8-9.8-7.9-15.1
		C84.1,23.4,81.6,8.3,87.9,7.4z"/>
	<g>
		<path class="st2" d="M99.5,10.7c-4.9,5.2-6.9,11.3-8.1,18.2c0.1,0,0.1,0,0.2,0c0.3,0,0.7-0.1,1-0.1c4.1-6.6,10.5-12.8,15.8-18
			c0.3-0.3,0.8,0.2,0.5,0.5c-3.3,3.9-6.6,7.7-9.8,11.7c-1.5,1.8-2.9,3.7-4.3,5.5c11.9-2.5,20.9-14,24.3-25.3c0-0.2,0-0.4,0-0.5
			c0-0.1,0-0.1-0.1-0.2C111.3,3,105.1,4.7,99.5,10.7z"/>
		<path class="st2" d="M38.3,21.7c3.9,6.2,11.4,11.5,18.1,13.6c8.8,2.8,16.9-0.7,23.3-6.6c-7.7,1.1-15.6,1.4-23.1-0.3
			c-0.4-0.1-0.3-0.7,0.1-0.7c8,0.5,15.8,0.9,23.8,0c0.1,0,0.1,0,0.2,0c0,0,0.1-0.1,0.1-0.1c-5.9-5.2-11.8-9-20.3-9.5
			C52.9,17.8,45.6,19.7,38.3,21.7z"/>
		<path class="st2" d="M119,2.3c-7.7,0.7-13.9,2.4-19.5,8.4c-4.9,5.2-6.9,11.3-8.1,18.2c0.1,0,0.1,0,0.2,0c0.3,0,0.7-0.1,1-0.1
			c4.1-6.6,10.5-12.8,15.8-18c0.3-0.3,0.8,0.2,0.5,0.5c-3.3,3.9-6.6,7.7-9.8,11.7c-1.5,1.8-2.9,3.7-4.3,5.5
			c11.9-2.5,20.9-14,24.3-25.3c0-0.2,0-0.4,0-0.5C119,2.4,119,2.3,119,2.3z M79.7,28.7c-7.7,1.1-15.6,1.4-23.1-0.3
			c-0.4-0.1-0.3-0.7,0.1-0.7c8,0.5,15.8,0.9,23.8,0c0.1,0,0.1,0,0.2,0c0,0,0.1-0.1,0.1-0.1c-5.9-5.2-11.8-9-20.3-9.5
			c-7.6-0.4-14.9,1.5-22.2,3.5c3.9,6.2,11.4,11.5,18.1,13.6C65.2,38.1,73.3,34.6,79.7,28.7z M35.2,18.9c9.4-2.6,19.2-5.3,29-3.6
			c7.6,1.3,13.3,5.1,18.3,10.4c-0.7-2.1-1.1-4.2-1.2-6.4C81.2,13.6,82.1,3.7,89.9,5c0.8,0.1,1.1,1.1,0.8,1.7
			c-2.4,5.2-2.8,10.8-1.6,16.2c1.4-6,5.1-11.7,9.6-15.7c3.1-2.8,6.9-5.1,11.1-6.3c2.2-0.6,4.5-0.9,6.8-1c3-0.1,4.2-0.5,4.1,2.7
			c0,0.4,0,0.7-0.1,1.1c0,0,0,0,0,0c-0.2,6.4-3.7,12.2-8.1,16.7c-4.8,5.1-12.6,11.3-20,11c1.4,2.5,2.9,4.9,4.4,7.4l-1.6,1.2
			c-2.8-2.9-5.1-6.4-6.6-10.3c0,0,0-0.1,0-0.1c-2.9-7.2-3.4-15.5-0.7-22.6c-6.3,0.9-3.8,16-2.5,19.5c2.1,5.3,5,10.1,7.9,15l-1,0.9
			c-0.3,0.3-1.3-1-2.5-2.8c-1.9-3-4.3-7.5-4.7-8.3c-0.3-0.6-0.6-1.1-0.8-1.7c-0.2,0.1-0.4,0.1-0.6,0c-0.1,0.1-0.2,0.3-0.3,0.4
			c-6.8,6.7-16.3,11.3-26,9c-9.1-2.1-19.1-9.6-23.3-18C33.5,20.4,34.1,19.2,35.2,18.9z"/>
	</g>
	<path class="st0" d="M199.2,136.3c-1.4-2.7-3.2-5.3-4.4-8.1c-1.8-4.4-3.1-9.2-3.7-13.9c-0.5-3.8-0.8-7.6-1.1-11.4
		c-0.5-7.2,0.8-14.1-0.3-21.4c-1.3-8.5-4.4-16.7-8.8-24.1c-2.8-4.7-7.2-7.8-10.1-12.1c-3.6-3.1-8.2-6.8-13-8.4
		c-7.1-4.5-15.2-7.2-24.1-7.1c-11.3,0.1-23.6,4.7-33.5,9.8c0.3,0.7,1,1.2,1.9,0.8c7.2-3.7,16-4.1,24-4.7c8.1-0.5,16.1,0.6,23.5,4
		c14.3,6.6,24.1,20.3,28.7,35c5,15.9,4.1,33,8.6,49c2.1,7.4,6.3,13.3,9.3,20.2c4,9.2-2,15-5.5,22.9c-2,4.7,5-1.1,5.8-2.1
		c2.3-2.6,4-5.7,5-9C203.4,149.4,202.3,142.2,199.2,136.3z"/>
	<g>
		<path class="st0" d="M189.2,171.9c-13.4,8.1-30.9,8.3-45.8,5.3c-31.2-6.2-56.8-28.7-66.5-59c-1.1-3.5-2-7.1-2.7-10.8
			c-3.4-18.9-1.4-40.8,10.4-56.6c2.2-2.9,4.7-5.6,7.4-8.1l1-0.9c0.6-0.6,1.3-1.1,2-1.6l1.6-1.2c10.3-7.5,23-11.8,35.7-11.5
			c16,0.3,31,7.3,41.8,19.2c9.7,10.6,15.7,24.2,17.7,38.4c1.2,8.7,0,17.3,0.3,26c0.2,5.3,1.1,10.4,3.7,15.1
			c1.9,3.5,4.3,6.6,6.1,10.2C208.2,149.6,201.1,164.6,189.2,171.9z M189.4,120.6c-1.7-7.1-1.1-14.5-0.9-21.7
			c0.2-7.4-0.3-14.6-2.2-21.7c-3.5-13-10.7-25.1-21.1-33.7c-13.6-11.3-32.4-14.8-49.3-9.7c-17.2,5.2-28.4,17-35.9,33
			c-6.9,19.7-4.5,43.1,4.6,61.7c12.8,26.1,39.1,43.9,68,46.3c14.6,1.2,32.7-0.8,42.2-13.3c4.4-5.8,6.8-13.6,4.4-20.7
			C196.9,133.6,191.2,128.1,189.4,120.6z"/>
	</g>
</g>
</svg>
