<?xml version="1.0" encoding="utf-8"?>
<!-- Generator: Adobe Illustrator 22.0.1, SVG Export Plug-In . SVG Version: 6.00 Build 0)  -->
<svg version="1.1" id="Layer_1" xmlns="http://www.w3.org/2000/svg" xmlns:xlink="http://www.w3.org/1999/xlink" x="0px" y="0px"
	 viewBox="0 0 351.1 272.5" style="enable-background:new 0 0 351.1 272.5;" xml:space="preserve">
<style type="text/css">
	.st0{fill:#5E6E31;}
</style>
<g>
	<path class="st0" d="M10.8,130.6H2v-12.6h8.9c1.1,3.4,3,5.2,6,5.2c2.1,0,3.2-0.8,3.2-2.5c0-0.9-0.4-1.6-1.1-2.2
		c-0.8-0.6-2.5-1.5-5-2.7c-3.2-1.5-5.6-2.7-7.1-3.8c-1.4-1-2.6-2.3-3.6-4c-1-1.7-1.5-3.5-1.5-5.6c0-3.7,1.2-6.5,3.6-8.6
		c2.4-2.1,5.3-3.1,8.7-3.1c3.5,0,6.4,1,8.8,2.9v-2.4h8.9v11.2h-8.8c-1.1-3.1-3-4.6-5.7-4.6c-1.9,0-2.9,0.8-2.9,2.5
		c0,0.8,0.3,1.4,0.8,1.8c0.5,0.4,2.2,1.3,5.1,2.7c3.9,1.9,6.5,3.3,7.8,4.2c0.7,0.4,1.3,1,2,1.8c0.7,0.8,1.3,1.6,1.7,2.4
		c1,1.9,1.6,3.9,1.6,6c0,3.3-1.2,6.1-3.7,8.4c-2.5,2.3-5.6,3.5-9.3,3.5c-3.5,0-6.6-1-9.4-3.1V130.6z"/>
	<path class="st0" d="M46.1,100.6h-3v-9.4h20.2v9.4h-1.9v13.3c0,3.2,0.3,5.3,0.9,6.5c0.6,1.1,1.7,1.7,3.3,1.7c1.3,0,2.2-0.5,2.8-1.4
		c0.6-0.9,0.9-2.9,0.9-5.8v-14.2h-2v-9.4h14.8v9.4H79v14.3c0,3.6-0.5,6.6-1.6,8.9c-1.1,2.3-2.8,4.1-5.3,5.4c-2.5,1.3-5.5,2-9.1,2
		c-2.9,0-5.4-0.3-7.7-1c-2.3-0.7-4.1-1.7-5.4-3.1c-1.3-1.4-2.3-3-2.9-5c-0.6-1.9-1-4.8-1-8.8V100.6z"/>
	<path class="st0" d="M101,130.6h-8.9v-12.6h8.9c1.1,3.4,3,5.2,6,5.2c2.1,0,3.2-0.8,3.2-2.5c0-0.9-0.4-1.6-1.1-2.2
		c-0.8-0.6-2.5-1.5-5-2.7c-3.2-1.5-5.6-2.7-7.1-3.8c-1.4-1-2.6-2.3-3.6-4c-1-1.7-1.5-3.5-1.5-5.6c0-3.7,1.2-6.5,3.6-8.6
		c2.4-2.1,5.3-3.1,8.7-3.1s6.4,1,8.8,2.9v-2.4h8.9v11.2H113c-1.1-3.1-3-4.6-5.7-4.6c-1.9,0-2.9,0.8-2.9,2.5c0,0.8,0.3,1.4,0.8,1.8
		c0.5,0.4,2.2,1.3,5.1,2.7c3.9,1.9,6.5,3.3,7.8,4.2c0.7,0.4,1.3,1,2,1.8c0.7,0.8,1.3,1.6,1.7,2.4c1,1.9,1.6,3.9,1.6,6
		c0,3.3-1.2,6.1-3.7,8.4c-2.5,2.3-5.6,3.5-9.3,3.5c-3.5,0-6.6-1-9.4-3.1V130.6z"/>
	<path class="st0" d="M164.4,130.6h-22.1v-9.4h3.4v-20.5h-4.5v7.2h-7.4V91.2h39.1v16.6h-7.4v-7.2h-4.5v20.5h3.5V130.6z"/>
	<path class="st0" d="M194.2,130.6h-15.6v-9.4h3l7.4-20.5h-3.2v-9.4h28.3v9.4H211l7.5,20.5h2.9v9.4h-20.6v-8.6h3.5l-1.5-5h-10.1
		l-1.7,5h3.2V130.6z M197.9,101.2l-3.7,10.9h7.1L197.9,101.2z"/>
	<path class="st0" d="M252.3,130.6h-22.5v-9.4h3.6v-20.5h-3.6v-9.4h22.5v9.4h-3.6v20.5h3.6V130.6z"/>
	<path class="st0" d="M278.2,130.6h-16.2v-9.4h3.5v-20.5h-3.5v-9.4h18.7l14.3,20.6v-11.2h-3.2v-9.4h15.9v9.4h-3.4v30.5h-13
		l-16.6-23.8v13.9h3.5V130.6z"/>
	<path class="st0" d="M338.6,122.9h-20.2v-12.2h20.2V122.9z"/>
	<path class="st0" d="M15.6,186.6H0v-9.4h3l7.4-20.5H7.2v-9.4h28.3v9.4h-3.2l7.5,20.5h2.9v9.4H22.2v-8.6h3.5l-1.5-5H14.1l-1.7,5h3.2
		V186.6z M19.3,157.2l-3.7,10.9h7.1L19.3,157.2z"/>
	<path class="st0" d="M74.1,186.6H51.8v-9.4h3.4v-20.5h-3.4v-9.4h24.1c4.7,0,8.4,0.3,11,0.8c2.5,0.6,4.5,1.7,6,3.4
		c1.5,1.7,2.2,3.7,2.2,6c0,2.2-0.7,4-2.1,5.3c-1.4,1.4-3.1,2.3-5.2,2.8c2.8,0.8,4.9,2.1,6.4,3.9c1.5,1.8,2.3,3.8,2.3,6
		c0,2.6-0.8,4.9-2.5,6.7c-1.7,1.8-4,3-7,3.6C84,186.3,79.7,186.6,74.1,186.6z M70.4,155.8v7.2h3.4c2.3,0,3.8-0.3,4.5-1
		c0.7-0.7,1-1.5,1-2.6c0-0.9-0.3-1.8-0.9-2.5s-2.3-1.1-5.1-1.1H70.4z M70.4,170.2v7.8h3.4c2.2,0,3.8-0.3,4.7-0.8
		c0.9-0.6,1.4-1.6,1.4-3c0-1.3-0.4-2.3-1.3-3c-0.8-0.6-2.5-0.9-4.9-0.9H70.4z"/>
	<path class="st0" d="M129,186.6h-22.5v-9.4h3.6v-20.5h-3.6v-9.4H129v9.4h-3.6v20.5h3.6V186.6z"/>
	<path class="st0" d="M176.5,186.6H139v-9.4h3.5v-20.5H139v-9.4h22.5v9.4h-3.7v20.5h9.3v-6.3h9.4V186.6z"/>
	<path class="st0" d="M207.7,186.6h-22.5v-9.4h3.6v-20.5h-3.6v-9.4h22.5v9.4h-3.6v20.5h3.6V186.6z"/>
	<path class="st0" d="M248.4,186.6h-22.1v-9.4h3.4v-20.5h-4.5v7.2h-7.4v-16.6h39.1v16.6h-7.4v-7.2h-4.5v20.5h3.5V186.6z"/>
	<path class="st0" d="M296.9,186.6h-21.5v-9.4h3.2v-6.3l-9.9-14.3h-2.7v-9.4h20.6v9.4h-2.4l4.2,8l5.1-8H291v-9.4h15.2v9.4h-2.5
		l-9.9,14.3v6.3h3.1V186.6z"/>
</g>
</svg>
