<?xml version="1.0" encoding="utf-8"?>
<!-- Generator: Adobe Illustrator 22.0.1, SVG Export Plug-In . SVG Version: 6.00 Build 0)  -->
<svg version="1.1" id="Layer_1" xmlns="http://www.w3.org/2000/svg" xmlns:xlink="http://www.w3.org/1999/xlink" x="0px" y="0px"
	 viewBox="0 0 148.6 148.6" style="enable-background:new 0 0 148.6 148.6;" xml:space="preserve">
<style type="text/css">
	.st0{fill:#FC8000;}
</style>
<g>
	<g>
		<path class="st0" d="M130.2,35.8c3.7-2.1,7.3-0.9,9,2.1c0.9,1.6,0.9,3.2,0.6,4.3l-2.4-0.4c0.2-0.9,0.2-1.7-0.3-2.6
			c-1-1.7-3.1-2.2-5.3-0.9c-2.3,1.3-3,3.1-1.8,5.2c0.3,0.5,0.7,0.9,1,1l1.9-1.1l-1.1-1.8l2.1-1.2l2.3,4.1l-5.1,3
			c-1.2-0.3-2.6-1.3-3.5-2.9C125.8,41.5,126.4,37.9,130.2,35.8z"/>
		<path class="st0" d="M137.6,49.3c4-1.2,7,0.4,8,3.7c1,3.3-0.7,6.3-4.7,7.5c-4,1.2-7.1-0.4-8.1-3.7S133.5,50.5,137.6,49.3z
			 M140.1,57.6c2.5-0.7,3.6-2.2,3.1-3.9c-0.5-1.7-2.3-2.3-4.8-1.6c-2.5,0.7-3.7,2.3-3.2,4C135.7,57.8,137.6,58.4,140.1,57.6z"/>
		<path class="st0" d="M141.7,65.1c4.2-0.2,6.7,2,6.9,5.5s-2.1,6-6.3,6.2c-4.2,0.2-6.8-2-7-5.5S137.5,65.3,141.7,65.1z M142.1,73.8
			c2.6-0.1,4.1-1.3,4-3.1c-0.1-1.8-1.7-2.8-4.2-2.7c-2.6,0.1-4.2,1.3-4.1,3.1C137.8,72.9,139.5,73.9,142.1,73.8z"/>
		<path class="st0" d="M148.1,83.1l-0.7,3.6c-0.7,3.9-3.1,6-7.5,5.2s-5.9-3.7-5.3-7.4l0.7-3.7L148.1,83.1z M137.1,84.6
			c-0.4,2.2,0.4,3.8,3.4,4.3c3,0.6,4.2-0.7,4.6-2.9l0.1-0.5l-8-1.5L137.1,84.6z"/>
		<path class="st0" d="M141.6,105.5l-3.8,7.2l-2.2-1.1l2.4-4.6l-2.6-1.4l-2.1,4l-2.2-1.1l2.1-4l-4.4-2.3l1.4-2.6L141.6,105.5z"/>
		<path class="st0" d="M130,113.2c3.2,2.7,3.6,6.1,1.3,8.7c-2.2,2.7-5.6,2.9-8.8,0.2c-3.2-2.7-3.7-6.1-1.4-8.8
			C123.3,110.7,126.8,110.5,130,113.2z M124.5,119.9c2,1.6,3.9,1.8,5,0.4s0.7-3.2-1.3-4.8c-2-1.7-4-1.9-5.1-0.5
			S122.5,118.3,124.5,119.9z"/>
		<path class="st0" d="M119.2,125.4c2.5,3.4,2,6.7-0.8,8.8c-2.8,2.1-6.2,1.5-8.6-1.8c-2.5-3.4-2.1-6.8,0.7-8.9
			C113.3,121.4,116.7,122,119.2,125.4z M112.2,130.6c1.5,2.1,3.3,2.6,4.8,1.6c1.4-1,1.4-2.9-0.1-5c-1.5-2.1-3.4-2.7-4.8-1.7
			S110.6,128.5,112.2,130.6z"/>
		<path class="st0" d="M107.7,140.7l-3.3,1.4c-3.6,1.5-6.7,0.7-8.4-3.3c-1.7-4.1-0.2-7,3.2-8.5l3.5-1.5L107.7,140.7z M100.4,132.4
			c-2,0.9-2.9,2.4-1.7,5.2s2.9,3.1,4.9,2.3l0.5-0.2l-3.2-7.5L100.4,132.4z"/>
		<path class="st0" d="M85.4,147.7l-8.1,0.8l-0.2-2.4l5.2-0.5l-0.3-3l-4.4,0.5l-0.2-2.4l4.4-0.5l-0.5-5l2.9-0.3L85.4,147.7z"/>
		<path class="st0" d="M69.7,148.4l-3.5-0.3l-3-13.2l3.1,0.3l0.5,3.1l3.9,0.3l1-3l3,0.2L69.7,148.4z M70,140.8l-2.7-0.2l0.2,1.2
			c0.2,1.3,0.5,2.9,0.7,4.2l0.1,0c0.4-1.3,0.9-2.8,1.3-4.1L70,140.8z"/>
		<path class="st0" d="M61,136l-2.2,1.4c-0.7-1-1.6-1.9-2.7-2.2c-1.2-0.3-1.9-0.1-2.1,0.7c-0.2,0.8,0.4,1.2,1.3,2l1.4,1.2
			c1.1,0.9,2,2.3,1.5,4.1c-0.6,2-2.9,3.1-5.5,2.4c-1.4-0.4-2.8-1.4-3.5-2.8l1.9-1.3c0.6,0.9,1.3,1.4,2.3,1.7c1,0.3,1.7,0,1.9-0.7
			c0.2-0.8-0.5-1.3-1.4-2l-1.4-1.1c-1.3-1-2-2.3-1.5-4.1c0.6-2,2.8-3.3,5.8-2.5C58.5,133.4,60.1,134.5,61,136z"/>
		<path class="st0" d="M42.2,138.5l3.1,1.6l-1.1,2.2l-8.9-4.6l1.1-2.2l3.1,1.6l4.8-9.2l2.6,1.4L42.2,138.5z"/>
		<path class="st0" d="M29,126.8c-0.7,0.8-1.8,0.9-2.5,0.2s-0.8-1.8-0.1-2.5c0.7-0.8,1.8-0.8,2.5-0.2S29.7,126.1,29,126.8z
			 M33.3,122.1c-0.7,0.8-1.8,0.9-2.5,0.2s-0.8-1.8-0.1-2.5c0.7-0.8,1.8-0.8,2.5-0.2S34,121.3,33.3,122.1z"/>
		<path class="st0" d="M20.1,115.3c-3.6,2.3-7.2,1.3-9.1-1.6c-1-1.6-1-3.1-0.8-4.3l2.4,0.3c-0.1,0.9-0.2,1.7,0.4,2.6
			c1.1,1.7,3.1,2,5.3,0.6c2.2-1.4,2.9-3.3,1.6-5.3c-0.3-0.4-0.7-0.8-1.1-1l-1.9,1.2l1.2,1.8l-2,1.3l-2.5-4l5-3.2
			c1.2,0.3,2.6,1.2,3.6,2.7C24.1,109.4,23.7,113,20.1,115.3z"/>
		<path class="st0" d="M12.1,102.2c-4,1.4-7-0.1-8.2-3.3c-1.1-3.3,0.4-6.3,4.3-7.7c4-1.4,7.1,0,8.3,3.3S16,100.8,12.1,102.2z
			 M9.2,93.9c-2.4,0.8-3.5,2.4-2.9,4.1c0.6,1.7,2.4,2.2,4.8,1.3c2.4-0.9,3.6-2.4,3-4.1C13.5,93.6,11.6,93.1,9.2,93.9z"/>
		<path class="st0" d="M7.2,86.6C3,87,0.4,84.8,0.1,81.4c-0.3-3.5,1.9-6.1,6-6.5c4.2-0.4,6.9,1.7,7.3,5.2
			C13.7,83.6,11.4,86.2,7.2,86.6z M6.4,77.9c-2.6,0.2-4,1.5-3.8,3.2s1.8,2.7,4.4,2.5c2.6-0.2,4.1-1.5,3.9-3.3S9,77.7,6.4,77.9z"/>
		<path class="st0" d="M0,68.9l0.5-3.6c0.5-3.9,2.8-6.1,7.2-5.5s6.1,3.4,5.6,7.1l-0.5,3.8L0,68.9z M10.9,66.9
			c0.3-2.2-0.6-3.8-3.6-4.2c-3.1-0.4-4.2,0.9-4.5,3.1l-0.1,0.5l8.1,1.1L10.9,66.9z"/>
		<path class="st0" d="M5.4,46.2l3.4-7.4l2.2,1l-2.2,4.7l2.7,1.3l1.9-4l2.2,1l-1.9,4l4.5,2.1L17,51.6L5.4,46.2z"/>
		<path class="st0" d="M16.6,37.9c-3.4-2.5-3.8-5.9-1.7-8.7s5.5-3.2,8.8-0.7c3.4,2.5,3.9,6,1.8,8.7S20,40.5,16.6,37.9z M21.9,31
			c-2-1.6-3.9-1.6-5-0.2c-1.1,1.4-0.5,3.2,1.5,4.8c2.1,1.6,4,1.7,5.1,0.3S23.9,32.5,21.9,31z"/>
		<path class="st0" d="M26.9,25.3c-2.7-3.3-2.3-6.6,0.4-8.8c2.7-2.2,6.1-1.8,8.7,1.4c2.7,3.3,2.4,6.7-0.3,8.9
			C33,29,29.5,28.5,26.9,25.3z M33.7,19.8c-1.6-2-3.5-2.5-4.8-1.4c-1.4,1.1-1.3,3,0.4,5c1.6,2,3.5,2.6,4.9,1.5
			C35.5,23.8,35.3,21.8,33.7,19.8z"/>
		<path class="st0" d="M37.7,9.4L41,7.9c3.5-1.7,6.7-1,8.6,2.9c1.9,4,0.5,7-2.9,8.6L43.3,21L37.7,9.4z M45.4,17.4
			c2-1,2.8-2.6,1.5-5.3c-1.3-2.8-3.1-3-5-2l-0.5,0.2l3.6,7.4L45.4,17.4z"/>
		<path class="st0" d="M59.5,1.4l8-1.2l0.4,2.4l-5.2,0.8l0.4,3l4.4-0.7L68,8.1l-4.4,0.7l0.7,4.9l-2.9,0.4L59.5,1.4z"/>
		<path class="st0" d="M75.2,0l3.5,0.1l3.6,13L79.2,13L78.5,10l-3.9-0.1l-0.9,3l-3-0.1L75.2,0z M75.2,7.6L78,7.7l-0.3-1.2
			c-0.3-1.3-0.6-2.8-0.9-4.2l-0.1,0c-0.4,1.4-0.8,2.8-1.2,4.1L75.2,7.6z"/>
		<path class="st0" d="M84.6,11.9l2.1-1.5c0.7,1,1.7,1.8,2.8,2.1c1.2,0.3,1.9,0,2-0.8c0.2-0.8-0.5-1.2-1.4-1.9l-1.5-1.1
			c-1.2-0.8-2.1-2.2-1.7-4c0.5-2.1,2.8-3.3,5.4-2.6c1.4,0.4,2.8,1.3,3.6,2.6L94,6.1c-0.7-0.8-1.3-1.4-2.3-1.6c-1-0.2-1.7,0-1.9,0.7
			c-0.2,0.8,0.6,1.2,1.5,1.9l1.5,1c1.4,1,2.1,2.2,1.6,4c-0.5,2.1-2.7,3.5-5.7,2.7C87.1,14.5,85.5,13.4,84.6,11.9z"/>
		<path class="st0" d="M103.2,8.5L100,7l1-2.2l9.1,4.2l-1,2.2l-3.2-1.5l-4.4,9.5L98.8,18L103.2,8.5z"/>
		<path class="st0" d="M112.8,24.6c0.7-0.8,1.7-0.9,2.5-0.3c0.8,0.6,0.9,1.7,0.2,2.5c-0.7,0.8-1.7,0.9-2.5,0.3
			S112.2,25.4,112.8,24.6z M116.9,19.6c0.7-0.8,1.7-0.9,2.5-0.3s0.9,1.7,0.2,2.5c-0.7,0.8-1.7,0.9-2.5,0.3S116.3,20.4,116.9,19.6z"
			/>
	</g>
</g>
</svg>
